%TF.GenerationSoftware,KiCad,Pcbnew,8.0.3-8.0.3-0~ubuntu22.04.1*%
%TF.CreationDate,2024-07-27T12:22:20+09:00*%
%TF.ProjectId,IMUModule_STM32,494d554d-6f64-4756-9c65-5f53544d3332,rev?*%
%TF.SameCoordinates,Original*%
%TF.FileFunction,Legend,Bot*%
%TF.FilePolarity,Positive*%
%FSLAX46Y46*%
G04 Gerber Fmt 4.6, Leading zero omitted, Abs format (unit mm)*
G04 Created by KiCad (PCBNEW 8.0.3-8.0.3-0~ubuntu22.04.1) date 2024-07-27 12:22:20*
%MOMM*%
%LPD*%
G01*
G04 APERTURE LIST*
G04 Aperture macros list*
%AMRoundRect*
0 Rectangle with rounded corners*
0 $1 Rounding radius*
0 $2 $3 $4 $5 $6 $7 $8 $9 X,Y pos of 4 corners*
0 Add a 4 corners polygon primitive as box body*
4,1,4,$2,$3,$4,$5,$6,$7,$8,$9,$2,$3,0*
0 Add four circle primitives for the rounded corners*
1,1,$1+$1,$2,$3*
1,1,$1+$1,$4,$5*
1,1,$1+$1,$6,$7*
1,1,$1+$1,$8,$9*
0 Add four rect primitives between the rounded corners*
20,1,$1+$1,$2,$3,$4,$5,0*
20,1,$1+$1,$4,$5,$6,$7,0*
20,1,$1+$1,$6,$7,$8,$9,0*
20,1,$1+$1,$8,$9,$2,$3,0*%
%AMFreePoly0*
4,1,9,3.862500,-0.866500,0.737500,-0.866500,0.737500,-0.450000,-0.737500,-0.450000,-0.737500,0.450000,0.737500,0.450000,0.737500,0.866500,3.862500,0.866500,3.862500,-0.866500,3.862500,-0.866500,$1*%
G04 Aperture macros list end*
%ADD10C,0.150000*%
%ADD11C,0.120000*%
%ADD12RoundRect,0.140000X0.140000X0.170000X-0.140000X0.170000X-0.140000X-0.170000X0.140000X-0.170000X0*%
%ADD13RoundRect,0.087500X0.225000X0.087500X-0.225000X0.087500X-0.225000X-0.087500X0.225000X-0.087500X0*%
%ADD14RoundRect,0.087500X0.087500X0.225000X-0.087500X0.225000X-0.087500X-0.225000X0.087500X-0.225000X0*%
%ADD15RoundRect,0.087500X0.087500X-0.225000X0.087500X0.225000X-0.087500X0.225000X-0.087500X-0.225000X0*%
%ADD16RoundRect,0.087500X0.225000X-0.087500X0.225000X0.087500X-0.225000X0.087500X-0.225000X-0.087500X0*%
%ADD17RoundRect,0.140000X-0.140000X-0.170000X0.140000X-0.170000X0.140000X0.170000X-0.140000X0.170000X0*%
%ADD18RoundRect,0.135000X-0.135000X-0.185000X0.135000X-0.185000X0.135000X0.185000X-0.135000X0.185000X0*%
%ADD19RoundRect,0.087500X-0.225000X-0.087500X0.225000X-0.087500X0.225000X0.087500X-0.225000X0.087500X0*%
%ADD20RoundRect,0.087500X-0.087500X-0.225000X0.087500X-0.225000X0.087500X0.225000X-0.087500X0.225000X0*%
%ADD21RoundRect,0.135000X0.185000X-0.135000X0.185000X0.135000X-0.185000X0.135000X-0.185000X-0.135000X0*%
%ADD22RoundRect,0.087500X-0.087500X0.225000X-0.087500X-0.225000X0.087500X-0.225000X0.087500X0.225000X0*%
%ADD23RoundRect,0.087500X-0.225000X0.087500X-0.225000X-0.087500X0.225000X-0.087500X0.225000X0.087500X0*%
%ADD24R,1.700000X1.700000*%
%ADD25O,1.700000X1.700000*%
%ADD26R,0.900000X1.300000*%
%ADD27FreePoly0,90.000000*%
%ADD28RoundRect,0.140000X-0.170000X0.140000X-0.170000X-0.140000X0.170000X-0.140000X0.170000X0.140000X0*%
%ADD29RoundRect,0.140000X0.170000X-0.140000X0.170000X0.140000X-0.170000X0.140000X-0.170000X-0.140000X0*%
%ADD30RoundRect,0.135000X-0.185000X0.135000X-0.185000X-0.135000X0.185000X-0.135000X0.185000X0.135000X0*%
%ADD31RoundRect,0.225000X-0.250000X0.225000X-0.250000X-0.225000X0.250000X-0.225000X0.250000X0.225000X0*%
%ADD32RoundRect,0.250000X-0.412500X-0.925000X0.412500X-0.925000X0.412500X0.925000X-0.412500X0.925000X0*%
G04 APERTURE END LIST*
D10*
X3337160Y-22021800D02*
X3480017Y-21974180D01*
X3480017Y-21974180D02*
X3718112Y-21974180D01*
X3718112Y-21974180D02*
X3813350Y-22021800D01*
X3813350Y-22021800D02*
X3860969Y-22069419D01*
X3860969Y-22069419D02*
X3908588Y-22164657D01*
X3908588Y-22164657D02*
X3908588Y-22259895D01*
X3908588Y-22259895D02*
X3860969Y-22355133D01*
X3860969Y-22355133D02*
X3813350Y-22402752D01*
X3813350Y-22402752D02*
X3718112Y-22450371D01*
X3718112Y-22450371D02*
X3527636Y-22497990D01*
X3527636Y-22497990D02*
X3432398Y-22545609D01*
X3432398Y-22545609D02*
X3384779Y-22593228D01*
X3384779Y-22593228D02*
X3337160Y-22688466D01*
X3337160Y-22688466D02*
X3337160Y-22783704D01*
X3337160Y-22783704D02*
X3384779Y-22878942D01*
X3384779Y-22878942D02*
X3432398Y-22926561D01*
X3432398Y-22926561D02*
X3527636Y-22974180D01*
X3527636Y-22974180D02*
X3765731Y-22974180D01*
X3765731Y-22974180D02*
X3908588Y-22926561D01*
X4241922Y-22974180D02*
X4480017Y-21974180D01*
X4480017Y-21974180D02*
X4670493Y-22688466D01*
X4670493Y-22688466D02*
X4860969Y-21974180D01*
X4860969Y-21974180D02*
X5099065Y-22974180D01*
X6051445Y-22069419D02*
X6003826Y-22021800D01*
X6003826Y-22021800D02*
X5860969Y-21974180D01*
X5860969Y-21974180D02*
X5765731Y-21974180D01*
X5765731Y-21974180D02*
X5622874Y-22021800D01*
X5622874Y-22021800D02*
X5527636Y-22117038D01*
X5527636Y-22117038D02*
X5480017Y-22212276D01*
X5480017Y-22212276D02*
X5432398Y-22402752D01*
X5432398Y-22402752D02*
X5432398Y-22545609D01*
X5432398Y-22545609D02*
X5480017Y-22736085D01*
X5480017Y-22736085D02*
X5527636Y-22831323D01*
X5527636Y-22831323D02*
X5622874Y-22926561D01*
X5622874Y-22926561D02*
X5765731Y-22974180D01*
X5765731Y-22974180D02*
X5860969Y-22974180D01*
X5860969Y-22974180D02*
X6003826Y-22926561D01*
X6003826Y-22926561D02*
X6051445Y-22878942D01*
X6956207Y-21974180D02*
X6480017Y-21974180D01*
X6480017Y-21974180D02*
X6480017Y-22974180D01*
X7289541Y-21974180D02*
X7289541Y-22974180D01*
X7860969Y-21974180D02*
X7432398Y-22545609D01*
X7860969Y-22974180D02*
X7289541Y-22402752D01*
X3337160Y-23545800D02*
X3480017Y-23498180D01*
X3480017Y-23498180D02*
X3718112Y-23498180D01*
X3718112Y-23498180D02*
X3813350Y-23545800D01*
X3813350Y-23545800D02*
X3860969Y-23593419D01*
X3860969Y-23593419D02*
X3908588Y-23688657D01*
X3908588Y-23688657D02*
X3908588Y-23783895D01*
X3908588Y-23783895D02*
X3860969Y-23879133D01*
X3860969Y-23879133D02*
X3813350Y-23926752D01*
X3813350Y-23926752D02*
X3718112Y-23974371D01*
X3718112Y-23974371D02*
X3527636Y-24021990D01*
X3527636Y-24021990D02*
X3432398Y-24069609D01*
X3432398Y-24069609D02*
X3384779Y-24117228D01*
X3384779Y-24117228D02*
X3337160Y-24212466D01*
X3337160Y-24212466D02*
X3337160Y-24307704D01*
X3337160Y-24307704D02*
X3384779Y-24402942D01*
X3384779Y-24402942D02*
X3432398Y-24450561D01*
X3432398Y-24450561D02*
X3527636Y-24498180D01*
X3527636Y-24498180D02*
X3765731Y-24498180D01*
X3765731Y-24498180D02*
X3908588Y-24450561D01*
X4241922Y-24498180D02*
X4480017Y-23498180D01*
X4480017Y-23498180D02*
X4670493Y-24212466D01*
X4670493Y-24212466D02*
X4860969Y-23498180D01*
X4860969Y-23498180D02*
X5099065Y-24498180D01*
X5480017Y-23498180D02*
X5480017Y-24498180D01*
X5480017Y-24498180D02*
X5718112Y-24498180D01*
X5718112Y-24498180D02*
X5860969Y-24450561D01*
X5860969Y-24450561D02*
X5956207Y-24355323D01*
X5956207Y-24355323D02*
X6003826Y-24260085D01*
X6003826Y-24260085D02*
X6051445Y-24069609D01*
X6051445Y-24069609D02*
X6051445Y-23926752D01*
X6051445Y-23926752D02*
X6003826Y-23736276D01*
X6003826Y-23736276D02*
X5956207Y-23641038D01*
X5956207Y-23641038D02*
X5860969Y-23545800D01*
X5860969Y-23545800D02*
X5718112Y-23498180D01*
X5718112Y-23498180D02*
X5480017Y-23498180D01*
X6480017Y-23498180D02*
X6480017Y-24498180D01*
X7146683Y-24498180D02*
X7337159Y-24498180D01*
X7337159Y-24498180D02*
X7432397Y-24450561D01*
X7432397Y-24450561D02*
X7527635Y-24355323D01*
X7527635Y-24355323D02*
X7575254Y-24164847D01*
X7575254Y-24164847D02*
X7575254Y-23831514D01*
X7575254Y-23831514D02*
X7527635Y-23641038D01*
X7527635Y-23641038D02*
X7432397Y-23545800D01*
X7432397Y-23545800D02*
X7337159Y-23498180D01*
X7337159Y-23498180D02*
X7146683Y-23498180D01*
X7146683Y-23498180D02*
X7051445Y-23545800D01*
X7051445Y-23545800D02*
X6956207Y-23641038D01*
X6956207Y-23641038D02*
X6908588Y-23831514D01*
X6908588Y-23831514D02*
X6908588Y-24164847D01*
X6908588Y-24164847D02*
X6956207Y-24355323D01*
X6956207Y-24355323D02*
X7051445Y-24450561D01*
X7051445Y-24450561D02*
X7146683Y-24498180D01*
X3241922Y-27038180D02*
X3575255Y-26038180D01*
X3575255Y-26038180D02*
X3908588Y-27038180D01*
X4813350Y-26133419D02*
X4765731Y-26085800D01*
X4765731Y-26085800D02*
X4622874Y-26038180D01*
X4622874Y-26038180D02*
X4527636Y-26038180D01*
X4527636Y-26038180D02*
X4384779Y-26085800D01*
X4384779Y-26085800D02*
X4289541Y-26181038D01*
X4289541Y-26181038D02*
X4241922Y-26276276D01*
X4241922Y-26276276D02*
X4194303Y-26466752D01*
X4194303Y-26466752D02*
X4194303Y-26609609D01*
X4194303Y-26609609D02*
X4241922Y-26800085D01*
X4241922Y-26800085D02*
X4289541Y-26895323D01*
X4289541Y-26895323D02*
X4384779Y-26990561D01*
X4384779Y-26990561D02*
X4527636Y-27038180D01*
X4527636Y-27038180D02*
X4622874Y-27038180D01*
X4622874Y-27038180D02*
X4765731Y-26990561D01*
X4765731Y-26990561D02*
X4813350Y-26942942D01*
X5241922Y-26038180D02*
X5241922Y-27038180D01*
X5241922Y-27038180D02*
X5622874Y-27038180D01*
X5622874Y-27038180D02*
X5718112Y-26990561D01*
X5718112Y-26990561D02*
X5765731Y-26942942D01*
X5765731Y-26942942D02*
X5813350Y-26847704D01*
X5813350Y-26847704D02*
X5813350Y-26704847D01*
X5813350Y-26704847D02*
X5765731Y-26609609D01*
X5765731Y-26609609D02*
X5718112Y-26561990D01*
X5718112Y-26561990D02*
X5622874Y-26514371D01*
X5622874Y-26514371D02*
X5241922Y-26514371D01*
X6003827Y-25942942D02*
X6765731Y-25942942D01*
X6860970Y-27038180D02*
X7432398Y-27038180D01*
X7146684Y-26038180D02*
X7146684Y-27038180D01*
X7670494Y-27038180D02*
X8337160Y-26038180D01*
X8337160Y-27038180D02*
X7670494Y-26038180D01*
X3241922Y-29578180D02*
X3575255Y-28578180D01*
X3575255Y-28578180D02*
X3908588Y-29578180D01*
X4813350Y-28673419D02*
X4765731Y-28625800D01*
X4765731Y-28625800D02*
X4622874Y-28578180D01*
X4622874Y-28578180D02*
X4527636Y-28578180D01*
X4527636Y-28578180D02*
X4384779Y-28625800D01*
X4384779Y-28625800D02*
X4289541Y-28721038D01*
X4289541Y-28721038D02*
X4241922Y-28816276D01*
X4241922Y-28816276D02*
X4194303Y-29006752D01*
X4194303Y-29006752D02*
X4194303Y-29149609D01*
X4194303Y-29149609D02*
X4241922Y-29340085D01*
X4241922Y-29340085D02*
X4289541Y-29435323D01*
X4289541Y-29435323D02*
X4384779Y-29530561D01*
X4384779Y-29530561D02*
X4527636Y-29578180D01*
X4527636Y-29578180D02*
X4622874Y-29578180D01*
X4622874Y-29578180D02*
X4765731Y-29530561D01*
X4765731Y-29530561D02*
X4813350Y-29482942D01*
X5241922Y-28578180D02*
X5241922Y-29578180D01*
X5241922Y-29578180D02*
X5622874Y-29578180D01*
X5622874Y-29578180D02*
X5718112Y-29530561D01*
X5718112Y-29530561D02*
X5765731Y-29482942D01*
X5765731Y-29482942D02*
X5813350Y-29387704D01*
X5813350Y-29387704D02*
X5813350Y-29244847D01*
X5813350Y-29244847D02*
X5765731Y-29149609D01*
X5765731Y-29149609D02*
X5718112Y-29101990D01*
X5718112Y-29101990D02*
X5622874Y-29054371D01*
X5622874Y-29054371D02*
X5241922Y-29054371D01*
X6003827Y-28482942D02*
X6765731Y-28482942D01*
X7575255Y-28578180D02*
X7241922Y-29054371D01*
X7003827Y-28578180D02*
X7003827Y-29578180D01*
X7003827Y-29578180D02*
X7384779Y-29578180D01*
X7384779Y-29578180D02*
X7480017Y-29530561D01*
X7480017Y-29530561D02*
X7527636Y-29482942D01*
X7527636Y-29482942D02*
X7575255Y-29387704D01*
X7575255Y-29387704D02*
X7575255Y-29244847D01*
X7575255Y-29244847D02*
X7527636Y-29149609D01*
X7527636Y-29149609D02*
X7480017Y-29101990D01*
X7480017Y-29101990D02*
X7384779Y-29054371D01*
X7384779Y-29054371D02*
X7003827Y-29054371D01*
X7908589Y-29578180D02*
X8575255Y-28578180D01*
X8575255Y-29578180D02*
X7908589Y-28578180D01*
X3384779Y-31118180D02*
X3384779Y-32118180D01*
X3384779Y-32118180D02*
X3956207Y-31118180D01*
X3956207Y-31118180D02*
X3956207Y-32118180D01*
X5003826Y-31118180D02*
X4670493Y-31594371D01*
X4432398Y-31118180D02*
X4432398Y-32118180D01*
X4432398Y-32118180D02*
X4813350Y-32118180D01*
X4813350Y-32118180D02*
X4908588Y-32070561D01*
X4908588Y-32070561D02*
X4956207Y-32022942D01*
X4956207Y-32022942D02*
X5003826Y-31927704D01*
X5003826Y-31927704D02*
X5003826Y-31784847D01*
X5003826Y-31784847D02*
X4956207Y-31689609D01*
X4956207Y-31689609D02*
X4908588Y-31641990D01*
X4908588Y-31641990D02*
X4813350Y-31594371D01*
X4813350Y-31594371D02*
X4432398Y-31594371D01*
X5384779Y-31165800D02*
X5527636Y-31118180D01*
X5527636Y-31118180D02*
X5765731Y-31118180D01*
X5765731Y-31118180D02*
X5860969Y-31165800D01*
X5860969Y-31165800D02*
X5908588Y-31213419D01*
X5908588Y-31213419D02*
X5956207Y-31308657D01*
X5956207Y-31308657D02*
X5956207Y-31403895D01*
X5956207Y-31403895D02*
X5908588Y-31499133D01*
X5908588Y-31499133D02*
X5860969Y-31546752D01*
X5860969Y-31546752D02*
X5765731Y-31594371D01*
X5765731Y-31594371D02*
X5575255Y-31641990D01*
X5575255Y-31641990D02*
X5480017Y-31689609D01*
X5480017Y-31689609D02*
X5432398Y-31737228D01*
X5432398Y-31737228D02*
X5384779Y-31832466D01*
X5384779Y-31832466D02*
X5384779Y-31927704D01*
X5384779Y-31927704D02*
X5432398Y-32022942D01*
X5432398Y-32022942D02*
X5480017Y-32070561D01*
X5480017Y-32070561D02*
X5575255Y-32118180D01*
X5575255Y-32118180D02*
X5813350Y-32118180D01*
X5813350Y-32118180D02*
X5956207Y-32070561D01*
X6241922Y-32118180D02*
X6813350Y-32118180D01*
X6527636Y-31118180D02*
X6527636Y-32118180D01*
X18872364Y-23498180D02*
X18872364Y-24498180D01*
X18872364Y-24498180D02*
X19205697Y-23783895D01*
X19205697Y-23783895D02*
X19539030Y-24498180D01*
X19539030Y-24498180D02*
X19539030Y-23498180D01*
X20205697Y-24498180D02*
X20396173Y-24498180D01*
X20396173Y-24498180D02*
X20491411Y-24450561D01*
X20491411Y-24450561D02*
X20586649Y-24355323D01*
X20586649Y-24355323D02*
X20634268Y-24164847D01*
X20634268Y-24164847D02*
X20634268Y-23831514D01*
X20634268Y-23831514D02*
X20586649Y-23641038D01*
X20586649Y-23641038D02*
X20491411Y-23545800D01*
X20491411Y-23545800D02*
X20396173Y-23498180D01*
X20396173Y-23498180D02*
X20205697Y-23498180D01*
X20205697Y-23498180D02*
X20110459Y-23545800D01*
X20110459Y-23545800D02*
X20015221Y-23641038D01*
X20015221Y-23641038D02*
X19967602Y-23831514D01*
X19967602Y-23831514D02*
X19967602Y-24164847D01*
X19967602Y-24164847D02*
X20015221Y-24355323D01*
X20015221Y-24355323D02*
X20110459Y-24450561D01*
X20110459Y-24450561D02*
X20205697Y-24498180D01*
X21015221Y-23545800D02*
X21158078Y-23498180D01*
X21158078Y-23498180D02*
X21396173Y-23498180D01*
X21396173Y-23498180D02*
X21491411Y-23545800D01*
X21491411Y-23545800D02*
X21539030Y-23593419D01*
X21539030Y-23593419D02*
X21586649Y-23688657D01*
X21586649Y-23688657D02*
X21586649Y-23783895D01*
X21586649Y-23783895D02*
X21539030Y-23879133D01*
X21539030Y-23879133D02*
X21491411Y-23926752D01*
X21491411Y-23926752D02*
X21396173Y-23974371D01*
X21396173Y-23974371D02*
X21205697Y-24021990D01*
X21205697Y-24021990D02*
X21110459Y-24069609D01*
X21110459Y-24069609D02*
X21062840Y-24117228D01*
X21062840Y-24117228D02*
X21015221Y-24212466D01*
X21015221Y-24212466D02*
X21015221Y-24307704D01*
X21015221Y-24307704D02*
X21062840Y-24402942D01*
X21062840Y-24402942D02*
X21110459Y-24450561D01*
X21110459Y-24450561D02*
X21205697Y-24498180D01*
X21205697Y-24498180D02*
X21443792Y-24498180D01*
X21443792Y-24498180D02*
X21586649Y-24450561D01*
X22015221Y-23498180D02*
X22015221Y-24498180D01*
X18872364Y-26038180D02*
X18872364Y-27038180D01*
X18872364Y-27038180D02*
X19205697Y-26323895D01*
X19205697Y-26323895D02*
X19539030Y-27038180D01*
X19539030Y-27038180D02*
X19539030Y-26038180D01*
X20015221Y-26038180D02*
X20015221Y-27038180D01*
X20443792Y-26085800D02*
X20586649Y-26038180D01*
X20586649Y-26038180D02*
X20824744Y-26038180D01*
X20824744Y-26038180D02*
X20919982Y-26085800D01*
X20919982Y-26085800D02*
X20967601Y-26133419D01*
X20967601Y-26133419D02*
X21015220Y-26228657D01*
X21015220Y-26228657D02*
X21015220Y-26323895D01*
X21015220Y-26323895D02*
X20967601Y-26419133D01*
X20967601Y-26419133D02*
X20919982Y-26466752D01*
X20919982Y-26466752D02*
X20824744Y-26514371D01*
X20824744Y-26514371D02*
X20634268Y-26561990D01*
X20634268Y-26561990D02*
X20539030Y-26609609D01*
X20539030Y-26609609D02*
X20491411Y-26657228D01*
X20491411Y-26657228D02*
X20443792Y-26752466D01*
X20443792Y-26752466D02*
X20443792Y-26847704D01*
X20443792Y-26847704D02*
X20491411Y-26942942D01*
X20491411Y-26942942D02*
X20539030Y-26990561D01*
X20539030Y-26990561D02*
X20634268Y-27038180D01*
X20634268Y-27038180D02*
X20872363Y-27038180D01*
X20872363Y-27038180D02*
X21015220Y-26990561D01*
X21634268Y-27038180D02*
X21824744Y-27038180D01*
X21824744Y-27038180D02*
X21919982Y-26990561D01*
X21919982Y-26990561D02*
X22015220Y-26895323D01*
X22015220Y-26895323D02*
X22062839Y-26704847D01*
X22062839Y-26704847D02*
X22062839Y-26371514D01*
X22062839Y-26371514D02*
X22015220Y-26181038D01*
X22015220Y-26181038D02*
X21919982Y-26085800D01*
X21919982Y-26085800D02*
X21824744Y-26038180D01*
X21824744Y-26038180D02*
X21634268Y-26038180D01*
X21634268Y-26038180D02*
X21539030Y-26085800D01*
X21539030Y-26085800D02*
X21443792Y-26181038D01*
X21443792Y-26181038D02*
X21396173Y-26371514D01*
X21396173Y-26371514D02*
X21396173Y-26704847D01*
X21396173Y-26704847D02*
X21443792Y-26895323D01*
X21443792Y-26895323D02*
X21539030Y-26990561D01*
X21539030Y-26990561D02*
X21634268Y-27038180D01*
X20253315Y-28673419D02*
X20205696Y-28625800D01*
X20205696Y-28625800D02*
X20062839Y-28578180D01*
X20062839Y-28578180D02*
X19967601Y-28578180D01*
X19967601Y-28578180D02*
X19824744Y-28625800D01*
X19824744Y-28625800D02*
X19729506Y-28721038D01*
X19729506Y-28721038D02*
X19681887Y-28816276D01*
X19681887Y-28816276D02*
X19634268Y-29006752D01*
X19634268Y-29006752D02*
X19634268Y-29149609D01*
X19634268Y-29149609D02*
X19681887Y-29340085D01*
X19681887Y-29340085D02*
X19729506Y-29435323D01*
X19729506Y-29435323D02*
X19824744Y-29530561D01*
X19824744Y-29530561D02*
X19967601Y-29578180D01*
X19967601Y-29578180D02*
X20062839Y-29578180D01*
X20062839Y-29578180D02*
X20205696Y-29530561D01*
X20205696Y-29530561D02*
X20253315Y-29482942D01*
X21158077Y-28578180D02*
X20681887Y-28578180D01*
X20681887Y-28578180D02*
X20681887Y-29578180D01*
X21491411Y-28578180D02*
X21491411Y-29578180D01*
X22062839Y-28578180D02*
X21634268Y-29149609D01*
X22062839Y-29578180D02*
X21491411Y-29006752D01*
X21110458Y-31213419D02*
X21062839Y-31165800D01*
X21062839Y-31165800D02*
X20919982Y-31118180D01*
X20919982Y-31118180D02*
X20824744Y-31118180D01*
X20824744Y-31118180D02*
X20681887Y-31165800D01*
X20681887Y-31165800D02*
X20586649Y-31261038D01*
X20586649Y-31261038D02*
X20539030Y-31356276D01*
X20539030Y-31356276D02*
X20491411Y-31546752D01*
X20491411Y-31546752D02*
X20491411Y-31689609D01*
X20491411Y-31689609D02*
X20539030Y-31880085D01*
X20539030Y-31880085D02*
X20586649Y-31975323D01*
X20586649Y-31975323D02*
X20681887Y-32070561D01*
X20681887Y-32070561D02*
X20824744Y-32118180D01*
X20824744Y-32118180D02*
X20919982Y-32118180D01*
X20919982Y-32118180D02*
X21062839Y-32070561D01*
X21062839Y-32070561D02*
X21110458Y-32022942D01*
X21491411Y-31165800D02*
X21634268Y-31118180D01*
X21634268Y-31118180D02*
X21872363Y-31118180D01*
X21872363Y-31118180D02*
X21967601Y-31165800D01*
X21967601Y-31165800D02*
X22015220Y-31213419D01*
X22015220Y-31213419D02*
X22062839Y-31308657D01*
X22062839Y-31308657D02*
X22062839Y-31403895D01*
X22062839Y-31403895D02*
X22015220Y-31499133D01*
X22015220Y-31499133D02*
X21967601Y-31546752D01*
X21967601Y-31546752D02*
X21872363Y-31594371D01*
X21872363Y-31594371D02*
X21681887Y-31641990D01*
X21681887Y-31641990D02*
X21586649Y-31689609D01*
X21586649Y-31689609D02*
X21539030Y-31737228D01*
X21539030Y-31737228D02*
X21491411Y-31832466D01*
X21491411Y-31832466D02*
X21491411Y-31927704D01*
X21491411Y-31927704D02*
X21539030Y-32022942D01*
X21539030Y-32022942D02*
X21586649Y-32070561D01*
X21586649Y-32070561D02*
X21681887Y-32118180D01*
X21681887Y-32118180D02*
X21919982Y-32118180D01*
X21919982Y-32118180D02*
X22062839Y-32070561D01*
X3908588Y-39690561D02*
X3813350Y-39738180D01*
X3813350Y-39738180D02*
X3670493Y-39738180D01*
X3670493Y-39738180D02*
X3527636Y-39690561D01*
X3527636Y-39690561D02*
X3432398Y-39595323D01*
X3432398Y-39595323D02*
X3384779Y-39500085D01*
X3384779Y-39500085D02*
X3337160Y-39309609D01*
X3337160Y-39309609D02*
X3337160Y-39166752D01*
X3337160Y-39166752D02*
X3384779Y-38976276D01*
X3384779Y-38976276D02*
X3432398Y-38881038D01*
X3432398Y-38881038D02*
X3527636Y-38785800D01*
X3527636Y-38785800D02*
X3670493Y-38738180D01*
X3670493Y-38738180D02*
X3765731Y-38738180D01*
X3765731Y-38738180D02*
X3908588Y-38785800D01*
X3908588Y-38785800D02*
X3956207Y-38833419D01*
X3956207Y-38833419D02*
X3956207Y-39166752D01*
X3956207Y-39166752D02*
X3765731Y-39166752D01*
X4384779Y-38738180D02*
X4384779Y-39738180D01*
X4384779Y-39738180D02*
X4956207Y-38738180D01*
X4956207Y-38738180D02*
X4956207Y-39738180D01*
X5432398Y-38738180D02*
X5432398Y-39738180D01*
X5432398Y-39738180D02*
X5670493Y-39738180D01*
X5670493Y-39738180D02*
X5813350Y-39690561D01*
X5813350Y-39690561D02*
X5908588Y-39595323D01*
X5908588Y-39595323D02*
X5956207Y-39500085D01*
X5956207Y-39500085D02*
X6003826Y-39309609D01*
X6003826Y-39309609D02*
X6003826Y-39166752D01*
X6003826Y-39166752D02*
X5956207Y-38976276D01*
X5956207Y-38976276D02*
X5908588Y-38881038D01*
X5908588Y-38881038D02*
X5813350Y-38785800D01*
X5813350Y-38785800D02*
X5670493Y-38738180D01*
X5670493Y-38738180D02*
X5432398Y-38738180D01*
X19967601Y-39690561D02*
X19872363Y-39738180D01*
X19872363Y-39738180D02*
X19729506Y-39738180D01*
X19729506Y-39738180D02*
X19586649Y-39690561D01*
X19586649Y-39690561D02*
X19491411Y-39595323D01*
X19491411Y-39595323D02*
X19443792Y-39500085D01*
X19443792Y-39500085D02*
X19396173Y-39309609D01*
X19396173Y-39309609D02*
X19396173Y-39166752D01*
X19396173Y-39166752D02*
X19443792Y-38976276D01*
X19443792Y-38976276D02*
X19491411Y-38881038D01*
X19491411Y-38881038D02*
X19586649Y-38785800D01*
X19586649Y-38785800D02*
X19729506Y-38738180D01*
X19729506Y-38738180D02*
X19824744Y-38738180D01*
X19824744Y-38738180D02*
X19967601Y-38785800D01*
X19967601Y-38785800D02*
X20015220Y-38833419D01*
X20015220Y-38833419D02*
X20015220Y-39166752D01*
X20015220Y-39166752D02*
X19824744Y-39166752D01*
X20443792Y-38738180D02*
X20443792Y-39738180D01*
X20443792Y-39738180D02*
X21015220Y-38738180D01*
X21015220Y-38738180D02*
X21015220Y-39738180D01*
X21491411Y-38738180D02*
X21491411Y-39738180D01*
X21491411Y-39738180D02*
X21729506Y-39738180D01*
X21729506Y-39738180D02*
X21872363Y-39690561D01*
X21872363Y-39690561D02*
X21967601Y-39595323D01*
X21967601Y-39595323D02*
X22015220Y-39500085D01*
X22015220Y-39500085D02*
X22062839Y-39309609D01*
X22062839Y-39309609D02*
X22062839Y-39166752D01*
X22062839Y-39166752D02*
X22015220Y-38976276D01*
X22015220Y-38976276D02*
X21967601Y-38881038D01*
X21967601Y-38881038D02*
X21872363Y-38785800D01*
X21872363Y-38785800D02*
X21729506Y-38738180D01*
X21729506Y-38738180D02*
X21491411Y-38738180D01*
X19967602Y-37198180D02*
X20300935Y-36198180D01*
X20300935Y-36198180D02*
X20634268Y-37198180D01*
X20967602Y-36198180D02*
X20967602Y-37198180D01*
X21443792Y-36198180D02*
X21443792Y-37198180D01*
X21443792Y-37198180D02*
X22015220Y-36198180D01*
X22015220Y-36198180D02*
X22015220Y-37198180D01*
X19158078Y-34658180D02*
X19777125Y-34658180D01*
X19777125Y-34658180D02*
X19443792Y-34277228D01*
X19443792Y-34277228D02*
X19586649Y-34277228D01*
X19586649Y-34277228D02*
X19681887Y-34229609D01*
X19681887Y-34229609D02*
X19729506Y-34181990D01*
X19729506Y-34181990D02*
X19777125Y-34086752D01*
X19777125Y-34086752D02*
X19777125Y-33848657D01*
X19777125Y-33848657D02*
X19729506Y-33753419D01*
X19729506Y-33753419D02*
X19681887Y-33705800D01*
X19681887Y-33705800D02*
X19586649Y-33658180D01*
X19586649Y-33658180D02*
X19300935Y-33658180D01*
X19300935Y-33658180D02*
X19205697Y-33705800D01*
X19205697Y-33705800D02*
X19158078Y-33753419D01*
X20205697Y-33753419D02*
X20253316Y-33705800D01*
X20253316Y-33705800D02*
X20205697Y-33658180D01*
X20205697Y-33658180D02*
X20158078Y-33705800D01*
X20158078Y-33705800D02*
X20205697Y-33753419D01*
X20205697Y-33753419D02*
X20205697Y-33658180D01*
X20586649Y-34658180D02*
X21205696Y-34658180D01*
X21205696Y-34658180D02*
X20872363Y-34277228D01*
X20872363Y-34277228D02*
X21015220Y-34277228D01*
X21015220Y-34277228D02*
X21110458Y-34229609D01*
X21110458Y-34229609D02*
X21158077Y-34181990D01*
X21158077Y-34181990D02*
X21205696Y-34086752D01*
X21205696Y-34086752D02*
X21205696Y-33848657D01*
X21205696Y-33848657D02*
X21158077Y-33753419D01*
X21158077Y-33753419D02*
X21110458Y-33705800D01*
X21110458Y-33705800D02*
X21015220Y-33658180D01*
X21015220Y-33658180D02*
X20729506Y-33658180D01*
X20729506Y-33658180D02*
X20634268Y-33705800D01*
X20634268Y-33705800D02*
X20586649Y-33753419D01*
X21491411Y-34658180D02*
X21824744Y-33658180D01*
X21824744Y-33658180D02*
X22158077Y-34658180D01*
D11*
%TO.C,C36*%
X18688164Y-10562000D02*
X18903836Y-10562000D01*
X18688164Y-11282000D02*
X18903836Y-11282000D01*
%TO.C,U21*%
X17948000Y-13372000D02*
X18623000Y-13372000D01*
X17948000Y-13547000D02*
X17948000Y-13372000D01*
X17948000Y-15917000D02*
X17948000Y-16092000D01*
X17948000Y-16092000D02*
X18623000Y-16092000D01*
X20868000Y-13372000D02*
X20493000Y-13372000D01*
X21168000Y-15917000D02*
X21168000Y-16092000D01*
X21168000Y-16092000D02*
X20493000Y-16092000D01*
X21168000Y-13372000D02*
X21028000Y-13182000D01*
X21308000Y-13182000D01*
X21168000Y-13372000D01*
G36*
X21168000Y-13372000D02*
G01*
X21028000Y-13182000D01*
X21308000Y-13182000D01*
X21168000Y-13372000D01*
G37*
%TO.C,C44*%
X8528164Y-1418000D02*
X8743836Y-1418000D01*
X8528164Y-2138000D02*
X8743836Y-2138000D01*
%TO.C,U25*%
X7788000Y-13372000D02*
X8463000Y-13372000D01*
X7788000Y-13547000D02*
X7788000Y-13372000D01*
X7788000Y-15917000D02*
X7788000Y-16092000D01*
X7788000Y-16092000D02*
X8463000Y-16092000D01*
X10708000Y-13372000D02*
X10333000Y-13372000D01*
X11008000Y-15917000D02*
X11008000Y-16092000D01*
X11008000Y-16092000D02*
X10333000Y-16092000D01*
X11008000Y-13372000D02*
X10868000Y-13182000D01*
X11148000Y-13182000D01*
X11008000Y-13372000D01*
G36*
X11008000Y-13372000D02*
G01*
X10868000Y-13182000D01*
X11148000Y-13182000D01*
X11008000Y-13372000D01*
G37*
%TO.C,C35*%
X18688164Y-1418000D02*
X18903836Y-1418000D01*
X18688164Y-2138000D02*
X18903836Y-2138000D01*
%TO.C,U28*%
X8038000Y-16678000D02*
X8038000Y-17353000D01*
X8038000Y-19898000D02*
X8038000Y-19223000D01*
X8213000Y-16678000D02*
X8038000Y-16678000D01*
X8213000Y-19898000D02*
X8038000Y-19898000D01*
X10583000Y-16678000D02*
X10758000Y-16678000D01*
X10758000Y-16678000D02*
X10758000Y-17353000D01*
X10758000Y-19598000D02*
X10758000Y-19223000D01*
X10948000Y-20038000D02*
X10758000Y-19898000D01*
X10948000Y-19758000D01*
X10948000Y-20038000D01*
G36*
X10948000Y-20038000D02*
G01*
X10758000Y-19898000D01*
X10948000Y-19758000D01*
X10948000Y-20038000D01*
G37*
%TO.C,C43*%
X8528164Y-10562000D02*
X8743836Y-10562000D01*
X8528164Y-11282000D02*
X8743836Y-11282000D01*
%TO.C,C47*%
X6711836Y-20722000D02*
X6496164Y-20722000D01*
X6711836Y-21442000D02*
X6496164Y-21442000D01*
%TO.C,U29*%
X7788000Y-3212000D02*
X8463000Y-3212000D01*
X7788000Y-3387000D02*
X7788000Y-3212000D01*
X7788000Y-5757000D02*
X7788000Y-5932000D01*
X7788000Y-5932000D02*
X8463000Y-5932000D01*
X10708000Y-3212000D02*
X10333000Y-3212000D01*
X11008000Y-5757000D02*
X11008000Y-5932000D01*
X11008000Y-5932000D02*
X10333000Y-5932000D01*
X11008000Y-3212000D02*
X10868000Y-3022000D01*
X11148000Y-3022000D01*
X11008000Y-3212000D01*
G36*
X11008000Y-3212000D02*
G01*
X10868000Y-3022000D01*
X11148000Y-3022000D01*
X11008000Y-3212000D01*
G37*
%TO.C,R1*%
X5894041Y-33605200D02*
X5586759Y-33605200D01*
X5894041Y-34365200D02*
X5586759Y-34365200D01*
%TO.C,C39*%
X16871836Y-20722000D02*
X16656164Y-20722000D01*
X16871836Y-21442000D02*
X16656164Y-21442000D01*
%TO.C,U19*%
X14392000Y-6768000D02*
X15067000Y-6768000D01*
X14392000Y-6943000D02*
X14392000Y-6768000D01*
X14692000Y-9488000D02*
X15067000Y-9488000D01*
X17612000Y-6768000D02*
X16937000Y-6768000D01*
X17612000Y-6943000D02*
X17612000Y-6768000D01*
X17612000Y-9313000D02*
X17612000Y-9488000D01*
X17612000Y-9488000D02*
X16937000Y-9488000D01*
X14532000Y-9678000D02*
X14252000Y-9678000D01*
X14392000Y-9488000D01*
X14532000Y-9678000D01*
G36*
X14532000Y-9678000D02*
G01*
X14252000Y-9678000D01*
X14392000Y-9488000D01*
X14532000Y-9678000D01*
G37*
%TO.C,C37*%
X18688164Y-20722000D02*
X18903836Y-20722000D01*
X18688164Y-21442000D02*
X18903836Y-21442000D01*
%TO.C,R10*%
X21845000Y-42772359D02*
X21845000Y-43079641D01*
X22605000Y-42772359D02*
X22605000Y-43079641D01*
%TO.C,U30*%
X4482000Y-3262000D02*
X4482000Y-3637000D01*
X4482000Y-6182000D02*
X4482000Y-5507000D01*
X4657000Y-6182000D02*
X4482000Y-6182000D01*
X7027000Y-2962000D02*
X7202000Y-2962000D01*
X7027000Y-6182000D02*
X7202000Y-6182000D01*
X7202000Y-2962000D02*
X7202000Y-3637000D01*
X7202000Y-6182000D02*
X7202000Y-5507000D01*
X4482000Y-2962000D02*
X4292000Y-3102000D01*
X4292000Y-2822000D01*
X4482000Y-2962000D01*
G36*
X4482000Y-2962000D02*
G01*
X4292000Y-3102000D01*
X4292000Y-2822000D01*
X4482000Y-2962000D01*
G37*
%TO.C,C46*%
X8528164Y-11578000D02*
X8743836Y-11578000D01*
X8528164Y-12298000D02*
X8743836Y-12298000D01*
%TO.C,J3*%
X-60000Y-2480000D02*
X-60000Y-38100000D01*
X-60000Y-40700000D02*
X-60000Y-39370000D01*
X1270000Y-40700000D02*
X-60000Y-40700000D01*
X2600000Y-2480000D02*
X-60000Y-2480000D01*
X2600000Y-2480000D02*
X2600000Y-38100000D01*
X2600000Y-38100000D02*
X-60000Y-38100000D01*
%TO.C,U22*%
X14642000Y-13422000D02*
X14642000Y-13797000D01*
X14642000Y-16342000D02*
X14642000Y-15667000D01*
X14817000Y-16342000D02*
X14642000Y-16342000D01*
X17187000Y-13122000D02*
X17362000Y-13122000D01*
X17187000Y-16342000D02*
X17362000Y-16342000D01*
X17362000Y-13122000D02*
X17362000Y-13797000D01*
X17362000Y-16342000D02*
X17362000Y-15667000D01*
X14642000Y-13122000D02*
X14452000Y-13262000D01*
X14452000Y-12982000D01*
X14642000Y-13122000D01*
G36*
X14642000Y-13122000D02*
G01*
X14452000Y-13262000D01*
X14452000Y-12982000D01*
X14642000Y-13122000D01*
G37*
%TO.C,U27*%
X4232000Y-16928000D02*
X4907000Y-16928000D01*
X4232000Y-17103000D02*
X4232000Y-16928000D01*
X4532000Y-19648000D02*
X4907000Y-19648000D01*
X7452000Y-16928000D02*
X6777000Y-16928000D01*
X7452000Y-17103000D02*
X7452000Y-16928000D01*
X7452000Y-19473000D02*
X7452000Y-19648000D01*
X7452000Y-19648000D02*
X6777000Y-19648000D01*
X4372000Y-19838000D02*
X4092000Y-19838000D01*
X4232000Y-19648000D01*
X4372000Y-19838000D01*
G36*
X4372000Y-19838000D02*
G01*
X4092000Y-19838000D01*
X4232000Y-19648000D01*
X4372000Y-19838000D01*
G37*
%TO.C,U34*%
X15572400Y-42536000D02*
X16882400Y-42536000D01*
X15572400Y-45256000D02*
X15572400Y-42536000D01*
X15802400Y-45256000D02*
X15572400Y-45256000D01*
X18982400Y-42536000D02*
X20292400Y-42536000D01*
X20062400Y-45256000D02*
X20062400Y-46396000D01*
X20062400Y-45256000D02*
X20292400Y-45256000D01*
X20292400Y-42536000D02*
X20292400Y-45256000D01*
%TO.C,C40*%
X16871836Y-11578000D02*
X16656164Y-11578000D01*
X16871836Y-12298000D02*
X16656164Y-12298000D01*
%TO.C,U31*%
X4232000Y-6768000D02*
X4907000Y-6768000D01*
X4232000Y-6943000D02*
X4232000Y-6768000D01*
X4532000Y-9488000D02*
X4907000Y-9488000D01*
X7452000Y-6768000D02*
X6777000Y-6768000D01*
X7452000Y-6943000D02*
X7452000Y-6768000D01*
X7452000Y-9313000D02*
X7452000Y-9488000D01*
X7452000Y-9488000D02*
X6777000Y-9488000D01*
X4372000Y-9678000D02*
X4092000Y-9678000D01*
X4232000Y-9488000D01*
X4372000Y-9678000D01*
G36*
X4372000Y-9678000D02*
G01*
X4092000Y-9678000D01*
X4232000Y-9488000D01*
X4372000Y-9678000D01*
G37*
%TO.C,U24*%
X18198000Y-16678000D02*
X18198000Y-17353000D01*
X18198000Y-19898000D02*
X18198000Y-19223000D01*
X18373000Y-16678000D02*
X18198000Y-16678000D01*
X18373000Y-19898000D02*
X18198000Y-19898000D01*
X20743000Y-16678000D02*
X20918000Y-16678000D01*
X20918000Y-16678000D02*
X20918000Y-17353000D01*
X20918000Y-19598000D02*
X20918000Y-19223000D01*
X21108000Y-20038000D02*
X20918000Y-19898000D01*
X21108000Y-19758000D01*
X21108000Y-20038000D01*
G36*
X21108000Y-20038000D02*
G01*
X20918000Y-19898000D01*
X21108000Y-19758000D01*
X21108000Y-20038000D01*
G37*
%TO.C,C7*%
X8784000Y-35159836D02*
X8784000Y-34944164D01*
X9504000Y-35159836D02*
X9504000Y-34944164D01*
%TO.C,C41*%
X6711836Y-1418000D02*
X6496164Y-1418000D01*
X6711836Y-2138000D02*
X6496164Y-2138000D01*
%TO.C,C45*%
X8556164Y-20722000D02*
X8771836Y-20722000D01*
X8556164Y-21442000D02*
X8771836Y-21442000D01*
%TO.C,C8*%
X16302400Y-30090164D02*
X16302400Y-30305836D01*
X17022400Y-30090164D02*
X17022400Y-30305836D01*
%TO.C,C34*%
X16871836Y-10562000D02*
X16656164Y-10562000D01*
X16871836Y-11282000D02*
X16656164Y-11282000D01*
%TO.C,C33*%
X16871836Y-1418000D02*
X16656164Y-1418000D01*
X16871836Y-2138000D02*
X16656164Y-2138000D01*
%TO.C,C17*%
X18627036Y-47036400D02*
X18411364Y-47036400D01*
X18627036Y-47756400D02*
X18411364Y-47756400D01*
%TO.C,C38*%
X18688164Y-11578000D02*
X18903836Y-11578000D01*
X18688164Y-12298000D02*
X18903836Y-12298000D01*
%TO.C,U17*%
X17948000Y-3212000D02*
X18623000Y-3212000D01*
X17948000Y-3387000D02*
X17948000Y-3212000D01*
X17948000Y-5757000D02*
X17948000Y-5932000D01*
X17948000Y-5932000D02*
X18623000Y-5932000D01*
X20868000Y-3212000D02*
X20493000Y-3212000D01*
X21168000Y-5757000D02*
X21168000Y-5932000D01*
X21168000Y-5932000D02*
X20493000Y-5932000D01*
X21168000Y-3212000D02*
X21028000Y-3022000D01*
X21308000Y-3022000D01*
X21168000Y-3212000D01*
G36*
X21168000Y-3212000D02*
G01*
X21028000Y-3022000D01*
X21308000Y-3022000D01*
X21168000Y-3212000D01*
G37*
%TO.C,J4*%
X22800000Y-2480000D02*
X22800000Y-38100000D01*
X22800000Y-40700000D02*
X22800000Y-39370000D01*
X24130000Y-40700000D02*
X22800000Y-40700000D01*
X25460000Y-2480000D02*
X22800000Y-2480000D01*
X25460000Y-2480000D02*
X25460000Y-38100000D01*
X25460000Y-38100000D02*
X22800000Y-38100000D01*
%TO.C,U26*%
X4482000Y-13422000D02*
X4482000Y-13797000D01*
X4482000Y-16342000D02*
X4482000Y-15667000D01*
X4657000Y-16342000D02*
X4482000Y-16342000D01*
X7027000Y-13122000D02*
X7202000Y-13122000D01*
X7027000Y-16342000D02*
X7202000Y-16342000D01*
X7202000Y-13122000D02*
X7202000Y-13797000D01*
X7202000Y-16342000D02*
X7202000Y-15667000D01*
X4482000Y-13122000D02*
X4292000Y-13262000D01*
X4292000Y-12982000D01*
X4482000Y-13122000D01*
G36*
X4482000Y-13122000D02*
G01*
X4292000Y-13262000D01*
X4292000Y-12982000D01*
X4482000Y-13122000D01*
G37*
%TO.C,C42*%
X6711836Y-10562000D02*
X6496164Y-10562000D01*
X6711836Y-11282000D02*
X6496164Y-11282000D01*
%TO.C,R9*%
X23750000Y-43079641D02*
X23750000Y-42772359D01*
X24510000Y-43079641D02*
X24510000Y-42772359D01*
%TO.C,U20*%
X18198000Y-6518000D02*
X18198000Y-7193000D01*
X18198000Y-9738000D02*
X18198000Y-9063000D01*
X18373000Y-6518000D02*
X18198000Y-6518000D01*
X18373000Y-9738000D02*
X18198000Y-9738000D01*
X20743000Y-6518000D02*
X20918000Y-6518000D01*
X20918000Y-6518000D02*
X20918000Y-7193000D01*
X20918000Y-9438000D02*
X20918000Y-9063000D01*
X21108000Y-9878000D02*
X20918000Y-9738000D01*
X21108000Y-9598000D01*
X21108000Y-9878000D01*
G36*
X21108000Y-9878000D02*
G01*
X20918000Y-9738000D01*
X21108000Y-9598000D01*
X21108000Y-9878000D01*
G37*
%TO.C,C48*%
X6711836Y-11578000D02*
X6496164Y-11578000D01*
X6711836Y-12298000D02*
X6496164Y-12298000D01*
%TO.C,U23*%
X14392000Y-16917000D02*
X15067000Y-16917000D01*
X14392000Y-17092000D02*
X14392000Y-16917000D01*
X14692000Y-19637000D02*
X15067000Y-19637000D01*
X17612000Y-16917000D02*
X16937000Y-16917000D01*
X17612000Y-17092000D02*
X17612000Y-16917000D01*
X17612000Y-19462000D02*
X17612000Y-19637000D01*
X17612000Y-19637000D02*
X16937000Y-19637000D01*
X14532000Y-19827000D02*
X14252000Y-19827000D01*
X14392000Y-19637000D01*
X14532000Y-19827000D01*
G36*
X14532000Y-19827000D02*
G01*
X14252000Y-19827000D01*
X14392000Y-19637000D01*
X14532000Y-19827000D01*
G37*
%TO.C,C16*%
X15288800Y-49010180D02*
X15288800Y-48729020D01*
X16308800Y-49010180D02*
X16308800Y-48729020D01*
%TO.C,U32*%
X8038000Y-6518000D02*
X8038000Y-7193000D01*
X8038000Y-9738000D02*
X8038000Y-9063000D01*
X8213000Y-6518000D02*
X8038000Y-6518000D01*
X8213000Y-9738000D02*
X8038000Y-9738000D01*
X10583000Y-6518000D02*
X10758000Y-6518000D01*
X10758000Y-6518000D02*
X10758000Y-7193000D01*
X10758000Y-9438000D02*
X10758000Y-9063000D01*
X10948000Y-9878000D02*
X10758000Y-9738000D01*
X10948000Y-9598000D01*
X10948000Y-9878000D01*
G36*
X10948000Y-9878000D02*
G01*
X10758000Y-9738000D01*
X10948000Y-9598000D01*
X10948000Y-9878000D01*
G37*
%TO.C,C32*%
X17047200Y-48375600D02*
X17047200Y-51395600D01*
X17047200Y-51395600D02*
X21257200Y-51395600D01*
X21257200Y-48375600D02*
X17047200Y-48375600D01*
%TO.C,U18*%
X14642000Y-3262000D02*
X14642000Y-3637000D01*
X14642000Y-6182000D02*
X14642000Y-5507000D01*
X14817000Y-6182000D02*
X14642000Y-6182000D01*
X17187000Y-2962000D02*
X17362000Y-2962000D01*
X17187000Y-6182000D02*
X17362000Y-6182000D01*
X17362000Y-2962000D02*
X17362000Y-3637000D01*
X17362000Y-6182000D02*
X17362000Y-5507000D01*
X14642000Y-2962000D02*
X14452000Y-3102000D01*
X14452000Y-2822000D01*
X14642000Y-2962000D01*
G36*
X14642000Y-2962000D02*
G01*
X14452000Y-3102000D01*
X14452000Y-2822000D01*
X14642000Y-2962000D01*
G37*
%TD*%
%LPC*%
D12*
%TO.C,C36*%
X19276000Y-10922000D03*
X18316000Y-10922000D03*
%TD*%
D13*
%TO.C,U21*%
X20720500Y-13982000D03*
X20720500Y-14482000D03*
X20720500Y-14982000D03*
X20720500Y-15482000D03*
D14*
X20058000Y-15644500D03*
X19558000Y-15644500D03*
X19058000Y-15644500D03*
D13*
X18395500Y-15482000D03*
X18395500Y-14982000D03*
X18395500Y-14482000D03*
X18395500Y-13982000D03*
D14*
X19058000Y-13819500D03*
X19558000Y-13819500D03*
X20058000Y-13819500D03*
%TD*%
D12*
%TO.C,C44*%
X9116000Y-1778000D03*
X8156000Y-1778000D03*
%TD*%
D13*
%TO.C,U25*%
X10560500Y-13982000D03*
X10560500Y-14482000D03*
X10560500Y-14982000D03*
X10560500Y-15482000D03*
D14*
X9898000Y-15644500D03*
X9398000Y-15644500D03*
X8898000Y-15644500D03*
D13*
X8235500Y-15482000D03*
X8235500Y-14982000D03*
X8235500Y-14482000D03*
X8235500Y-13982000D03*
D14*
X8898000Y-13819500D03*
X9398000Y-13819500D03*
X9898000Y-13819500D03*
%TD*%
D12*
%TO.C,C35*%
X19276000Y-1778000D03*
X18316000Y-1778000D03*
%TD*%
D15*
%TO.C,U28*%
X10148000Y-19450500D03*
X9648000Y-19450500D03*
X9148000Y-19450500D03*
X8648000Y-19450500D03*
D16*
X8485500Y-18788000D03*
X8485500Y-18288000D03*
X8485500Y-17788000D03*
D15*
X8648000Y-17125500D03*
X9148000Y-17125500D03*
X9648000Y-17125500D03*
X10148000Y-17125500D03*
D16*
X10310500Y-17788000D03*
X10310500Y-18288000D03*
X10310500Y-18788000D03*
%TD*%
D12*
%TO.C,C43*%
X9116000Y-10922000D03*
X8156000Y-10922000D03*
%TD*%
D17*
%TO.C,C47*%
X6124000Y-21082000D03*
X7084000Y-21082000D03*
%TD*%
D13*
%TO.C,U29*%
X10560500Y-3822000D03*
X10560500Y-4322000D03*
X10560500Y-4822000D03*
X10560500Y-5322000D03*
D14*
X9898000Y-5484500D03*
X9398000Y-5484500D03*
X8898000Y-5484500D03*
D13*
X8235500Y-5322000D03*
X8235500Y-4822000D03*
X8235500Y-4322000D03*
X8235500Y-3822000D03*
D14*
X8898000Y-3659500D03*
X9398000Y-3659500D03*
X9898000Y-3659500D03*
%TD*%
D18*
%TO.C,R1*%
X5230400Y-33985200D03*
X6250400Y-33985200D03*
%TD*%
D17*
%TO.C,C39*%
X16284000Y-21082000D03*
X17244000Y-21082000D03*
%TD*%
D19*
%TO.C,U19*%
X14839500Y-8878000D03*
X14839500Y-8378000D03*
X14839500Y-7878000D03*
X14839500Y-7378000D03*
D20*
X15502000Y-7215500D03*
X16002000Y-7215500D03*
X16502000Y-7215500D03*
D19*
X17164500Y-7378000D03*
X17164500Y-7878000D03*
X17164500Y-8378000D03*
X17164500Y-8878000D03*
D20*
X16502000Y-9040500D03*
X16002000Y-9040500D03*
X15502000Y-9040500D03*
%TD*%
D12*
%TO.C,C37*%
X19276000Y-21082000D03*
X18316000Y-21082000D03*
%TD*%
D21*
%TO.C,R10*%
X22225000Y-43436000D03*
X22225000Y-42416000D03*
%TD*%
D22*
%TO.C,U30*%
X5092000Y-3409500D03*
X5592000Y-3409500D03*
X6092000Y-3409500D03*
X6592000Y-3409500D03*
D23*
X6754500Y-4072000D03*
X6754500Y-4572000D03*
X6754500Y-5072000D03*
D22*
X6592000Y-5734500D03*
X6092000Y-5734500D03*
X5592000Y-5734500D03*
X5092000Y-5734500D03*
D23*
X4929500Y-5072000D03*
X4929500Y-4572000D03*
X4929500Y-4072000D03*
%TD*%
D12*
%TO.C,C46*%
X9116000Y-11938000D03*
X8156000Y-11938000D03*
%TD*%
D24*
%TO.C,J3*%
X1270000Y-39370000D03*
D25*
X1270000Y-36830000D03*
X1270000Y-34290000D03*
X1270000Y-31750000D03*
X1270000Y-29210000D03*
X1270000Y-26670000D03*
X1270000Y-24130000D03*
X1270000Y-21590000D03*
X1270000Y-19050000D03*
X1270000Y-16510000D03*
X1270000Y-13970000D03*
X1270000Y-11430000D03*
X1270000Y-8890000D03*
X1270000Y-6350000D03*
X1270000Y-3810000D03*
%TD*%
D22*
%TO.C,U22*%
X15252000Y-13569500D03*
X15752000Y-13569500D03*
X16252000Y-13569500D03*
X16752000Y-13569500D03*
D23*
X16914500Y-14232000D03*
X16914500Y-14732000D03*
X16914500Y-15232000D03*
D22*
X16752000Y-15894500D03*
X16252000Y-15894500D03*
X15752000Y-15894500D03*
X15252000Y-15894500D03*
D23*
X15089500Y-15232000D03*
X15089500Y-14732000D03*
X15089500Y-14232000D03*
%TD*%
D19*
%TO.C,U27*%
X4679500Y-19038000D03*
X4679500Y-18538000D03*
X4679500Y-18038000D03*
X4679500Y-17538000D03*
D20*
X5342000Y-17375500D03*
X5842000Y-17375500D03*
X6342000Y-17375500D03*
D19*
X7004500Y-17538000D03*
X7004500Y-18038000D03*
X7004500Y-18538000D03*
X7004500Y-19038000D03*
D20*
X6342000Y-19200500D03*
X5842000Y-19200500D03*
X5342000Y-19200500D03*
%TD*%
D26*
%TO.C,U34*%
X19432400Y-45846000D03*
D27*
X17932400Y-45758500D03*
D26*
X16432400Y-45846000D03*
%TD*%
D17*
%TO.C,C40*%
X16284000Y-11938000D03*
X17244000Y-11938000D03*
%TD*%
D19*
%TO.C,U31*%
X4679500Y-8878000D03*
X4679500Y-8378000D03*
X4679500Y-7878000D03*
X4679500Y-7378000D03*
D20*
X5342000Y-7215500D03*
X5842000Y-7215500D03*
X6342000Y-7215500D03*
D19*
X7004500Y-7378000D03*
X7004500Y-7878000D03*
X7004500Y-8378000D03*
X7004500Y-8878000D03*
D20*
X6342000Y-9040500D03*
X5842000Y-9040500D03*
X5342000Y-9040500D03*
%TD*%
D15*
%TO.C,U24*%
X20308000Y-19450500D03*
X19808000Y-19450500D03*
X19308000Y-19450500D03*
X18808000Y-19450500D03*
D16*
X18645500Y-18788000D03*
X18645500Y-18288000D03*
X18645500Y-17788000D03*
D15*
X18808000Y-17125500D03*
X19308000Y-17125500D03*
X19808000Y-17125500D03*
X20308000Y-17125500D03*
D16*
X20470500Y-17788000D03*
X20470500Y-18288000D03*
X20470500Y-18788000D03*
%TD*%
D28*
%TO.C,C7*%
X9144000Y-34572000D03*
X9144000Y-35532000D03*
%TD*%
D17*
%TO.C,C41*%
X6124000Y-1778000D03*
X7084000Y-1778000D03*
%TD*%
D12*
%TO.C,C45*%
X9144000Y-21082000D03*
X8184000Y-21082000D03*
%TD*%
D29*
%TO.C,C8*%
X16662400Y-30678000D03*
X16662400Y-29718000D03*
%TD*%
D17*
%TO.C,C34*%
X16284000Y-10922000D03*
X17244000Y-10922000D03*
%TD*%
%TO.C,C33*%
X16284000Y-1778000D03*
X17244000Y-1778000D03*
%TD*%
%TO.C,C17*%
X18039200Y-47396400D03*
X18999200Y-47396400D03*
%TD*%
D12*
%TO.C,C38*%
X19276000Y-11938000D03*
X18316000Y-11938000D03*
%TD*%
D13*
%TO.C,U17*%
X20720500Y-3822000D03*
X20720500Y-4322000D03*
X20720500Y-4822000D03*
X20720500Y-5322000D03*
D14*
X20058000Y-5484500D03*
X19558000Y-5484500D03*
X19058000Y-5484500D03*
D13*
X18395500Y-5322000D03*
X18395500Y-4822000D03*
X18395500Y-4322000D03*
X18395500Y-3822000D03*
D14*
X19058000Y-3659500D03*
X19558000Y-3659500D03*
X20058000Y-3659500D03*
%TD*%
D24*
%TO.C,J4*%
X24130000Y-39370000D03*
D25*
X24130000Y-36830000D03*
X24130000Y-34290000D03*
X24130000Y-31750000D03*
X24130000Y-29210000D03*
X24130000Y-26670000D03*
X24130000Y-24130000D03*
X24130000Y-21590000D03*
X24130000Y-19050000D03*
X24130000Y-16510000D03*
X24130000Y-13970000D03*
X24130000Y-11430000D03*
X24130000Y-8890000D03*
X24130000Y-6350000D03*
X24130000Y-3810000D03*
%TD*%
D22*
%TO.C,U26*%
X5092000Y-13569500D03*
X5592000Y-13569500D03*
X6092000Y-13569500D03*
X6592000Y-13569500D03*
D23*
X6754500Y-14232000D03*
X6754500Y-14732000D03*
X6754500Y-15232000D03*
D22*
X6592000Y-15894500D03*
X6092000Y-15894500D03*
X5592000Y-15894500D03*
X5092000Y-15894500D03*
D23*
X4929500Y-15232000D03*
X4929500Y-14732000D03*
X4929500Y-14232000D03*
%TD*%
D17*
%TO.C,C42*%
X6124000Y-10922000D03*
X7084000Y-10922000D03*
%TD*%
D30*
%TO.C,R9*%
X24130000Y-42416000D03*
X24130000Y-43436000D03*
%TD*%
D15*
%TO.C,U20*%
X20308000Y-9290500D03*
X19808000Y-9290500D03*
X19308000Y-9290500D03*
X18808000Y-9290500D03*
D16*
X18645500Y-8628000D03*
X18645500Y-8128000D03*
X18645500Y-7628000D03*
D15*
X18808000Y-6965500D03*
X19308000Y-6965500D03*
X19808000Y-6965500D03*
X20308000Y-6965500D03*
D16*
X20470500Y-7628000D03*
X20470500Y-8128000D03*
X20470500Y-8628000D03*
%TD*%
D17*
%TO.C,C48*%
X6124000Y-11938000D03*
X7084000Y-11938000D03*
%TD*%
D19*
%TO.C,U23*%
X14839500Y-19027000D03*
X14839500Y-18527000D03*
X14839500Y-18027000D03*
X14839500Y-17527000D03*
D20*
X15502000Y-17364500D03*
X16002000Y-17364500D03*
X16502000Y-17364500D03*
D19*
X17164500Y-17527000D03*
X17164500Y-18027000D03*
X17164500Y-18527000D03*
X17164500Y-19027000D03*
D20*
X16502000Y-19189500D03*
X16002000Y-19189500D03*
X15502000Y-19189500D03*
%TD*%
D31*
%TO.C,C16*%
X15798800Y-48094600D03*
X15798800Y-49644600D03*
%TD*%
D15*
%TO.C,U32*%
X10148000Y-9290500D03*
X9648000Y-9290500D03*
X9148000Y-9290500D03*
X8648000Y-9290500D03*
D16*
X8485500Y-8628000D03*
X8485500Y-8128000D03*
X8485500Y-7628000D03*
D15*
X8648000Y-6965500D03*
X9148000Y-6965500D03*
X9648000Y-6965500D03*
X10148000Y-6965500D03*
D16*
X10310500Y-7628000D03*
X10310500Y-8128000D03*
X10310500Y-8628000D03*
%TD*%
D32*
%TO.C,C32*%
X17969700Y-49885600D03*
X21044700Y-49885600D03*
%TD*%
D22*
%TO.C,U18*%
X15252000Y-3409500D03*
X15752000Y-3409500D03*
X16252000Y-3409500D03*
X16752000Y-3409500D03*
D23*
X16914500Y-4072000D03*
X16914500Y-4572000D03*
X16914500Y-5072000D03*
D22*
X16752000Y-5734500D03*
X16252000Y-5734500D03*
X15752000Y-5734500D03*
X15252000Y-5734500D03*
D23*
X15089500Y-5072000D03*
X15089500Y-4572000D03*
X15089500Y-4072000D03*
%TD*%
%LPD*%
M02*
