%TF.GenerationSoftware,KiCad,Pcbnew,8.0.3-8.0.3-0~ubuntu22.04.1*%
%TF.CreationDate,2024-07-27T12:22:20+09:00*%
%TF.ProjectId,IMUModule_STM32,494d554d-6f64-4756-9c65-5f53544d3332,rev?*%
%TF.SameCoordinates,Original*%
%TF.FileFunction,Copper,L4,Bot*%
%TF.FilePolarity,Positive*%
%FSLAX46Y46*%
G04 Gerber Fmt 4.6, Leading zero omitted, Abs format (unit mm)*
G04 Created by KiCad (PCBNEW 8.0.3-8.0.3-0~ubuntu22.04.1) date 2024-07-27 12:22:20*
%MOMM*%
%LPD*%
G01*
G04 APERTURE LIST*
G04 Aperture macros list*
%AMRoundRect*
0 Rectangle with rounded corners*
0 $1 Rounding radius*
0 $2 $3 $4 $5 $6 $7 $8 $9 X,Y pos of 4 corners*
0 Add a 4 corners polygon primitive as box body*
4,1,4,$2,$3,$4,$5,$6,$7,$8,$9,$2,$3,0*
0 Add four circle primitives for the rounded corners*
1,1,$1+$1,$2,$3*
1,1,$1+$1,$4,$5*
1,1,$1+$1,$6,$7*
1,1,$1+$1,$8,$9*
0 Add four rect primitives between the rounded corners*
20,1,$1+$1,$2,$3,$4,$5,0*
20,1,$1+$1,$4,$5,$6,$7,0*
20,1,$1+$1,$6,$7,$8,$9,0*
20,1,$1+$1,$8,$9,$2,$3,0*%
%AMFreePoly0*
4,1,9,3.862500,-0.866500,0.737500,-0.866500,0.737500,-0.450000,-0.737500,-0.450000,-0.737500,0.450000,0.737500,0.450000,0.737500,0.866500,3.862500,0.866500,3.862500,-0.866500,3.862500,-0.866500,$1*%
G04 Aperture macros list end*
%TA.AperFunction,SMDPad,CuDef*%
%ADD10RoundRect,0.140000X0.140000X0.170000X-0.140000X0.170000X-0.140000X-0.170000X0.140000X-0.170000X0*%
%TD*%
%TA.AperFunction,SMDPad,CuDef*%
%ADD11RoundRect,0.087500X0.225000X0.087500X-0.225000X0.087500X-0.225000X-0.087500X0.225000X-0.087500X0*%
%TD*%
%TA.AperFunction,SMDPad,CuDef*%
%ADD12RoundRect,0.087500X0.087500X0.225000X-0.087500X0.225000X-0.087500X-0.225000X0.087500X-0.225000X0*%
%TD*%
%TA.AperFunction,SMDPad,CuDef*%
%ADD13RoundRect,0.087500X0.087500X-0.225000X0.087500X0.225000X-0.087500X0.225000X-0.087500X-0.225000X0*%
%TD*%
%TA.AperFunction,SMDPad,CuDef*%
%ADD14RoundRect,0.087500X0.225000X-0.087500X0.225000X0.087500X-0.225000X0.087500X-0.225000X-0.087500X0*%
%TD*%
%TA.AperFunction,SMDPad,CuDef*%
%ADD15RoundRect,0.140000X-0.140000X-0.170000X0.140000X-0.170000X0.140000X0.170000X-0.140000X0.170000X0*%
%TD*%
%TA.AperFunction,SMDPad,CuDef*%
%ADD16RoundRect,0.135000X-0.135000X-0.185000X0.135000X-0.185000X0.135000X0.185000X-0.135000X0.185000X0*%
%TD*%
%TA.AperFunction,SMDPad,CuDef*%
%ADD17RoundRect,0.087500X-0.225000X-0.087500X0.225000X-0.087500X0.225000X0.087500X-0.225000X0.087500X0*%
%TD*%
%TA.AperFunction,SMDPad,CuDef*%
%ADD18RoundRect,0.087500X-0.087500X-0.225000X0.087500X-0.225000X0.087500X0.225000X-0.087500X0.225000X0*%
%TD*%
%TA.AperFunction,SMDPad,CuDef*%
%ADD19RoundRect,0.135000X0.185000X-0.135000X0.185000X0.135000X-0.185000X0.135000X-0.185000X-0.135000X0*%
%TD*%
%TA.AperFunction,SMDPad,CuDef*%
%ADD20RoundRect,0.087500X-0.087500X0.225000X-0.087500X-0.225000X0.087500X-0.225000X0.087500X0.225000X0*%
%TD*%
%TA.AperFunction,SMDPad,CuDef*%
%ADD21RoundRect,0.087500X-0.225000X0.087500X-0.225000X-0.087500X0.225000X-0.087500X0.225000X0.087500X0*%
%TD*%
%TA.AperFunction,ComponentPad*%
%ADD22R,1.700000X1.700000*%
%TD*%
%TA.AperFunction,ComponentPad*%
%ADD23O,1.700000X1.700000*%
%TD*%
%TA.AperFunction,SMDPad,CuDef*%
%ADD24R,0.900000X1.300000*%
%TD*%
%TA.AperFunction,SMDPad,CuDef*%
%ADD25FreePoly0,90.000000*%
%TD*%
%TA.AperFunction,SMDPad,CuDef*%
%ADD26RoundRect,0.140000X-0.170000X0.140000X-0.170000X-0.140000X0.170000X-0.140000X0.170000X0.140000X0*%
%TD*%
%TA.AperFunction,SMDPad,CuDef*%
%ADD27RoundRect,0.140000X0.170000X-0.140000X0.170000X0.140000X-0.170000X0.140000X-0.170000X-0.140000X0*%
%TD*%
%TA.AperFunction,SMDPad,CuDef*%
%ADD28RoundRect,0.135000X-0.185000X0.135000X-0.185000X-0.135000X0.185000X-0.135000X0.185000X0.135000X0*%
%TD*%
%TA.AperFunction,SMDPad,CuDef*%
%ADD29RoundRect,0.225000X-0.250000X0.225000X-0.250000X-0.225000X0.250000X-0.225000X0.250000X0.225000X0*%
%TD*%
%TA.AperFunction,SMDPad,CuDef*%
%ADD30RoundRect,0.250000X-0.412500X-0.925000X0.412500X-0.925000X0.412500X0.925000X-0.412500X0.925000X0*%
%TD*%
%TA.AperFunction,ViaPad*%
%ADD31C,0.800000*%
%TD*%
%TA.AperFunction,ViaPad*%
%ADD32C,0.520000*%
%TD*%
%TA.AperFunction,ViaPad*%
%ADD33C,0.620000*%
%TD*%
%TA.AperFunction,Conductor*%
%ADD34C,0.250000*%
%TD*%
%TA.AperFunction,Conductor*%
%ADD35C,0.200000*%
%TD*%
%TA.AperFunction,Conductor*%
%ADD36C,1.000000*%
%TD*%
%TA.AperFunction,Conductor*%
%ADD37C,0.500000*%
%TD*%
%TA.AperFunction,Conductor*%
%ADD38C,0.150000*%
%TD*%
G04 APERTURE END LIST*
D10*
%TO.P,C36,1*%
%TO.N,GNDD*%
X19276000Y-10922000D03*
%TO.P,C36,2*%
%TO.N,+3.3V*%
X18316000Y-10922000D03*
%TD*%
D11*
%TO.P,U21,1,SDO/SA0*%
%TO.N,/IMUs/SPI_MISO21*%
X20720500Y-13982000D03*
%TO.P,U21,2,SDX*%
%TO.N,GNDD*%
X20720500Y-14482000D03*
%TO.P,U21,3,SCX*%
X20720500Y-14982000D03*
%TO.P,U21,4,INT1*%
%TO.N,unconnected-(U21-INT1-Pad4)*%
X20720500Y-15482000D03*
D12*
%TO.P,U21,5,VDDIO*%
%TO.N,+3.3V*%
X20058000Y-15644500D03*
%TO.P,U21,6,GND*%
%TO.N,GNDD*%
X19558000Y-15644500D03*
%TO.P,U21,7,GND*%
X19058000Y-15644500D03*
D11*
%TO.P,U21,8,VDD*%
%TO.N,+3.3V*%
X18395500Y-15482000D03*
%TO.P,U21,9,INT2*%
%TO.N,unconnected-(U21-INT2-Pad9)*%
X18395500Y-14982000D03*
%TO.P,U21,10,OCS_Aux*%
%TO.N,unconnected-(U21-OCS_Aux-Pad10)*%
X18395500Y-14482000D03*
%TO.P,U21,11,SDO_Aux*%
%TO.N,unconnected-(U21-SDO_Aux-Pad11)*%
X18395500Y-13982000D03*
D12*
%TO.P,U21,12,CS*%
%TO.N,/IMUs/SPI_CS*%
X19058000Y-13819500D03*
%TO.P,U21,13,SCL*%
%TO.N,/IMUs/SPI_CLK*%
X19558000Y-13819500D03*
%TO.P,U21,14,SDA*%
%TO.N,/IMUs/SPI_MOSI*%
X20058000Y-13819500D03*
%TD*%
D10*
%TO.P,C44,1*%
%TO.N,GNDD*%
X9116000Y-1778000D03*
%TO.P,C44,2*%
%TO.N,+3.3V*%
X8156000Y-1778000D03*
%TD*%
D11*
%TO.P,U25,1,SDO/SA0*%
%TO.N,/IMUs/SPI_MISO25*%
X10560500Y-13982000D03*
%TO.P,U25,2,SDX*%
%TO.N,GNDD*%
X10560500Y-14482000D03*
%TO.P,U25,3,SCX*%
X10560500Y-14982000D03*
%TO.P,U25,4,INT1*%
%TO.N,unconnected-(U25-INT1-Pad4)*%
X10560500Y-15482000D03*
D12*
%TO.P,U25,5,VDDIO*%
%TO.N,+3.3V*%
X9898000Y-15644500D03*
%TO.P,U25,6,GND*%
%TO.N,GNDD*%
X9398000Y-15644500D03*
%TO.P,U25,7,GND*%
X8898000Y-15644500D03*
D11*
%TO.P,U25,8,VDD*%
%TO.N,+3.3V*%
X8235500Y-15482000D03*
%TO.P,U25,9,INT2*%
%TO.N,unconnected-(U25-INT2-Pad9)*%
X8235500Y-14982000D03*
%TO.P,U25,10,OCS_Aux*%
%TO.N,unconnected-(U25-OCS_Aux-Pad10)*%
X8235500Y-14482000D03*
%TO.P,U25,11,SDO_Aux*%
%TO.N,unconnected-(U25-SDO_Aux-Pad11)*%
X8235500Y-13982000D03*
D12*
%TO.P,U25,12,CS*%
%TO.N,/IMUs/SPI_CS*%
X8898000Y-13819500D03*
%TO.P,U25,13,SCL*%
%TO.N,/IMUs/SPI_CLK*%
X9398000Y-13819500D03*
%TO.P,U25,14,SDA*%
%TO.N,/IMUs/SPI_MOSI*%
X9898000Y-13819500D03*
%TD*%
D10*
%TO.P,C35,1*%
%TO.N,GNDD*%
X19276000Y-1778000D03*
%TO.P,C35,2*%
%TO.N,+3.3V*%
X18316000Y-1778000D03*
%TD*%
D13*
%TO.P,U28,1,SDO/SA0*%
%TO.N,/IMUs/SPI_MISO28*%
X10148000Y-19450500D03*
%TO.P,U28,2,SDX*%
%TO.N,GNDD*%
X9648000Y-19450500D03*
%TO.P,U28,3,SCX*%
X9148000Y-19450500D03*
%TO.P,U28,4,INT1*%
%TO.N,unconnected-(U28-INT1-Pad4)*%
X8648000Y-19450500D03*
D14*
%TO.P,U28,5,VDDIO*%
%TO.N,+3.3V*%
X8485500Y-18788000D03*
%TO.P,U28,6,GND*%
%TO.N,GNDD*%
X8485500Y-18288000D03*
%TO.P,U28,7,GND*%
X8485500Y-17788000D03*
D13*
%TO.P,U28,8,VDD*%
%TO.N,+3.3V*%
X8648000Y-17125500D03*
%TO.P,U28,9,INT2*%
%TO.N,unconnected-(U28-INT2-Pad9)*%
X9148000Y-17125500D03*
%TO.P,U28,10,OCS_Aux*%
%TO.N,unconnected-(U28-OCS_Aux-Pad10)*%
X9648000Y-17125500D03*
%TO.P,U28,11,SDO_Aux*%
%TO.N,unconnected-(U28-SDO_Aux-Pad11)*%
X10148000Y-17125500D03*
D14*
%TO.P,U28,12,CS*%
%TO.N,/IMUs/SPI_CS*%
X10310500Y-17788000D03*
%TO.P,U28,13,SCL*%
%TO.N,/IMUs/SPI_CLK*%
X10310500Y-18288000D03*
%TO.P,U28,14,SDA*%
%TO.N,/IMUs/SPI_MOSI*%
X10310500Y-18788000D03*
%TD*%
D10*
%TO.P,C43,1*%
%TO.N,GNDD*%
X9116000Y-10922000D03*
%TO.P,C43,2*%
%TO.N,+3.3V*%
X8156000Y-10922000D03*
%TD*%
D15*
%TO.P,C47,1*%
%TO.N,GNDD*%
X6124000Y-21082000D03*
%TO.P,C47,2*%
%TO.N,+3.3V*%
X7084000Y-21082000D03*
%TD*%
D11*
%TO.P,U29,1,SDO/SA0*%
%TO.N,/IMUs/SPI_MISO29*%
X10560500Y-3822000D03*
%TO.P,U29,2,SDX*%
%TO.N,GNDD*%
X10560500Y-4322000D03*
%TO.P,U29,3,SCX*%
X10560500Y-4822000D03*
%TO.P,U29,4,INT1*%
%TO.N,unconnected-(U29-INT1-Pad4)*%
X10560500Y-5322000D03*
D12*
%TO.P,U29,5,VDDIO*%
%TO.N,+3.3V*%
X9898000Y-5484500D03*
%TO.P,U29,6,GND*%
%TO.N,GNDD*%
X9398000Y-5484500D03*
%TO.P,U29,7,GND*%
X8898000Y-5484500D03*
D11*
%TO.P,U29,8,VDD*%
%TO.N,+3.3V*%
X8235500Y-5322000D03*
%TO.P,U29,9,INT2*%
%TO.N,unconnected-(U29-INT2-Pad9)*%
X8235500Y-4822000D03*
%TO.P,U29,10,OCS_Aux*%
%TO.N,unconnected-(U29-OCS_Aux-Pad10)*%
X8235500Y-4322000D03*
%TO.P,U29,11,SDO_Aux*%
%TO.N,unconnected-(U29-SDO_Aux-Pad11)*%
X8235500Y-3822000D03*
D12*
%TO.P,U29,12,CS*%
%TO.N,/IMUs/SPI_CS*%
X8898000Y-3659500D03*
%TO.P,U29,13,SCL*%
%TO.N,/IMUs/SPI_CLK*%
X9398000Y-3659500D03*
%TO.P,U29,14,SDA*%
%TO.N,/IMUs/SPI_MOSI*%
X9898000Y-3659500D03*
%TD*%
D16*
%TO.P,R1,1*%
%TO.N,Net-(U33-PB8)*%
X5230400Y-33985200D03*
%TO.P,R1,2*%
%TO.N,GNDD*%
X6250400Y-33985200D03*
%TD*%
D15*
%TO.P,C39,1*%
%TO.N,GNDD*%
X16284000Y-21082000D03*
%TO.P,C39,2*%
%TO.N,+3.3V*%
X17244000Y-21082000D03*
%TD*%
D17*
%TO.P,U19,1,SDO/SA0*%
%TO.N,/IMUs/SPI_MISO19*%
X14839500Y-8878000D03*
%TO.P,U19,2,SDX*%
%TO.N,GNDD*%
X14839500Y-8378000D03*
%TO.P,U19,3,SCX*%
X14839500Y-7878000D03*
%TO.P,U19,4,INT1*%
%TO.N,unconnected-(U19-INT1-Pad4)*%
X14839500Y-7378000D03*
D18*
%TO.P,U19,5,VDDIO*%
%TO.N,+3.3V*%
X15502000Y-7215500D03*
%TO.P,U19,6,GND*%
%TO.N,GNDD*%
X16002000Y-7215500D03*
%TO.P,U19,7,GND*%
X16502000Y-7215500D03*
D17*
%TO.P,U19,8,VDD*%
%TO.N,+3.3V*%
X17164500Y-7378000D03*
%TO.P,U19,9,INT2*%
%TO.N,unconnected-(U19-INT2-Pad9)*%
X17164500Y-7878000D03*
%TO.P,U19,10,OCS_Aux*%
%TO.N,unconnected-(U19-OCS_Aux-Pad10)*%
X17164500Y-8378000D03*
%TO.P,U19,11,SDO_Aux*%
%TO.N,unconnected-(U19-SDO_Aux-Pad11)*%
X17164500Y-8878000D03*
D18*
%TO.P,U19,12,CS*%
%TO.N,/IMUs/SPI_CS*%
X16502000Y-9040500D03*
%TO.P,U19,13,SCL*%
%TO.N,/IMUs/SPI_CLK*%
X16002000Y-9040500D03*
%TO.P,U19,14,SDA*%
%TO.N,/IMUs/SPI_MOSI*%
X15502000Y-9040500D03*
%TD*%
D10*
%TO.P,C37,1*%
%TO.N,GNDD*%
X19276000Y-21082000D03*
%TO.P,C37,2*%
%TO.N,+3.3V*%
X18316000Y-21082000D03*
%TD*%
D19*
%TO.P,R10,1*%
%TO.N,Net-(D3-A)*%
X22225000Y-43436000D03*
%TO.P,R10,2*%
%TO.N,Net-(U33-PA0)*%
X22225000Y-42416000D03*
%TD*%
D20*
%TO.P,U30,1,SDO/SA0*%
%TO.N,/IMUs/SPI_MISO30*%
X5092000Y-3409500D03*
%TO.P,U30,2,SDX*%
%TO.N,GNDD*%
X5592000Y-3409500D03*
%TO.P,U30,3,SCX*%
X6092000Y-3409500D03*
%TO.P,U30,4,INT1*%
%TO.N,unconnected-(U30-INT1-Pad4)*%
X6592000Y-3409500D03*
D21*
%TO.P,U30,5,VDDIO*%
%TO.N,+3.3V*%
X6754500Y-4072000D03*
%TO.P,U30,6,GND*%
%TO.N,GNDD*%
X6754500Y-4572000D03*
%TO.P,U30,7,GND*%
X6754500Y-5072000D03*
D20*
%TO.P,U30,8,VDD*%
%TO.N,+3.3V*%
X6592000Y-5734500D03*
%TO.P,U30,9,INT2*%
%TO.N,unconnected-(U30-INT2-Pad9)*%
X6092000Y-5734500D03*
%TO.P,U30,10,OCS_Aux*%
%TO.N,unconnected-(U30-OCS_Aux-Pad10)*%
X5592000Y-5734500D03*
%TO.P,U30,11,SDO_Aux*%
%TO.N,unconnected-(U30-SDO_Aux-Pad11)*%
X5092000Y-5734500D03*
D21*
%TO.P,U30,12,CS*%
%TO.N,/IMUs/SPI_CS*%
X4929500Y-5072000D03*
%TO.P,U30,13,SCL*%
%TO.N,/IMUs/SPI_CLK*%
X4929500Y-4572000D03*
%TO.P,U30,14,SDA*%
%TO.N,/IMUs/SPI_MOSI*%
X4929500Y-4072000D03*
%TD*%
D10*
%TO.P,C46,1*%
%TO.N,GNDD*%
X9116000Y-11938000D03*
%TO.P,C46,2*%
%TO.N,+3.3V*%
X8156000Y-11938000D03*
%TD*%
D22*
%TO.P,J3,1,Pin_1*%
%TO.N,GNDD*%
X1270000Y-39370000D03*
D23*
%TO.P,J3,2,Pin_2*%
%TO.N,unconnected-(J3-Pin_2-Pad2)*%
X1270000Y-36830000D03*
%TO.P,J3,3,Pin_3*%
%TO.N,unconnected-(J3-Pin_3-Pad3)*%
X1270000Y-34290000D03*
%TO.P,J3,4,Pin_4*%
%TO.N,/MCU/T_NRST*%
X1270000Y-31750000D03*
%TO.P,J3,5,Pin_5*%
%TO.N,/MCU/T_VCP_RX*%
X1270000Y-29210000D03*
%TO.P,J3,6,Pin_6*%
%TO.N,/MCU/T_VCP_TX*%
X1270000Y-26670000D03*
%TO.P,J3,7,Pin_7*%
%TO.N,/MCU/T_SWDIO*%
X1270000Y-24130000D03*
%TO.P,J3,8,Pin_8*%
%TO.N,/MCU/T_SWCLK*%
X1270000Y-21590000D03*
%TO.P,J3,9,Pin_9*%
%TO.N,unconnected-(J3-Pin_9-Pad9)*%
X1270000Y-19050000D03*
%TO.P,J3,10,Pin_10*%
%TO.N,unconnected-(J3-Pin_10-Pad10)*%
X1270000Y-16510000D03*
%TO.P,J3,11,Pin_11*%
%TO.N,unconnected-(J3-Pin_11-Pad11)*%
X1270000Y-13970000D03*
%TO.P,J3,12,Pin_12*%
%TO.N,unconnected-(J3-Pin_12-Pad12)*%
X1270000Y-11430000D03*
%TO.P,J3,13,Pin_13*%
%TO.N,unconnected-(J3-Pin_13-Pad13)*%
X1270000Y-8890000D03*
%TO.P,J3,14,Pin_14*%
%TO.N,unconnected-(J3-Pin_14-Pad14)*%
X1270000Y-6350000D03*
%TO.P,J3,15,Pin_15*%
%TO.N,unconnected-(J3-Pin_15-Pad15)*%
X1270000Y-3810000D03*
%TD*%
D20*
%TO.P,U22,1,SDO/SA0*%
%TO.N,/IMUs/SPI_MISO22*%
X15252000Y-13569500D03*
%TO.P,U22,2,SDX*%
%TO.N,GNDD*%
X15752000Y-13569500D03*
%TO.P,U22,3,SCX*%
X16252000Y-13569500D03*
%TO.P,U22,4,INT1*%
%TO.N,unconnected-(U22-INT1-Pad4)*%
X16752000Y-13569500D03*
D21*
%TO.P,U22,5,VDDIO*%
%TO.N,+3.3V*%
X16914500Y-14232000D03*
%TO.P,U22,6,GND*%
%TO.N,GNDD*%
X16914500Y-14732000D03*
%TO.P,U22,7,GND*%
X16914500Y-15232000D03*
D20*
%TO.P,U22,8,VDD*%
%TO.N,+3.3V*%
X16752000Y-15894500D03*
%TO.P,U22,9,INT2*%
%TO.N,unconnected-(U22-INT2-Pad9)*%
X16252000Y-15894500D03*
%TO.P,U22,10,OCS_Aux*%
%TO.N,unconnected-(U22-OCS_Aux-Pad10)*%
X15752000Y-15894500D03*
%TO.P,U22,11,SDO_Aux*%
%TO.N,unconnected-(U22-SDO_Aux-Pad11)*%
X15252000Y-15894500D03*
D21*
%TO.P,U22,12,CS*%
%TO.N,/IMUs/SPI_CS*%
X15089500Y-15232000D03*
%TO.P,U22,13,SCL*%
%TO.N,/IMUs/SPI_CLK*%
X15089500Y-14732000D03*
%TO.P,U22,14,SDA*%
%TO.N,/IMUs/SPI_MOSI*%
X15089500Y-14232000D03*
%TD*%
D17*
%TO.P,U27,1,SDO/SA0*%
%TO.N,/IMUs/SPI_MISO27*%
X4679500Y-19038000D03*
%TO.P,U27,2,SDX*%
%TO.N,GNDD*%
X4679500Y-18538000D03*
%TO.P,U27,3,SCX*%
X4679500Y-18038000D03*
%TO.P,U27,4,INT1*%
%TO.N,unconnected-(U27-INT1-Pad4)*%
X4679500Y-17538000D03*
D18*
%TO.P,U27,5,VDDIO*%
%TO.N,+3.3V*%
X5342000Y-17375500D03*
%TO.P,U27,6,GND*%
%TO.N,GNDD*%
X5842000Y-17375500D03*
%TO.P,U27,7,GND*%
X6342000Y-17375500D03*
D17*
%TO.P,U27,8,VDD*%
%TO.N,+3.3V*%
X7004500Y-17538000D03*
%TO.P,U27,9,INT2*%
%TO.N,unconnected-(U27-INT2-Pad9)*%
X7004500Y-18038000D03*
%TO.P,U27,10,OCS_Aux*%
%TO.N,unconnected-(U27-OCS_Aux-Pad10)*%
X7004500Y-18538000D03*
%TO.P,U27,11,SDO_Aux*%
%TO.N,unconnected-(U27-SDO_Aux-Pad11)*%
X7004500Y-19038000D03*
D18*
%TO.P,U27,12,CS*%
%TO.N,/IMUs/SPI_CS*%
X6342000Y-19200500D03*
%TO.P,U27,13,SCL*%
%TO.N,/IMUs/SPI_CLK*%
X5842000Y-19200500D03*
%TO.P,U27,14,SDA*%
%TO.N,/IMUs/SPI_MOSI*%
X5342000Y-19200500D03*
%TD*%
D24*
%TO.P,U34,1,GND*%
%TO.N,GNDD*%
X19432400Y-45846000D03*
D25*
%TO.P,U34,2,VI*%
%TO.N,+5V*%
X17932400Y-45758500D03*
D24*
%TO.P,U34,3,VO*%
%TO.N,+3.3V*%
X16432400Y-45846000D03*
%TD*%
D15*
%TO.P,C40,1*%
%TO.N,GNDD*%
X16284000Y-11938000D03*
%TO.P,C40,2*%
%TO.N,+3.3V*%
X17244000Y-11938000D03*
%TD*%
D17*
%TO.P,U31,1,SDO/SA0*%
%TO.N,/IMUs/SPI_MISO31*%
X4679500Y-8878000D03*
%TO.P,U31,2,SDX*%
%TO.N,GNDD*%
X4679500Y-8378000D03*
%TO.P,U31,3,SCX*%
X4679500Y-7878000D03*
%TO.P,U31,4,INT1*%
%TO.N,unconnected-(U31-INT1-Pad4)*%
X4679500Y-7378000D03*
D18*
%TO.P,U31,5,VDDIO*%
%TO.N,+3.3V*%
X5342000Y-7215500D03*
%TO.P,U31,6,GND*%
%TO.N,GNDD*%
X5842000Y-7215500D03*
%TO.P,U31,7,GND*%
X6342000Y-7215500D03*
D17*
%TO.P,U31,8,VDD*%
%TO.N,+3.3V*%
X7004500Y-7378000D03*
%TO.P,U31,9,INT2*%
%TO.N,unconnected-(U31-INT2-Pad9)*%
X7004500Y-7878000D03*
%TO.P,U31,10,OCS_Aux*%
%TO.N,unconnected-(U31-OCS_Aux-Pad10)*%
X7004500Y-8378000D03*
%TO.P,U31,11,SDO_Aux*%
%TO.N,unconnected-(U31-SDO_Aux-Pad11)*%
X7004500Y-8878000D03*
D18*
%TO.P,U31,12,CS*%
%TO.N,/IMUs/SPI_CS*%
X6342000Y-9040500D03*
%TO.P,U31,13,SCL*%
%TO.N,/IMUs/SPI_CLK*%
X5842000Y-9040500D03*
%TO.P,U31,14,SDA*%
%TO.N,/IMUs/SPI_MOSI*%
X5342000Y-9040500D03*
%TD*%
D13*
%TO.P,U24,1,SDO/SA0*%
%TO.N,/IMUs/SPI_MISO24*%
X20308000Y-19450500D03*
%TO.P,U24,2,SDX*%
%TO.N,GNDD*%
X19808000Y-19450500D03*
%TO.P,U24,3,SCX*%
X19308000Y-19450500D03*
%TO.P,U24,4,INT1*%
%TO.N,unconnected-(U24-INT1-Pad4)*%
X18808000Y-19450500D03*
D14*
%TO.P,U24,5,VDDIO*%
%TO.N,+3.3V*%
X18645500Y-18788000D03*
%TO.P,U24,6,GND*%
%TO.N,GNDD*%
X18645500Y-18288000D03*
%TO.P,U24,7,GND*%
X18645500Y-17788000D03*
D13*
%TO.P,U24,8,VDD*%
%TO.N,+3.3V*%
X18808000Y-17125500D03*
%TO.P,U24,9,INT2*%
%TO.N,unconnected-(U24-INT2-Pad9)*%
X19308000Y-17125500D03*
%TO.P,U24,10,OCS_Aux*%
%TO.N,unconnected-(U24-OCS_Aux-Pad10)*%
X19808000Y-17125500D03*
%TO.P,U24,11,SDO_Aux*%
%TO.N,unconnected-(U24-SDO_Aux-Pad11)*%
X20308000Y-17125500D03*
D14*
%TO.P,U24,12,CS*%
%TO.N,/IMUs/SPI_CS*%
X20470500Y-17788000D03*
%TO.P,U24,13,SCL*%
%TO.N,/IMUs/SPI_CLK*%
X20470500Y-18288000D03*
%TO.P,U24,14,SDA*%
%TO.N,/IMUs/SPI_MOSI*%
X20470500Y-18788000D03*
%TD*%
D26*
%TO.P,C7,1*%
%TO.N,GNDD*%
X9144000Y-34572000D03*
%TO.P,C7,2*%
%TO.N,+3.3V*%
X9144000Y-35532000D03*
%TD*%
D15*
%TO.P,C41,1*%
%TO.N,GNDD*%
X6124000Y-1778000D03*
%TO.P,C41,2*%
%TO.N,+3.3V*%
X7084000Y-1778000D03*
%TD*%
D10*
%TO.P,C45,1*%
%TO.N,GNDD*%
X9144000Y-21082000D03*
%TO.P,C45,2*%
%TO.N,+3.3V*%
X8184000Y-21082000D03*
%TD*%
D27*
%TO.P,C8,1*%
%TO.N,GNDD*%
X16662400Y-30678000D03*
%TO.P,C8,2*%
%TO.N,+3.3V*%
X16662400Y-29718000D03*
%TD*%
D15*
%TO.P,C34,1*%
%TO.N,GNDD*%
X16284000Y-10922000D03*
%TO.P,C34,2*%
%TO.N,+3.3V*%
X17244000Y-10922000D03*
%TD*%
%TO.P,C33,1*%
%TO.N,GNDD*%
X16284000Y-1778000D03*
%TO.P,C33,2*%
%TO.N,+3.3V*%
X17244000Y-1778000D03*
%TD*%
%TO.P,C17,1*%
%TO.N,+5V*%
X18039200Y-47396400D03*
%TO.P,C17,2*%
%TO.N,GNDD*%
X18999200Y-47396400D03*
%TD*%
D10*
%TO.P,C38,1*%
%TO.N,GNDD*%
X19276000Y-11938000D03*
%TO.P,C38,2*%
%TO.N,+3.3V*%
X18316000Y-11938000D03*
%TD*%
D11*
%TO.P,U17,1,SDO/SA0*%
%TO.N,/IMUs/SPI_MISO17*%
X20720500Y-3822000D03*
%TO.P,U17,2,SDX*%
%TO.N,GNDD*%
X20720500Y-4322000D03*
%TO.P,U17,3,SCX*%
X20720500Y-4822000D03*
%TO.P,U17,4,INT1*%
%TO.N,unconnected-(U17-INT1-Pad4)*%
X20720500Y-5322000D03*
D12*
%TO.P,U17,5,VDDIO*%
%TO.N,+3.3V*%
X20058000Y-5484500D03*
%TO.P,U17,6,GND*%
%TO.N,GNDD*%
X19558000Y-5484500D03*
%TO.P,U17,7,GND*%
X19058000Y-5484500D03*
D11*
%TO.P,U17,8,VDD*%
%TO.N,+3.3V*%
X18395500Y-5322000D03*
%TO.P,U17,9,INT2*%
%TO.N,unconnected-(U17-INT2-Pad9)*%
X18395500Y-4822000D03*
%TO.P,U17,10,OCS_Aux*%
%TO.N,unconnected-(U17-OCS_Aux-Pad10)*%
X18395500Y-4322000D03*
%TO.P,U17,11,SDO_Aux*%
%TO.N,unconnected-(U17-SDO_Aux-Pad11)*%
X18395500Y-3822000D03*
D12*
%TO.P,U17,12,CS*%
%TO.N,/IMUs/SPI_CS*%
X19058000Y-3659500D03*
%TO.P,U17,13,SCL*%
%TO.N,/IMUs/SPI_CLK*%
X19558000Y-3659500D03*
%TO.P,U17,14,SDA*%
%TO.N,/IMUs/SPI_MOSI*%
X20058000Y-3659500D03*
%TD*%
D22*
%TO.P,J4,1,Pin_1*%
%TO.N,GNDD*%
X24130000Y-39370000D03*
D23*
%TO.P,J4,2,Pin_2*%
%TO.N,+5V*%
X24130000Y-36830000D03*
%TO.P,J4,3,Pin_3*%
%TO.N,+3.3V*%
X24130000Y-34290000D03*
%TO.P,J4,4,Pin_4*%
%TO.N,/MCU/MSPI_CS*%
X24130000Y-31750000D03*
%TO.P,J4,5,Pin_5*%
%TO.N,/MCU/MSPI_CLK*%
X24130000Y-29210000D03*
%TO.P,J4,6,Pin_6*%
%TO.N,/MCU/MSPI_MISO*%
X24130000Y-26670000D03*
%TO.P,J4,7,Pin_7*%
%TO.N,/MCU/MSPI_MOSI*%
X24130000Y-24130000D03*
%TO.P,J4,8,Pin_8*%
%TO.N,unconnected-(J4-Pin_8-Pad8)*%
X24130000Y-21590000D03*
%TO.P,J4,9,Pin_9*%
%TO.N,unconnected-(J4-Pin_9-Pad9)*%
X24130000Y-19050000D03*
%TO.P,J4,10,Pin_10*%
%TO.N,unconnected-(J4-Pin_10-Pad10)*%
X24130000Y-16510000D03*
%TO.P,J4,11,Pin_11*%
%TO.N,unconnected-(J4-Pin_11-Pad11)*%
X24130000Y-13970000D03*
%TO.P,J4,12,Pin_12*%
%TO.N,unconnected-(J4-Pin_12-Pad12)*%
X24130000Y-11430000D03*
%TO.P,J4,13,Pin_13*%
%TO.N,unconnected-(J4-Pin_13-Pad13)*%
X24130000Y-8890000D03*
%TO.P,J4,14,Pin_14*%
%TO.N,unconnected-(J4-Pin_14-Pad14)*%
X24130000Y-6350000D03*
%TO.P,J4,15,Pin_15*%
%TO.N,unconnected-(J4-Pin_15-Pad15)*%
X24130000Y-3810000D03*
%TD*%
D20*
%TO.P,U26,1,SDO/SA0*%
%TO.N,/IMUs/SPI_MISO26*%
X5092000Y-13569500D03*
%TO.P,U26,2,SDX*%
%TO.N,GNDD*%
X5592000Y-13569500D03*
%TO.P,U26,3,SCX*%
X6092000Y-13569500D03*
%TO.P,U26,4,INT1*%
%TO.N,unconnected-(U26-INT1-Pad4)*%
X6592000Y-13569500D03*
D21*
%TO.P,U26,5,VDDIO*%
%TO.N,+3.3V*%
X6754500Y-14232000D03*
%TO.P,U26,6,GND*%
%TO.N,GNDD*%
X6754500Y-14732000D03*
%TO.P,U26,7,GND*%
X6754500Y-15232000D03*
D20*
%TO.P,U26,8,VDD*%
%TO.N,+3.3V*%
X6592000Y-15894500D03*
%TO.P,U26,9,INT2*%
%TO.N,unconnected-(U26-INT2-Pad9)*%
X6092000Y-15894500D03*
%TO.P,U26,10,OCS_Aux*%
%TO.N,unconnected-(U26-OCS_Aux-Pad10)*%
X5592000Y-15894500D03*
%TO.P,U26,11,SDO_Aux*%
%TO.N,unconnected-(U26-SDO_Aux-Pad11)*%
X5092000Y-15894500D03*
D21*
%TO.P,U26,12,CS*%
%TO.N,/IMUs/SPI_CS*%
X4929500Y-15232000D03*
%TO.P,U26,13,SCL*%
%TO.N,/IMUs/SPI_CLK*%
X4929500Y-14732000D03*
%TO.P,U26,14,SDA*%
%TO.N,/IMUs/SPI_MOSI*%
X4929500Y-14232000D03*
%TD*%
D15*
%TO.P,C42,1*%
%TO.N,GNDD*%
X6124000Y-10922000D03*
%TO.P,C42,2*%
%TO.N,+3.3V*%
X7084000Y-10922000D03*
%TD*%
D28*
%TO.P,R9,1*%
%TO.N,Net-(U33-PA1)*%
X24130000Y-42416000D03*
%TO.P,R9,2*%
%TO.N,Net-(D2-A)*%
X24130000Y-43436000D03*
%TD*%
D13*
%TO.P,U20,1,SDO/SA0*%
%TO.N,/IMUs/SPI_MISO20*%
X20308000Y-9290500D03*
%TO.P,U20,2,SDX*%
%TO.N,GNDD*%
X19808000Y-9290500D03*
%TO.P,U20,3,SCX*%
X19308000Y-9290500D03*
%TO.P,U20,4,INT1*%
%TO.N,unconnected-(U20-INT1-Pad4)*%
X18808000Y-9290500D03*
D14*
%TO.P,U20,5,VDDIO*%
%TO.N,+3.3V*%
X18645500Y-8628000D03*
%TO.P,U20,6,GND*%
%TO.N,GNDD*%
X18645500Y-8128000D03*
%TO.P,U20,7,GND*%
X18645500Y-7628000D03*
D13*
%TO.P,U20,8,VDD*%
%TO.N,+3.3V*%
X18808000Y-6965500D03*
%TO.P,U20,9,INT2*%
%TO.N,unconnected-(U20-INT2-Pad9)*%
X19308000Y-6965500D03*
%TO.P,U20,10,OCS_Aux*%
%TO.N,unconnected-(U20-OCS_Aux-Pad10)*%
X19808000Y-6965500D03*
%TO.P,U20,11,SDO_Aux*%
%TO.N,unconnected-(U20-SDO_Aux-Pad11)*%
X20308000Y-6965500D03*
D14*
%TO.P,U20,12,CS*%
%TO.N,/IMUs/SPI_CS*%
X20470500Y-7628000D03*
%TO.P,U20,13,SCL*%
%TO.N,/IMUs/SPI_CLK*%
X20470500Y-8128000D03*
%TO.P,U20,14,SDA*%
%TO.N,/IMUs/SPI_MOSI*%
X20470500Y-8628000D03*
%TD*%
D15*
%TO.P,C48,1*%
%TO.N,GNDD*%
X6124000Y-11938000D03*
%TO.P,C48,2*%
%TO.N,+3.3V*%
X7084000Y-11938000D03*
%TD*%
D17*
%TO.P,U23,1,SDO/SA0*%
%TO.N,/IMUs/SPI_MISO23*%
X14839500Y-19027000D03*
%TO.P,U23,2,SDX*%
%TO.N,GNDD*%
X14839500Y-18527000D03*
%TO.P,U23,3,SCX*%
X14839500Y-18027000D03*
%TO.P,U23,4,INT1*%
%TO.N,unconnected-(U23-INT1-Pad4)*%
X14839500Y-17527000D03*
D18*
%TO.P,U23,5,VDDIO*%
%TO.N,+3.3V*%
X15502000Y-17364500D03*
%TO.P,U23,6,GND*%
%TO.N,GNDD*%
X16002000Y-17364500D03*
%TO.P,U23,7,GND*%
X16502000Y-17364500D03*
D17*
%TO.P,U23,8,VDD*%
%TO.N,+3.3V*%
X17164500Y-17527000D03*
%TO.P,U23,9,INT2*%
%TO.N,unconnected-(U23-INT2-Pad9)*%
X17164500Y-18027000D03*
%TO.P,U23,10,OCS_Aux*%
%TO.N,unconnected-(U23-OCS_Aux-Pad10)*%
X17164500Y-18527000D03*
%TO.P,U23,11,SDO_Aux*%
%TO.N,unconnected-(U23-SDO_Aux-Pad11)*%
X17164500Y-19027000D03*
D18*
%TO.P,U23,12,CS*%
%TO.N,/IMUs/SPI_CS*%
X16502000Y-19189500D03*
%TO.P,U23,13,SCL*%
%TO.N,/IMUs/SPI_CLK*%
X16002000Y-19189500D03*
%TO.P,U23,14,SDA*%
%TO.N,/IMUs/SPI_MOSI*%
X15502000Y-19189500D03*
%TD*%
D29*
%TO.P,C16,1*%
%TO.N,+3.3V*%
X15798800Y-48094600D03*
%TO.P,C16,2*%
%TO.N,GNDD*%
X15798800Y-49644600D03*
%TD*%
D13*
%TO.P,U32,1,SDO/SA0*%
%TO.N,/IMUs/SPI_MISO32*%
X10148000Y-9290500D03*
%TO.P,U32,2,SDX*%
%TO.N,GNDD*%
X9648000Y-9290500D03*
%TO.P,U32,3,SCX*%
X9148000Y-9290500D03*
%TO.P,U32,4,INT1*%
%TO.N,unconnected-(U32-INT1-Pad4)*%
X8648000Y-9290500D03*
D14*
%TO.P,U32,5,VDDIO*%
%TO.N,+3.3V*%
X8485500Y-8628000D03*
%TO.P,U32,6,GND*%
%TO.N,GNDD*%
X8485500Y-8128000D03*
%TO.P,U32,7,GND*%
X8485500Y-7628000D03*
D13*
%TO.P,U32,8,VDD*%
%TO.N,+3.3V*%
X8648000Y-6965500D03*
%TO.P,U32,9,INT2*%
%TO.N,unconnected-(U32-INT2-Pad9)*%
X9148000Y-6965500D03*
%TO.P,U32,10,OCS_Aux*%
%TO.N,unconnected-(U32-OCS_Aux-Pad10)*%
X9648000Y-6965500D03*
%TO.P,U32,11,SDO_Aux*%
%TO.N,unconnected-(U32-SDO_Aux-Pad11)*%
X10148000Y-6965500D03*
D14*
%TO.P,U32,12,CS*%
%TO.N,/IMUs/SPI_CS*%
X10310500Y-7628000D03*
%TO.P,U32,13,SCL*%
%TO.N,/IMUs/SPI_CLK*%
X10310500Y-8128000D03*
%TO.P,U32,14,SDA*%
%TO.N,/IMUs/SPI_MOSI*%
X10310500Y-8628000D03*
%TD*%
D30*
%TO.P,C32,1*%
%TO.N,+5V*%
X17969700Y-49885600D03*
%TO.P,C32,2*%
%TO.N,GNDD*%
X21044700Y-49885600D03*
%TD*%
D20*
%TO.P,U18,1,SDO/SA0*%
%TO.N,/IMUs/SPI_MISO18*%
X15252000Y-3409500D03*
%TO.P,U18,2,SDX*%
%TO.N,GNDD*%
X15752000Y-3409500D03*
%TO.P,U18,3,SCX*%
X16252000Y-3409500D03*
%TO.P,U18,4,INT1*%
%TO.N,unconnected-(U18-INT1-Pad4)*%
X16752000Y-3409500D03*
D21*
%TO.P,U18,5,VDDIO*%
%TO.N,+3.3V*%
X16914500Y-4072000D03*
%TO.P,U18,6,GND*%
%TO.N,GNDD*%
X16914500Y-4572000D03*
%TO.P,U18,7,GND*%
X16914500Y-5072000D03*
D20*
%TO.P,U18,8,VDD*%
%TO.N,+3.3V*%
X16752000Y-5734500D03*
%TO.P,U18,9,INT2*%
%TO.N,unconnected-(U18-INT2-Pad9)*%
X16252000Y-5734500D03*
%TO.P,U18,10,OCS_Aux*%
%TO.N,unconnected-(U18-OCS_Aux-Pad10)*%
X15752000Y-5734500D03*
%TO.P,U18,11,SDO_Aux*%
%TO.N,unconnected-(U18-SDO_Aux-Pad11)*%
X15252000Y-5734500D03*
D21*
%TO.P,U18,12,CS*%
%TO.N,/IMUs/SPI_CS*%
X15089500Y-5072000D03*
%TO.P,U18,13,SCL*%
%TO.N,/IMUs/SPI_CLK*%
X15089500Y-4572000D03*
%TO.P,U18,14,SDA*%
%TO.N,/IMUs/SPI_MOSI*%
X15089500Y-4072000D03*
%TD*%
D31*
%TO.N,GNDD*%
X8890000Y-27940000D03*
X20955000Y-46990000D03*
D32*
X18202589Y-25568589D03*
D31*
X16510000Y-35560000D03*
D32*
X12446000Y-42672000D03*
X10668000Y-10922000D03*
D31*
X17475200Y-24841200D03*
D32*
X4572000Y-11938000D03*
X19304000Y-21082000D03*
X10668000Y-11938000D03*
D33*
X16002000Y-4572000D03*
D32*
X9906000Y-1016000D03*
X18202589Y-37931411D03*
D33*
X9398000Y-4572000D03*
D31*
X20955000Y-45720000D03*
D33*
X5842000Y-8128000D03*
X4445000Y-21590000D03*
D32*
X11938000Y-41656000D03*
D33*
X9398000Y-18288000D03*
D32*
X9906000Y-42672000D03*
X20828000Y-10922000D03*
X5334000Y-1016000D03*
D31*
X20955000Y-44450000D03*
D33*
X5842000Y-14732000D03*
D32*
X8890000Y-21336000D03*
X14732000Y-10922000D03*
X6518589Y-26247411D03*
X16662400Y-30678000D03*
D33*
X16002000Y-18288000D03*
X9398000Y-14732000D03*
D31*
X1270000Y-41910000D03*
D32*
X10414000Y-40640000D03*
D31*
X12700000Y-2540000D03*
D32*
X6477000Y-37211000D03*
X14732000Y-11938000D03*
X20828000Y-11938000D03*
D33*
X16002000Y-8128000D03*
D32*
X4572000Y-10922000D03*
D33*
X16002000Y-14732000D03*
X19558000Y-18288000D03*
D31*
X20066000Y-23164800D03*
D33*
X5842000Y-4572000D03*
X19558000Y-14732000D03*
X9398000Y-8128000D03*
D31*
X16510000Y-27940000D03*
D33*
X19558000Y-8128000D03*
X19558000Y-4572000D03*
X5842000Y-18288000D03*
D32*
X9144000Y-34544000D03*
D31*
%TO.N,+3.3V*%
X15341600Y-46837600D03*
X14376400Y-46837600D03*
X14376400Y-45821600D03*
D32*
X18288000Y-11938000D03*
D31*
X15341600Y-44805600D03*
X15341600Y-45821600D03*
D32*
X17272000Y-1016000D03*
X8128000Y-11938000D03*
D31*
X17780000Y-6350000D03*
D32*
X7197411Y-25568589D03*
X17272000Y-10922000D03*
X7239000Y-37973000D03*
X18288000Y-1016000D03*
X7763000Y-21234400D03*
D31*
X14376400Y-44805600D03*
X7620000Y-6350000D03*
D32*
X8128000Y-1016000D03*
X18881411Y-37252589D03*
X16662400Y-29718000D03*
X7112000Y-10922000D03*
D31*
X7620000Y-16510000D03*
X17780000Y-16510000D03*
D32*
X7112000Y-1016000D03*
X9144000Y-35560000D03*
X18288000Y-21082000D03*
X18881411Y-26247411D03*
D31*
%TO.N,+5V*%
X17932400Y-45758500D03*
D32*
%TO.N,/IMUs/SPI_MISO5*%
X13970000Y-13208000D03*
X18846800Y-24485600D03*
%TO.N,/IMUs/SPI_MISO10*%
X12450000Y-23317200D03*
X11430000Y-12293600D03*
%TO.N,Net-(D2-A)*%
X24130000Y-43436000D03*
%TO.N,Net-(D3-A)*%
X22225000Y-43436000D03*
%TO.N,/IMUs/SPI_MOSI*%
X5156200Y-12649200D03*
X20320000Y-10033000D03*
X5207000Y-20523200D03*
X5130800Y-10160000D03*
X14046200Y-8839200D03*
X11366500Y-18986500D03*
X3924300Y-8877300D03*
X3898900Y-14008100D03*
X14020800Y-3886200D03*
X11328400Y-3835400D03*
X15278100Y-10071100D03*
X10121900Y-12788900D03*
X14058900Y-14008100D03*
X10287000Y-2540000D03*
X5089769Y-2530231D03*
X20294600Y-2514600D03*
X21513800Y-3860800D03*
X3835400Y-18999200D03*
X15316200Y-20320000D03*
X11430000Y-8864600D03*
X14058900Y-19011900D03*
X10134600Y-20320000D03*
X15367000Y-12547600D03*
X11430000Y-13868400D03*
X20269200Y-12674600D03*
X3810000Y-3810000D03*
X21450300Y-13957300D03*
X20269200Y-20472400D03*
X15234137Y-2514600D03*
X10096500Y-10096500D03*
X21501100Y-8851900D03*
X21539200Y-18973800D03*
%TO.N,/IMUs/SPI_CS*%
X16738600Y-10134600D03*
X13970000Y-15544800D03*
X3810000Y-17475200D03*
X11430000Y-17526000D03*
X6731000Y-2540000D03*
X18745200Y-20320000D03*
X18745200Y-2540000D03*
X6578600Y-12707260D03*
X18821400Y-12700000D03*
X11430000Y-15595600D03*
X16738600Y-12598400D03*
X16814800Y-2540000D03*
X11430000Y-7340600D03*
X21590000Y-17475200D03*
X3810000Y-7315200D03*
X8654141Y-10160000D03*
X6585859Y-20320000D03*
X16738600Y-20320000D03*
X21590000Y-15494000D03*
X13970000Y-17475200D03*
X11430000Y-5334000D03*
X13995400Y-5308600D03*
X8686800Y-20320000D03*
X8559800Y-12700000D03*
X3810000Y-5334000D03*
X21590000Y-7315200D03*
X18770600Y-10083800D03*
X21590000Y-5334000D03*
X3810000Y-15494000D03*
X6578600Y-10160000D03*
X13970000Y-7315200D03*
X8636000Y-2540000D03*
%TO.N,/IMUs/SPI_CLK*%
X19558000Y-10160000D03*
X11430000Y-4572000D03*
X13970000Y-4572000D03*
X13970000Y-8128000D03*
X16002000Y-20320000D03*
X5842000Y-12700000D03*
X11430000Y-18288000D03*
X13970000Y-14732000D03*
X19558000Y-2540000D03*
X3810000Y-18288000D03*
X9398000Y-10160000D03*
X11430000Y-8128000D03*
X16002000Y-2540000D03*
X11430000Y-14732000D03*
X21590000Y-8128000D03*
X3810000Y-8128000D03*
X21590000Y-4572000D03*
X9398000Y-20320000D03*
X9398000Y-12700000D03*
X3810000Y-4572000D03*
X13970000Y-18288000D03*
X5842000Y-10160000D03*
X21590000Y-18288000D03*
X3810000Y-14732000D03*
X21590000Y-14732000D03*
X19558000Y-12700000D03*
X19558000Y-20320000D03*
X5842000Y-2540000D03*
X16002000Y-10160000D03*
X9398000Y-2540000D03*
X5842000Y-20320000D03*
X16002000Y-12700000D03*
%TO.N,/IMUs/SPI_MISO17*%
X13182600Y-40309800D03*
%TO.N,/IMUs/SPI_MISO18*%
X13950000Y-24561800D03*
%TO.N,/IMUs/SPI_MISO19*%
X14450000Y-24053800D03*
%TO.N,/IMUs/SPI_MISO20*%
X13233400Y-39624000D03*
%TO.N,/IMUs/SPI_MISO21*%
X13639800Y-39090600D03*
%TO.N,/IMUs/SPI_MISO22*%
X14478000Y-12700000D03*
X14950000Y-23571200D03*
%TO.N,/IMUs/SPI_MISO23*%
X15419493Y-22992107D03*
%TO.N,/IMUs/SPI_MISO24*%
X14012302Y-38540379D03*
%TO.N,/IMUs/SPI_MISO25*%
X7874000Y-22471000D03*
X11483732Y-13055600D03*
X5250468Y-30521728D03*
%TO.N,/IMUs/SPI_MISO26*%
X8128000Y-38989000D03*
%TO.N,/IMUs/SPI_MISO27*%
X5588000Y-34798000D03*
%TO.N,/IMUs/SPI_MISO28*%
X5384800Y-31500000D03*
%TO.N,/IMUs/SPI_MISO29*%
X5461000Y-29362400D03*
%TO.N,/IMUs/SPI_MISO30*%
X7239000Y-40259000D03*
%TO.N,/IMUs/SPI_MISO31*%
X7747000Y-39624000D03*
%TO.N,/IMUs/SPI_MISO32*%
X5638800Y-30000000D03*
%TO.N,/MCU/T_VCP_TX*%
X11684000Y-45466000D03*
%TO.N,/MCU/T_SWCLK*%
X5802000Y-28448000D03*
X6604000Y-43688000D03*
%TO.N,/MCU/T_SWDIO*%
X5334000Y-43688000D03*
X5802000Y-27646000D03*
%TO.N,/MCU/T_VCP_RX*%
X11684000Y-49366000D03*
%TO.N,Net-(U33-PA1)*%
X15240000Y-40435000D03*
%TO.N,Net-(U33-PA0)*%
X14757400Y-40970200D03*
%TO.N,Net-(U33-PB8)*%
X5230400Y-34000000D03*
%TD*%
D34*
%TO.N,GNDD*%
X10560500Y-4322000D02*
X10560500Y-4822000D01*
D35*
X9144000Y-34572000D02*
X8206800Y-34572000D01*
D34*
X4679500Y-18538000D02*
X4679500Y-18038000D01*
X10560500Y-14482000D02*
X10560500Y-14982000D01*
X5592000Y-3409500D02*
X6092000Y-3409500D01*
X19808000Y-19450500D02*
X19308000Y-19450500D01*
X5592000Y-13569500D02*
X6092000Y-13569500D01*
X20720500Y-4322000D02*
X20720500Y-4822000D01*
X4679500Y-8378000D02*
X4679500Y-7878000D01*
D35*
X8206800Y-34572000D02*
X7620000Y-33985200D01*
X7620000Y-33985200D02*
X6250400Y-33985200D01*
D34*
X15752000Y-3409500D02*
X16252000Y-3409500D01*
X9648000Y-19450500D02*
X9148000Y-19450500D01*
X15752000Y-13569500D02*
X16252000Y-13569500D01*
X20720500Y-14482000D02*
X20720500Y-14982000D01*
X9648000Y-9290500D02*
X9148000Y-9290500D01*
X14839500Y-8378000D02*
X14839500Y-7878000D01*
X14839500Y-18538000D02*
X14839500Y-18038000D01*
X19808000Y-9290500D02*
X19308000Y-9290500D01*
%TO.N,+3.3V*%
X7598000Y-6328000D02*
X7620000Y-6350000D01*
X16914500Y-4072000D02*
X17312788Y-4072000D01*
X7493000Y-4572000D02*
X7493000Y-2187000D01*
X17907000Y-7620000D02*
X17907000Y-6985000D01*
X7004500Y-6496500D02*
X6985000Y-6477000D01*
X15842212Y-6477000D02*
X16256000Y-6477000D01*
D35*
X17244000Y-10922000D02*
X17272000Y-10922000D01*
D34*
X7747000Y-6985000D02*
X7747000Y-6477000D01*
X7642000Y-6372000D02*
X7620000Y-6350000D01*
X17653000Y-16637000D02*
X17758000Y-16532000D01*
X15502000Y-6817212D02*
X15842212Y-6477000D01*
D35*
X7747000Y-12347000D02*
X8156000Y-11938000D01*
D34*
X17633500Y-5734500D02*
X17653000Y-5715000D01*
D36*
X14376400Y-46837600D02*
X14376400Y-45821600D01*
D34*
X5682212Y-16637000D02*
X6096000Y-16637000D01*
X16256000Y-6477000D02*
X17145000Y-6477000D01*
X7493000Y-6477000D02*
X7598000Y-6372000D01*
X8235500Y-15482000D02*
X8235500Y-16363500D01*
X15502000Y-7215500D02*
X15502000Y-6817212D01*
X19717788Y-16383000D02*
X18415000Y-16383000D01*
D35*
X17272000Y-10922000D02*
X17498000Y-10922000D01*
D37*
X16432400Y-47461000D02*
X15798800Y-48094600D01*
D34*
X20058000Y-15644500D02*
X20058000Y-16042788D01*
X20058000Y-5882788D02*
X19717788Y-6223000D01*
D35*
X17498000Y-10922000D02*
X17907000Y-10513000D01*
D34*
X7152788Y-4072000D02*
X7493000Y-4412212D01*
X17164500Y-7378000D02*
X17164500Y-6496500D01*
X7642000Y-16532000D02*
X7620000Y-16510000D01*
D35*
X7310000Y-21082000D02*
X7747000Y-20645000D01*
D34*
X8235500Y-5322000D02*
X8235500Y-6203500D01*
D36*
X15341600Y-45821600D02*
X16408000Y-45821600D01*
D34*
X5342000Y-6817212D02*
X5682212Y-6477000D01*
X7473500Y-5734500D02*
X7493000Y-5715000D01*
X18316000Y-10922000D02*
X17907000Y-10513000D01*
D35*
X17653000Y-12347000D02*
X17907000Y-12347000D01*
D34*
X8485500Y-8628000D02*
X8087212Y-8628000D01*
X18415000Y-16383000D02*
X17907000Y-16383000D01*
X8156000Y-1044000D02*
X8128000Y-1016000D01*
X8890000Y-16383000D02*
X8255000Y-16383000D01*
X15502000Y-17375500D02*
X15502000Y-16977212D01*
X17758000Y-16532000D02*
X17780000Y-16510000D01*
D37*
X14376400Y-45821600D02*
X15341600Y-45821600D01*
X15341600Y-44805600D02*
X15341600Y-46837600D01*
D34*
X8235500Y-16363500D02*
X8255000Y-16383000D01*
X7747000Y-16383000D02*
X7642000Y-16488000D01*
X18316000Y-1778000D02*
X18316000Y-1044000D01*
X17653000Y-12347000D02*
X17653000Y-14572212D01*
D35*
X7493000Y-12347000D02*
X7747000Y-12347000D01*
D34*
X17926500Y-6965500D02*
X17907000Y-6985000D01*
D36*
X14376400Y-45821600D02*
X14376400Y-44805600D01*
D34*
X16752000Y-15894500D02*
X17633500Y-15894500D01*
X6592000Y-15894500D02*
X7473500Y-15894500D01*
X7747000Y-10513000D02*
X8156000Y-10922000D01*
X7747000Y-8287788D02*
X7747000Y-8128000D01*
X8235500Y-6203500D02*
X8255000Y-6223000D01*
X7766500Y-17125500D02*
X7747000Y-17145000D01*
D35*
X7188200Y-10922000D02*
X7747000Y-10363200D01*
D34*
X17653000Y-4412212D02*
X17653000Y-5080000D01*
X6985000Y-6477000D02*
X7493000Y-6477000D01*
X17145000Y-6477000D02*
X17653000Y-6477000D01*
X17653000Y-14572212D02*
X17653000Y-15875000D01*
X17907000Y-20673000D02*
X17907000Y-18447788D01*
X9557788Y-16383000D02*
X8890000Y-16383000D01*
X7598000Y-16488000D02*
X7620000Y-16510000D01*
X7598000Y-6372000D02*
X7620000Y-6350000D01*
D35*
X17907000Y-20673000D02*
X17653000Y-20673000D01*
D34*
X7004500Y-16656500D02*
X6985000Y-16637000D01*
X17926500Y-17125500D02*
X17907000Y-17145000D01*
X18247212Y-18788000D02*
X17907000Y-18447788D01*
X6592000Y-5734500D02*
X7473500Y-5734500D01*
X17758000Y-6372000D02*
X17780000Y-6350000D01*
X16914500Y-14232000D02*
X17312788Y-14232000D01*
X9898000Y-5882788D02*
X9557788Y-6223000D01*
X7473500Y-15894500D02*
X7493000Y-15875000D01*
X17907000Y-18447788D02*
X17907000Y-17145000D01*
X17907000Y-16383000D02*
X17802000Y-16488000D01*
X17802000Y-16488000D02*
X17780000Y-16510000D01*
X9557788Y-6223000D02*
X9398000Y-6223000D01*
X8156000Y-1778000D02*
X8156000Y-1044000D01*
X17312788Y-14232000D02*
X17653000Y-14572212D01*
X7493000Y-12347000D02*
X7084000Y-11938000D01*
X8255000Y-6223000D02*
X7747000Y-6223000D01*
X18415000Y-6223000D02*
X17907000Y-6223000D01*
X17312788Y-4072000D02*
X17653000Y-4412212D01*
X7747000Y-8128000D02*
X7747000Y-10363200D01*
X7152788Y-14232000D02*
X7493000Y-14572212D01*
X6985000Y-16637000D02*
X7493000Y-16637000D01*
X17907000Y-6477000D02*
X17802000Y-6372000D01*
D35*
X7112000Y-21082000D02*
X7310000Y-21082000D01*
D34*
X7747000Y-18447788D02*
X7747000Y-18034000D01*
D35*
X7747000Y-2187000D02*
X8156000Y-1778000D01*
D34*
X18645500Y-8628000D02*
X18247212Y-8628000D01*
X17164500Y-16656500D02*
X17145000Y-16637000D01*
X7747000Y-8128000D02*
X7747000Y-6985000D01*
X7493000Y-16637000D02*
X7598000Y-16532000D01*
X17164500Y-6496500D02*
X17145000Y-6477000D01*
D36*
X15341600Y-44805600D02*
X15341600Y-45821600D01*
D34*
X16752000Y-5734500D02*
X17633500Y-5734500D01*
X8087212Y-8628000D02*
X7747000Y-8287788D01*
X17164500Y-17538000D02*
X17164500Y-16656500D01*
X8648000Y-17125500D02*
X7766500Y-17125500D01*
X19717788Y-6223000D02*
X19558000Y-6223000D01*
D35*
X7084000Y-10922000D02*
X7112000Y-10922000D01*
D34*
X7747000Y-6223000D02*
X7642000Y-6328000D01*
X18316000Y-21082000D02*
X17907000Y-20673000D01*
X17145000Y-16637000D02*
X17653000Y-16637000D01*
X7493000Y-4572000D02*
X7493000Y-5715000D01*
X17758000Y-6328000D02*
X17780000Y-6350000D01*
X7747000Y-20645000D02*
X8184000Y-21082000D01*
D36*
X15341600Y-45821600D02*
X15341600Y-46837600D01*
D34*
X8485500Y-18788000D02*
X8087212Y-18788000D01*
D35*
X7084000Y-21082000D02*
X7112000Y-21082000D01*
D34*
X7493000Y-15240000D02*
X7493000Y-12347000D01*
X9898000Y-15644500D02*
X9898000Y-16042788D01*
X17907000Y-16637000D02*
X17802000Y-16532000D01*
X8087212Y-18788000D02*
X7747000Y-18447788D01*
X17802000Y-6328000D02*
X17780000Y-6350000D01*
X17802000Y-16532000D02*
X17780000Y-16510000D01*
D35*
X17907000Y-12347000D02*
X18316000Y-11938000D01*
D34*
X18395500Y-15482000D02*
X18395500Y-16363500D01*
X9398000Y-6223000D02*
X8255000Y-6223000D01*
X18808000Y-6965500D02*
X17926500Y-6965500D01*
X18316000Y-1044000D02*
X18288000Y-1016000D01*
X17653000Y-6223000D02*
X17758000Y-6328000D01*
X7642000Y-6328000D02*
X7620000Y-6350000D01*
X20058000Y-5484500D02*
X20058000Y-5882788D01*
X17907000Y-6223000D02*
X17802000Y-6328000D01*
X7747000Y-6477000D02*
X7642000Y-6372000D01*
X5342000Y-17375500D02*
X5342000Y-16977212D01*
X17802000Y-6372000D02*
X17780000Y-6350000D01*
X7493000Y-14572212D02*
X7493000Y-15240000D01*
X7598000Y-16532000D02*
X7620000Y-16510000D01*
X7747000Y-17145000D02*
X7747000Y-16637000D01*
X9898000Y-16042788D02*
X9557788Y-16383000D01*
X6096000Y-6477000D02*
X6985000Y-6477000D01*
X7747000Y-16637000D02*
X7642000Y-16532000D01*
X6096000Y-16637000D02*
X6985000Y-16637000D01*
X7493000Y-5715000D02*
X7493000Y-6223000D01*
X17244000Y-11938000D02*
X17653000Y-12347000D01*
X5342000Y-7215500D02*
X5342000Y-6817212D01*
X17907000Y-6985000D02*
X17907000Y-6477000D01*
D36*
X14376400Y-44805600D02*
X15341600Y-44805600D01*
D34*
X20058000Y-16042788D02*
X19717788Y-16383000D01*
X17907000Y-10513000D02*
X17907000Y-7620000D01*
X6754500Y-14232000D02*
X7152788Y-14232000D01*
X18395500Y-6203500D02*
X18415000Y-6223000D01*
X7493000Y-4412212D02*
X7493000Y-4572000D01*
X5682212Y-6477000D02*
X6096000Y-6477000D01*
X7642000Y-16488000D02*
X7620000Y-16510000D01*
X19558000Y-6223000D02*
X18415000Y-6223000D01*
D37*
X16432400Y-45846000D02*
X16432400Y-47461000D01*
D34*
X7004500Y-17538000D02*
X7004500Y-16656500D01*
X17907000Y-17145000D02*
X17907000Y-16637000D01*
X7493000Y-16383000D02*
X7598000Y-16488000D01*
X17758000Y-16488000D02*
X17780000Y-16510000D01*
X7747000Y-18034000D02*
X7747000Y-17145000D01*
X6754500Y-4072000D02*
X7152788Y-4072000D01*
X8255000Y-16383000D02*
X7747000Y-16383000D01*
D36*
X15341600Y-46837600D02*
X14376400Y-46837600D01*
D34*
X17653000Y-5715000D02*
X17653000Y-6223000D01*
X18247212Y-8628000D02*
X17907000Y-8287788D01*
X18395500Y-5322000D02*
X18395500Y-6203500D01*
X18645500Y-18788000D02*
X18247212Y-18788000D01*
X7747000Y-10363200D02*
X7747000Y-10513000D01*
D35*
X7493000Y-2187000D02*
X7747000Y-2187000D01*
D34*
X15842212Y-16637000D02*
X16256000Y-16637000D01*
X17653000Y-15875000D02*
X17653000Y-16383000D01*
D35*
X7112000Y-10922000D02*
X7188200Y-10922000D01*
X17907000Y-2187000D02*
X18316000Y-1778000D01*
D34*
X8648000Y-6965500D02*
X7766500Y-6965500D01*
X9898000Y-5484500D02*
X9898000Y-5882788D01*
X17653000Y-2187000D02*
X17244000Y-1778000D01*
X7493000Y-6223000D02*
X7598000Y-6328000D01*
X7493000Y-15240000D02*
X7493000Y-15875000D01*
D36*
X16408000Y-45821600D02*
X16432400Y-45846000D01*
D34*
X7004500Y-7378000D02*
X7004500Y-6496500D01*
D35*
X17653000Y-2187000D02*
X17907000Y-2187000D01*
D34*
X16256000Y-16637000D02*
X17145000Y-16637000D01*
X5342000Y-16977212D02*
X5682212Y-16637000D01*
X17653000Y-6477000D02*
X17758000Y-6372000D01*
X18395500Y-16363500D02*
X18415000Y-16383000D01*
X7493000Y-2187000D02*
X7084000Y-1778000D01*
X18808000Y-17125500D02*
X17926500Y-17125500D01*
X17653000Y-16383000D02*
X17758000Y-16488000D01*
X17633500Y-15894500D02*
X17653000Y-15875000D01*
X17653000Y-5080000D02*
X17653000Y-5715000D01*
X7766500Y-6965500D02*
X7747000Y-6985000D01*
X15502000Y-16977212D02*
X15842212Y-16637000D01*
X7493000Y-15875000D02*
X7493000Y-16383000D01*
D35*
X17653000Y-20673000D02*
X17244000Y-21082000D01*
D34*
X7747000Y-18034000D02*
X7747000Y-20645000D01*
X17907000Y-8287788D02*
X17907000Y-7620000D01*
X17653000Y-5080000D02*
X17653000Y-2187000D01*
D37*
%TO.N,+5V*%
X17969700Y-45795800D02*
X17932400Y-45758500D01*
X17969700Y-49885600D02*
X17969700Y-45795800D01*
D38*
%TO.N,unconnected-(J4-Pin_15-Pad15)*%
X23622000Y-3810000D02*
X24130000Y-3810000D01*
D34*
%TO.N,/IMUs/SPI_MOSI*%
X9898000Y-12942463D02*
X9898000Y-13819500D01*
X14020800Y-3886200D02*
X14026663Y-3886200D01*
X15502000Y-9917537D02*
X15502000Y-9040500D01*
X20269200Y-12674600D02*
X20269200Y-12731263D01*
X15316200Y-20263337D02*
X15502000Y-20077537D01*
X11187537Y-8628000D02*
X10310500Y-8628000D01*
X3898900Y-14008100D02*
X3898900Y-14078437D01*
X5130800Y-10160000D02*
X5130800Y-10128737D01*
X5207000Y-20212537D02*
X5342000Y-20077537D01*
X3810000Y-3810000D02*
X3810000Y-3829537D01*
X14058900Y-14078437D02*
X14212463Y-14232000D01*
X11366500Y-18966963D02*
X11187537Y-18788000D01*
X20058000Y-12942463D02*
X20058000Y-13819500D01*
X5342000Y-20077537D02*
X5342000Y-19200500D01*
X11187537Y-18788000D02*
X10310500Y-18788000D01*
X20294600Y-2514600D02*
X20294600Y-2545863D01*
X14212463Y-4072000D02*
X15089500Y-4072000D01*
X14026663Y-3886200D02*
X14212463Y-4072000D01*
X10121900Y-12788900D02*
X10051563Y-12788900D01*
X21533337Y-18973800D02*
X21347537Y-18788000D01*
X21347537Y-8628000D02*
X20470500Y-8628000D01*
X11430000Y-8864600D02*
X11424137Y-8864600D01*
X5207000Y-20523200D02*
X5207000Y-20212537D01*
X5130800Y-10128737D02*
X5342000Y-9917537D01*
X21539200Y-18973800D02*
X21533337Y-18973800D01*
X21347537Y-18788000D02*
X20470500Y-18788000D01*
X15502000Y-20077537D02*
X15502000Y-19200500D01*
X21501100Y-8781563D02*
X21347537Y-8628000D01*
X21501100Y-8851900D02*
X21501100Y-8781563D01*
X10051563Y-12788900D02*
X9898000Y-12942463D01*
X3810000Y-3829537D02*
X4052463Y-4072000D01*
X10140463Y-2540000D02*
X9898000Y-2782463D01*
X20294600Y-2545863D02*
X20058000Y-2782463D01*
X15316200Y-20320000D02*
X15316200Y-20263337D01*
X14058900Y-14008100D02*
X14058900Y-14078437D01*
X20058000Y-2782463D02*
X20058000Y-3659500D01*
X11424137Y-8864600D02*
X11187537Y-8628000D01*
X11366500Y-18986500D02*
X11366500Y-18966963D01*
X9898000Y-2782463D02*
X9898000Y-3659500D01*
X15278100Y-10071100D02*
X15348437Y-10071100D01*
X10287000Y-2540000D02*
X10140463Y-2540000D01*
X20269200Y-12731263D02*
X20058000Y-12942463D01*
X5342000Y-9917537D02*
X5342000Y-9040500D01*
X15348437Y-10071100D02*
X15502000Y-9917537D01*
X14212463Y-14232000D02*
X15089500Y-14232000D01*
X4052463Y-4072000D02*
X4929500Y-4072000D01*
X4052463Y-14232000D02*
X4929500Y-14232000D01*
X3898900Y-14078437D02*
X4052463Y-14232000D01*
%TO.N,/IMUs/SPI_CS*%
X8898000Y-13152150D02*
X8898000Y-13819500D01*
X14109350Y-15544800D02*
X14422150Y-15232000D01*
X21590000Y-17475200D02*
X21450650Y-17475200D01*
X14422150Y-15232000D02*
X15089500Y-15232000D01*
X19058000Y-2992150D02*
X19058000Y-3659500D01*
X6585859Y-20320000D02*
X6585859Y-20111709D01*
X21590000Y-7315200D02*
X21450650Y-7315200D01*
X4000150Y-15494000D02*
X4262150Y-15232000D01*
X16738600Y-9944450D02*
X16502000Y-9707850D01*
X4262150Y-15232000D02*
X4929500Y-15232000D01*
X21450650Y-7315200D02*
X21137850Y-7628000D01*
X18745200Y-2540000D02*
X18745200Y-2679350D01*
X18821400Y-12700000D02*
X18821400Y-12915550D01*
X6578600Y-10160000D02*
X6578600Y-9944450D01*
X8636000Y-2540000D02*
X8636000Y-2730150D01*
X6342000Y-19867850D02*
X6342000Y-19200500D01*
X19058000Y-13152150D02*
X19058000Y-13819500D01*
X4000150Y-5334000D02*
X4262150Y-5072000D01*
X13970000Y-15544800D02*
X14109350Y-15544800D01*
X8559800Y-12813950D02*
X8898000Y-13152150D01*
X4262150Y-5072000D02*
X4929500Y-5072000D01*
X21137850Y-17788000D02*
X20470500Y-17788000D01*
X16502000Y-9707850D02*
X16502000Y-9040500D01*
X13995400Y-5308600D02*
X14185550Y-5308600D01*
X11430000Y-7340600D02*
X11265250Y-7340600D01*
X6578600Y-9944450D02*
X6342000Y-9707850D01*
X3810000Y-5334000D02*
X4000150Y-5334000D01*
X3810000Y-15494000D02*
X4000150Y-15494000D01*
X21137850Y-7628000D02*
X20470500Y-7628000D01*
X14185550Y-5308600D02*
X14422150Y-5072000D01*
X8898000Y-2992150D02*
X8898000Y-3659500D01*
X8559800Y-12700000D02*
X8559800Y-12813950D01*
X11239850Y-17526000D02*
X10977850Y-17788000D01*
X21450650Y-17475200D02*
X21137850Y-17788000D01*
X6585859Y-20111709D02*
X6342000Y-19867850D01*
X8636000Y-2730150D02*
X8898000Y-2992150D01*
X16738600Y-20104450D02*
X16502000Y-19867850D01*
X18745200Y-2679350D02*
X19058000Y-2992150D01*
X16738600Y-10134600D02*
X16738600Y-9944450D01*
X16502000Y-19867850D02*
X16502000Y-19200500D01*
X14422150Y-5072000D02*
X15089500Y-5072000D01*
X18821400Y-12915550D02*
X19058000Y-13152150D01*
X16738600Y-20320000D02*
X16738600Y-20104450D01*
X11430000Y-17526000D02*
X11239850Y-17526000D01*
X10977850Y-7628000D02*
X10310500Y-7628000D01*
X10977850Y-17788000D02*
X10310500Y-17788000D01*
X11265250Y-7340600D02*
X10977850Y-7628000D01*
X6342000Y-9707850D02*
X6342000Y-9040500D01*
%TO.N,/IMUs/SPI_CLK*%
X16002000Y-10160000D02*
X16002000Y-9040500D01*
X11430000Y-18288000D02*
X10310500Y-18288000D01*
X3810000Y-4572000D02*
X4929500Y-4572000D01*
X5842000Y-10160000D02*
X5842000Y-9040500D01*
X19558000Y-12700000D02*
X19558000Y-13819500D01*
X21590000Y-18288000D02*
X20470500Y-18288000D01*
X19558000Y-2540000D02*
X19558000Y-3659500D01*
X9398000Y-2540000D02*
X9398000Y-3659500D01*
X21590000Y-8128000D02*
X20470500Y-8128000D01*
X9398000Y-12700000D02*
X9398000Y-13819500D01*
X13970000Y-4572000D02*
X15089500Y-4572000D01*
X3810000Y-14732000D02*
X4929500Y-14732000D01*
X13970000Y-14732000D02*
X15089500Y-14732000D01*
X16002000Y-20320000D02*
X16002000Y-19200500D01*
X5842000Y-20320000D02*
X5842000Y-19200500D01*
X11430000Y-8128000D02*
X10310500Y-8128000D01*
D35*
%TO.N,/IMUs/SPI_MISO17*%
X13368400Y-40124000D02*
X14107793Y-40124000D01*
X14107793Y-40124000D02*
X14296793Y-39935000D01*
X22980000Y-36444372D02*
X22980000Y-4209400D01*
X22144400Y-3373800D02*
X21168700Y-3373800D01*
X22980000Y-4209400D02*
X22144400Y-3373800D01*
X14296793Y-39935000D02*
X19489372Y-39935000D01*
X21168700Y-3373800D02*
X20720500Y-3822000D01*
X13182600Y-40309800D02*
X13368400Y-40124000D01*
X19489372Y-39935000D02*
X22980000Y-36444372D01*
%TO.N,/IMUs/SPI_MISO18*%
X13665200Y-3352800D02*
X13062000Y-3956000D01*
X15252000Y-3409500D02*
X15195300Y-3352800D01*
X13062000Y-22714000D02*
X13766800Y-23418800D01*
X13950000Y-23602000D02*
X13766800Y-23418800D01*
X13766800Y-23418800D02*
X13843000Y-23495000D01*
X13062000Y-3956000D02*
X13062000Y-22714000D01*
X15195300Y-3352800D02*
X13665200Y-3352800D01*
X13950000Y-24561800D02*
X13950000Y-23602000D01*
%TO.N,/IMUs/SPI_MISO19*%
X13462000Y-10255500D02*
X14839500Y-8878000D01*
X14450000Y-24053800D02*
X14435978Y-24039778D01*
X14435978Y-24039778D02*
X14435978Y-23021178D01*
X14435978Y-23021178D02*
X13462000Y-22047200D01*
X13462000Y-22047200D02*
X13462000Y-10255500D01*
%TO.N,/IMUs/SPI_MISO20*%
X22580000Y-11562500D02*
X20308000Y-9290500D01*
X13233400Y-39624000D02*
X14042107Y-39624000D01*
X14131107Y-39535000D02*
X19323686Y-39535000D01*
X22580000Y-36278686D02*
X22580000Y-11562500D01*
X14042107Y-39624000D02*
X14131107Y-39535000D01*
X19323686Y-39535000D02*
X22580000Y-36278686D01*
%TO.N,/IMUs/SPI_MISO21*%
X19158000Y-39135000D02*
X22180000Y-36113000D01*
X13639800Y-39090600D02*
X13684200Y-39135000D01*
X20720500Y-13696500D02*
X20720500Y-13982000D01*
X22180000Y-36113000D02*
X22180000Y-13970000D01*
X21621200Y-13411200D02*
X21005800Y-13411200D01*
X21005800Y-13411200D02*
X20720500Y-13696500D01*
X13684200Y-39135000D02*
X19158000Y-39135000D01*
X22180000Y-13970000D02*
X21621200Y-13411200D01*
%TO.N,/IMUs/SPI_MISO22*%
X15252000Y-13569500D02*
X15252000Y-13474000D01*
X15252000Y-13474000D02*
X14478000Y-12700000D01*
%TO.N,/IMUs/SPI_MISO23*%
X14605000Y-20339134D02*
X14605000Y-19261500D01*
X14605000Y-19261500D02*
X14839500Y-19027000D01*
X15419493Y-22992107D02*
X15419493Y-21153627D01*
X15419493Y-21153627D02*
X14605000Y-20339134D01*
%TO.N,/IMUs/SPI_MISO24*%
X18992314Y-38735000D02*
X21780000Y-35947314D01*
X21780000Y-35947314D02*
X21780000Y-20922500D01*
X21780000Y-20922500D02*
X20308000Y-19450500D01*
X14206923Y-38735000D02*
X18992314Y-38735000D01*
X14012302Y-38540379D02*
X14206923Y-38735000D01*
%TO.N,/IMUs/SPI_MISO25*%
X5094714Y-30400000D02*
X5094715Y-30400000D01*
X4502000Y-24015314D02*
X4502000Y-29807285D01*
X5094715Y-30400000D02*
X5216443Y-30521728D01*
X11483732Y-13055600D02*
X11483732Y-13058768D01*
X7874000Y-22471000D02*
X6046314Y-22471000D01*
X11483732Y-13058768D02*
X10560500Y-13982000D01*
X4502000Y-29807285D02*
X5094714Y-30400000D01*
X5216443Y-30521728D02*
X5250468Y-30521728D01*
X6046314Y-22471000D02*
X4502000Y-24015314D01*
%TO.N,/IMUs/SPI_MISO26*%
X3839493Y-13360400D02*
X4882900Y-13360400D01*
X8128000Y-38989000D02*
X6096000Y-38989000D01*
X3302000Y-36195000D02*
X3302000Y-13897893D01*
X3302000Y-13897893D02*
X3839493Y-13360400D01*
X6096000Y-38989000D02*
X3302000Y-36195000D01*
X4882900Y-13360400D02*
X5092000Y-13569500D01*
%TO.N,/IMUs/SPI_MISO27*%
X5588000Y-34798000D02*
X4572000Y-34798000D01*
X3702000Y-33928000D02*
X3702000Y-20015500D01*
X4572000Y-34798000D02*
X3702000Y-33928000D01*
X3702000Y-20015500D02*
X4679500Y-19038000D01*
%TO.N,/IMUs/SPI_MISO28*%
X10331900Y-19450500D02*
X10795000Y-19913600D01*
X5969000Y-21971000D02*
X4102000Y-23838000D01*
X10795000Y-20396200D02*
X9220200Y-21971000D01*
X9220200Y-21971000D02*
X5969000Y-21971000D01*
X4102000Y-30217200D02*
X5384800Y-31500000D01*
X10148000Y-19450500D02*
X10331900Y-19450500D01*
X10795000Y-19913600D02*
X10795000Y-20396200D01*
X4102000Y-23838000D02*
X4102000Y-30217200D01*
%TO.N,/IMUs/SPI_MISO29*%
X12446000Y-19847506D02*
X8798506Y-23495000D01*
X5302000Y-24346686D02*
X5302000Y-29203400D01*
X10560500Y-3822000D02*
X11080500Y-3302000D01*
X11080500Y-3302000D02*
X11502107Y-3302000D01*
X12446000Y-4245893D02*
X12446000Y-19847506D01*
X11502107Y-3302000D02*
X12446000Y-4245893D01*
X6153686Y-23495000D02*
X5302000Y-24346686D01*
X8798506Y-23495000D02*
X6153686Y-23495000D01*
X5302000Y-29203400D02*
X5461000Y-29362400D01*
%TO.N,/IMUs/SPI_MISO30*%
X3429000Y-3302000D02*
X4984500Y-3302000D01*
X4984500Y-3302000D02*
X5092000Y-3409500D01*
X7239000Y-40259000D02*
X6096000Y-40259000D01*
X2502000Y-36665000D02*
X2502000Y-4229000D01*
X6096000Y-40259000D02*
X2502000Y-36665000D01*
X2502000Y-4229000D02*
X3429000Y-3302000D01*
%TO.N,/IMUs/SPI_MISO31*%
X2902000Y-10655500D02*
X4679500Y-8878000D01*
X6096000Y-39624000D02*
X2902000Y-36430000D01*
X7747000Y-39624000D02*
X6096000Y-39624000D01*
X2902000Y-36430000D02*
X2902000Y-10655500D01*
%TO.N,/IMUs/SPI_MISO32*%
X10148000Y-9290500D02*
X11983732Y-11126232D01*
X11983732Y-11126232D02*
X11983732Y-19744088D01*
X4902000Y-24181000D02*
X4902000Y-29641600D01*
X5260400Y-30000000D02*
X5638800Y-30000000D01*
X4902000Y-29641600D02*
X5260400Y-30000000D01*
X8632820Y-23095000D02*
X5988000Y-23095000D01*
X11983732Y-19744088D02*
X8632820Y-23095000D01*
X5988000Y-23095000D02*
X4902000Y-24181000D01*
%TO.N,Net-(U33-PA1)*%
X15240000Y-40435000D02*
X22149000Y-40435000D01*
X22149000Y-40435000D02*
X24130000Y-42416000D01*
%TO.N,Net-(U33-PA0)*%
X15902000Y-40935000D02*
X16002000Y-40835000D01*
X14792600Y-40935000D02*
X15902000Y-40935000D01*
X16002000Y-40835000D02*
X20644000Y-40835000D01*
X14757400Y-40970200D02*
X14792600Y-40935000D01*
X20644000Y-40835000D02*
X22225000Y-42416000D01*
%TD*%
%TA.AperFunction,Conductor*%
%TO.N,GNDD*%
G36*
X12707445Y-20107774D02*
G01*
X12750710Y-20151039D01*
X12761500Y-20195984D01*
X12761500Y-22753564D01*
X12766816Y-22773402D01*
X12763615Y-22834503D01*
X12725110Y-22882054D01*
X12666010Y-22897890D01*
X12643299Y-22894016D01*
X12516213Y-22856700D01*
X12516210Y-22856700D01*
X12383790Y-22856700D01*
X12383788Y-22856700D01*
X12256734Y-22894007D01*
X12256733Y-22894007D01*
X12145338Y-22965597D01*
X12058619Y-23065675D01*
X12003609Y-23186130D01*
X12003608Y-23186132D01*
X11984765Y-23317196D01*
X11984765Y-23317203D01*
X12003608Y-23448267D01*
X12003609Y-23448269D01*
X12003609Y-23448270D01*
X12003610Y-23448272D01*
X12058619Y-23568725D01*
X12145336Y-23668801D01*
X12256734Y-23740393D01*
X12383790Y-23777700D01*
X12383791Y-23777700D01*
X12516209Y-23777700D01*
X12516210Y-23777700D01*
X12643266Y-23740393D01*
X12754664Y-23668801D01*
X12841381Y-23568725D01*
X12896390Y-23448272D01*
X12896391Y-23448267D01*
X12915235Y-23317203D01*
X12915235Y-23317197D01*
X12902993Y-23232052D01*
X12913426Y-23171763D01*
X12957304Y-23129121D01*
X13017867Y-23120413D01*
X13070989Y-23147960D01*
X13526339Y-23603311D01*
X13526340Y-23603311D01*
X13620504Y-23697475D01*
X13648281Y-23751992D01*
X13649500Y-23767479D01*
X13649500Y-24168467D01*
X13630593Y-24226658D01*
X13625319Y-24233298D01*
X13558620Y-24310272D01*
X13503609Y-24430730D01*
X13503608Y-24430732D01*
X13484765Y-24561796D01*
X13484765Y-24561803D01*
X13503608Y-24692867D01*
X13503609Y-24692869D01*
X13503609Y-24692870D01*
X13503610Y-24692872D01*
X13558619Y-24813325D01*
X13645336Y-24913401D01*
X13756734Y-24984993D01*
X13883790Y-25022300D01*
X13883791Y-25022300D01*
X14016209Y-25022300D01*
X14016210Y-25022300D01*
X14143266Y-24984993D01*
X14254664Y-24913401D01*
X14341381Y-24813325D01*
X14396390Y-24692872D01*
X14407346Y-24616672D01*
X14409857Y-24599211D01*
X14436853Y-24544303D01*
X14490967Y-24515750D01*
X14507849Y-24514300D01*
X14516209Y-24514300D01*
X14516210Y-24514300D01*
X14613967Y-24485596D01*
X18381565Y-24485596D01*
X18381565Y-24485603D01*
X18400408Y-24616667D01*
X18400409Y-24616669D01*
X18400409Y-24616670D01*
X18400410Y-24616672D01*
X18455419Y-24737125D01*
X18542136Y-24837201D01*
X18653534Y-24908793D01*
X18780590Y-24946100D01*
X18780591Y-24946100D01*
X18913009Y-24946100D01*
X18913010Y-24946100D01*
X19040066Y-24908793D01*
X19151464Y-24837201D01*
X19238181Y-24737125D01*
X19293190Y-24616672D01*
X19293320Y-24615770D01*
X19312035Y-24485603D01*
X19312035Y-24485596D01*
X19293191Y-24354532D01*
X19293190Y-24354530D01*
X19293190Y-24354528D01*
X19238181Y-24234075D01*
X19151464Y-24133999D01*
X19040066Y-24062407D01*
X18935488Y-24031700D01*
X18913011Y-24025100D01*
X18913010Y-24025100D01*
X18780590Y-24025100D01*
X18780588Y-24025100D01*
X18653534Y-24062407D01*
X18653533Y-24062407D01*
X18542138Y-24133997D01*
X18542136Y-24133998D01*
X18542136Y-24133999D01*
X18476108Y-24210199D01*
X18455419Y-24234075D01*
X18400409Y-24354530D01*
X18400408Y-24354532D01*
X18381565Y-24485596D01*
X14613967Y-24485596D01*
X14643266Y-24476993D01*
X14754664Y-24405401D01*
X14841381Y-24305325D01*
X14896390Y-24184872D01*
X14898749Y-24168467D01*
X14906205Y-24116611D01*
X14933201Y-24061703D01*
X14987315Y-24033150D01*
X15004197Y-24031700D01*
X15016209Y-24031700D01*
X15016210Y-24031700D01*
X15143266Y-23994393D01*
X15254664Y-23922801D01*
X15341381Y-23822725D01*
X15396390Y-23702272D01*
X15399663Y-23679511D01*
X15410618Y-23603311D01*
X15415235Y-23571200D01*
X15413937Y-23562176D01*
X15424368Y-23501890D01*
X15468244Y-23459246D01*
X15484037Y-23453096D01*
X15485702Y-23452607D01*
X15485703Y-23452607D01*
X15612759Y-23415300D01*
X15724157Y-23343708D01*
X15810874Y-23243632D01*
X15865883Y-23123179D01*
X15866281Y-23120413D01*
X15884728Y-22992110D01*
X15884728Y-22992103D01*
X15865884Y-22861039D01*
X15865883Y-22861037D01*
X15865883Y-22861035D01*
X15810874Y-22740582D01*
X15810872Y-22740580D01*
X15810872Y-22740579D01*
X15744174Y-22663605D01*
X15720356Y-22607246D01*
X15719993Y-22598774D01*
X15719993Y-21918353D01*
X15738900Y-21860162D01*
X15788400Y-21824198D01*
X15849586Y-21824198D01*
X15869390Y-21833141D01*
X15887803Y-21844031D01*
X16033999Y-21886504D01*
X16034000Y-21886504D01*
X16034000Y-20931000D01*
X16052907Y-20872809D01*
X16102407Y-20836845D01*
X16133000Y-20832000D01*
X16435000Y-20832000D01*
X16493191Y-20850907D01*
X16529155Y-20900407D01*
X16534000Y-20931000D01*
X16534000Y-21886504D01*
X16680197Y-21844030D01*
X16680198Y-21844030D01*
X16819374Y-21761721D01*
X16933720Y-21647375D01*
X16939953Y-21636836D01*
X16985847Y-21596372D01*
X17038088Y-21589075D01*
X17064099Y-21592500D01*
X17423900Y-21592499D01*
X17473487Y-21585972D01*
X17473488Y-21585972D01*
X17532137Y-21558622D01*
X17582316Y-21535224D01*
X17667224Y-21450316D01*
X17690276Y-21400880D01*
X17732002Y-21356134D01*
X17792063Y-21344459D01*
X17847516Y-21370316D01*
X17869723Y-21400880D01*
X17892775Y-21450314D01*
X17892776Y-21450316D01*
X17977684Y-21535224D01*
X18086513Y-21585972D01*
X18136099Y-21592500D01*
X18495900Y-21592499D01*
X18521910Y-21589075D01*
X18582070Y-21600226D01*
X18620042Y-21636830D01*
X18626278Y-21647374D01*
X18740625Y-21761721D01*
X18879802Y-21844030D01*
X19025999Y-21886504D01*
X19026000Y-21886504D01*
X19026000Y-21332001D01*
X19526000Y-21332001D01*
X19526000Y-21886504D01*
X19672197Y-21844030D01*
X19672198Y-21844030D01*
X19811374Y-21761721D01*
X19925721Y-21647374D01*
X20008030Y-21508198D01*
X20008030Y-21508197D01*
X20053144Y-21352912D01*
X20054791Y-21332000D01*
X19526001Y-21332000D01*
X19526000Y-21332001D01*
X19026000Y-21332001D01*
X19026000Y-20736066D01*
X19044907Y-20677875D01*
X19050181Y-20671235D01*
X19076781Y-20640537D01*
X19129177Y-20608941D01*
X19190138Y-20614177D01*
X19226418Y-20640536D01*
X19253336Y-20671601D01*
X19364734Y-20743193D01*
X19454892Y-20769665D01*
X19505398Y-20804201D01*
X19509390Y-20815389D01*
X19526001Y-20832000D01*
X19947913Y-20832000D01*
X20001436Y-20847715D01*
X20075934Y-20895593D01*
X20202990Y-20932900D01*
X20202991Y-20932900D01*
X20335409Y-20932900D01*
X20335410Y-20932900D01*
X20462466Y-20895593D01*
X20573864Y-20824001D01*
X20660581Y-20723925D01*
X20715590Y-20603472D01*
X20727720Y-20519099D01*
X20754715Y-20464195D01*
X20808829Y-20435641D01*
X20869392Y-20444348D01*
X20895716Y-20463187D01*
X21450504Y-21017975D01*
X21478281Y-21072492D01*
X21479500Y-21087979D01*
X21479500Y-35781835D01*
X21460593Y-35840026D01*
X21450504Y-35851839D01*
X18896839Y-38405504D01*
X18842322Y-38433281D01*
X18826835Y-38434500D01*
X14533821Y-38434500D01*
X14475630Y-38415593D01*
X14443768Y-38376626D01*
X14403684Y-38288856D01*
X14403683Y-38288855D01*
X14403683Y-38288854D01*
X14316966Y-38188778D01*
X14205568Y-38117186D01*
X14123089Y-38092968D01*
X14078513Y-38079879D01*
X14078512Y-38079879D01*
X13946092Y-38079879D01*
X13946090Y-38079879D01*
X13819036Y-38117186D01*
X13819035Y-38117186D01*
X13707640Y-38188776D01*
X13620921Y-38288854D01*
X13565911Y-38409309D01*
X13565910Y-38409311D01*
X13547067Y-38540375D01*
X13547067Y-38540382D01*
X13548310Y-38549028D01*
X13537876Y-38609317D01*
X13493998Y-38651959D01*
X13478210Y-38658106D01*
X13446534Y-38667406D01*
X13335138Y-38738997D01*
X13248419Y-38839075D01*
X13193409Y-38959530D01*
X13193408Y-38959532D01*
X13173557Y-39097608D01*
X13171296Y-39097282D01*
X13155658Y-39145414D01*
X13106158Y-39181378D01*
X13103458Y-39182212D01*
X13040139Y-39200804D01*
X13040133Y-39200807D01*
X12928738Y-39272397D01*
X12928736Y-39272398D01*
X12928736Y-39272399D01*
X12869638Y-39340601D01*
X12842019Y-39372475D01*
X12787009Y-39492930D01*
X12787008Y-39492932D01*
X12768165Y-39623996D01*
X12768165Y-39624003D01*
X12787008Y-39755067D01*
X12787009Y-39755069D01*
X12787009Y-39755070D01*
X12787010Y-39755072D01*
X12839496Y-39870000D01*
X12842021Y-39875529D01*
X12845847Y-39881482D01*
X12843847Y-39882767D01*
X12863436Y-39929102D01*
X12849585Y-39988699D01*
X12839620Y-40002417D01*
X12791219Y-40058275D01*
X12736209Y-40178730D01*
X12736208Y-40178732D01*
X12717365Y-40309796D01*
X12717365Y-40309803D01*
X12736208Y-40440867D01*
X12736209Y-40440869D01*
X12736209Y-40440870D01*
X12736210Y-40440872D01*
X12791219Y-40561325D01*
X12877936Y-40661401D01*
X12989334Y-40732993D01*
X13116390Y-40770300D01*
X13116391Y-40770300D01*
X13248809Y-40770300D01*
X13248810Y-40770300D01*
X13375866Y-40732993D01*
X13487264Y-40661401D01*
X13573981Y-40561325D01*
X13610037Y-40482372D01*
X13651408Y-40437296D01*
X13700090Y-40424500D01*
X14147356Y-40424500D01*
X14147356Y-40424499D01*
X14223782Y-40404021D01*
X14292304Y-40364460D01*
X14348253Y-40308511D01*
X14392268Y-40264496D01*
X14446785Y-40236719D01*
X14462272Y-40235500D01*
X14689196Y-40235500D01*
X14747387Y-40254407D01*
X14783351Y-40303907D01*
X14787188Y-40348590D01*
X14776108Y-40425651D01*
X14749112Y-40480558D01*
X14697940Y-40507557D01*
X14697984Y-40507705D01*
X14697257Y-40507918D01*
X14694997Y-40509111D01*
X14692209Y-40509553D01*
X14691192Y-40509699D01*
X14564134Y-40547007D01*
X14564133Y-40547007D01*
X14452738Y-40618597D01*
X14452736Y-40618598D01*
X14452736Y-40618599D01*
X14370420Y-40713596D01*
X14366019Y-40718675D01*
X14311009Y-40839130D01*
X14311008Y-40839132D01*
X14292165Y-40970196D01*
X14292165Y-40970203D01*
X14311008Y-41101267D01*
X14311009Y-41101269D01*
X14311009Y-41101270D01*
X14311010Y-41101272D01*
X14366019Y-41221725D01*
X14452736Y-41321801D01*
X14564134Y-41393393D01*
X14691190Y-41430700D01*
X14691191Y-41430700D01*
X14823609Y-41430700D01*
X14823610Y-41430700D01*
X14950666Y-41393393D01*
X15062064Y-41321801D01*
X15107238Y-41269668D01*
X15159635Y-41238073D01*
X15182057Y-41235500D01*
X15941563Y-41235500D01*
X15941563Y-41235499D01*
X16017989Y-41215021D01*
X16086511Y-41175460D01*
X16097476Y-41164494D01*
X16151991Y-41136719D01*
X16167478Y-41135500D01*
X20478521Y-41135500D01*
X20536712Y-41154407D01*
X20548525Y-41164496D01*
X21675504Y-42291475D01*
X21703281Y-42345992D01*
X21704500Y-42361479D01*
X21704500Y-42590314D01*
X21710932Y-42639174D01*
X21710932Y-42639175D01*
X21760933Y-42746401D01*
X21760934Y-42746402D01*
X21760935Y-42746404D01*
X21844596Y-42830065D01*
X21844597Y-42830065D01*
X21844598Y-42830066D01*
X21857915Y-42836276D01*
X21902663Y-42878005D01*
X21914337Y-42938066D01*
X21888478Y-42993518D01*
X21857915Y-43015724D01*
X21844598Y-43021933D01*
X21760933Y-43105598D01*
X21710932Y-43212824D01*
X21710932Y-43212825D01*
X21704500Y-43261685D01*
X21704500Y-43610314D01*
X21710932Y-43659174D01*
X21710932Y-43659175D01*
X21760933Y-43766401D01*
X21760934Y-43766402D01*
X21760935Y-43766404D01*
X21844596Y-43850065D01*
X21844597Y-43850065D01*
X21844598Y-43850066D01*
X21951824Y-43900067D01*
X21951825Y-43900067D01*
X21951827Y-43900068D01*
X22000684Y-43906500D01*
X22000685Y-43906500D01*
X22449314Y-43906500D01*
X22449316Y-43906500D01*
X22498173Y-43900068D01*
X22605404Y-43850065D01*
X22689065Y-43766404D01*
X22739068Y-43659173D01*
X22745500Y-43610316D01*
X22745500Y-43261684D01*
X22739068Y-43212827D01*
X22689065Y-43105596D01*
X22605404Y-43021935D01*
X22592085Y-43015724D01*
X22547337Y-42973997D01*
X22535662Y-42913936D01*
X22561519Y-42858483D01*
X22592084Y-42836275D01*
X22605404Y-42830065D01*
X22689065Y-42746404D01*
X22739068Y-42639173D01*
X22745500Y-42590316D01*
X22745500Y-42241684D01*
X22739068Y-42192827D01*
X22689065Y-42085596D01*
X22605404Y-42001935D01*
X22605402Y-42001934D01*
X22605401Y-42001933D01*
X22498175Y-41951932D01*
X22465601Y-41947644D01*
X22449316Y-41945500D01*
X22449315Y-41945500D01*
X22220479Y-41945500D01*
X22162288Y-41926593D01*
X22150475Y-41916504D01*
X21138475Y-40904504D01*
X21110698Y-40849987D01*
X21120269Y-40789555D01*
X21163534Y-40746290D01*
X21208479Y-40735500D01*
X21983521Y-40735500D01*
X22041712Y-40754407D01*
X22053525Y-40764496D01*
X23580504Y-42291475D01*
X23608281Y-42345992D01*
X23609500Y-42361479D01*
X23609500Y-42590314D01*
X23615932Y-42639174D01*
X23615932Y-42639175D01*
X23665933Y-42746401D01*
X23665934Y-42746402D01*
X23665935Y-42746404D01*
X23749596Y-42830065D01*
X23749597Y-42830065D01*
X23749598Y-42830066D01*
X23762915Y-42836276D01*
X23807663Y-42878005D01*
X23819337Y-42938066D01*
X23793478Y-42993518D01*
X23762915Y-43015724D01*
X23749598Y-43021933D01*
X23665933Y-43105598D01*
X23615932Y-43212824D01*
X23615932Y-43212825D01*
X23609500Y-43261685D01*
X23609500Y-43610314D01*
X23615932Y-43659174D01*
X23615932Y-43659175D01*
X23665933Y-43766401D01*
X23665934Y-43766402D01*
X23665935Y-43766404D01*
X23749596Y-43850065D01*
X23749597Y-43850065D01*
X23749598Y-43850066D01*
X23856824Y-43900067D01*
X23856825Y-43900067D01*
X23856827Y-43900068D01*
X23905684Y-43906500D01*
X23905685Y-43906500D01*
X24354314Y-43906500D01*
X24354316Y-43906500D01*
X24403173Y-43900068D01*
X24510404Y-43850065D01*
X24594065Y-43766404D01*
X24644068Y-43659173D01*
X24650500Y-43610316D01*
X24650500Y-43261684D01*
X24644068Y-43212827D01*
X24594065Y-43105596D01*
X24510404Y-43021935D01*
X24497085Y-43015724D01*
X24452337Y-42973997D01*
X24440662Y-42913936D01*
X24466519Y-42858483D01*
X24497084Y-42836275D01*
X24510404Y-42830065D01*
X24594065Y-42746404D01*
X24644068Y-42639173D01*
X24650500Y-42590316D01*
X24650500Y-42241684D01*
X24644068Y-42192827D01*
X24594065Y-42085596D01*
X24510404Y-42001935D01*
X24510402Y-42001934D01*
X24510401Y-42001933D01*
X24403175Y-41951932D01*
X24370601Y-41947644D01*
X24354316Y-41945500D01*
X24354315Y-41945500D01*
X24125479Y-41945500D01*
X24067288Y-41926593D01*
X24055475Y-41916504D01*
X22983987Y-40845016D01*
X22956210Y-40790499D01*
X22965781Y-40730067D01*
X23009046Y-40686802D01*
X23069478Y-40677231D01*
X23088588Y-40682254D01*
X23172621Y-40713596D01*
X23172629Y-40713598D01*
X23232176Y-40720000D01*
X23879999Y-40720000D01*
X23880000Y-40719999D01*
X23880000Y-39803012D01*
X23937007Y-39835925D01*
X24064174Y-39870000D01*
X24195826Y-39870000D01*
X24322993Y-39835925D01*
X24380000Y-39803012D01*
X24380000Y-40719999D01*
X24380001Y-40720000D01*
X25027824Y-40720000D01*
X25087370Y-40713598D01*
X25087381Y-40713596D01*
X25222087Y-40663354D01*
X25241669Y-40648695D01*
X25299584Y-40628957D01*
X25358039Y-40647030D01*
X25394707Y-40696010D01*
X25400000Y-40727947D01*
X25400000Y-53241000D01*
X25381093Y-53299191D01*
X25331593Y-53335155D01*
X25301000Y-53340000D01*
X99000Y-53340000D01*
X40809Y-53321093D01*
X4845Y-53271593D01*
X0Y-53241000D01*
X0Y-49894601D01*
X14823801Y-49894601D01*
X14823801Y-49917922D01*
X14833942Y-50017197D01*
X14833945Y-50017209D01*
X14887254Y-50178087D01*
X14976225Y-50322329D01*
X15096070Y-50442174D01*
X15240312Y-50531145D01*
X15401196Y-50584456D01*
X15500477Y-50594599D01*
X15548800Y-50594598D01*
X15548800Y-49894601D01*
X16048800Y-49894601D01*
X16048800Y-50594598D01*
X16048801Y-50594599D01*
X16097122Y-50594599D01*
X16196397Y-50584457D01*
X16196409Y-50584454D01*
X16357287Y-50531145D01*
X16501529Y-50442174D01*
X16621374Y-50322329D01*
X16710345Y-50178087D01*
X16763656Y-50017203D01*
X16773800Y-49917923D01*
X16773800Y-49894601D01*
X16773799Y-49894600D01*
X16048801Y-49894600D01*
X16048800Y-49894601D01*
X15548800Y-49894601D01*
X15548799Y-49894600D01*
X14823802Y-49894600D01*
X14823801Y-49894601D01*
X0Y-49894601D01*
X0Y-49365996D01*
X11218765Y-49365996D01*
X11218765Y-49366003D01*
X11237608Y-49497067D01*
X11237609Y-49497069D01*
X11237609Y-49497070D01*
X11237610Y-49497072D01*
X11292619Y-49617525D01*
X11379336Y-49717601D01*
X11490734Y-49789193D01*
X11617790Y-49826500D01*
X11617791Y-49826500D01*
X11750209Y-49826500D01*
X11750210Y-49826500D01*
X11877266Y-49789193D01*
X11988664Y-49717601D01*
X12075381Y-49617525D01*
X12130390Y-49497072D01*
X12145123Y-49394600D01*
X12149235Y-49366003D01*
X12149235Y-49365996D01*
X12130391Y-49234932D01*
X12130390Y-49234930D01*
X12130390Y-49234928D01*
X12075381Y-49114475D01*
X11988664Y-49014399D01*
X11877266Y-48942807D01*
X11813738Y-48924153D01*
X11750211Y-48905500D01*
X11750210Y-48905500D01*
X11617790Y-48905500D01*
X11617788Y-48905500D01*
X11490734Y-48942807D01*
X11490733Y-48942807D01*
X11379338Y-49014397D01*
X11292619Y-49114475D01*
X11237609Y-49234930D01*
X11237608Y-49234932D01*
X11218765Y-49365996D01*
X0Y-49365996D01*
X0Y-45465996D01*
X11218765Y-45465996D01*
X11218765Y-45466003D01*
X11237608Y-45597067D01*
X11237609Y-45597069D01*
X11237609Y-45597070D01*
X11237610Y-45597072D01*
X11292619Y-45717525D01*
X11379336Y-45817601D01*
X11490734Y-45889193D01*
X11617790Y-45926500D01*
X11617791Y-45926500D01*
X11750209Y-45926500D01*
X11750210Y-45926500D01*
X11877266Y-45889193D01*
X11988664Y-45817601D01*
X12075381Y-45717525D01*
X12130390Y-45597072D01*
X12130544Y-45596000D01*
X12149235Y-45466003D01*
X12149235Y-45465996D01*
X12130391Y-45334932D01*
X12130390Y-45334930D01*
X12130390Y-45334928D01*
X12075381Y-45214475D01*
X11988664Y-45114399D01*
X11877266Y-45042807D01*
X11802998Y-45021000D01*
X11750211Y-45005500D01*
X11750210Y-45005500D01*
X11617790Y-45005500D01*
X11617788Y-45005500D01*
X11490734Y-45042807D01*
X11490733Y-45042807D01*
X11379338Y-45114397D01*
X11292619Y-45214475D01*
X11237609Y-45334930D01*
X11237608Y-45334932D01*
X11218765Y-45465996D01*
X0Y-45465996D01*
X0Y-44736604D01*
X13675900Y-44736604D01*
X13675900Y-46906595D01*
X13702820Y-47041927D01*
X13702820Y-47041929D01*
X13755622Y-47169406D01*
X13755628Y-47169417D01*
X13832285Y-47284141D01*
X13929858Y-47381714D01*
X14044582Y-47458371D01*
X14044593Y-47458377D01*
X14091683Y-47477882D01*
X14172072Y-47511180D01*
X14307407Y-47538100D01*
X15078604Y-47538100D01*
X15136795Y-47557007D01*
X15172759Y-47606507D01*
X15172759Y-47667693D01*
X15166814Y-47682045D01*
X15139081Y-47736472D01*
X15139081Y-47736474D01*
X15125441Y-47822597D01*
X15123300Y-47836112D01*
X15123300Y-48353088D01*
X15134906Y-48426369D01*
X15139081Y-48452725D01*
X15139083Y-48452732D01*
X15192622Y-48557807D01*
X15200272Y-48572820D01*
X15241583Y-48614131D01*
X15269359Y-48668646D01*
X15259788Y-48729078D01*
X15223551Y-48768393D01*
X15096070Y-48847025D01*
X14976225Y-48966870D01*
X14887254Y-49111112D01*
X14833943Y-49271996D01*
X14823800Y-49371276D01*
X14823800Y-49394599D01*
X14823801Y-49394600D01*
X16773798Y-49394600D01*
X16773799Y-49394599D01*
X16773799Y-49371277D01*
X16763657Y-49272002D01*
X16763654Y-49271990D01*
X16710345Y-49111112D01*
X16621374Y-48966870D01*
X16501530Y-48847026D01*
X16374048Y-48768393D01*
X16334447Y-48721752D01*
X16329824Y-48660741D01*
X16356016Y-48614131D01*
X16397328Y-48572820D01*
X16458519Y-48452726D01*
X16474300Y-48353088D01*
X16474300Y-48097210D01*
X16493207Y-48039019D01*
X16503297Y-48027206D01*
X16568729Y-47961774D01*
X16792890Y-47737614D01*
X16852199Y-47634887D01*
X16859859Y-47606300D01*
X16882900Y-47520309D01*
X16882900Y-46781575D01*
X16901807Y-46723384D01*
X16951307Y-46687420D01*
X16959842Y-46685192D01*
X16960625Y-46684868D01*
X16960631Y-46684867D01*
X17026952Y-46640552D01*
X17071267Y-46574231D01*
X17077733Y-46541724D01*
X17083850Y-46510977D01*
X17086137Y-46511432D01*
X17106992Y-46463676D01*
X17159760Y-46432706D01*
X17220655Y-46438667D01*
X17266416Y-46479282D01*
X17279412Y-46518307D01*
X17282050Y-46541724D01*
X17282052Y-46541728D01*
X17321734Y-46624127D01*
X17393237Y-46681149D01*
X17442229Y-46692331D01*
X17494754Y-46723712D01*
X17518801Y-46779974D01*
X17519200Y-46788849D01*
X17519200Y-48426369D01*
X17500293Y-48484560D01*
X17452898Y-48519813D01*
X17344316Y-48557807D01*
X17235055Y-48638445D01*
X17235045Y-48638455D01*
X17154407Y-48747716D01*
X17109555Y-48875896D01*
X17109553Y-48875905D01*
X17106700Y-48906325D01*
X17106700Y-50864874D01*
X17109553Y-50895294D01*
X17109555Y-50895303D01*
X17154407Y-51023483D01*
X17235045Y-51132744D01*
X17235047Y-51132746D01*
X17235050Y-51132750D01*
X17235053Y-51132752D01*
X17235055Y-51132754D01*
X17344316Y-51213392D01*
X17344317Y-51213392D01*
X17344318Y-51213393D01*
X17472501Y-51258246D01*
X17502925Y-51261099D01*
X17502927Y-51261100D01*
X17502934Y-51261100D01*
X18436473Y-51261100D01*
X18436473Y-51261099D01*
X18466899Y-51258246D01*
X18595082Y-51213393D01*
X18704350Y-51132750D01*
X18784993Y-51023482D01*
X18829846Y-50895299D01*
X18832699Y-50864873D01*
X18832700Y-50864873D01*
X18832700Y-50135601D01*
X19882201Y-50135601D01*
X19882201Y-50860586D01*
X19892692Y-50963287D01*
X19892695Y-50963299D01*
X19947843Y-51129724D01*
X20039880Y-51278940D01*
X20163859Y-51402919D01*
X20313075Y-51494956D01*
X20479506Y-51550106D01*
X20582213Y-51560599D01*
X20794698Y-51560599D01*
X20794700Y-51560598D01*
X20794700Y-50135601D01*
X21294700Y-50135601D01*
X21294700Y-51560598D01*
X21294701Y-51560599D01*
X21507186Y-51560599D01*
X21609887Y-51550107D01*
X21609899Y-51550104D01*
X21776324Y-51494956D01*
X21925540Y-51402919D01*
X22049519Y-51278940D01*
X22141556Y-51129724D01*
X22196706Y-50963293D01*
X22207200Y-50860587D01*
X22207200Y-50135601D01*
X22207199Y-50135600D01*
X21294701Y-50135600D01*
X21294700Y-50135601D01*
X20794700Y-50135601D01*
X20794699Y-50135600D01*
X19882202Y-50135600D01*
X19882201Y-50135601D01*
X18832700Y-50135601D01*
X18832700Y-48910612D01*
X19882200Y-48910612D01*
X19882200Y-49635599D01*
X19882201Y-49635600D01*
X20794699Y-49635600D01*
X20794700Y-49635599D01*
X20794700Y-48210601D01*
X21294700Y-48210601D01*
X21294700Y-49635599D01*
X21294701Y-49635600D01*
X22207198Y-49635600D01*
X22207199Y-49635599D01*
X22207199Y-48910613D01*
X22196707Y-48807912D01*
X22196704Y-48807900D01*
X22141556Y-48641475D01*
X22049519Y-48492259D01*
X21925540Y-48368280D01*
X21776324Y-48276243D01*
X21609893Y-48221093D01*
X21507187Y-48210600D01*
X21294701Y-48210600D01*
X21294700Y-48210601D01*
X20794700Y-48210601D01*
X20794699Y-48210600D01*
X20582213Y-48210600D01*
X20479512Y-48221092D01*
X20479500Y-48221095D01*
X20313075Y-48276243D01*
X20163859Y-48368280D01*
X20039880Y-48492259D01*
X19947843Y-48641475D01*
X19892693Y-48807906D01*
X19882200Y-48910612D01*
X18832700Y-48910612D01*
X18832700Y-48906327D01*
X18832699Y-48906325D01*
X18829846Y-48875905D01*
X18829846Y-48875901D01*
X18784993Y-48747718D01*
X18771236Y-48729078D01*
X18704354Y-48638455D01*
X18704352Y-48638453D01*
X18704350Y-48638450D01*
X18704346Y-48638447D01*
X18704344Y-48638445D01*
X18595083Y-48557807D01*
X18486502Y-48519813D01*
X18437822Y-48482748D01*
X18420200Y-48426369D01*
X18420200Y-48223886D01*
X18439107Y-48165695D01*
X18488607Y-48129731D01*
X18549793Y-48129731D01*
X18569597Y-48138673D01*
X18603006Y-48158432D01*
X18749199Y-48200904D01*
X18749200Y-48200904D01*
X18749200Y-47646401D01*
X19249200Y-47646401D01*
X19249200Y-48200904D01*
X19395397Y-48158430D01*
X19395398Y-48158430D01*
X19534574Y-48076121D01*
X19648921Y-47961774D01*
X19731230Y-47822598D01*
X19731230Y-47822597D01*
X19776344Y-47667312D01*
X19777991Y-47646400D01*
X19249201Y-47646400D01*
X19249200Y-47646401D01*
X18749200Y-47646401D01*
X18749200Y-47245400D01*
X18768107Y-47187209D01*
X18817607Y-47151245D01*
X18848200Y-47146400D01*
X19777989Y-47146400D01*
X19776344Y-47125487D01*
X19776342Y-47125475D01*
X19775512Y-47122616D01*
X19775557Y-47121173D01*
X19775435Y-47120503D01*
X19775579Y-47120476D01*
X19777436Y-47061461D01*
X19814939Y-47013117D01*
X19870582Y-46996000D01*
X19930224Y-46996000D01*
X19989770Y-46989598D01*
X19989781Y-46989596D01*
X20124488Y-46939353D01*
X20124490Y-46939352D01*
X20239584Y-46853192D01*
X20239592Y-46853184D01*
X20325752Y-46738090D01*
X20325753Y-46738088D01*
X20375996Y-46603381D01*
X20375998Y-46603370D01*
X20382400Y-46543824D01*
X20382400Y-46096001D01*
X20382399Y-46096000D01*
X19281400Y-46096000D01*
X19223209Y-46077093D01*
X19187245Y-46027593D01*
X19182400Y-45997000D01*
X19182400Y-44696001D01*
X19682400Y-44696001D01*
X19682400Y-45595999D01*
X19682401Y-45596000D01*
X20382399Y-45596000D01*
X20382400Y-45595999D01*
X20382400Y-45148175D01*
X20375998Y-45088629D01*
X20375996Y-45088618D01*
X20325753Y-44953911D01*
X20325752Y-44953909D01*
X20239592Y-44838815D01*
X20239584Y-44838807D01*
X20124490Y-44752647D01*
X20124488Y-44752646D01*
X19989781Y-44702403D01*
X19989770Y-44702401D01*
X19930224Y-44696000D01*
X19682401Y-44696000D01*
X19682400Y-44696001D01*
X19182400Y-44696001D01*
X19182399Y-44696000D01*
X19103400Y-44696000D01*
X19045209Y-44677093D01*
X19009245Y-44627593D01*
X19004400Y-44597000D01*
X19004400Y-41896000D01*
X18999248Y-41850272D01*
X18959566Y-41767873D01*
X18888063Y-41710851D01*
X18888062Y-41710850D01*
X18798900Y-41690500D01*
X17065900Y-41690500D01*
X17065898Y-41690500D01*
X17020172Y-41695651D01*
X16937772Y-41735334D01*
X16880750Y-41806837D01*
X16860400Y-41896000D01*
X16860400Y-44896500D01*
X16841493Y-44954691D01*
X16791993Y-44990655D01*
X16761400Y-44995500D01*
X16141100Y-44995500D01*
X16082909Y-44976593D01*
X16046945Y-44927093D01*
X16042100Y-44896500D01*
X16042100Y-44736608D01*
X16042099Y-44736604D01*
X16035296Y-44702403D01*
X16015180Y-44601272D01*
X15962375Y-44473789D01*
X15962374Y-44473787D01*
X15962371Y-44473782D01*
X15885714Y-44359058D01*
X15788141Y-44261485D01*
X15673417Y-44184828D01*
X15673406Y-44184822D01*
X15545928Y-44132020D01*
X15410595Y-44105100D01*
X15410593Y-44105100D01*
X14445393Y-44105100D01*
X14307407Y-44105100D01*
X14307404Y-44105100D01*
X14172072Y-44132020D01*
X14172070Y-44132020D01*
X14044593Y-44184822D01*
X14044582Y-44184828D01*
X13929858Y-44261485D01*
X13832285Y-44359058D01*
X13755628Y-44473782D01*
X13755622Y-44473793D01*
X13702820Y-44601270D01*
X13702820Y-44601272D01*
X13675900Y-44736604D01*
X0Y-44736604D01*
X0Y-43687996D01*
X4868765Y-43687996D01*
X4868765Y-43688003D01*
X4887608Y-43819067D01*
X4887609Y-43819069D01*
X4887609Y-43819070D01*
X4887610Y-43819072D01*
X4942619Y-43939525D01*
X5029336Y-44039601D01*
X5140734Y-44111193D01*
X5267790Y-44148500D01*
X5267791Y-44148500D01*
X5400209Y-44148500D01*
X5400210Y-44148500D01*
X5527266Y-44111193D01*
X5638664Y-44039601D01*
X5725381Y-43939525D01*
X5780390Y-43819072D01*
X5780391Y-43819067D01*
X5799235Y-43688003D01*
X5799235Y-43687996D01*
X6138765Y-43687996D01*
X6138765Y-43688003D01*
X6157608Y-43819067D01*
X6157609Y-43819069D01*
X6157609Y-43819070D01*
X6157610Y-43819072D01*
X6212619Y-43939525D01*
X6299336Y-44039601D01*
X6410734Y-44111193D01*
X6537790Y-44148500D01*
X6537791Y-44148500D01*
X6670209Y-44148500D01*
X6670210Y-44148500D01*
X6797266Y-44111193D01*
X6908664Y-44039601D01*
X6995381Y-43939525D01*
X7050390Y-43819072D01*
X7050391Y-43819067D01*
X7069235Y-43688003D01*
X7069235Y-43687996D01*
X7050391Y-43556932D01*
X7050390Y-43556930D01*
X7050390Y-43556928D01*
X6995381Y-43436475D01*
X6908664Y-43336399D01*
X6797266Y-43264807D01*
X6733738Y-43246153D01*
X6670211Y-43227500D01*
X6670210Y-43227500D01*
X6537790Y-43227500D01*
X6537788Y-43227500D01*
X6410734Y-43264807D01*
X6410733Y-43264807D01*
X6299338Y-43336397D01*
X6212619Y-43436475D01*
X6157609Y-43556930D01*
X6157608Y-43556932D01*
X6138765Y-43687996D01*
X5799235Y-43687996D01*
X5780391Y-43556932D01*
X5780390Y-43556930D01*
X5780390Y-43556928D01*
X5725381Y-43436475D01*
X5638664Y-43336399D01*
X5527266Y-43264807D01*
X5463738Y-43246153D01*
X5400211Y-43227500D01*
X5400210Y-43227500D01*
X5267790Y-43227500D01*
X5267788Y-43227500D01*
X5140734Y-43264807D01*
X5140733Y-43264807D01*
X5029338Y-43336397D01*
X4942619Y-43436475D01*
X4887609Y-43556930D01*
X4887608Y-43556932D01*
X4868765Y-43687996D01*
X0Y-43687996D01*
X0Y-40727947D01*
X18907Y-40669756D01*
X68407Y-40633792D01*
X129593Y-40633792D01*
X158331Y-40648695D01*
X177912Y-40663354D01*
X312618Y-40713596D01*
X312629Y-40713598D01*
X372176Y-40720000D01*
X1019999Y-40720000D01*
X1020000Y-40719999D01*
X1020000Y-39803012D01*
X1077007Y-39835925D01*
X1204174Y-39870000D01*
X1335826Y-39870000D01*
X1462993Y-39835925D01*
X1520000Y-39803012D01*
X1520000Y-40719999D01*
X1520001Y-40720000D01*
X2167824Y-40720000D01*
X2227370Y-40713598D01*
X2227381Y-40713596D01*
X2362088Y-40663353D01*
X2362090Y-40663352D01*
X2477184Y-40577192D01*
X2477192Y-40577184D01*
X2563352Y-40462090D01*
X2563353Y-40462088D01*
X2613596Y-40327381D01*
X2613598Y-40327370D01*
X2620000Y-40267824D01*
X2620000Y-39620001D01*
X2619999Y-39620000D01*
X1703012Y-39620000D01*
X1735925Y-39562993D01*
X1770000Y-39435826D01*
X1770000Y-39304174D01*
X1735925Y-39177007D01*
X1703012Y-39120000D01*
X2619999Y-39120000D01*
X2620000Y-39119999D01*
X2620000Y-38472175D01*
X2613598Y-38412629D01*
X2613596Y-38412618D01*
X2563353Y-38277911D01*
X2563352Y-38277909D01*
X2477192Y-38162815D01*
X2477184Y-38162807D01*
X2362090Y-38076647D01*
X2362088Y-38076646D01*
X2227381Y-38026403D01*
X2227370Y-38026401D01*
X2167824Y-38020000D01*
X1633361Y-38020000D01*
X1575170Y-38001093D01*
X1539206Y-37951593D01*
X1539206Y-37890407D01*
X1575170Y-37840907D01*
X1604623Y-37826263D01*
X1673954Y-37805232D01*
X1856450Y-37707685D01*
X2016410Y-37576410D01*
X2147685Y-37416450D01*
X2245232Y-37233954D01*
X2290557Y-37084534D01*
X2325542Y-37034338D01*
X2383350Y-37014292D01*
X2441901Y-37032053D01*
X2455298Y-37043269D01*
X5911489Y-40499460D01*
X5911491Y-40499461D01*
X5911492Y-40499462D01*
X5911493Y-40499463D01*
X5980008Y-40539020D01*
X5980006Y-40539020D01*
X5980010Y-40539021D01*
X5980012Y-40539022D01*
X6056438Y-40559500D01*
X6135562Y-40559500D01*
X6844844Y-40559500D01*
X6903035Y-40578407D01*
X6919662Y-40593667D01*
X6934336Y-40610601D01*
X7045734Y-40682193D01*
X7172790Y-40719500D01*
X7172791Y-40719500D01*
X7305209Y-40719500D01*
X7305210Y-40719500D01*
X7432266Y-40682193D01*
X7543664Y-40610601D01*
X7630381Y-40510525D01*
X7685390Y-40390072D01*
X7685391Y-40390067D01*
X7704235Y-40259003D01*
X7704235Y-40258997D01*
X7695406Y-40197589D01*
X7705839Y-40137300D01*
X7749717Y-40094657D01*
X7793398Y-40084500D01*
X7813209Y-40084500D01*
X7813210Y-40084500D01*
X7940266Y-40047193D01*
X8051664Y-39975601D01*
X8138381Y-39875525D01*
X8193390Y-39755072D01*
X8212235Y-39624000D01*
X8212234Y-39623996D01*
X8206739Y-39585774D01*
X8199640Y-39536399D01*
X8210073Y-39476111D01*
X8253951Y-39433469D01*
X8269733Y-39427324D01*
X8321266Y-39412193D01*
X8432664Y-39340601D01*
X8519381Y-39240525D01*
X8574390Y-39120072D01*
X8574391Y-39120067D01*
X8593235Y-38989003D01*
X8593235Y-38988996D01*
X8574391Y-38857932D01*
X8574390Y-38857930D01*
X8574390Y-38857928D01*
X8519381Y-38737475D01*
X8432664Y-38637399D01*
X8321266Y-38565807D01*
X8257738Y-38547153D01*
X8194211Y-38528500D01*
X8194210Y-38528500D01*
X8061790Y-38528500D01*
X8061788Y-38528500D01*
X7934734Y-38565807D01*
X7934733Y-38565807D01*
X7823335Y-38637399D01*
X7808662Y-38654333D01*
X7756265Y-38685928D01*
X7733844Y-38688500D01*
X6261479Y-38688500D01*
X6203288Y-38669593D01*
X6191475Y-38659504D01*
X5504967Y-37972996D01*
X6773765Y-37972996D01*
X6773765Y-37973003D01*
X6792608Y-38104067D01*
X6792609Y-38104069D01*
X6792609Y-38104070D01*
X6792610Y-38104072D01*
X6847619Y-38224525D01*
X6934336Y-38324601D01*
X7045734Y-38396193D01*
X7172790Y-38433500D01*
X7172791Y-38433500D01*
X7305209Y-38433500D01*
X7305210Y-38433500D01*
X7432266Y-38396193D01*
X7543664Y-38324601D01*
X7630381Y-38224525D01*
X7685390Y-38104072D01*
X7685391Y-38104067D01*
X7704235Y-37973003D01*
X7704235Y-37972996D01*
X7685391Y-37841932D01*
X7685390Y-37841930D01*
X7685390Y-37841928D01*
X7630381Y-37721475D01*
X7543664Y-37621399D01*
X7432266Y-37549807D01*
X7368738Y-37531153D01*
X7305211Y-37512500D01*
X7305210Y-37512500D01*
X7172790Y-37512500D01*
X7172788Y-37512500D01*
X7045734Y-37549807D01*
X7045733Y-37549807D01*
X6934338Y-37621397D01*
X6847619Y-37721475D01*
X6792609Y-37841930D01*
X6792608Y-37841932D01*
X6773765Y-37972996D01*
X5504967Y-37972996D01*
X4784556Y-37252585D01*
X18416176Y-37252585D01*
X18416176Y-37252592D01*
X18435019Y-37383656D01*
X18435020Y-37383658D01*
X18435020Y-37383659D01*
X18435021Y-37383661D01*
X18490030Y-37504114D01*
X18576747Y-37604190D01*
X18688145Y-37675782D01*
X18815201Y-37713089D01*
X18815202Y-37713089D01*
X18947620Y-37713089D01*
X18947621Y-37713089D01*
X19074677Y-37675782D01*
X19186075Y-37604190D01*
X19272792Y-37504114D01*
X19327801Y-37383661D01*
X19346646Y-37252589D01*
X19346646Y-37252585D01*
X19327802Y-37121521D01*
X19327801Y-37121519D01*
X19327801Y-37121517D01*
X19272792Y-37001064D01*
X19186075Y-36900988D01*
X19074677Y-36829396D01*
X19011149Y-36810742D01*
X18947622Y-36792089D01*
X18947621Y-36792089D01*
X18815201Y-36792089D01*
X18815199Y-36792089D01*
X18688145Y-36829396D01*
X18688144Y-36829396D01*
X18576749Y-36900986D01*
X18576747Y-36900987D01*
X18576747Y-36900988D01*
X18569227Y-36909667D01*
X18490030Y-37001064D01*
X18435020Y-37121519D01*
X18435019Y-37121521D01*
X18416176Y-37252585D01*
X4784556Y-37252585D01*
X3631496Y-36099525D01*
X3603719Y-36045008D01*
X3602500Y-36029521D01*
X3602500Y-34492479D01*
X3621407Y-34434288D01*
X3670907Y-34398324D01*
X3732093Y-34398324D01*
X3771504Y-34422475D01*
X4331540Y-34982511D01*
X4331539Y-34982511D01*
X4387489Y-35038460D01*
X4456007Y-35078019D01*
X4456011Y-35078021D01*
X4532435Y-35098499D01*
X4532437Y-35098500D01*
X4532438Y-35098500D01*
X4611562Y-35098500D01*
X5193844Y-35098500D01*
X5252035Y-35117407D01*
X5268662Y-35132667D01*
X5283336Y-35149601D01*
X5394734Y-35221193D01*
X5521790Y-35258500D01*
X5521791Y-35258500D01*
X5654209Y-35258500D01*
X5654210Y-35258500D01*
X5781266Y-35221193D01*
X5892664Y-35149601D01*
X5979381Y-35049525D01*
X6034390Y-34929072D01*
X6037018Y-34910793D01*
X6049785Y-34822000D01*
X8339495Y-34822000D01*
X8381969Y-34968197D01*
X8381969Y-34968198D01*
X8464278Y-35107374D01*
X8578624Y-35221720D01*
X8589165Y-35227954D01*
X8629628Y-35273850D01*
X8636924Y-35326090D01*
X8633500Y-35352097D01*
X8633500Y-35711895D01*
X8633501Y-35711907D01*
X8640027Y-35761486D01*
X8640027Y-35761488D01*
X8690774Y-35870313D01*
X8690775Y-35870314D01*
X8690776Y-35870316D01*
X8775684Y-35955224D01*
X8884513Y-36005972D01*
X8934099Y-36012500D01*
X9036308Y-36012499D01*
X9064202Y-36016510D01*
X9077790Y-36020500D01*
X9077793Y-36020500D01*
X9210207Y-36020500D01*
X9210210Y-36020500D01*
X9223798Y-36016510D01*
X9251691Y-36012499D01*
X9353897Y-36012499D01*
X9353900Y-36012499D01*
X9403487Y-36005972D01*
X9403488Y-36005972D01*
X9504484Y-35958876D01*
X9512316Y-35955224D01*
X9597224Y-35870316D01*
X9647972Y-35761487D01*
X9654500Y-35711901D01*
X9654499Y-35352100D01*
X9651075Y-35326087D01*
X9662226Y-35265928D01*
X9698836Y-35227953D01*
X9709375Y-35221720D01*
X9823721Y-35107374D01*
X9906030Y-34968198D01*
X9906030Y-34968197D01*
X9948504Y-34822000D01*
X8339495Y-34822000D01*
X6049785Y-34822000D01*
X6053235Y-34798003D01*
X6053235Y-34797996D01*
X6034391Y-34666932D01*
X6034390Y-34666930D01*
X6034390Y-34666928D01*
X6022164Y-34640158D01*
X6009346Y-34612088D01*
X6000400Y-34570963D01*
X6000400Y-34235201D01*
X6500400Y-34235201D01*
X6500400Y-34798044D01*
X6639595Y-34757604D01*
X6639596Y-34757604D01*
X6777685Y-34675938D01*
X6891138Y-34562485D01*
X6972804Y-34424396D01*
X6972804Y-34424395D01*
X7002553Y-34321999D01*
X8339495Y-34321999D01*
X8339496Y-34322000D01*
X8893999Y-34322000D01*
X8894000Y-34321999D01*
X9394000Y-34321999D01*
X9394001Y-34322000D01*
X9948504Y-34322000D01*
X9948504Y-34321999D01*
X9906030Y-34175802D01*
X9906030Y-34175801D01*
X9823721Y-34036625D01*
X9709374Y-33922278D01*
X9570197Y-33839969D01*
X9414912Y-33794855D01*
X9394000Y-33793209D01*
X9394000Y-34321999D01*
X8894000Y-34321999D01*
X8894000Y-33793209D01*
X8873087Y-33794855D01*
X8717802Y-33839969D01*
X8717801Y-33839969D01*
X8578625Y-33922278D01*
X8464278Y-34036625D01*
X8381969Y-34175801D01*
X8381969Y-34175802D01*
X8339495Y-34321999D01*
X7002553Y-34321999D01*
X7017565Y-34270327D01*
X7017567Y-34270321D01*
X7020330Y-34235200D01*
X6500401Y-34235200D01*
X6500400Y-34235201D01*
X6000400Y-34235201D01*
X6000400Y-33735199D01*
X6500400Y-33735199D01*
X6500401Y-33735200D01*
X7020330Y-33735200D01*
X7020330Y-33735199D01*
X7017567Y-33700078D01*
X7017565Y-33700072D01*
X6972804Y-33546004D01*
X6972804Y-33546003D01*
X6891138Y-33407914D01*
X6777685Y-33294461D01*
X6639596Y-33212795D01*
X6639594Y-33212794D01*
X6500400Y-33172354D01*
X6500400Y-33735199D01*
X6000400Y-33735199D01*
X6000400Y-33172354D01*
X5861205Y-33212794D01*
X5861203Y-33212795D01*
X5723114Y-33294461D01*
X5609661Y-33407914D01*
X5592311Y-33437252D01*
X5546415Y-33477714D01*
X5485501Y-33483472D01*
X5465261Y-33476581D01*
X5453582Y-33471135D01*
X5453575Y-33471133D01*
X5453573Y-33471132D01*
X5404716Y-33464700D01*
X5056084Y-33464700D01*
X5039798Y-33466844D01*
X5007225Y-33471132D01*
X5007224Y-33471132D01*
X4899998Y-33521133D01*
X4816333Y-33604798D01*
X4766332Y-33712024D01*
X4766332Y-33712025D01*
X4766332Y-33712027D01*
X4759900Y-33760884D01*
X4759900Y-34209516D01*
X4766332Y-34258373D01*
X4796002Y-34321999D01*
X4799025Y-34328482D01*
X4806481Y-34389211D01*
X4776818Y-34442725D01*
X4721365Y-34468583D01*
X4661304Y-34456908D01*
X4639296Y-34440325D01*
X4031496Y-33832525D01*
X4003719Y-33778008D01*
X4002500Y-33762521D01*
X4002500Y-30781679D01*
X4021407Y-30723488D01*
X4070907Y-30687524D01*
X4132093Y-30687524D01*
X4171504Y-30711675D01*
X4890569Y-31430740D01*
X4918346Y-31485257D01*
X4919436Y-31499106D01*
X4938408Y-31631067D01*
X4938409Y-31631069D01*
X4938409Y-31631070D01*
X4938410Y-31631072D01*
X4993419Y-31751525D01*
X5080136Y-31851601D01*
X5191534Y-31923193D01*
X5318590Y-31960500D01*
X5318591Y-31960500D01*
X5451009Y-31960500D01*
X5451010Y-31960500D01*
X5578066Y-31923193D01*
X5689464Y-31851601D01*
X5776181Y-31751525D01*
X5831190Y-31631072D01*
X5843699Y-31544070D01*
X5850035Y-31500003D01*
X5850035Y-31499996D01*
X5831191Y-31368932D01*
X5831190Y-31368930D01*
X5831190Y-31368928D01*
X5776181Y-31248475D01*
X5689464Y-31148399D01*
X5659599Y-31129206D01*
X5578066Y-31076807D01*
X5578061Y-31076805D01*
X5552996Y-31069445D01*
X5502490Y-31034908D01*
X5481930Y-30977281D01*
X5496402Y-30928000D01*
X15857895Y-30928000D01*
X15900369Y-31074197D01*
X15900369Y-31074198D01*
X15982678Y-31213374D01*
X16097025Y-31327721D01*
X16236202Y-31410030D01*
X16391479Y-31455143D01*
X16391487Y-31455144D01*
X16412400Y-31456789D01*
X16412400Y-30928001D01*
X16912400Y-30928001D01*
X16912400Y-31456789D01*
X16933312Y-31455144D01*
X16933320Y-31455143D01*
X17088597Y-31410030D01*
X17088598Y-31410030D01*
X17227774Y-31327721D01*
X17342121Y-31213374D01*
X17424430Y-31074198D01*
X17424430Y-31074197D01*
X17466904Y-30928000D01*
X16912401Y-30928000D01*
X16912400Y-30928001D01*
X16412400Y-30928001D01*
X16412399Y-30928000D01*
X15857895Y-30928000D01*
X5496402Y-30928000D01*
X5499170Y-30918574D01*
X5527364Y-30891174D01*
X5555132Y-30873329D01*
X5641849Y-30773253D01*
X5696858Y-30652800D01*
X5715703Y-30521728D01*
X5715702Y-30521727D01*
X5716311Y-30517499D01*
X5743306Y-30462591D01*
X5786410Y-30436598D01*
X5815697Y-30427999D01*
X15857895Y-30427999D01*
X15857896Y-30428000D01*
X17466904Y-30428000D01*
X17466904Y-30427999D01*
X17424430Y-30281802D01*
X17424430Y-30281801D01*
X17342121Y-30142625D01*
X17227774Y-30028278D01*
X17217234Y-30022045D01*
X17176771Y-29976150D01*
X17169475Y-29923911D01*
X17172900Y-29897901D01*
X17172899Y-29538100D01*
X17166372Y-29488513D01*
X17166372Y-29488511D01*
X17115625Y-29379686D01*
X17115624Y-29379685D01*
X17115624Y-29379684D01*
X17030716Y-29294776D01*
X17030714Y-29294775D01*
X17030713Y-29294774D01*
X16921889Y-29244029D01*
X16921888Y-29244028D01*
X16905358Y-29241852D01*
X16872301Y-29237500D01*
X16872299Y-29237500D01*
X16452503Y-29237500D01*
X16452492Y-29237501D01*
X16402913Y-29244027D01*
X16402911Y-29244027D01*
X16294086Y-29294774D01*
X16209174Y-29379686D01*
X16158429Y-29488510D01*
X16158428Y-29488511D01*
X16151900Y-29538100D01*
X16151900Y-29897895D01*
X16151900Y-29897896D01*
X16151901Y-29897900D01*
X16153727Y-29911771D01*
X16155325Y-29923914D01*
X16144172Y-29984074D01*
X16107571Y-30022042D01*
X16097018Y-30028283D01*
X15982680Y-30142622D01*
X15982679Y-30142624D01*
X15900369Y-30281801D01*
X15900369Y-30281802D01*
X15857895Y-30427999D01*
X5815697Y-30427999D01*
X5832066Y-30423193D01*
X5943464Y-30351601D01*
X6030181Y-30251525D01*
X6085190Y-30131072D01*
X6091428Y-30087685D01*
X6104035Y-30000003D01*
X6104035Y-29999996D01*
X6085191Y-29868932D01*
X6085190Y-29868930D01*
X6085190Y-29868928D01*
X6030181Y-29748475D01*
X5943464Y-29648399D01*
X5943461Y-29648397D01*
X5943460Y-29648396D01*
X5933042Y-29641701D01*
X5894311Y-29594336D01*
X5890817Y-29533250D01*
X5896513Y-29517288D01*
X5907390Y-29493472D01*
X5926235Y-29362400D01*
X5926235Y-29362396D01*
X5907391Y-29231332D01*
X5907390Y-29231330D01*
X5907390Y-29231328D01*
X5852381Y-29110875D01*
X5816677Y-29069670D01*
X5792860Y-29013314D01*
X5806718Y-28953718D01*
X5852958Y-28913650D01*
X5863606Y-28909851D01*
X5868207Y-28908500D01*
X5868210Y-28908500D01*
X5995266Y-28871193D01*
X6106664Y-28799601D01*
X6193381Y-28699525D01*
X6248390Y-28579072D01*
X6258811Y-28506591D01*
X6267235Y-28448003D01*
X6267235Y-28447996D01*
X6248391Y-28316932D01*
X6248390Y-28316930D01*
X6248390Y-28316928D01*
X6193381Y-28196475D01*
X6120035Y-28111830D01*
X6096218Y-28055472D01*
X6110076Y-27995877D01*
X6120031Y-27982174D01*
X6193381Y-27897525D01*
X6248390Y-27777072D01*
X6267235Y-27646000D01*
X6267235Y-27645996D01*
X6248391Y-27514932D01*
X6248390Y-27514930D01*
X6248390Y-27514928D01*
X6193381Y-27394475D01*
X6106664Y-27294399D01*
X5995266Y-27222807D01*
X5931738Y-27204153D01*
X5868211Y-27185500D01*
X5868210Y-27185500D01*
X5735790Y-27185500D01*
X5735785Y-27185500D01*
X5729388Y-27187379D01*
X5668228Y-27185629D01*
X5619776Y-27148265D01*
X5602500Y-27092388D01*
X5602500Y-26247407D01*
X18416176Y-26247407D01*
X18416176Y-26247414D01*
X18435019Y-26378478D01*
X18435020Y-26378480D01*
X18435020Y-26378481D01*
X18435021Y-26378483D01*
X18490030Y-26498936D01*
X18576747Y-26599012D01*
X18688145Y-26670604D01*
X18815201Y-26707911D01*
X18815202Y-26707911D01*
X18947620Y-26707911D01*
X18947621Y-26707911D01*
X19074677Y-26670604D01*
X19186075Y-26599012D01*
X19272792Y-26498936D01*
X19327801Y-26378483D01*
X19346646Y-26247411D01*
X19346646Y-26247407D01*
X19327802Y-26116343D01*
X19327801Y-26116341D01*
X19327801Y-26116339D01*
X19272792Y-25995886D01*
X19186075Y-25895810D01*
X19074677Y-25824218D01*
X18988370Y-25798876D01*
X18947622Y-25786911D01*
X18947621Y-25786911D01*
X18815201Y-25786911D01*
X18815199Y-25786911D01*
X18688145Y-25824218D01*
X18688144Y-25824218D01*
X18576749Y-25895808D01*
X18576747Y-25895809D01*
X18576747Y-25895810D01*
X18493587Y-25991781D01*
X18490030Y-25995886D01*
X18435020Y-26116341D01*
X18435019Y-26116343D01*
X18416176Y-26247407D01*
X5602500Y-26247407D01*
X5602500Y-25568585D01*
X6732176Y-25568585D01*
X6732176Y-25568592D01*
X6751019Y-25699656D01*
X6751020Y-25699658D01*
X6751020Y-25699659D01*
X6751021Y-25699661D01*
X6806030Y-25820114D01*
X6892747Y-25920190D01*
X7004145Y-25991782D01*
X7131201Y-26029089D01*
X7131202Y-26029089D01*
X7263620Y-26029089D01*
X7263621Y-26029089D01*
X7390677Y-25991782D01*
X7502075Y-25920190D01*
X7588792Y-25820114D01*
X7643801Y-25699661D01*
X7643802Y-25699656D01*
X7662646Y-25568592D01*
X7662646Y-25568585D01*
X7643802Y-25437521D01*
X7643801Y-25437519D01*
X7643801Y-25437517D01*
X7588792Y-25317064D01*
X7502075Y-25216988D01*
X7390677Y-25145396D01*
X7327149Y-25126742D01*
X7263622Y-25108089D01*
X7263621Y-25108089D01*
X7131201Y-25108089D01*
X7131199Y-25108089D01*
X7004145Y-25145396D01*
X7004144Y-25145396D01*
X6892749Y-25216986D01*
X6806030Y-25317064D01*
X6751020Y-25437519D01*
X6751019Y-25437521D01*
X6732176Y-25568585D01*
X5602500Y-25568585D01*
X5602500Y-24512165D01*
X5621407Y-24453974D01*
X5631496Y-24442161D01*
X6249161Y-23824496D01*
X6303678Y-23796719D01*
X6319165Y-23795500D01*
X8838069Y-23795500D01*
X8838069Y-23795499D01*
X8914495Y-23775021D01*
X8983017Y-23735460D01*
X9038966Y-23679511D01*
X12592498Y-20125978D01*
X12647013Y-20098203D01*
X12707445Y-20107774D01*
G37*
%TD.AperFunction*%
%TA.AperFunction,Conductor*%
G36*
X23036417Y-36909667D02*
G01*
X23079682Y-36952932D01*
X23089995Y-36988173D01*
X23094698Y-37035928D01*
X23094699Y-37035934D01*
X23154768Y-37233954D01*
X23252316Y-37416452D01*
X23383585Y-37576404D01*
X23383590Y-37576410D01*
X23383595Y-37576414D01*
X23543547Y-37707683D01*
X23543548Y-37707683D01*
X23543550Y-37707685D01*
X23726046Y-37805232D01*
X23795377Y-37826263D01*
X23845574Y-37861248D01*
X23865620Y-37919056D01*
X23847859Y-37977607D01*
X23799075Y-38014536D01*
X23766639Y-38020000D01*
X23232176Y-38020000D01*
X23172629Y-38026401D01*
X23172618Y-38026403D01*
X23037911Y-38076646D01*
X23037909Y-38076647D01*
X22922815Y-38162807D01*
X22922807Y-38162815D01*
X22836647Y-38277909D01*
X22836646Y-38277911D01*
X22786403Y-38412618D01*
X22786401Y-38412629D01*
X22780000Y-38472175D01*
X22780000Y-39119999D01*
X22780001Y-39120000D01*
X23696988Y-39120000D01*
X23664075Y-39177007D01*
X23630000Y-39304174D01*
X23630000Y-39435826D01*
X23664075Y-39562993D01*
X23696988Y-39620000D01*
X22780001Y-39620000D01*
X22780000Y-39620001D01*
X22780000Y-40267824D01*
X22779999Y-40267824D01*
X22786401Y-40327370D01*
X22786403Y-40327381D01*
X22817745Y-40411412D01*
X22820365Y-40472541D01*
X22786554Y-40523536D01*
X22729226Y-40544917D01*
X22670279Y-40528519D01*
X22654983Y-40516012D01*
X22333512Y-40194541D01*
X22333511Y-40194540D01*
X22329664Y-40192319D01*
X22329662Y-40192317D01*
X22329662Y-40192318D01*
X22264989Y-40154979D01*
X22264988Y-40154978D01*
X22264987Y-40154978D01*
X22188564Y-40134500D01*
X22188562Y-40134500D01*
X19953851Y-40134500D01*
X19895660Y-40115593D01*
X19859696Y-40066093D01*
X19859696Y-40004907D01*
X19883847Y-39965496D01*
X20630343Y-39219000D01*
X22921470Y-36927871D01*
X22975985Y-36900096D01*
X23036417Y-36909667D01*
G37*
%TD.AperFunction*%
%TA.AperFunction,Conductor*%
G36*
X25359191Y-18907D02*
G01*
X25395155Y-68407D01*
X25400000Y-99000D01*
X25400000Y-38012052D01*
X25381093Y-38070243D01*
X25331593Y-38106207D01*
X25270407Y-38106207D01*
X25241671Y-38091305D01*
X25222090Y-38076647D01*
X25222088Y-38076646D01*
X25087381Y-38026403D01*
X25087370Y-38026401D01*
X25027824Y-38020000D01*
X24493361Y-38020000D01*
X24435170Y-38001093D01*
X24399206Y-37951593D01*
X24399206Y-37890407D01*
X24435170Y-37840907D01*
X24464623Y-37826263D01*
X24533954Y-37805232D01*
X24716450Y-37707685D01*
X24876410Y-37576410D01*
X25007685Y-37416450D01*
X25105232Y-37233954D01*
X25165300Y-37035934D01*
X25165301Y-37035929D01*
X25185583Y-36830003D01*
X25185583Y-36829996D01*
X25165301Y-36624070D01*
X25165300Y-36624065D01*
X25147078Y-36563997D01*
X25105232Y-36426046D01*
X25007685Y-36243550D01*
X24876410Y-36083590D01*
X24844868Y-36057704D01*
X24716452Y-35952316D01*
X24533954Y-35854768D01*
X24335934Y-35794699D01*
X24335929Y-35794698D01*
X24130003Y-35774417D01*
X24129997Y-35774417D01*
X23924070Y-35794698D01*
X23924065Y-35794699D01*
X23726045Y-35854768D01*
X23543547Y-35952316D01*
X23543547Y-35952317D01*
X23442305Y-36035404D01*
X23385328Y-36057704D01*
X23326125Y-36042255D01*
X23287310Y-35994958D01*
X23280500Y-35958876D01*
X23280500Y-35161123D01*
X23299407Y-35102932D01*
X23348907Y-35066968D01*
X23410093Y-35066968D01*
X23442301Y-35084593D01*
X23471769Y-35108776D01*
X23543547Y-35167683D01*
X23543548Y-35167683D01*
X23543550Y-35167685D01*
X23726046Y-35265232D01*
X23863997Y-35307078D01*
X23924065Y-35325300D01*
X23924070Y-35325301D01*
X24129997Y-35345583D01*
X24130000Y-35345583D01*
X24130003Y-35345583D01*
X24335929Y-35325301D01*
X24335934Y-35325300D01*
X24533954Y-35265232D01*
X24716450Y-35167685D01*
X24876410Y-35036410D01*
X25007685Y-34876450D01*
X25105232Y-34693954D01*
X25165300Y-34495934D01*
X25165301Y-34495929D01*
X25185583Y-34290003D01*
X25185583Y-34289996D01*
X25165301Y-34084070D01*
X25165300Y-34084065D01*
X25147078Y-34023997D01*
X25105232Y-33886046D01*
X25007685Y-33703550D01*
X24876410Y-33543590D01*
X24876404Y-33543585D01*
X24716452Y-33412316D01*
X24533954Y-33314768D01*
X24335934Y-33254699D01*
X24335929Y-33254698D01*
X24130003Y-33234417D01*
X24129997Y-33234417D01*
X23924070Y-33254698D01*
X23924065Y-33254699D01*
X23726045Y-33314768D01*
X23543547Y-33412316D01*
X23543547Y-33412317D01*
X23442305Y-33495404D01*
X23385328Y-33517704D01*
X23326125Y-33502255D01*
X23287310Y-33454958D01*
X23280500Y-33418876D01*
X23280500Y-32621123D01*
X23299407Y-32562932D01*
X23348907Y-32526968D01*
X23410093Y-32526968D01*
X23442301Y-32544593D01*
X23464648Y-32562932D01*
X23543547Y-32627683D01*
X23543548Y-32627683D01*
X23543550Y-32627685D01*
X23726046Y-32725232D01*
X23863997Y-32767078D01*
X23924065Y-32785300D01*
X23924070Y-32785301D01*
X24129997Y-32805583D01*
X24130000Y-32805583D01*
X24130003Y-32805583D01*
X24335929Y-32785301D01*
X24335934Y-32785300D01*
X24533954Y-32725232D01*
X24716450Y-32627685D01*
X24876410Y-32496410D01*
X25007685Y-32336450D01*
X25105232Y-32153954D01*
X25165300Y-31955934D01*
X25165301Y-31955929D01*
X25185583Y-31750003D01*
X25185583Y-31749996D01*
X25165301Y-31544070D01*
X25165300Y-31544065D01*
X25112174Y-31368932D01*
X25105232Y-31346046D01*
X25007685Y-31163550D01*
X24995249Y-31148397D01*
X24876414Y-31003595D01*
X24876410Y-31003590D01*
X24817695Y-30955404D01*
X24716452Y-30872316D01*
X24533954Y-30774768D01*
X24335934Y-30714699D01*
X24335929Y-30714698D01*
X24130003Y-30694417D01*
X24129997Y-30694417D01*
X23924070Y-30714698D01*
X23924065Y-30714699D01*
X23726045Y-30774768D01*
X23543547Y-30872316D01*
X23543547Y-30872317D01*
X23442305Y-30955404D01*
X23385328Y-30977704D01*
X23326125Y-30962255D01*
X23287310Y-30914958D01*
X23280500Y-30878876D01*
X23280500Y-30081123D01*
X23299407Y-30022932D01*
X23348907Y-29986968D01*
X23410093Y-29986968D01*
X23442301Y-30004593D01*
X23505327Y-30056316D01*
X23543547Y-30087683D01*
X23543548Y-30087683D01*
X23543550Y-30087685D01*
X23726046Y-30185232D01*
X23863997Y-30227078D01*
X23924065Y-30245300D01*
X23924070Y-30245301D01*
X24129997Y-30265583D01*
X24130000Y-30265583D01*
X24130003Y-30265583D01*
X24335929Y-30245301D01*
X24335934Y-30245300D01*
X24533954Y-30185232D01*
X24716450Y-30087685D01*
X24876410Y-29956410D01*
X25007685Y-29796450D01*
X25105232Y-29613954D01*
X25165300Y-29415934D01*
X25165301Y-29415929D01*
X25185583Y-29210003D01*
X25185583Y-29209996D01*
X25165301Y-29004070D01*
X25165300Y-29004065D01*
X25137873Y-28913650D01*
X25105232Y-28806046D01*
X25007685Y-28623550D01*
X24876410Y-28463590D01*
X24857417Y-28448003D01*
X24716452Y-28332316D01*
X24533954Y-28234768D01*
X24335934Y-28174699D01*
X24335929Y-28174698D01*
X24130003Y-28154417D01*
X24129997Y-28154417D01*
X23924070Y-28174698D01*
X23924065Y-28174699D01*
X23726045Y-28234768D01*
X23543547Y-28332316D01*
X23543547Y-28332317D01*
X23442305Y-28415404D01*
X23385328Y-28437704D01*
X23326125Y-28422255D01*
X23287310Y-28374958D01*
X23280500Y-28338876D01*
X23280500Y-27541123D01*
X23299407Y-27482932D01*
X23348907Y-27446968D01*
X23410093Y-27446968D01*
X23442301Y-27464593D01*
X23464648Y-27482932D01*
X23543547Y-27547683D01*
X23543548Y-27547683D01*
X23543550Y-27547685D01*
X23726046Y-27645232D01*
X23863997Y-27687078D01*
X23924065Y-27705300D01*
X23924070Y-27705301D01*
X24129997Y-27725583D01*
X24130000Y-27725583D01*
X24130003Y-27725583D01*
X24335929Y-27705301D01*
X24335934Y-27705300D01*
X24533954Y-27645232D01*
X24716450Y-27547685D01*
X24876410Y-27416410D01*
X25007685Y-27256450D01*
X25105232Y-27073954D01*
X25165300Y-26875934D01*
X25165301Y-26875929D01*
X25185583Y-26670003D01*
X25185583Y-26669996D01*
X25165301Y-26464070D01*
X25165300Y-26464065D01*
X25139337Y-26378478D01*
X25105232Y-26266046D01*
X25007685Y-26083550D01*
X24962990Y-26029089D01*
X24876414Y-25923595D01*
X24876410Y-25923590D01*
X24842560Y-25895810D01*
X24716452Y-25792316D01*
X24533954Y-25694768D01*
X24335934Y-25634699D01*
X24335929Y-25634698D01*
X24130003Y-25614417D01*
X24129997Y-25614417D01*
X23924070Y-25634698D01*
X23924065Y-25634699D01*
X23726045Y-25694768D01*
X23543547Y-25792316D01*
X23543547Y-25792317D01*
X23442305Y-25875404D01*
X23385328Y-25897704D01*
X23326125Y-25882255D01*
X23287310Y-25834958D01*
X23280500Y-25798876D01*
X23280500Y-25001123D01*
X23299407Y-24942932D01*
X23348907Y-24906968D01*
X23410093Y-24906968D01*
X23442301Y-24924593D01*
X23508407Y-24978844D01*
X23543547Y-25007683D01*
X23543548Y-25007683D01*
X23543550Y-25007685D01*
X23726046Y-25105232D01*
X23858451Y-25145396D01*
X23924065Y-25165300D01*
X23924070Y-25165301D01*
X24129997Y-25185583D01*
X24130000Y-25185583D01*
X24130003Y-25185583D01*
X24335929Y-25165301D01*
X24335934Y-25165300D01*
X24533954Y-25105232D01*
X24716450Y-25007685D01*
X24876410Y-24876410D01*
X25007685Y-24716450D01*
X25105232Y-24533954D01*
X25165300Y-24335934D01*
X25165301Y-24335929D01*
X25185583Y-24130003D01*
X25185583Y-24129996D01*
X25165301Y-23924070D01*
X25165300Y-23924065D01*
X25134559Y-23822725D01*
X25105232Y-23726046D01*
X25007685Y-23543550D01*
X24933050Y-23452607D01*
X24876414Y-23383595D01*
X24876410Y-23383590D01*
X24850720Y-23362507D01*
X24716452Y-23252316D01*
X24533954Y-23154768D01*
X24335934Y-23094699D01*
X24335929Y-23094698D01*
X24130003Y-23074417D01*
X24129997Y-23074417D01*
X23924070Y-23094698D01*
X23924065Y-23094699D01*
X23726045Y-23154768D01*
X23543547Y-23252316D01*
X23543547Y-23252317D01*
X23442305Y-23335404D01*
X23385328Y-23357704D01*
X23326125Y-23342255D01*
X23287310Y-23294958D01*
X23280500Y-23258876D01*
X23280500Y-22461123D01*
X23299407Y-22402932D01*
X23348907Y-22366968D01*
X23410093Y-22366968D01*
X23442301Y-22384593D01*
X23464648Y-22402932D01*
X23543547Y-22467683D01*
X23543548Y-22467683D01*
X23543550Y-22467685D01*
X23726046Y-22565232D01*
X23847476Y-22602067D01*
X23924065Y-22625300D01*
X23924070Y-22625301D01*
X24129997Y-22645583D01*
X24130000Y-22645583D01*
X24130003Y-22645583D01*
X24335929Y-22625301D01*
X24335934Y-22625300D01*
X24533954Y-22565232D01*
X24716450Y-22467685D01*
X24876410Y-22336410D01*
X25007685Y-22176450D01*
X25105232Y-21993954D01*
X25165300Y-21795934D01*
X25165301Y-21795929D01*
X25185583Y-21590003D01*
X25185583Y-21589996D01*
X25165301Y-21384070D01*
X25165300Y-21384065D01*
X25119475Y-21233000D01*
X25105232Y-21186046D01*
X25007685Y-21003550D01*
X24995456Y-20988649D01*
X24876414Y-20843595D01*
X24876410Y-20843590D01*
X24868191Y-20836845D01*
X24716452Y-20712316D01*
X24533954Y-20614768D01*
X24335934Y-20554699D01*
X24335929Y-20554698D01*
X24130003Y-20534417D01*
X24129997Y-20534417D01*
X23924070Y-20554698D01*
X23924065Y-20554699D01*
X23726045Y-20614768D01*
X23543547Y-20712316D01*
X23543547Y-20712317D01*
X23442305Y-20795404D01*
X23385328Y-20817704D01*
X23326125Y-20802255D01*
X23287310Y-20754958D01*
X23280500Y-20718876D01*
X23280500Y-19921123D01*
X23299407Y-19862932D01*
X23348907Y-19826968D01*
X23410093Y-19826968D01*
X23442301Y-19844593D01*
X23494058Y-19887068D01*
X23543547Y-19927683D01*
X23543548Y-19927683D01*
X23543550Y-19927685D01*
X23726046Y-20025232D01*
X23860844Y-20066122D01*
X23924065Y-20085300D01*
X23924070Y-20085301D01*
X24129997Y-20105583D01*
X24130000Y-20105583D01*
X24130003Y-20105583D01*
X24335929Y-20085301D01*
X24335934Y-20085300D01*
X24340668Y-20083864D01*
X24533954Y-20025232D01*
X24716450Y-19927685D01*
X24876410Y-19796410D01*
X25007685Y-19636450D01*
X25105232Y-19453954D01*
X25165300Y-19255934D01*
X25165301Y-19255929D01*
X25185583Y-19050003D01*
X25185583Y-19049996D01*
X25165301Y-18844070D01*
X25165300Y-18844065D01*
X25131434Y-18732425D01*
X25105232Y-18646046D01*
X25007685Y-18463550D01*
X25003774Y-18458785D01*
X24884543Y-18313500D01*
X24876410Y-18303590D01*
X24869456Y-18297883D01*
X24716452Y-18172316D01*
X24533954Y-18074768D01*
X24335934Y-18014699D01*
X24335929Y-18014698D01*
X24130003Y-17994417D01*
X24129997Y-17994417D01*
X23924070Y-18014698D01*
X23924065Y-18014699D01*
X23726045Y-18074768D01*
X23543547Y-18172316D01*
X23543547Y-18172317D01*
X23442305Y-18255404D01*
X23385328Y-18277704D01*
X23326125Y-18262255D01*
X23287310Y-18214958D01*
X23280500Y-18178876D01*
X23280500Y-17381123D01*
X23299407Y-17322932D01*
X23348907Y-17286968D01*
X23410093Y-17286968D01*
X23442301Y-17304593D01*
X23464648Y-17322932D01*
X23543547Y-17387683D01*
X23543548Y-17387683D01*
X23543550Y-17387685D01*
X23726046Y-17485232D01*
X23863997Y-17527078D01*
X23924065Y-17545300D01*
X23924070Y-17545301D01*
X24129997Y-17565583D01*
X24130000Y-17565583D01*
X24130003Y-17565583D01*
X24335929Y-17545301D01*
X24335934Y-17545300D01*
X24533954Y-17485232D01*
X24716450Y-17387685D01*
X24876410Y-17256410D01*
X25007685Y-17096450D01*
X25105232Y-16913954D01*
X25165300Y-16715934D01*
X25165301Y-16715929D01*
X25185583Y-16510003D01*
X25185583Y-16509996D01*
X25165301Y-16304070D01*
X25165300Y-16304065D01*
X25139799Y-16219999D01*
X25105232Y-16106046D01*
X25007685Y-15923550D01*
X25002467Y-15917192D01*
X24876414Y-15763595D01*
X24876410Y-15763590D01*
X24826043Y-15722255D01*
X24716452Y-15632316D01*
X24533954Y-15534768D01*
X24335934Y-15474699D01*
X24335929Y-15474698D01*
X24130003Y-15454417D01*
X24129997Y-15454417D01*
X23924070Y-15474698D01*
X23924065Y-15474699D01*
X23726045Y-15534768D01*
X23543547Y-15632316D01*
X23543547Y-15632317D01*
X23442305Y-15715404D01*
X23385328Y-15737704D01*
X23326125Y-15722255D01*
X23287310Y-15674958D01*
X23280500Y-15638876D01*
X23280500Y-14841123D01*
X23299407Y-14782932D01*
X23348907Y-14746968D01*
X23410093Y-14746968D01*
X23442301Y-14764593D01*
X23508407Y-14818844D01*
X23543547Y-14847683D01*
X23543548Y-14847683D01*
X23543550Y-14847685D01*
X23726046Y-14945232D01*
X23852283Y-14983525D01*
X23924065Y-15005300D01*
X23924070Y-15005301D01*
X24129997Y-15025583D01*
X24130000Y-15025583D01*
X24130003Y-15025583D01*
X24335929Y-15005301D01*
X24335934Y-15005300D01*
X24370149Y-14994921D01*
X24533954Y-14945232D01*
X24716450Y-14847685D01*
X24876410Y-14716410D01*
X25007685Y-14556450D01*
X25105232Y-14373954D01*
X25165300Y-14175934D01*
X25165301Y-14175929D01*
X25185583Y-13970003D01*
X25185583Y-13969996D01*
X25165301Y-13764070D01*
X25165300Y-13764065D01*
X25141911Y-13686962D01*
X25105232Y-13566046D01*
X25007685Y-13383550D01*
X24971181Y-13339070D01*
X24876414Y-13223595D01*
X24876410Y-13223590D01*
X24860243Y-13210322D01*
X24716452Y-13092316D01*
X24533954Y-12994768D01*
X24335934Y-12934699D01*
X24335929Y-12934698D01*
X24130003Y-12914417D01*
X24129997Y-12914417D01*
X23924070Y-12934698D01*
X23924065Y-12934699D01*
X23726045Y-12994768D01*
X23543547Y-13092316D01*
X23543547Y-13092317D01*
X23442305Y-13175404D01*
X23385328Y-13197704D01*
X23326125Y-13182255D01*
X23287310Y-13134958D01*
X23280500Y-13098876D01*
X23280500Y-12301123D01*
X23299407Y-12242932D01*
X23348907Y-12206968D01*
X23410093Y-12206968D01*
X23442301Y-12224593D01*
X23474975Y-12251407D01*
X23543547Y-12307683D01*
X23543548Y-12307683D01*
X23543550Y-12307685D01*
X23726046Y-12405232D01*
X23863997Y-12447078D01*
X23924065Y-12465300D01*
X23924070Y-12465301D01*
X24129997Y-12485583D01*
X24130000Y-12485583D01*
X24130003Y-12485583D01*
X24335929Y-12465301D01*
X24335934Y-12465300D01*
X24346130Y-12462207D01*
X24533954Y-12405232D01*
X24716450Y-12307685D01*
X24876410Y-12176410D01*
X25007685Y-12016450D01*
X25105232Y-11833954D01*
X25165300Y-11635934D01*
X25165301Y-11635929D01*
X25185583Y-11430003D01*
X25185583Y-11429996D01*
X25165301Y-11224070D01*
X25165300Y-11224065D01*
X25133875Y-11120471D01*
X25105232Y-11026046D01*
X25007685Y-10843550D01*
X24955507Y-10779971D01*
X24876414Y-10683595D01*
X24876410Y-10683590D01*
X24874731Y-10682212D01*
X24716452Y-10552316D01*
X24533954Y-10454768D01*
X24335934Y-10394699D01*
X24335929Y-10394698D01*
X24130003Y-10374417D01*
X24129997Y-10374417D01*
X23924070Y-10394698D01*
X23924065Y-10394699D01*
X23726045Y-10454768D01*
X23543547Y-10552316D01*
X23543547Y-10552317D01*
X23442305Y-10635404D01*
X23385328Y-10657704D01*
X23326125Y-10642255D01*
X23287310Y-10594958D01*
X23280500Y-10558876D01*
X23280500Y-9761123D01*
X23299407Y-9702932D01*
X23348907Y-9666968D01*
X23410093Y-9666968D01*
X23442301Y-9684593D01*
X23500310Y-9732199D01*
X23543547Y-9767683D01*
X23543548Y-9767683D01*
X23543550Y-9767685D01*
X23726046Y-9865232D01*
X23863997Y-9907078D01*
X23924065Y-9925300D01*
X23924070Y-9925301D01*
X24129997Y-9945583D01*
X24130000Y-9945583D01*
X24130003Y-9945583D01*
X24335929Y-9925301D01*
X24335934Y-9925300D01*
X24533954Y-9865232D01*
X24716450Y-9767685D01*
X24876410Y-9636410D01*
X25007685Y-9476450D01*
X25105232Y-9293954D01*
X25165300Y-9095934D01*
X25165301Y-9095929D01*
X25185583Y-8890003D01*
X25185583Y-8889996D01*
X25165301Y-8684070D01*
X25165300Y-8684065D01*
X25134232Y-8581648D01*
X25105232Y-8486046D01*
X25007685Y-8303550D01*
X25003774Y-8298785D01*
X24884543Y-8153500D01*
X24876410Y-8143590D01*
X24857417Y-8128003D01*
X24716452Y-8012316D01*
X24533954Y-7914768D01*
X24335934Y-7854699D01*
X24335929Y-7854698D01*
X24130003Y-7834417D01*
X24129997Y-7834417D01*
X23924070Y-7854698D01*
X23924065Y-7854699D01*
X23726045Y-7914768D01*
X23543547Y-8012316D01*
X23543547Y-8012317D01*
X23442305Y-8095404D01*
X23385328Y-8117704D01*
X23326125Y-8102255D01*
X23287310Y-8054958D01*
X23280500Y-8018876D01*
X23280500Y-7221123D01*
X23299407Y-7162932D01*
X23348907Y-7126968D01*
X23410093Y-7126968D01*
X23442301Y-7144593D01*
X23490478Y-7184130D01*
X23543547Y-7227683D01*
X23543548Y-7227683D01*
X23543550Y-7227685D01*
X23726046Y-7325232D01*
X23863997Y-7367078D01*
X23924065Y-7385300D01*
X23924070Y-7385301D01*
X24129997Y-7405583D01*
X24130000Y-7405583D01*
X24130003Y-7405583D01*
X24335929Y-7385301D01*
X24335934Y-7385300D01*
X24533954Y-7325232D01*
X24716450Y-7227685D01*
X24876410Y-7096410D01*
X25007685Y-6936450D01*
X25105232Y-6753954D01*
X25165300Y-6555934D01*
X25165301Y-6555929D01*
X25185583Y-6350003D01*
X25185583Y-6349996D01*
X25165301Y-6144070D01*
X25165300Y-6144065D01*
X25139799Y-6059999D01*
X25105232Y-5946046D01*
X25007685Y-5763550D01*
X25002467Y-5757192D01*
X24876414Y-5603595D01*
X24876410Y-5603590D01*
X24854398Y-5585525D01*
X24716452Y-5472316D01*
X24533954Y-5374768D01*
X24335934Y-5314699D01*
X24335929Y-5314698D01*
X24130003Y-5294417D01*
X24129997Y-5294417D01*
X23924070Y-5314698D01*
X23924065Y-5314699D01*
X23726045Y-5374768D01*
X23543547Y-5472316D01*
X23543547Y-5472317D01*
X23442305Y-5555404D01*
X23385328Y-5577704D01*
X23326125Y-5562255D01*
X23287310Y-5514958D01*
X23280500Y-5478876D01*
X23280500Y-4681123D01*
X23299407Y-4622932D01*
X23348907Y-4586968D01*
X23410093Y-4586968D01*
X23442301Y-4604593D01*
X23508407Y-4658844D01*
X23543547Y-4687683D01*
X23543548Y-4687683D01*
X23543550Y-4687685D01*
X23726046Y-4785232D01*
X23852279Y-4823524D01*
X23924065Y-4845300D01*
X23924070Y-4845301D01*
X24129997Y-4865583D01*
X24130000Y-4865583D01*
X24130003Y-4865583D01*
X24335929Y-4845301D01*
X24335934Y-4845300D01*
X24370149Y-4834921D01*
X24533954Y-4785232D01*
X24716450Y-4687685D01*
X24876410Y-4556410D01*
X25007685Y-4396450D01*
X25105232Y-4213954D01*
X25165300Y-4015934D01*
X25165301Y-4015929D01*
X25185583Y-3810003D01*
X25185583Y-3809996D01*
X25165301Y-3604070D01*
X25165300Y-3604065D01*
X25138614Y-3516093D01*
X25105232Y-3406046D01*
X25007685Y-3223550D01*
X24962084Y-3167985D01*
X24876414Y-3063595D01*
X24876410Y-3063590D01*
X24850769Y-3042547D01*
X24716452Y-2932316D01*
X24533954Y-2834768D01*
X24335934Y-2774699D01*
X24335929Y-2774698D01*
X24130003Y-2754417D01*
X24129997Y-2754417D01*
X23924070Y-2774698D01*
X23924065Y-2774699D01*
X23726045Y-2834768D01*
X23543547Y-2932316D01*
X23383595Y-3063585D01*
X23383585Y-3063595D01*
X23252316Y-3223547D01*
X23154768Y-3406045D01*
X23094699Y-3604065D01*
X23094698Y-3604070D01*
X23088760Y-3664363D01*
X23064240Y-3720420D01*
X23011453Y-3751358D01*
X22950562Y-3745360D01*
X22920233Y-3724662D01*
X22640852Y-3445281D01*
X22328911Y-3133340D01*
X22328908Y-3133338D01*
X22260392Y-3093780D01*
X22260388Y-3093778D01*
X22183964Y-3073300D01*
X22183962Y-3073300D01*
X21208262Y-3073300D01*
X21129138Y-3073300D01*
X21082361Y-3085833D01*
X21052707Y-3093779D01*
X20984193Y-3133336D01*
X20984188Y-3133340D01*
X20700023Y-3417504D01*
X20645507Y-3445281D01*
X20630020Y-3446500D01*
X20527886Y-3446500D01*
X20469695Y-3427593D01*
X20433731Y-3378093D01*
X20432358Y-3373488D01*
X20430706Y-3367416D01*
X20391936Y-3279611D01*
X20383500Y-3239623D01*
X20383500Y-3042547D01*
X20402407Y-2984356D01*
X20451907Y-2948392D01*
X20454587Y-2947564D01*
X20487866Y-2937793D01*
X20599264Y-2866201D01*
X20685981Y-2766125D01*
X20740990Y-2645672D01*
X20756184Y-2539995D01*
X20759835Y-2514603D01*
X20759835Y-2514596D01*
X20740991Y-2383532D01*
X20740990Y-2383530D01*
X20740990Y-2383528D01*
X20685981Y-2263075D01*
X20599264Y-2162999D01*
X20487866Y-2091407D01*
X20413506Y-2069573D01*
X20360811Y-2054100D01*
X20360810Y-2054100D01*
X20228390Y-2054100D01*
X20228385Y-2054100D01*
X20169737Y-2071321D01*
X20108576Y-2069573D01*
X20069147Y-2043531D01*
X20054791Y-2028000D01*
X19125000Y-2028000D01*
X19066809Y-2009093D01*
X19030845Y-1959593D01*
X19026000Y-1929000D01*
X19026000Y-1527999D01*
X19526000Y-1527999D01*
X19526001Y-1528000D01*
X20054789Y-1528000D01*
X20053144Y-1507087D01*
X20053143Y-1507079D01*
X20008030Y-1351802D01*
X20008030Y-1351801D01*
X19925721Y-1212625D01*
X19811374Y-1098278D01*
X19672198Y-1015969D01*
X19672194Y-1015968D01*
X19526000Y-973494D01*
X19526000Y-1527999D01*
X19026000Y-1527999D01*
X19026000Y-973494D01*
X18879796Y-1015971D01*
X18879510Y-1016095D01*
X18879302Y-1016114D01*
X18873825Y-1017706D01*
X18873521Y-1016660D01*
X18818595Y-1021846D01*
X18765934Y-990694D01*
X18742211Y-939322D01*
X18734391Y-884932D01*
X18734390Y-884930D01*
X18734390Y-884928D01*
X18679381Y-764475D01*
X18592664Y-664399D01*
X18481266Y-592807D01*
X18417738Y-574153D01*
X18354211Y-555500D01*
X18354210Y-555500D01*
X18221790Y-555500D01*
X18221788Y-555500D01*
X18094734Y-592807D01*
X18094733Y-592807D01*
X17983338Y-664397D01*
X17896617Y-764477D01*
X17870053Y-822645D01*
X17828681Y-867723D01*
X17768715Y-879874D01*
X17713059Y-854456D01*
X17689947Y-822645D01*
X17663382Y-764477D01*
X17663381Y-764476D01*
X17663381Y-764475D01*
X17576664Y-664399D01*
X17465266Y-592807D01*
X17401738Y-574153D01*
X17338211Y-555500D01*
X17338210Y-555500D01*
X17205790Y-555500D01*
X17205788Y-555500D01*
X17078734Y-592807D01*
X17078733Y-592807D01*
X16967338Y-664397D01*
X16880619Y-764475D01*
X16825609Y-884930D01*
X16825608Y-884932D01*
X16817788Y-939323D01*
X16790791Y-994230D01*
X16736677Y-1022783D01*
X16686437Y-1016801D01*
X16686175Y-1017706D01*
X16680719Y-1016121D01*
X16680484Y-1016093D01*
X16680199Y-1015969D01*
X16534000Y-973494D01*
X16534000Y-2123934D01*
X16515093Y-2182125D01*
X16509818Y-2188766D01*
X16483218Y-2219463D01*
X16430822Y-2251059D01*
X16369861Y-2245822D01*
X16333582Y-2219463D01*
X16320547Y-2204420D01*
X16306664Y-2188399D01*
X16195266Y-2116807D01*
X16108762Y-2091407D01*
X16105108Y-2090334D01*
X16054601Y-2055798D01*
X16050609Y-2044610D01*
X16033999Y-2028000D01*
X15505210Y-2028000D01*
X15484174Y-2050755D01*
X15430789Y-2080649D01*
X15383587Y-2078541D01*
X15300350Y-2054100D01*
X15300347Y-2054100D01*
X15167927Y-2054100D01*
X15167925Y-2054100D01*
X15040871Y-2091407D01*
X15040870Y-2091407D01*
X14929475Y-2162997D01*
X14929473Y-2162998D01*
X14929473Y-2162999D01*
X14907464Y-2188399D01*
X14842756Y-2263075D01*
X14787746Y-2383530D01*
X14787745Y-2383532D01*
X14768902Y-2514596D01*
X14768902Y-2514603D01*
X14787745Y-2645667D01*
X14787746Y-2645669D01*
X14787746Y-2645670D01*
X14787747Y-2645672D01*
X14842756Y-2766125D01*
X14850186Y-2774700D01*
X14934110Y-2871553D01*
X14932517Y-2872933D01*
X14958944Y-2916753D01*
X14953711Y-2977714D01*
X14932524Y-3009181D01*
X14918405Y-3023301D01*
X14863889Y-3051081D01*
X14848399Y-3052300D01*
X13704762Y-3052300D01*
X13625638Y-3052300D01*
X13583521Y-3063585D01*
X13549207Y-3072779D01*
X13480693Y-3112336D01*
X12877489Y-3715540D01*
X12877488Y-3715539D01*
X12821539Y-3771489D01*
X12781980Y-3840007D01*
X12781978Y-3840011D01*
X12759820Y-3922706D01*
X12757240Y-3922014D01*
X12735757Y-3967033D01*
X12681981Y-3996218D01*
X12621321Y-3988220D01*
X12593954Y-3968876D01*
X12141171Y-3516093D01*
X11686618Y-3061540D01*
X11686615Y-3061538D01*
X11670613Y-3052299D01*
X11670613Y-3052298D01*
X11618097Y-3021979D01*
X11618092Y-3021977D01*
X11541671Y-3001500D01*
X11541669Y-3001500D01*
X11040938Y-3001500D01*
X11040935Y-3001500D01*
X10964514Y-3021977D01*
X10964509Y-3021979D01*
X10911993Y-3052298D01*
X10911994Y-3052299D01*
X10895991Y-3061538D01*
X10895988Y-3061540D01*
X10540023Y-3417504D01*
X10485507Y-3445281D01*
X10470020Y-3446500D01*
X10367886Y-3446500D01*
X10309695Y-3427593D01*
X10273731Y-3378093D01*
X10272358Y-3373488D01*
X10270706Y-3367416D01*
X10231936Y-3279611D01*
X10223500Y-3239623D01*
X10223500Y-3099500D01*
X10242407Y-3041309D01*
X10291907Y-3005345D01*
X10322500Y-3000500D01*
X10353209Y-3000500D01*
X10353210Y-3000500D01*
X10480266Y-2963193D01*
X10591664Y-2891601D01*
X10678381Y-2791525D01*
X10733390Y-2671072D01*
X10734795Y-2661300D01*
X10752235Y-2540003D01*
X10752235Y-2539996D01*
X10733391Y-2408932D01*
X10733390Y-2408930D01*
X10733390Y-2408928D01*
X10678381Y-2288475D01*
X10591664Y-2188399D01*
X10480266Y-2116807D01*
X10393762Y-2091407D01*
X10353211Y-2079500D01*
X10353210Y-2079500D01*
X10220790Y-2079500D01*
X10220788Y-2079500D01*
X10093734Y-2116807D01*
X10093733Y-2116807D01*
X10044317Y-2148566D01*
X9985142Y-2164121D01*
X9928125Y-2141922D01*
X9895046Y-2090450D01*
X9893654Y-2054028D01*
X9892748Y-2053957D01*
X9894791Y-2028000D01*
X8965000Y-2028000D01*
X8906809Y-2009093D01*
X8870845Y-1959593D01*
X8866000Y-1929000D01*
X8866000Y-1527999D01*
X9366000Y-1527999D01*
X9366001Y-1528000D01*
X9894789Y-1528000D01*
X15505209Y-1528000D01*
X16033999Y-1528000D01*
X16034000Y-1527999D01*
X16034000Y-973494D01*
X15887805Y-1015968D01*
X15887801Y-1015969D01*
X15748625Y-1098278D01*
X15634278Y-1212625D01*
X15551969Y-1351801D01*
X15551969Y-1351802D01*
X15506855Y-1507087D01*
X15505209Y-1528000D01*
X9894789Y-1528000D01*
X9893144Y-1507087D01*
X9893143Y-1507079D01*
X9848030Y-1351802D01*
X9848030Y-1351801D01*
X9765721Y-1212625D01*
X9651374Y-1098278D01*
X9512198Y-1015969D01*
X9512194Y-1015968D01*
X9366000Y-973494D01*
X9366000Y-1527999D01*
X8866000Y-1527999D01*
X8866000Y-973494D01*
X8719796Y-1015971D01*
X8719510Y-1016095D01*
X8719302Y-1016114D01*
X8713825Y-1017706D01*
X8713521Y-1016660D01*
X8658595Y-1021846D01*
X8605934Y-990694D01*
X8582211Y-939322D01*
X8574391Y-884932D01*
X8574390Y-884930D01*
X8574390Y-884928D01*
X8519381Y-764475D01*
X8432664Y-664399D01*
X8321266Y-592807D01*
X8257738Y-574153D01*
X8194211Y-555500D01*
X8194210Y-555500D01*
X8061790Y-555500D01*
X8061788Y-555500D01*
X7934734Y-592807D01*
X7934733Y-592807D01*
X7823338Y-664397D01*
X7736617Y-764477D01*
X7710053Y-822645D01*
X7668681Y-867723D01*
X7608715Y-879874D01*
X7553059Y-854456D01*
X7529947Y-822645D01*
X7503382Y-764477D01*
X7503381Y-764476D01*
X7503381Y-764475D01*
X7416664Y-664399D01*
X7305266Y-592807D01*
X7241738Y-574153D01*
X7178211Y-555500D01*
X7178210Y-555500D01*
X7045790Y-555500D01*
X7045788Y-555500D01*
X6918734Y-592807D01*
X6918733Y-592807D01*
X6807338Y-664397D01*
X6720619Y-764475D01*
X6665609Y-884930D01*
X6665608Y-884932D01*
X6657788Y-939323D01*
X6630791Y-994230D01*
X6576677Y-1022783D01*
X6526437Y-1016801D01*
X6526175Y-1017706D01*
X6520719Y-1016121D01*
X6520484Y-1016093D01*
X6520199Y-1015969D01*
X6374000Y-973494D01*
X6374000Y-2185329D01*
X6355093Y-2243520D01*
X6305593Y-2279484D01*
X6244407Y-2279484D01*
X6200181Y-2250161D01*
X6199295Y-2249138D01*
X6146664Y-2188399D01*
X6035266Y-2116807D01*
X5948762Y-2091407D01*
X5945108Y-2090334D01*
X5894601Y-2055798D01*
X5890609Y-2044610D01*
X5873999Y-2028000D01*
X5345210Y-2028000D01*
X5316146Y-2059439D01*
X5262760Y-2089333D01*
X5215558Y-2087225D01*
X5155980Y-2069731D01*
X5155979Y-2069731D01*
X5023559Y-2069731D01*
X5023557Y-2069731D01*
X4896503Y-2107038D01*
X4896502Y-2107038D01*
X4785107Y-2178628D01*
X4785105Y-2178629D01*
X4785105Y-2178630D01*
X4711932Y-2263075D01*
X4698388Y-2278706D01*
X4643378Y-2399161D01*
X4643377Y-2399163D01*
X4624534Y-2530227D01*
X4624534Y-2530234D01*
X4643377Y-2661298D01*
X4643378Y-2661300D01*
X4643378Y-2661301D01*
X4643379Y-2661303D01*
X4698388Y-2781756D01*
X4746837Y-2837669D01*
X4770655Y-2894028D01*
X4756797Y-2953623D01*
X4710556Y-2993691D01*
X4672018Y-3001500D01*
X3389435Y-3001500D01*
X3313014Y-3021977D01*
X3313009Y-3021979D01*
X3260493Y-3052298D01*
X3260494Y-3052299D01*
X3244491Y-3061538D01*
X3244488Y-3061540D01*
X2488874Y-3817153D01*
X2434358Y-3844930D01*
X2373926Y-3835359D01*
X2330661Y-3792094D01*
X2320348Y-3756852D01*
X2319328Y-3746500D01*
X2311239Y-3664363D01*
X2305301Y-3604071D01*
X2305300Y-3604065D01*
X2278614Y-3516093D01*
X2245232Y-3406046D01*
X2147685Y-3223550D01*
X2102084Y-3167985D01*
X2016414Y-3063595D01*
X2016410Y-3063590D01*
X1990769Y-3042547D01*
X1856452Y-2932316D01*
X1673954Y-2834768D01*
X1475934Y-2774699D01*
X1475929Y-2774698D01*
X1270003Y-2754417D01*
X1269997Y-2754417D01*
X1064070Y-2774698D01*
X1064065Y-2774699D01*
X866045Y-2834768D01*
X683547Y-2932316D01*
X523595Y-3063585D01*
X523585Y-3063595D01*
X392316Y-3223547D01*
X294768Y-3406045D01*
X234699Y-3604065D01*
X234698Y-3604070D01*
X214417Y-3809996D01*
X214417Y-3810003D01*
X234698Y-4015929D01*
X234699Y-4015934D01*
X294768Y-4213954D01*
X392316Y-4396452D01*
X486956Y-4511771D01*
X523590Y-4556410D01*
X523595Y-4556414D01*
X683547Y-4687683D01*
X683548Y-4687683D01*
X683550Y-4687685D01*
X866046Y-4785232D01*
X992279Y-4823524D01*
X1064065Y-4845300D01*
X1064070Y-4845301D01*
X1269997Y-4865583D01*
X1270000Y-4865583D01*
X1270003Y-4865583D01*
X1475929Y-4845301D01*
X1475934Y-4845300D01*
X1510149Y-4834921D01*
X1673954Y-4785232D01*
X1856450Y-4687685D01*
X2016410Y-4556410D01*
X2025972Y-4544758D01*
X2077502Y-4511771D01*
X2138581Y-4515372D01*
X2185879Y-4554187D01*
X2201500Y-4607563D01*
X2201500Y-5552436D01*
X2182593Y-5610627D01*
X2133093Y-5646591D01*
X2071907Y-5646591D01*
X2025973Y-5615242D01*
X2016415Y-5603596D01*
X2016414Y-5603595D01*
X2016410Y-5603590D01*
X1994398Y-5585525D01*
X1856452Y-5472316D01*
X1673954Y-5374768D01*
X1475934Y-5314699D01*
X1475929Y-5314698D01*
X1270003Y-5294417D01*
X1269997Y-5294417D01*
X1064070Y-5314698D01*
X1064065Y-5314699D01*
X866045Y-5374768D01*
X683547Y-5472316D01*
X523595Y-5603585D01*
X523585Y-5603595D01*
X392316Y-5763547D01*
X294768Y-5946045D01*
X234699Y-6144065D01*
X234698Y-6144070D01*
X214417Y-6349996D01*
X214417Y-6350003D01*
X234698Y-6555929D01*
X234699Y-6555934D01*
X294768Y-6753954D01*
X392316Y-6936452D01*
X496725Y-7063675D01*
X523590Y-7096410D01*
X523595Y-7096414D01*
X683547Y-7227683D01*
X683548Y-7227683D01*
X683550Y-7227685D01*
X866046Y-7325232D01*
X1003997Y-7367078D01*
X1064065Y-7385300D01*
X1064070Y-7385301D01*
X1269997Y-7405583D01*
X1270000Y-7405583D01*
X1270003Y-7405583D01*
X1475929Y-7385301D01*
X1475934Y-7385300D01*
X1673954Y-7325232D01*
X1856450Y-7227685D01*
X2016410Y-7096410D01*
X2025972Y-7084758D01*
X2077502Y-7051771D01*
X2138581Y-7055372D01*
X2185879Y-7094187D01*
X2201500Y-7147563D01*
X2201500Y-8092436D01*
X2182593Y-8150627D01*
X2133093Y-8186591D01*
X2071907Y-8186591D01*
X2025973Y-8155242D01*
X2016415Y-8143596D01*
X2016414Y-8143595D01*
X2016410Y-8143590D01*
X1997417Y-8128003D01*
X1856452Y-8012316D01*
X1673954Y-7914768D01*
X1475934Y-7854699D01*
X1475929Y-7854698D01*
X1270003Y-7834417D01*
X1269997Y-7834417D01*
X1064070Y-7854698D01*
X1064065Y-7854699D01*
X866045Y-7914768D01*
X683547Y-8012316D01*
X523595Y-8143585D01*
X523585Y-8143595D01*
X392316Y-8303547D01*
X294768Y-8486045D01*
X234699Y-8684065D01*
X234698Y-8684070D01*
X214417Y-8889996D01*
X214417Y-8890003D01*
X234698Y-9095929D01*
X234699Y-9095934D01*
X294768Y-9293954D01*
X392316Y-9476452D01*
X486956Y-9591771D01*
X523590Y-9636410D01*
X523595Y-9636414D01*
X683547Y-9767683D01*
X683548Y-9767683D01*
X683550Y-9767685D01*
X866046Y-9865232D01*
X1003997Y-9907078D01*
X1064065Y-9925300D01*
X1064070Y-9925301D01*
X1269997Y-9945583D01*
X1270000Y-9945583D01*
X1270003Y-9945583D01*
X1475929Y-9925301D01*
X1475934Y-9925300D01*
X1673954Y-9865232D01*
X1856450Y-9767685D01*
X2016410Y-9636410D01*
X2025972Y-9624758D01*
X2077502Y-9591771D01*
X2138581Y-9595372D01*
X2185879Y-9634187D01*
X2201500Y-9687563D01*
X2201500Y-10632436D01*
X2182593Y-10690627D01*
X2133093Y-10726591D01*
X2071907Y-10726591D01*
X2025973Y-10695242D01*
X2016415Y-10683596D01*
X2016414Y-10683595D01*
X2016410Y-10683590D01*
X2014731Y-10682212D01*
X1856452Y-10552316D01*
X1673954Y-10454768D01*
X1475934Y-10394699D01*
X1475929Y-10394698D01*
X1270003Y-10374417D01*
X1269997Y-10374417D01*
X1064070Y-10394698D01*
X1064065Y-10394699D01*
X866045Y-10454768D01*
X683547Y-10552316D01*
X523595Y-10683585D01*
X523585Y-10683595D01*
X392316Y-10843547D01*
X294768Y-11026045D01*
X234699Y-11224065D01*
X234698Y-11224070D01*
X214417Y-11429996D01*
X214417Y-11430003D01*
X234698Y-11635929D01*
X234699Y-11635934D01*
X294768Y-11833954D01*
X392316Y-12016452D01*
X500193Y-12147901D01*
X523590Y-12176410D01*
X547457Y-12195997D01*
X683547Y-12307683D01*
X683548Y-12307683D01*
X683550Y-12307685D01*
X866046Y-12405232D01*
X1003997Y-12447078D01*
X1064065Y-12465300D01*
X1064070Y-12465301D01*
X1269997Y-12485583D01*
X1270000Y-12485583D01*
X1270003Y-12485583D01*
X1475929Y-12465301D01*
X1475934Y-12465300D01*
X1486130Y-12462207D01*
X1673954Y-12405232D01*
X1856450Y-12307685D01*
X2016410Y-12176410D01*
X2025972Y-12164758D01*
X2077502Y-12131771D01*
X2138581Y-12135372D01*
X2185879Y-12174187D01*
X2201500Y-12227563D01*
X2201500Y-13172436D01*
X2182593Y-13230627D01*
X2133093Y-13266591D01*
X2071907Y-13266591D01*
X2025973Y-13235242D01*
X2016415Y-13223596D01*
X2016414Y-13223595D01*
X2016410Y-13223590D01*
X2000243Y-13210322D01*
X1856452Y-13092316D01*
X1673954Y-12994768D01*
X1475934Y-12934699D01*
X1475929Y-12934698D01*
X1270003Y-12914417D01*
X1269997Y-12914417D01*
X1064070Y-12934698D01*
X1064065Y-12934699D01*
X866045Y-12994768D01*
X683547Y-13092316D01*
X523595Y-13223585D01*
X523585Y-13223595D01*
X392316Y-13383547D01*
X294768Y-13566045D01*
X234699Y-13764065D01*
X234698Y-13764070D01*
X214417Y-13969996D01*
X214417Y-13970003D01*
X234698Y-14175929D01*
X234699Y-14175934D01*
X294768Y-14373954D01*
X392316Y-14556452D01*
X486956Y-14671771D01*
X523590Y-14716410D01*
X523595Y-14716414D01*
X683547Y-14847683D01*
X683548Y-14847683D01*
X683550Y-14847685D01*
X866046Y-14945232D01*
X992283Y-14983525D01*
X1064065Y-15005300D01*
X1064070Y-15005301D01*
X1269997Y-15025583D01*
X1270000Y-15025583D01*
X1270003Y-15025583D01*
X1475929Y-15005301D01*
X1475934Y-15005300D01*
X1510149Y-14994921D01*
X1673954Y-14945232D01*
X1856450Y-14847685D01*
X2016410Y-14716410D01*
X2025972Y-14704758D01*
X2077502Y-14671771D01*
X2138581Y-14675372D01*
X2185879Y-14714187D01*
X2201500Y-14767563D01*
X2201500Y-15712436D01*
X2182593Y-15770627D01*
X2133093Y-15806591D01*
X2071907Y-15806591D01*
X2025973Y-15775242D01*
X2016415Y-15763596D01*
X2016414Y-15763595D01*
X2016410Y-15763590D01*
X1966043Y-15722255D01*
X1856452Y-15632316D01*
X1673954Y-15534768D01*
X1475934Y-15474699D01*
X1475929Y-15474698D01*
X1270003Y-15454417D01*
X1269997Y-15454417D01*
X1064070Y-15474698D01*
X1064065Y-15474699D01*
X866045Y-15534768D01*
X683547Y-15632316D01*
X523595Y-15763585D01*
X523585Y-15763595D01*
X392316Y-15923547D01*
X294768Y-16106045D01*
X234699Y-16304065D01*
X234698Y-16304070D01*
X214417Y-16509996D01*
X214417Y-16510003D01*
X234698Y-16715929D01*
X234699Y-16715934D01*
X294768Y-16913954D01*
X392316Y-17096452D01*
X506188Y-17235206D01*
X523590Y-17256410D01*
X523595Y-17256414D01*
X683547Y-17387683D01*
X683548Y-17387683D01*
X683550Y-17387685D01*
X866046Y-17485232D01*
X1003997Y-17527078D01*
X1064065Y-17545300D01*
X1064070Y-17545301D01*
X1269997Y-17565583D01*
X1270000Y-17565583D01*
X1270003Y-17565583D01*
X1475929Y-17545301D01*
X1475934Y-17545300D01*
X1673954Y-17485232D01*
X1856450Y-17387685D01*
X2016410Y-17256410D01*
X2025972Y-17244758D01*
X2077502Y-17211771D01*
X2138581Y-17215372D01*
X2185879Y-17254187D01*
X2201500Y-17307563D01*
X2201500Y-18252436D01*
X2182593Y-18310627D01*
X2133093Y-18346591D01*
X2071907Y-18346591D01*
X2025973Y-18315242D01*
X2016415Y-18303596D01*
X2016414Y-18303595D01*
X2016410Y-18303590D01*
X2009456Y-18297883D01*
X1856452Y-18172316D01*
X1673954Y-18074768D01*
X1475934Y-18014699D01*
X1475929Y-18014698D01*
X1270003Y-17994417D01*
X1269997Y-17994417D01*
X1064070Y-18014698D01*
X1064065Y-18014699D01*
X866045Y-18074768D01*
X683547Y-18172316D01*
X523595Y-18303585D01*
X523585Y-18303595D01*
X392316Y-18463547D01*
X294768Y-18646045D01*
X234699Y-18844065D01*
X234698Y-18844070D01*
X214417Y-19049996D01*
X214417Y-19050003D01*
X234698Y-19255929D01*
X234699Y-19255934D01*
X294768Y-19453954D01*
X392316Y-19636452D01*
X459655Y-19718505D01*
X523590Y-19796410D01*
X538590Y-19808720D01*
X683547Y-19927683D01*
X683548Y-19927683D01*
X683550Y-19927685D01*
X866046Y-20025232D01*
X1000844Y-20066122D01*
X1064065Y-20085300D01*
X1064070Y-20085301D01*
X1269997Y-20105583D01*
X1270000Y-20105583D01*
X1270003Y-20105583D01*
X1475929Y-20085301D01*
X1475934Y-20085300D01*
X1480668Y-20083864D01*
X1673954Y-20025232D01*
X1856450Y-19927685D01*
X2016410Y-19796410D01*
X2025972Y-19784758D01*
X2077502Y-19751771D01*
X2138581Y-19755372D01*
X2185879Y-19794187D01*
X2201500Y-19847563D01*
X2201500Y-20792436D01*
X2182593Y-20850627D01*
X2133093Y-20886591D01*
X2071907Y-20886591D01*
X2025973Y-20855242D01*
X2016415Y-20843596D01*
X2016414Y-20843595D01*
X2016410Y-20843590D01*
X2008191Y-20836845D01*
X1856452Y-20712316D01*
X1673954Y-20614768D01*
X1475934Y-20554699D01*
X1475929Y-20554698D01*
X1270003Y-20534417D01*
X1269997Y-20534417D01*
X1064070Y-20554698D01*
X1064065Y-20554699D01*
X866045Y-20614768D01*
X683547Y-20712316D01*
X523595Y-20843585D01*
X523585Y-20843595D01*
X392316Y-21003547D01*
X294768Y-21186045D01*
X234699Y-21384065D01*
X234698Y-21384070D01*
X214417Y-21589996D01*
X214417Y-21590003D01*
X234698Y-21795929D01*
X234699Y-21795934D01*
X294768Y-21993954D01*
X392316Y-22176452D01*
X486956Y-22291771D01*
X523590Y-22336410D01*
X523595Y-22336414D01*
X683547Y-22467683D01*
X683548Y-22467683D01*
X683550Y-22467685D01*
X866046Y-22565232D01*
X987476Y-22602067D01*
X1064065Y-22625300D01*
X1064070Y-22625301D01*
X1269997Y-22645583D01*
X1270000Y-22645583D01*
X1270003Y-22645583D01*
X1475929Y-22625301D01*
X1475934Y-22625300D01*
X1673954Y-22565232D01*
X1856450Y-22467685D01*
X2016410Y-22336410D01*
X2025972Y-22324758D01*
X2077502Y-22291771D01*
X2138581Y-22295372D01*
X2185879Y-22334187D01*
X2201500Y-22387563D01*
X2201500Y-23332436D01*
X2182593Y-23390627D01*
X2133093Y-23426591D01*
X2071907Y-23426591D01*
X2025973Y-23395242D01*
X2016415Y-23383596D01*
X2016414Y-23383595D01*
X2016410Y-23383590D01*
X1990720Y-23362507D01*
X1856452Y-23252316D01*
X1673954Y-23154768D01*
X1475934Y-23094699D01*
X1475929Y-23094698D01*
X1270003Y-23074417D01*
X1269997Y-23074417D01*
X1064070Y-23094698D01*
X1064065Y-23094699D01*
X866045Y-23154768D01*
X683547Y-23252316D01*
X523595Y-23383585D01*
X523585Y-23383595D01*
X392316Y-23543547D01*
X294768Y-23726045D01*
X234699Y-23924065D01*
X234698Y-23924070D01*
X214417Y-24129996D01*
X214417Y-24130003D01*
X234698Y-24335929D01*
X234699Y-24335934D01*
X294768Y-24533954D01*
X392316Y-24716452D01*
X486956Y-24831771D01*
X523590Y-24876410D01*
X523595Y-24876414D01*
X683547Y-25007683D01*
X683548Y-25007683D01*
X683550Y-25007685D01*
X866046Y-25105232D01*
X998451Y-25145396D01*
X1064065Y-25165300D01*
X1064070Y-25165301D01*
X1269997Y-25185583D01*
X1270000Y-25185583D01*
X1270003Y-25185583D01*
X1475929Y-25165301D01*
X1475934Y-25165300D01*
X1673954Y-25105232D01*
X1856450Y-25007685D01*
X2016410Y-24876410D01*
X2025972Y-24864758D01*
X2077502Y-24831771D01*
X2138581Y-24835372D01*
X2185879Y-24874187D01*
X2201500Y-24927563D01*
X2201500Y-25872436D01*
X2182593Y-25930627D01*
X2133093Y-25966591D01*
X2071907Y-25966591D01*
X2025973Y-25935242D01*
X2016415Y-25923596D01*
X2016414Y-25923595D01*
X2016410Y-25923590D01*
X1982560Y-25895810D01*
X1856452Y-25792316D01*
X1673954Y-25694768D01*
X1475934Y-25634699D01*
X1475929Y-25634698D01*
X1270003Y-25614417D01*
X1269997Y-25614417D01*
X1064070Y-25634698D01*
X1064065Y-25634699D01*
X866045Y-25694768D01*
X683547Y-25792316D01*
X523595Y-25923585D01*
X523585Y-25923595D01*
X392316Y-26083547D01*
X294768Y-26266045D01*
X234699Y-26464065D01*
X234698Y-26464070D01*
X214417Y-26669996D01*
X214417Y-26670003D01*
X234698Y-26875929D01*
X234699Y-26875934D01*
X294768Y-27073954D01*
X392316Y-27256452D01*
X514028Y-27404759D01*
X523590Y-27416410D01*
X523595Y-27416414D01*
X683547Y-27547683D01*
X683548Y-27547683D01*
X683550Y-27547685D01*
X866046Y-27645232D01*
X1003997Y-27687078D01*
X1064065Y-27705300D01*
X1064070Y-27705301D01*
X1269997Y-27725583D01*
X1270000Y-27725583D01*
X1270003Y-27725583D01*
X1475929Y-27705301D01*
X1475934Y-27705300D01*
X1673954Y-27645232D01*
X1856450Y-27547685D01*
X2016410Y-27416410D01*
X2025972Y-27404758D01*
X2077502Y-27371771D01*
X2138581Y-27375372D01*
X2185879Y-27414187D01*
X2201500Y-27467563D01*
X2201500Y-28412436D01*
X2182593Y-28470627D01*
X2133093Y-28506591D01*
X2071907Y-28506591D01*
X2025973Y-28475242D01*
X2016415Y-28463596D01*
X2016414Y-28463595D01*
X2016410Y-28463590D01*
X1997417Y-28448003D01*
X1856452Y-28332316D01*
X1673954Y-28234768D01*
X1475934Y-28174699D01*
X1475929Y-28174698D01*
X1270003Y-28154417D01*
X1269997Y-28154417D01*
X1064070Y-28174698D01*
X1064065Y-28174699D01*
X866045Y-28234768D01*
X683547Y-28332316D01*
X523595Y-28463585D01*
X523585Y-28463595D01*
X392316Y-28623547D01*
X294768Y-28806045D01*
X234699Y-29004065D01*
X234698Y-29004070D01*
X214417Y-29209996D01*
X214417Y-29210003D01*
X234698Y-29415929D01*
X234699Y-29415934D01*
X294768Y-29613954D01*
X392316Y-29796452D01*
X451797Y-29868930D01*
X523590Y-29956410D01*
X523595Y-29956414D01*
X683547Y-30087683D01*
X683548Y-30087683D01*
X683550Y-30087685D01*
X866046Y-30185232D01*
X1003997Y-30227078D01*
X1064065Y-30245300D01*
X1064070Y-30245301D01*
X1269997Y-30265583D01*
X1270000Y-30265583D01*
X1270003Y-30265583D01*
X1475929Y-30245301D01*
X1475934Y-30245300D01*
X1673954Y-30185232D01*
X1856450Y-30087685D01*
X2016410Y-29956410D01*
X2025972Y-29944758D01*
X2077502Y-29911771D01*
X2138581Y-29915372D01*
X2185879Y-29954187D01*
X2201500Y-30007563D01*
X2201500Y-30952436D01*
X2182593Y-31010627D01*
X2133093Y-31046591D01*
X2071907Y-31046591D01*
X2025973Y-31015242D01*
X2016415Y-31003596D01*
X2016414Y-31003595D01*
X2016410Y-31003590D01*
X1957695Y-30955404D01*
X1856452Y-30872316D01*
X1673954Y-30774768D01*
X1475934Y-30714699D01*
X1475929Y-30714698D01*
X1270003Y-30694417D01*
X1269997Y-30694417D01*
X1064070Y-30714698D01*
X1064065Y-30714699D01*
X866045Y-30774768D01*
X683547Y-30872316D01*
X523595Y-31003585D01*
X523585Y-31003595D01*
X392316Y-31163547D01*
X294768Y-31346045D01*
X234699Y-31544065D01*
X234698Y-31544070D01*
X214417Y-31749996D01*
X214417Y-31750003D01*
X234698Y-31955929D01*
X234699Y-31955934D01*
X294768Y-32153954D01*
X392316Y-32336452D01*
X420499Y-32370793D01*
X523590Y-32496410D01*
X523595Y-32496414D01*
X683547Y-32627683D01*
X683548Y-32627683D01*
X683550Y-32627685D01*
X866046Y-32725232D01*
X1003997Y-32767078D01*
X1064065Y-32785300D01*
X1064070Y-32785301D01*
X1269997Y-32805583D01*
X1270000Y-32805583D01*
X1270003Y-32805583D01*
X1475929Y-32785301D01*
X1475934Y-32785300D01*
X1673954Y-32725232D01*
X1856450Y-32627685D01*
X2016410Y-32496410D01*
X2025972Y-32484758D01*
X2077502Y-32451771D01*
X2138581Y-32455372D01*
X2185879Y-32494187D01*
X2201500Y-32547563D01*
X2201500Y-33492436D01*
X2182593Y-33550627D01*
X2133093Y-33586591D01*
X2071907Y-33586591D01*
X2025973Y-33555242D01*
X2016415Y-33543596D01*
X2016414Y-33543595D01*
X2016410Y-33543590D01*
X2016404Y-33543585D01*
X1856452Y-33412316D01*
X1673954Y-33314768D01*
X1475934Y-33254699D01*
X1475929Y-33254698D01*
X1270003Y-33234417D01*
X1269997Y-33234417D01*
X1064070Y-33254698D01*
X1064065Y-33254699D01*
X866045Y-33314768D01*
X683547Y-33412316D01*
X523595Y-33543585D01*
X523585Y-33543595D01*
X392316Y-33703547D01*
X294768Y-33886045D01*
X234699Y-34084065D01*
X234698Y-34084070D01*
X214417Y-34289996D01*
X214417Y-34290003D01*
X234698Y-34495929D01*
X234699Y-34495934D01*
X294768Y-34693954D01*
X392316Y-34876452D01*
X467609Y-34968197D01*
X523590Y-35036410D01*
X523595Y-35036414D01*
X683547Y-35167683D01*
X683548Y-35167683D01*
X683550Y-35167685D01*
X866046Y-35265232D01*
X1003997Y-35307078D01*
X1064065Y-35325300D01*
X1064070Y-35325301D01*
X1269997Y-35345583D01*
X1270000Y-35345583D01*
X1270003Y-35345583D01*
X1475929Y-35325301D01*
X1475934Y-35325300D01*
X1673954Y-35265232D01*
X1856450Y-35167685D01*
X2016410Y-35036410D01*
X2025972Y-35024758D01*
X2077502Y-34991771D01*
X2138581Y-34995372D01*
X2185879Y-35034187D01*
X2201500Y-35087563D01*
X2201500Y-36032436D01*
X2182593Y-36090627D01*
X2133093Y-36126591D01*
X2071907Y-36126591D01*
X2025973Y-36095242D01*
X2016415Y-36083596D01*
X2016414Y-36083595D01*
X2016410Y-36083590D01*
X1984868Y-36057704D01*
X1856452Y-35952316D01*
X1673954Y-35854768D01*
X1475934Y-35794699D01*
X1475929Y-35794698D01*
X1270003Y-35774417D01*
X1269997Y-35774417D01*
X1064070Y-35794698D01*
X1064065Y-35794699D01*
X866045Y-35854768D01*
X683547Y-35952316D01*
X523595Y-36083585D01*
X523585Y-36083595D01*
X392316Y-36243547D01*
X294768Y-36426045D01*
X234699Y-36624065D01*
X234698Y-36624070D01*
X214417Y-36829996D01*
X214417Y-36830003D01*
X234698Y-37035929D01*
X234699Y-37035934D01*
X294768Y-37233954D01*
X392316Y-37416452D01*
X523585Y-37576404D01*
X523590Y-37576410D01*
X523595Y-37576414D01*
X683547Y-37707683D01*
X683548Y-37707683D01*
X683550Y-37707685D01*
X866046Y-37805232D01*
X935377Y-37826263D01*
X985574Y-37861248D01*
X1005620Y-37919056D01*
X987859Y-37977607D01*
X939075Y-38014536D01*
X906639Y-38020000D01*
X372176Y-38020000D01*
X312629Y-38026401D01*
X312618Y-38026403D01*
X177911Y-38076646D01*
X177909Y-38076647D01*
X158329Y-38091305D01*
X100414Y-38111042D01*
X41959Y-38092968D01*
X5292Y-38043986D01*
X0Y-38012052D01*
X0Y-1528000D01*
X5345209Y-1528000D01*
X5873999Y-1528000D01*
X5874000Y-1527999D01*
X5874000Y-973494D01*
X5727805Y-1015968D01*
X5727801Y-1015969D01*
X5588625Y-1098278D01*
X5474278Y-1212625D01*
X5391969Y-1351801D01*
X5391969Y-1351802D01*
X5346855Y-1507087D01*
X5345209Y-1528000D01*
X0Y-1528000D01*
X0Y-99000D01*
X18907Y-40809D01*
X68407Y-4845D01*
X99000Y0D01*
X25301000Y0D01*
X25359191Y-18907D01*
G37*
%TD.AperFunction*%
%TA.AperFunction,Conductor*%
G36*
X4930305Y-19432406D02*
G01*
X4966269Y-19481906D01*
X4967643Y-19486513D01*
X4969294Y-19492583D01*
X5008064Y-19580387D01*
X5016500Y-19620376D01*
X5016500Y-19901702D01*
X4997593Y-19959893D01*
X4987504Y-19971705D01*
X4946535Y-20012673D01*
X4946531Y-20012679D01*
X4903683Y-20086893D01*
X4903682Y-20086898D01*
X4886496Y-20151039D01*
X4885686Y-20154061D01*
X4881500Y-20169681D01*
X4881348Y-20170843D01*
X4880956Y-20171713D01*
X4879822Y-20175949D01*
X4879135Y-20175765D01*
X4858014Y-20222748D01*
X4815620Y-20271672D01*
X4760609Y-20392130D01*
X4760608Y-20392132D01*
X4741765Y-20523196D01*
X4741765Y-20523203D01*
X4760608Y-20654267D01*
X4760609Y-20654269D01*
X4760609Y-20654270D01*
X4760610Y-20654272D01*
X4815619Y-20774725D01*
X4902336Y-20874801D01*
X5013734Y-20946393D01*
X5140790Y-20983700D01*
X5140791Y-20983700D01*
X5273209Y-20983700D01*
X5273210Y-20983700D01*
X5400266Y-20946393D01*
X5511664Y-20874801D01*
X5513390Y-20872809D01*
X5519147Y-20866166D01*
X5571544Y-20834572D01*
X5593964Y-20832000D01*
X6275000Y-20832000D01*
X6333191Y-20850907D01*
X6369155Y-20900407D01*
X6374000Y-20931000D01*
X6374000Y-21233000D01*
X6355093Y-21291191D01*
X6305593Y-21327155D01*
X6275000Y-21332000D01*
X5345210Y-21332000D01*
X5346855Y-21352912D01*
X5346856Y-21352920D01*
X5391969Y-21508197D01*
X5391969Y-21508198D01*
X5474278Y-21647374D01*
X5588628Y-21761724D01*
X5592636Y-21764833D01*
X5627029Y-21815437D01*
X5625108Y-21876592D01*
X5601964Y-21913063D01*
X4171504Y-23343524D01*
X4116987Y-23371301D01*
X4056555Y-23361730D01*
X4013290Y-23318465D01*
X4002500Y-23273520D01*
X4002500Y-20180978D01*
X4021407Y-20122787D01*
X4031490Y-20110980D01*
X4699975Y-19442494D01*
X4754492Y-19414718D01*
X4769979Y-19413499D01*
X4872114Y-19413499D01*
X4930305Y-19432406D01*
G37*
%TD.AperFunction*%
%TA.AperFunction,Conductor*%
G36*
X9095920Y-20673261D02*
G01*
X9204734Y-20743193D01*
X9322892Y-20777887D01*
X9373398Y-20812423D01*
X9393960Y-20870050D01*
X9394000Y-20872877D01*
X9394000Y-21233000D01*
X9375093Y-21291191D01*
X9325593Y-21327155D01*
X9295000Y-21332000D01*
X8993000Y-21332000D01*
X8934809Y-21313093D01*
X8898845Y-21263593D01*
X8894000Y-21233000D01*
X8894000Y-20788295D01*
X8912907Y-20730104D01*
X8939472Y-20705014D01*
X8988879Y-20673262D01*
X9048051Y-20657708D01*
X9095920Y-20673261D01*
G37*
%TD.AperFunction*%
%TA.AperFunction,Conductor*%
G36*
X9282191Y-19294407D02*
G01*
X9318155Y-19343907D01*
X9323000Y-19374500D01*
X9323000Y-19787969D01*
X9304093Y-19846160D01*
X9254593Y-19882124D01*
X9251894Y-19882958D01*
X9204734Y-19896806D01*
X9129887Y-19944908D01*
X9070712Y-19960463D01*
X9013696Y-19938264D01*
X8980616Y-19886792D01*
X8984109Y-19825706D01*
X8985800Y-19821635D01*
X9020707Y-19742580D01*
X9023500Y-19718505D01*
X9023499Y-19374498D01*
X9042406Y-19316309D01*
X9091906Y-19280345D01*
X9122499Y-19275500D01*
X9224000Y-19275500D01*
X9282191Y-19294407D01*
G37*
%TD.AperFunction*%
%TA.AperFunction,Conductor*%
G36*
X19442191Y-19294407D02*
G01*
X19478155Y-19343907D01*
X19483000Y-19374500D01*
X19483000Y-19787969D01*
X19464093Y-19846160D01*
X19414593Y-19882124D01*
X19411894Y-19882958D01*
X19364734Y-19896806D01*
X19289887Y-19944908D01*
X19230712Y-19960463D01*
X19173696Y-19938264D01*
X19140616Y-19886792D01*
X19144109Y-19825706D01*
X19145800Y-19821635D01*
X19180707Y-19742580D01*
X19183500Y-19718505D01*
X19183499Y-19374498D01*
X19202406Y-19316309D01*
X19251906Y-19280345D01*
X19282499Y-19275500D01*
X19384000Y-19275500D01*
X19442191Y-19294407D01*
G37*
%TD.AperFunction*%
%TA.AperFunction,Conductor*%
G36*
X9437986Y-17611230D02*
G01*
X9493420Y-17635707D01*
X9517495Y-17638500D01*
X9698499Y-17638499D01*
X9756690Y-17657406D01*
X9792654Y-17706906D01*
X9797500Y-17737498D01*
X9797500Y-17918500D01*
X9797501Y-17918503D01*
X9800293Y-17942581D01*
X9824768Y-17998013D01*
X9830976Y-18058883D01*
X9824768Y-18077986D01*
X9800294Y-18133416D01*
X9800292Y-18133423D01*
X9797500Y-18157488D01*
X9797500Y-18418500D01*
X9797501Y-18418503D01*
X9800293Y-18442581D01*
X9824768Y-18498013D01*
X9830976Y-18558883D01*
X9824768Y-18577986D01*
X9800294Y-18633416D01*
X9800292Y-18633423D01*
X9797500Y-18657488D01*
X9797500Y-18918500D01*
X9797500Y-18918502D01*
X9797501Y-18918504D01*
X9800293Y-18942580D01*
X9814565Y-18974903D01*
X9823000Y-19014888D01*
X9823000Y-19029491D01*
X9814565Y-19069477D01*
X9781734Y-19143834D01*
X9775292Y-19158423D01*
X9772500Y-19182488D01*
X9772500Y-19182494D01*
X9772500Y-19182495D01*
X9772500Y-19449808D01*
X9772501Y-19526500D01*
X9753594Y-19584691D01*
X9704094Y-19620655D01*
X9673501Y-19625500D01*
X9572000Y-19625500D01*
X9513809Y-19606593D01*
X9477845Y-19557093D01*
X9473000Y-19526500D01*
X9473000Y-18644450D01*
X9472999Y-18644449D01*
X9410921Y-18652622D01*
X9385075Y-18652622D01*
X9366250Y-18650143D01*
X9311025Y-18623800D01*
X9281832Y-18570028D01*
X9283194Y-18535455D01*
X9282032Y-18535302D01*
X9291551Y-18463000D01*
X8906508Y-18463000D01*
X8866520Y-18454564D01*
X8790473Y-18420986D01*
X8777580Y-18415293D01*
X8777578Y-18415292D01*
X8777576Y-18415292D01*
X8753511Y-18412500D01*
X8409500Y-18412500D01*
X8351309Y-18393593D01*
X8315345Y-18344093D01*
X8310500Y-18313500D01*
X8310500Y-18212000D01*
X8329407Y-18153809D01*
X8378907Y-18117845D01*
X8409500Y-18113000D01*
X9291550Y-18113000D01*
X9291550Y-18112999D01*
X9283378Y-18050921D01*
X9283378Y-18025078D01*
X9291551Y-17963000D01*
X8409500Y-17963000D01*
X8351309Y-17944093D01*
X8315345Y-17894593D01*
X8310500Y-17864000D01*
X8310500Y-17712000D01*
X8329407Y-17653809D01*
X8378907Y-17617845D01*
X8409500Y-17613000D01*
X8421111Y-17613000D01*
X8461095Y-17621434D01*
X8493420Y-17635707D01*
X8517495Y-17638500D01*
X8778504Y-17638499D01*
X8802580Y-17635707D01*
X8834900Y-17621435D01*
X8874889Y-17613000D01*
X8921111Y-17613000D01*
X8961099Y-17621435D01*
X8993420Y-17635707D01*
X9017495Y-17638500D01*
X9278504Y-17638499D01*
X9302580Y-17635707D01*
X9358012Y-17611230D01*
X9418879Y-17605022D01*
X9437986Y-17611230D01*
G37*
%TD.AperFunction*%
%TA.AperFunction,Conductor*%
G36*
X19597986Y-17611230D02*
G01*
X19653420Y-17635707D01*
X19677495Y-17638500D01*
X19858499Y-17638499D01*
X19916690Y-17657406D01*
X19952654Y-17706906D01*
X19957500Y-17737498D01*
X19957500Y-17918500D01*
X19957501Y-17918503D01*
X19960293Y-17942581D01*
X19984768Y-17998013D01*
X19990976Y-18058883D01*
X19984768Y-18077986D01*
X19960294Y-18133416D01*
X19960292Y-18133423D01*
X19957500Y-18157488D01*
X19957500Y-18418500D01*
X19957501Y-18418503D01*
X19960293Y-18442581D01*
X19984768Y-18498013D01*
X19990976Y-18558883D01*
X19984768Y-18577986D01*
X19960294Y-18633416D01*
X19960292Y-18633423D01*
X19957500Y-18657488D01*
X19957500Y-18918500D01*
X19957500Y-18918502D01*
X19957501Y-18918504D01*
X19960293Y-18942580D01*
X19974565Y-18974903D01*
X19983000Y-19014888D01*
X19983000Y-19029491D01*
X19974565Y-19069477D01*
X19941734Y-19143834D01*
X19935292Y-19158423D01*
X19932500Y-19182488D01*
X19932500Y-19182494D01*
X19932500Y-19182495D01*
X19932500Y-19449808D01*
X19932501Y-19526500D01*
X19913594Y-19584691D01*
X19864094Y-19620655D01*
X19833501Y-19625500D01*
X19732000Y-19625500D01*
X19673809Y-19606593D01*
X19637845Y-19557093D01*
X19633000Y-19526500D01*
X19633000Y-18644450D01*
X19632999Y-18644449D01*
X19570921Y-18652622D01*
X19545075Y-18652622D01*
X19526250Y-18650143D01*
X19471025Y-18623800D01*
X19441832Y-18570028D01*
X19443194Y-18535455D01*
X19442032Y-18535302D01*
X19451551Y-18463000D01*
X19066508Y-18463000D01*
X19026520Y-18454564D01*
X18950473Y-18420986D01*
X18937580Y-18415293D01*
X18937578Y-18415292D01*
X18937576Y-18415292D01*
X18913511Y-18412500D01*
X18569500Y-18412500D01*
X18511309Y-18393593D01*
X18475345Y-18344093D01*
X18470500Y-18313500D01*
X18470500Y-18212000D01*
X18489407Y-18153809D01*
X18538907Y-18117845D01*
X18569500Y-18113000D01*
X19451550Y-18113000D01*
X19451550Y-18112999D01*
X19443378Y-18050921D01*
X19443378Y-18025078D01*
X19451551Y-17963000D01*
X18569500Y-17963000D01*
X18511309Y-17944093D01*
X18475345Y-17894593D01*
X18470500Y-17864000D01*
X18470500Y-17712000D01*
X18489407Y-17653809D01*
X18538907Y-17617845D01*
X18569500Y-17613000D01*
X18581111Y-17613000D01*
X18621095Y-17621434D01*
X18653420Y-17635707D01*
X18677495Y-17638500D01*
X18938504Y-17638499D01*
X18962580Y-17635707D01*
X18994900Y-17621435D01*
X19034889Y-17613000D01*
X19081111Y-17613000D01*
X19121099Y-17621435D01*
X19153420Y-17635707D01*
X19177495Y-17638500D01*
X19438504Y-17638499D01*
X19462580Y-17635707D01*
X19518012Y-17611230D01*
X19578879Y-17605022D01*
X19597986Y-17611230D01*
G37*
%TD.AperFunction*%
%TA.AperFunction,Conductor*%
G36*
X5976191Y-17219407D02*
G01*
X6012155Y-17268907D01*
X6017000Y-17299500D01*
X6017000Y-18181548D01*
X6079077Y-18173377D01*
X6104920Y-18173377D01*
X6166999Y-18181549D01*
X6167000Y-18181549D01*
X6167000Y-17299500D01*
X6185907Y-17241309D01*
X6235407Y-17205345D01*
X6266000Y-17200500D01*
X6418000Y-17200500D01*
X6476191Y-17219407D01*
X6512155Y-17268907D01*
X6517000Y-17299500D01*
X6517000Y-17311111D01*
X6508565Y-17351095D01*
X6494293Y-17383420D01*
X6494292Y-17383423D01*
X6491500Y-17407488D01*
X6491500Y-17668500D01*
X6491500Y-17668502D01*
X6491501Y-17668504D01*
X6494293Y-17692580D01*
X6508565Y-17724903D01*
X6517000Y-17764888D01*
X6517000Y-17811109D01*
X6508565Y-17851096D01*
X6494293Y-17883420D01*
X6494292Y-17883420D01*
X6491500Y-17907491D01*
X6491500Y-18168500D01*
X6491501Y-18168503D01*
X6494293Y-18192581D01*
X6518768Y-18248013D01*
X6524976Y-18308883D01*
X6518768Y-18327986D01*
X6494294Y-18383416D01*
X6494292Y-18383423D01*
X6491500Y-18407488D01*
X6491500Y-18588500D01*
X6472593Y-18646691D01*
X6423093Y-18682655D01*
X6392501Y-18687500D01*
X6211499Y-18687500D01*
X6211496Y-18687501D01*
X6187418Y-18690293D01*
X6131986Y-18714768D01*
X6071116Y-18720975D01*
X6052012Y-18714768D01*
X5996580Y-18690293D01*
X5996576Y-18690292D01*
X5972508Y-18687500D01*
X5711499Y-18687500D01*
X5711496Y-18687501D01*
X5687418Y-18690293D01*
X5631986Y-18714768D01*
X5571116Y-18720975D01*
X5552012Y-18714768D01*
X5496580Y-18690293D01*
X5496576Y-18690292D01*
X5472508Y-18687500D01*
X5211499Y-18687500D01*
X5211496Y-18687501D01*
X5187420Y-18690293D01*
X5155095Y-18704565D01*
X5115109Y-18713000D01*
X5100508Y-18713000D01*
X5060520Y-18704564D01*
X4971582Y-18665294D01*
X4971583Y-18665294D01*
X4971580Y-18665293D01*
X4971578Y-18665292D01*
X4971576Y-18665292D01*
X4947511Y-18662500D01*
X4603500Y-18662500D01*
X4545309Y-18643593D01*
X4509345Y-18594093D01*
X4504500Y-18563500D01*
X4504500Y-18462000D01*
X4523407Y-18403809D01*
X4572907Y-18367845D01*
X4603500Y-18363000D01*
X5485550Y-18363000D01*
X5485549Y-18362999D01*
X5477377Y-18300922D01*
X5477377Y-18275075D01*
X5479856Y-18256250D01*
X5506199Y-18201025D01*
X5559971Y-18171832D01*
X5594546Y-18173192D01*
X5594699Y-18172032D01*
X5666999Y-18181550D01*
X5667000Y-18181549D01*
X5667000Y-17796508D01*
X5675436Y-17756520D01*
X5695093Y-17712000D01*
X5714707Y-17667580D01*
X5717500Y-17643505D01*
X5717499Y-17299498D01*
X5736406Y-17241309D01*
X5785906Y-17205345D01*
X5816499Y-17200500D01*
X5918000Y-17200500D01*
X5976191Y-17219407D01*
G37*
%TD.AperFunction*%
%TA.AperFunction,Conductor*%
G36*
X16136191Y-17208407D02*
G01*
X16172155Y-17257907D01*
X16177000Y-17288500D01*
X16177000Y-18170548D01*
X16239077Y-18162377D01*
X16264920Y-18162377D01*
X16326999Y-18170549D01*
X16327000Y-18170549D01*
X16327000Y-17288500D01*
X16345907Y-17230309D01*
X16395407Y-17194345D01*
X16426000Y-17189500D01*
X16578000Y-17189500D01*
X16636191Y-17208407D01*
X16672155Y-17257907D01*
X16677000Y-17288500D01*
X16677000Y-17300111D01*
X16668565Y-17340095D01*
X16654293Y-17372420D01*
X16654292Y-17372423D01*
X16651500Y-17396488D01*
X16651500Y-17657500D01*
X16651500Y-17657502D01*
X16651501Y-17657504D01*
X16654293Y-17681580D01*
X16668565Y-17713903D01*
X16677000Y-17753888D01*
X16677000Y-17800109D01*
X16668565Y-17840096D01*
X16654293Y-17872420D01*
X16654292Y-17872420D01*
X16651500Y-17896491D01*
X16651500Y-18157500D01*
X16651501Y-18157503D01*
X16654293Y-18181581D01*
X16678768Y-18237013D01*
X16684976Y-18297883D01*
X16678768Y-18316986D01*
X16654294Y-18372416D01*
X16654292Y-18372423D01*
X16651500Y-18396488D01*
X16651500Y-18577500D01*
X16632593Y-18635691D01*
X16583093Y-18671655D01*
X16552501Y-18676500D01*
X16371499Y-18676500D01*
X16371496Y-18676501D01*
X16347418Y-18679293D01*
X16291986Y-18703768D01*
X16231116Y-18709975D01*
X16212012Y-18703768D01*
X16156580Y-18679293D01*
X16156576Y-18679292D01*
X16132508Y-18676500D01*
X15871499Y-18676500D01*
X15871496Y-18676501D01*
X15847418Y-18679293D01*
X15791986Y-18703768D01*
X15731116Y-18709975D01*
X15712012Y-18703768D01*
X15656580Y-18679293D01*
X15656576Y-18679292D01*
X15632508Y-18676500D01*
X15371499Y-18676500D01*
X15371496Y-18676501D01*
X15347420Y-18679293D01*
X15315095Y-18693565D01*
X15275109Y-18702000D01*
X15260508Y-18702000D01*
X15220520Y-18693564D01*
X15131582Y-18654294D01*
X15131583Y-18654294D01*
X15131580Y-18654293D01*
X15131578Y-18654292D01*
X15131576Y-18654292D01*
X15107511Y-18651500D01*
X14763500Y-18651500D01*
X14705309Y-18632593D01*
X14669345Y-18583093D01*
X14664500Y-18552500D01*
X14664500Y-18451000D01*
X14683407Y-18392809D01*
X14732907Y-18356845D01*
X14763500Y-18352000D01*
X15645550Y-18352000D01*
X15645549Y-18351999D01*
X15637377Y-18289922D01*
X15637377Y-18264075D01*
X15639856Y-18245250D01*
X15666199Y-18190025D01*
X15719971Y-18160832D01*
X15754546Y-18162192D01*
X15754699Y-18161032D01*
X15826999Y-18170550D01*
X15827000Y-18170549D01*
X15827000Y-17785508D01*
X15835436Y-17745520D01*
X15850236Y-17712000D01*
X15874707Y-17656580D01*
X15877500Y-17632505D01*
X15877499Y-17288498D01*
X15896406Y-17230309D01*
X15945906Y-17194345D01*
X15976499Y-17189500D01*
X16078000Y-17189500D01*
X16136191Y-17208407D01*
G37*
%TD.AperFunction*%
%TA.AperFunction,Conductor*%
G36*
X9687986Y-14305230D02*
G01*
X9743420Y-14329707D01*
X9767495Y-14332500D01*
X10028504Y-14332499D01*
X10052580Y-14329707D01*
X10084900Y-14315435D01*
X10124889Y-14307000D01*
X10139492Y-14307000D01*
X10179480Y-14315436D01*
X10203240Y-14325927D01*
X10268420Y-14354707D01*
X10292495Y-14357500D01*
X10636501Y-14357499D01*
X10694691Y-14376406D01*
X10730655Y-14425906D01*
X10735500Y-14456499D01*
X10735500Y-14558000D01*
X10716593Y-14616191D01*
X10667093Y-14652155D01*
X10636500Y-14657000D01*
X9754450Y-14657000D01*
X9762622Y-14719077D01*
X9762622Y-14744924D01*
X9760143Y-14763749D01*
X9733800Y-14818974D01*
X9680028Y-14848167D01*
X9645454Y-14846808D01*
X9645302Y-14847968D01*
X9573000Y-14838449D01*
X9573000Y-15223491D01*
X9564565Y-15263479D01*
X9525292Y-15352423D01*
X9522500Y-15376488D01*
X9522500Y-15376494D01*
X9522500Y-15376495D01*
X9522500Y-15639875D01*
X9522501Y-15720500D01*
X9503594Y-15778691D01*
X9454094Y-15814655D01*
X9423501Y-15819500D01*
X9322000Y-15819500D01*
X9263809Y-15800593D01*
X9227845Y-15751093D01*
X9223000Y-15720500D01*
X9223000Y-14838450D01*
X9222999Y-14838449D01*
X9160921Y-14846622D01*
X9135078Y-14846622D01*
X9073000Y-14838449D01*
X9073000Y-15720500D01*
X9054093Y-15778691D01*
X9004593Y-15814655D01*
X8974000Y-15819500D01*
X8822000Y-15819500D01*
X8763809Y-15800593D01*
X8727845Y-15751093D01*
X8723000Y-15720500D01*
X8723000Y-15708888D01*
X8731435Y-15668902D01*
X8745707Y-15636580D01*
X8748500Y-15612505D01*
X8748499Y-15351496D01*
X8745707Y-15327420D01*
X8731435Y-15295099D01*
X8723000Y-15255111D01*
X8723000Y-15208888D01*
X8731435Y-15168901D01*
X8745707Y-15136580D01*
X8748500Y-15112505D01*
X8748499Y-14851496D01*
X8745707Y-14827420D01*
X8721230Y-14771988D01*
X8715022Y-14711119D01*
X8721227Y-14692018D01*
X8745707Y-14636580D01*
X8748500Y-14612505D01*
X8748499Y-14431499D01*
X8767406Y-14373309D01*
X8816906Y-14337345D01*
X8847494Y-14332499D01*
X9028504Y-14332499D01*
X9052580Y-14329707D01*
X9108012Y-14305230D01*
X9168879Y-14299022D01*
X9187986Y-14305230D01*
X9243420Y-14329707D01*
X9267495Y-14332500D01*
X9528504Y-14332499D01*
X9552580Y-14329707D01*
X9608012Y-14305230D01*
X9668879Y-14299022D01*
X9687986Y-14305230D01*
G37*
%TD.AperFunction*%
%TA.AperFunction,Conductor*%
G36*
X19847986Y-14305230D02*
G01*
X19903420Y-14329707D01*
X19927495Y-14332500D01*
X20188504Y-14332499D01*
X20212580Y-14329707D01*
X20244900Y-14315435D01*
X20284889Y-14307000D01*
X20299492Y-14307000D01*
X20339480Y-14315436D01*
X20363240Y-14325927D01*
X20428420Y-14354707D01*
X20452495Y-14357500D01*
X20796501Y-14357499D01*
X20854691Y-14376406D01*
X20890655Y-14425906D01*
X20895500Y-14456499D01*
X20895500Y-14558000D01*
X20876593Y-14616191D01*
X20827093Y-14652155D01*
X20796500Y-14657000D01*
X19914450Y-14657000D01*
X19922622Y-14719077D01*
X19922622Y-14744924D01*
X19920143Y-14763749D01*
X19893800Y-14818974D01*
X19840028Y-14848167D01*
X19805454Y-14846808D01*
X19805302Y-14847968D01*
X19733000Y-14838449D01*
X19733000Y-15223491D01*
X19724565Y-15263479D01*
X19685292Y-15352423D01*
X19682500Y-15376488D01*
X19682500Y-15376494D01*
X19682500Y-15376495D01*
X19682500Y-15639875D01*
X19682501Y-15720500D01*
X19663594Y-15778691D01*
X19614094Y-15814655D01*
X19583501Y-15819500D01*
X19482000Y-15819500D01*
X19423809Y-15800593D01*
X19387845Y-15751093D01*
X19383000Y-15720500D01*
X19383000Y-14838450D01*
X19382999Y-14838449D01*
X19320921Y-14846622D01*
X19295078Y-14846622D01*
X19233000Y-14838449D01*
X19233000Y-15720500D01*
X19214093Y-15778691D01*
X19164593Y-15814655D01*
X19134000Y-15819500D01*
X18982000Y-15819500D01*
X18923809Y-15800593D01*
X18887845Y-15751093D01*
X18883000Y-15720500D01*
X18883000Y-15708888D01*
X18891435Y-15668902D01*
X18905707Y-15636580D01*
X18908500Y-15612505D01*
X18908499Y-15351496D01*
X18905707Y-15327420D01*
X18891435Y-15295099D01*
X18883000Y-15255111D01*
X18883000Y-15208888D01*
X18891435Y-15168901D01*
X18905707Y-15136580D01*
X18908500Y-15112505D01*
X18908499Y-14851496D01*
X18905707Y-14827420D01*
X18881230Y-14771988D01*
X18875022Y-14711119D01*
X18881227Y-14692018D01*
X18905707Y-14636580D01*
X18908500Y-14612505D01*
X18908499Y-14431499D01*
X18927406Y-14373309D01*
X18976906Y-14337345D01*
X19007494Y-14332499D01*
X19188504Y-14332499D01*
X19212580Y-14329707D01*
X19268012Y-14305230D01*
X19328879Y-14299022D01*
X19347986Y-14305230D01*
X19403420Y-14329707D01*
X19427495Y-14332500D01*
X19688504Y-14332499D01*
X19712580Y-14329707D01*
X19768012Y-14305230D01*
X19828879Y-14299022D01*
X19847986Y-14305230D01*
G37*
%TD.AperFunction*%
%TA.AperFunction,Conductor*%
G36*
X5726191Y-13413407D02*
G01*
X5762155Y-13462907D01*
X5767000Y-13493500D01*
X5767000Y-14375548D01*
X5829077Y-14367377D01*
X5854923Y-14367377D01*
X5873749Y-14369856D01*
X5928973Y-14396199D01*
X5958167Y-14449970D01*
X5956810Y-14484547D01*
X5957968Y-14484700D01*
X5948449Y-14557000D01*
X6333492Y-14557000D01*
X6373480Y-14565436D01*
X6397240Y-14575927D01*
X6462420Y-14604707D01*
X6486495Y-14607500D01*
X6830501Y-14607499D01*
X6888691Y-14626406D01*
X6924655Y-14675906D01*
X6929500Y-14706499D01*
X6929500Y-14808000D01*
X6910593Y-14866191D01*
X6861093Y-14902155D01*
X6830500Y-14907000D01*
X5948450Y-14907000D01*
X5956622Y-14969077D01*
X5956622Y-14994921D01*
X5948448Y-15056999D01*
X5948449Y-15057000D01*
X6830500Y-15057000D01*
X6888691Y-15075907D01*
X6924655Y-15125407D01*
X6929500Y-15156000D01*
X6929500Y-15308000D01*
X6910593Y-15366191D01*
X6861093Y-15402155D01*
X6830500Y-15407000D01*
X6818889Y-15407000D01*
X6778904Y-15398565D01*
X6746580Y-15384293D01*
X6746577Y-15384292D01*
X6746576Y-15384292D01*
X6722508Y-15381500D01*
X6461499Y-15381500D01*
X6461496Y-15381501D01*
X6437420Y-15384293D01*
X6405097Y-15398565D01*
X6365109Y-15407000D01*
X6318891Y-15407000D01*
X6278904Y-15398565D01*
X6263055Y-15391567D01*
X6246580Y-15384293D01*
X6246579Y-15384292D01*
X6222507Y-15381500D01*
X5961499Y-15381500D01*
X5961496Y-15381501D01*
X5937418Y-15384293D01*
X5881986Y-15408768D01*
X5821116Y-15414975D01*
X5802012Y-15408768D01*
X5746580Y-15384293D01*
X5746576Y-15384292D01*
X5722511Y-15381500D01*
X5541499Y-15381500D01*
X5483308Y-15362593D01*
X5447344Y-15313093D01*
X5442499Y-15282504D01*
X5442499Y-15101496D01*
X5439707Y-15077420D01*
X5430690Y-15057000D01*
X5415231Y-15021989D01*
X5409022Y-14961119D01*
X5415227Y-14942018D01*
X5439707Y-14886580D01*
X5442500Y-14862505D01*
X5442499Y-14601496D01*
X5439707Y-14577420D01*
X5434415Y-14565436D01*
X5415231Y-14521989D01*
X5409022Y-14461119D01*
X5415227Y-14442018D01*
X5439707Y-14386580D01*
X5442500Y-14362505D01*
X5442499Y-14101496D01*
X5439707Y-14077420D01*
X5438178Y-14073959D01*
X5425435Y-14045095D01*
X5417000Y-14005108D01*
X5417000Y-13990509D01*
X5425435Y-13950521D01*
X5464707Y-13861580D01*
X5467500Y-13837505D01*
X5467499Y-13493498D01*
X5486406Y-13435309D01*
X5535906Y-13399345D01*
X5566499Y-13394500D01*
X5668000Y-13394500D01*
X5726191Y-13413407D01*
G37*
%TD.AperFunction*%
%TA.AperFunction,Conductor*%
G36*
X15886191Y-13413407D02*
G01*
X15922155Y-13462907D01*
X15927000Y-13493500D01*
X15927000Y-14375548D01*
X15989077Y-14367377D01*
X16014923Y-14367377D01*
X16033749Y-14369856D01*
X16088973Y-14396199D01*
X16118167Y-14449970D01*
X16116810Y-14484547D01*
X16117968Y-14484700D01*
X16108449Y-14557000D01*
X16493492Y-14557000D01*
X16533480Y-14565436D01*
X16557240Y-14575927D01*
X16622420Y-14604707D01*
X16646495Y-14607500D01*
X16990501Y-14607499D01*
X17048691Y-14626406D01*
X17084655Y-14675906D01*
X17089500Y-14706499D01*
X17089500Y-14808000D01*
X17070593Y-14866191D01*
X17021093Y-14902155D01*
X16990500Y-14907000D01*
X16108450Y-14907000D01*
X16116622Y-14969077D01*
X16116622Y-14994921D01*
X16108448Y-15056999D01*
X16108449Y-15057000D01*
X16990500Y-15057000D01*
X17048691Y-15075907D01*
X17084655Y-15125407D01*
X17089500Y-15156000D01*
X17089500Y-15308000D01*
X17070593Y-15366191D01*
X17021093Y-15402155D01*
X16990500Y-15407000D01*
X16978889Y-15407000D01*
X16938904Y-15398565D01*
X16906580Y-15384293D01*
X16906577Y-15384292D01*
X16906576Y-15384292D01*
X16882508Y-15381500D01*
X16621499Y-15381500D01*
X16621496Y-15381501D01*
X16597420Y-15384293D01*
X16565097Y-15398565D01*
X16525109Y-15407000D01*
X16478891Y-15407000D01*
X16438904Y-15398565D01*
X16423055Y-15391567D01*
X16406580Y-15384293D01*
X16406579Y-15384292D01*
X16382507Y-15381500D01*
X16121499Y-15381500D01*
X16121496Y-15381501D01*
X16097418Y-15384293D01*
X16041986Y-15408768D01*
X15981116Y-15414975D01*
X15962012Y-15408768D01*
X15906580Y-15384293D01*
X15906576Y-15384292D01*
X15882511Y-15381500D01*
X15701499Y-15381500D01*
X15643308Y-15362593D01*
X15607344Y-15313093D01*
X15602499Y-15282504D01*
X15602499Y-15101496D01*
X15599707Y-15077420D01*
X15590690Y-15057000D01*
X15575231Y-15021989D01*
X15569022Y-14961119D01*
X15575227Y-14942018D01*
X15599707Y-14886580D01*
X15602500Y-14862505D01*
X15602499Y-14601496D01*
X15599707Y-14577420D01*
X15594415Y-14565436D01*
X15575231Y-14521989D01*
X15569022Y-14461119D01*
X15575227Y-14442018D01*
X15599707Y-14386580D01*
X15602500Y-14362505D01*
X15602499Y-14101496D01*
X15599707Y-14077420D01*
X15598178Y-14073959D01*
X15585435Y-14045095D01*
X15577000Y-14005108D01*
X15577000Y-13990509D01*
X15585435Y-13950521D01*
X15624707Y-13861580D01*
X15627500Y-13837505D01*
X15627499Y-13493498D01*
X15646406Y-13435309D01*
X15695906Y-13399345D01*
X15726499Y-13394500D01*
X15828000Y-13394500D01*
X15886191Y-13413407D01*
G37*
%TD.AperFunction*%
%TA.AperFunction,Conductor*%
G36*
X6226302Y-13081734D02*
G01*
X6259382Y-13133206D01*
X6255890Y-13194292D01*
X6254200Y-13198362D01*
X6219293Y-13277420D01*
X6219292Y-13277423D01*
X6216500Y-13301488D01*
X6216500Y-13301494D01*
X6216500Y-13301495D01*
X6216500Y-13567977D01*
X6216501Y-13645500D01*
X6197594Y-13703691D01*
X6148094Y-13739655D01*
X6117501Y-13744500D01*
X6016000Y-13744500D01*
X5957809Y-13725593D01*
X5921845Y-13676093D01*
X5917000Y-13645500D01*
X5917000Y-13232029D01*
X5935907Y-13173838D01*
X5985407Y-13137874D01*
X5988073Y-13137049D01*
X6035266Y-13123193D01*
X6110112Y-13075091D01*
X6169285Y-13059536D01*
X6226302Y-13081734D01*
G37*
%TD.AperFunction*%
%TA.AperFunction,Conductor*%
G36*
X16386302Y-13081734D02*
G01*
X16419382Y-13133206D01*
X16415890Y-13194292D01*
X16414200Y-13198362D01*
X16379293Y-13277420D01*
X16379292Y-13277423D01*
X16376500Y-13301488D01*
X16376500Y-13301494D01*
X16376500Y-13301495D01*
X16376500Y-13567977D01*
X16376501Y-13645500D01*
X16357594Y-13703691D01*
X16308094Y-13739655D01*
X16277501Y-13744500D01*
X16176000Y-13744500D01*
X16117809Y-13725593D01*
X16081845Y-13676093D01*
X16077000Y-13645500D01*
X16077000Y-13232029D01*
X16095907Y-13173838D01*
X16145407Y-13137874D01*
X16148073Y-13137049D01*
X16195266Y-13123193D01*
X16270112Y-13075091D01*
X16329285Y-13059536D01*
X16386302Y-13081734D01*
G37*
%TD.AperFunction*%
%TA.AperFunction,Conductor*%
G36*
X10677398Y-10244998D02*
G01*
X10680461Y-10247932D01*
X11654236Y-11221707D01*
X11682013Y-11276224D01*
X11683232Y-11291711D01*
X11683232Y-11755765D01*
X11664325Y-11813956D01*
X11614825Y-11849920D01*
X11556341Y-11850755D01*
X11496214Y-11833100D01*
X11496210Y-11833100D01*
X11363790Y-11833100D01*
X11363788Y-11833100D01*
X11236734Y-11870407D01*
X11236733Y-11870407D01*
X11125338Y-11941997D01*
X11038619Y-12042075D01*
X10983609Y-12162530D01*
X10983608Y-12162532D01*
X10964765Y-12293596D01*
X10964765Y-12293603D01*
X10983608Y-12424667D01*
X10983609Y-12424669D01*
X10983609Y-12424670D01*
X10983610Y-12424672D01*
X11038619Y-12545125D01*
X11121499Y-12640773D01*
X11145317Y-12697132D01*
X11131459Y-12756727D01*
X11121500Y-12770434D01*
X11092352Y-12804073D01*
X11037341Y-12924530D01*
X11037340Y-12924532D01*
X11018497Y-13055596D01*
X11018497Y-13058023D01*
X11017871Y-13059948D01*
X11017489Y-13062608D01*
X11017028Y-13062541D01*
X10999590Y-13116214D01*
X10989500Y-13128027D01*
X10540022Y-13577504D01*
X10485506Y-13605281D01*
X10470019Y-13606500D01*
X10367886Y-13606500D01*
X10309695Y-13587593D01*
X10273731Y-13538093D01*
X10272358Y-13533488D01*
X10270706Y-13527416D01*
X10231936Y-13439611D01*
X10223500Y-13399623D01*
X10223500Y-13313118D01*
X10242407Y-13254927D01*
X10291907Y-13218963D01*
X10294542Y-13218148D01*
X10315166Y-13212093D01*
X10426564Y-13140501D01*
X10513281Y-13040425D01*
X10568290Y-12919972D01*
X10571057Y-12900729D01*
X10587135Y-12788903D01*
X10587135Y-12788896D01*
X10568291Y-12657832D01*
X10568290Y-12657830D01*
X10568290Y-12657828D01*
X10513281Y-12537375D01*
X10426564Y-12437299D01*
X10315166Y-12365707D01*
X10230392Y-12340815D01*
X10188111Y-12328400D01*
X10188110Y-12328400D01*
X10055690Y-12328400D01*
X10055689Y-12328400D01*
X10055683Y-12328401D01*
X10013404Y-12340815D01*
X9952244Y-12339067D01*
X9903792Y-12301704D01*
X9886554Y-12242997D01*
X9890446Y-12218203D01*
X9893144Y-12208914D01*
X9894791Y-12188000D01*
X8965000Y-12188000D01*
X8906809Y-12169093D01*
X8870845Y-12119593D01*
X8866000Y-12089000D01*
X8866000Y-11172001D01*
X9366000Y-11172001D01*
X9366000Y-11687999D01*
X9366001Y-11688000D01*
X9894789Y-11688000D01*
X9893144Y-11667087D01*
X9893143Y-11667079D01*
X9848031Y-11511804D01*
X9829456Y-11480396D01*
X9816108Y-11420685D01*
X9829456Y-11379604D01*
X9848031Y-11348195D01*
X9893144Y-11192912D01*
X9894791Y-11172000D01*
X9366001Y-11172000D01*
X9366000Y-11172001D01*
X8866000Y-11172001D01*
X8866000Y-10625300D01*
X8884907Y-10567109D01*
X8911472Y-10542019D01*
X8958805Y-10511601D01*
X8958807Y-10511598D01*
X8961232Y-10509497D01*
X8963706Y-10508451D01*
X8964763Y-10507772D01*
X8964880Y-10507954D01*
X9017589Y-10485674D01*
X9077186Y-10499527D01*
X9090903Y-10509493D01*
X9093333Y-10511599D01*
X9093335Y-10511600D01*
X9093336Y-10511601D01*
X9204734Y-10583193D01*
X9294892Y-10609665D01*
X9345398Y-10644201D01*
X9349390Y-10655389D01*
X9366001Y-10672000D01*
X9894789Y-10672000D01*
X9893593Y-10656785D01*
X9907878Y-10597291D01*
X9954405Y-10557556D01*
X10015402Y-10552757D01*
X10020181Y-10554031D01*
X10030290Y-10557000D01*
X10030291Y-10557000D01*
X10162709Y-10557000D01*
X10162710Y-10557000D01*
X10289766Y-10519693D01*
X10401164Y-10448101D01*
X10487881Y-10348025D01*
X10520404Y-10276808D01*
X10561775Y-10231732D01*
X10621742Y-10219581D01*
X10677398Y-10244998D01*
G37*
%TD.AperFunction*%
%TA.AperFunction,Conductor*%
G36*
X20863066Y-10270537D02*
G01*
X22250504Y-11657975D01*
X22278281Y-11712492D01*
X22279500Y-11727979D01*
X22279500Y-13405521D01*
X22260593Y-13463712D01*
X22211093Y-13499676D01*
X22149907Y-13499676D01*
X22110497Y-13475525D01*
X21805710Y-13170739D01*
X21737192Y-13131180D01*
X21737188Y-13131178D01*
X21660764Y-13110700D01*
X21660762Y-13110700D01*
X20966238Y-13110700D01*
X20966235Y-13110700D01*
X20889811Y-13131178D01*
X20889807Y-13131180D01*
X20821289Y-13170739D01*
X20552503Y-13439525D01*
X20497987Y-13467302D01*
X20437555Y-13457731D01*
X20394290Y-13414466D01*
X20383500Y-13369521D01*
X20383500Y-13195089D01*
X20402407Y-13136898D01*
X20451907Y-13100934D01*
X20454580Y-13100108D01*
X20462466Y-13097793D01*
X20573864Y-13026201D01*
X20660581Y-12926125D01*
X20715590Y-12805672D01*
X20715820Y-12804073D01*
X20734435Y-12674603D01*
X20734435Y-12674596D01*
X20715591Y-12543532D01*
X20715590Y-12543530D01*
X20715590Y-12543528D01*
X20660581Y-12423075D01*
X20573864Y-12322999D01*
X20462466Y-12251407D01*
X20371153Y-12224595D01*
X20335411Y-12214100D01*
X20335410Y-12214100D01*
X20202990Y-12214100D01*
X20202989Y-12214100D01*
X20202983Y-12214101D01*
X20164314Y-12225455D01*
X20103154Y-12223707D01*
X20063725Y-12197665D01*
X20054791Y-12188000D01*
X19125000Y-12188000D01*
X19066809Y-12169093D01*
X19030845Y-12119593D01*
X19026000Y-12089000D01*
X19026000Y-11172001D01*
X19526000Y-11172001D01*
X19526000Y-11687999D01*
X19526001Y-11688000D01*
X20054789Y-11688000D01*
X20053144Y-11667087D01*
X20053143Y-11667079D01*
X20008031Y-11511804D01*
X19989456Y-11480396D01*
X19976108Y-11420685D01*
X19989456Y-11379604D01*
X20008031Y-11348195D01*
X20053144Y-11192912D01*
X20054791Y-11172000D01*
X19526001Y-11172000D01*
X19526000Y-11172001D01*
X19026000Y-11172001D01*
X19026000Y-10521119D01*
X19044907Y-10462928D01*
X19071469Y-10437840D01*
X19072032Y-10437477D01*
X19075059Y-10435532D01*
X19134231Y-10419973D01*
X19191250Y-10442166D01*
X19203405Y-10453978D01*
X19253336Y-10511601D01*
X19364734Y-10583193D01*
X19454892Y-10609665D01*
X19505398Y-10644201D01*
X19509390Y-10655389D01*
X19526001Y-10672000D01*
X20054789Y-10672000D01*
X20053144Y-10651087D01*
X20053143Y-10651082D01*
X20034790Y-10587911D01*
X20036711Y-10526756D01*
X20074212Y-10478410D01*
X20132967Y-10461339D01*
X20157747Y-10465299D01*
X20253790Y-10493500D01*
X20253791Y-10493500D01*
X20386209Y-10493500D01*
X20386210Y-10493500D01*
X20513266Y-10456193D01*
X20624664Y-10384601D01*
X20711381Y-10284525D01*
X20711381Y-10284523D01*
X20716018Y-10279173D01*
X20717650Y-10280587D01*
X20757122Y-10248295D01*
X20818207Y-10244787D01*
X20863066Y-10270537D01*
G37*
%TD.AperFunction*%
%TA.AperFunction,Conductor*%
G36*
X4930305Y-9272406D02*
G01*
X4966269Y-9321906D01*
X4967643Y-9326513D01*
X4969294Y-9332583D01*
X5008064Y-9420387D01*
X5016500Y-9460376D01*
X5016500Y-9639509D01*
X4997593Y-9697700D01*
X4948093Y-9733664D01*
X4945396Y-9734497D01*
X4937538Y-9736804D01*
X4937537Y-9736804D01*
X4826138Y-9808397D01*
X4826136Y-9808398D01*
X4826136Y-9808399D01*
X4776890Y-9865232D01*
X4739419Y-9908475D01*
X4684409Y-10028930D01*
X4684408Y-10028932D01*
X4665565Y-10159996D01*
X4665565Y-10160003D01*
X4684408Y-10291067D01*
X4684409Y-10291069D01*
X4684409Y-10291070D01*
X4684410Y-10291072D01*
X4739419Y-10411525D01*
X4826136Y-10511601D01*
X4937534Y-10583193D01*
X5064590Y-10620500D01*
X5064591Y-10620500D01*
X5197009Y-10620500D01*
X5197010Y-10620500D01*
X5217215Y-10614567D01*
X5278373Y-10616312D01*
X5317807Y-10642356D01*
X5345209Y-10672000D01*
X6275000Y-10672000D01*
X6333191Y-10690907D01*
X6369155Y-10740407D01*
X6374000Y-10771000D01*
X6374000Y-12237293D01*
X6355093Y-12295484D01*
X6328523Y-12320577D01*
X6268016Y-12359462D01*
X6208841Y-12375017D01*
X6151824Y-12352818D01*
X6149659Y-12350995D01*
X6146666Y-12348401D01*
X6146664Y-12348399D01*
X6035266Y-12276807D01*
X5948762Y-12251407D01*
X5945108Y-12250334D01*
X5894601Y-12215798D01*
X5890609Y-12204610D01*
X5873999Y-12188000D01*
X5331278Y-12188000D01*
X5306776Y-12201721D01*
X5259575Y-12199612D01*
X5222413Y-12188700D01*
X5222410Y-12188700D01*
X5089990Y-12188700D01*
X5089988Y-12188700D01*
X4962934Y-12226007D01*
X4962933Y-12226007D01*
X4851538Y-12297597D01*
X4851536Y-12297598D01*
X4851536Y-12297599D01*
X4815604Y-12339067D01*
X4764819Y-12397675D01*
X4709809Y-12518130D01*
X4709808Y-12518132D01*
X4690965Y-12649196D01*
X4690965Y-12649203D01*
X4709808Y-12780267D01*
X4709809Y-12780269D01*
X4709809Y-12780270D01*
X4709810Y-12780272D01*
X4756733Y-12883019D01*
X4764821Y-12900729D01*
X4768647Y-12906682D01*
X4765993Y-12908387D01*
X4784603Y-12952446D01*
X4770734Y-13012039D01*
X4724486Y-13052098D01*
X4685965Y-13059900D01*
X3799928Y-13059900D01*
X3723507Y-13080377D01*
X3723502Y-13080379D01*
X3670986Y-13110698D01*
X3670987Y-13110699D01*
X3654984Y-13119938D01*
X3654981Y-13119940D01*
X3371503Y-13403418D01*
X3316987Y-13431195D01*
X3256555Y-13421624D01*
X3213290Y-13378359D01*
X3202500Y-13333414D01*
X3202500Y-11688000D01*
X5345209Y-11688000D01*
X5873999Y-11688000D01*
X5874000Y-11687999D01*
X5874000Y-11172001D01*
X5873999Y-11172000D01*
X5345210Y-11172000D01*
X5346855Y-11192912D01*
X5346856Y-11192920D01*
X5391968Y-11348195D01*
X5410544Y-11379607D01*
X5423889Y-11439319D01*
X5410544Y-11480393D01*
X5391968Y-11511804D01*
X5346855Y-11667087D01*
X5345209Y-11688000D01*
X3202500Y-11688000D01*
X3202500Y-10820978D01*
X3221407Y-10762787D01*
X3231490Y-10750980D01*
X4699975Y-9282494D01*
X4754492Y-9254718D01*
X4769979Y-9253499D01*
X4872114Y-9253499D01*
X4930305Y-9272406D01*
G37*
%TD.AperFunction*%
%TA.AperFunction,Conductor*%
G36*
X15090305Y-9272406D02*
G01*
X15126269Y-9321906D01*
X15127643Y-9326513D01*
X15129294Y-9332583D01*
X15168064Y-9420387D01*
X15176500Y-9460376D01*
X15176500Y-9546880D01*
X15157593Y-9605071D01*
X15108093Y-9641035D01*
X15105394Y-9641869D01*
X15084836Y-9647905D01*
X14973438Y-9719497D01*
X14973436Y-9719498D01*
X14973436Y-9719499D01*
X14919733Y-9781475D01*
X14886719Y-9819575D01*
X14831709Y-9940030D01*
X14831708Y-9940032D01*
X14812865Y-10071096D01*
X14812865Y-10071103D01*
X14831708Y-10202167D01*
X14831709Y-10202169D01*
X14831709Y-10202170D01*
X14831710Y-10202172D01*
X14886719Y-10322625D01*
X14973436Y-10422701D01*
X15084834Y-10494293D01*
X15211890Y-10531600D01*
X15211891Y-10531600D01*
X15344309Y-10531600D01*
X15344310Y-10531600D01*
X15344311Y-10531599D01*
X15344315Y-10531599D01*
X15386592Y-10519185D01*
X15447753Y-10520931D01*
X15496206Y-10558293D01*
X15513445Y-10617000D01*
X15509556Y-10641788D01*
X15506855Y-10651086D01*
X15505209Y-10672000D01*
X16435000Y-10672000D01*
X16493191Y-10690907D01*
X16529155Y-10740407D01*
X16534000Y-10771000D01*
X16534000Y-12128433D01*
X16515093Y-12186624D01*
X16488524Y-12211717D01*
X16433937Y-12246798D01*
X16388040Y-12299765D01*
X16335644Y-12331360D01*
X16274683Y-12326123D01*
X16259702Y-12318218D01*
X16195266Y-12276807D01*
X16108762Y-12251407D01*
X16105108Y-12250334D01*
X16054601Y-12215798D01*
X16050609Y-12204610D01*
X16033999Y-12188000D01*
X15688287Y-12188000D01*
X15634763Y-12172284D01*
X15560265Y-12124406D01*
X15433211Y-12087100D01*
X15433210Y-12087100D01*
X15300790Y-12087100D01*
X15300788Y-12087100D01*
X15173734Y-12124407D01*
X15173733Y-12124407D01*
X15062338Y-12195997D01*
X15062336Y-12195998D01*
X15062336Y-12195999D01*
X15026554Y-12237293D01*
X14975618Y-12296076D01*
X14957367Y-12336040D01*
X14915995Y-12381117D01*
X14856028Y-12393268D01*
X14800372Y-12367850D01*
X14792497Y-12359746D01*
X14784913Y-12350995D01*
X14782664Y-12348399D01*
X14671266Y-12276807D01*
X14584762Y-12251407D01*
X14544211Y-12239500D01*
X14544210Y-12239500D01*
X14411790Y-12239500D01*
X14411788Y-12239500D01*
X14284734Y-12276807D01*
X14284733Y-12276807D01*
X14173338Y-12348397D01*
X14173336Y-12348398D01*
X14173336Y-12348399D01*
X14109700Y-12421838D01*
X14086619Y-12448475D01*
X14031609Y-12568930D01*
X14031608Y-12568933D01*
X14018143Y-12662589D01*
X13991147Y-12717497D01*
X13937033Y-12746050D01*
X13920151Y-12747500D01*
X13903790Y-12747500D01*
X13903789Y-12747500D01*
X13903781Y-12747501D01*
X13889389Y-12751727D01*
X13828229Y-12749979D01*
X13779777Y-12712615D01*
X13762500Y-12656737D01*
X13762500Y-11688000D01*
X15505209Y-11688000D01*
X16033999Y-11688000D01*
X16034000Y-11687999D01*
X16034000Y-11172001D01*
X16033999Y-11172000D01*
X15505210Y-11172000D01*
X15506855Y-11192912D01*
X15506856Y-11192920D01*
X15551968Y-11348195D01*
X15570544Y-11379607D01*
X15583889Y-11439319D01*
X15570544Y-11480393D01*
X15551968Y-11511804D01*
X15506855Y-11667087D01*
X15505209Y-11688000D01*
X13762500Y-11688000D01*
X13762500Y-10420978D01*
X13781407Y-10362787D01*
X13791490Y-10350980D01*
X14859975Y-9282494D01*
X14914492Y-9254718D01*
X14929979Y-9253499D01*
X15032114Y-9253499D01*
X15090305Y-9272406D01*
G37*
%TD.AperFunction*%
%TA.AperFunction,Conductor*%
G36*
X9282191Y-9134407D02*
G01*
X9318155Y-9183907D01*
X9323000Y-9214500D01*
X9323000Y-9627969D01*
X9304093Y-9686160D01*
X9254593Y-9722124D01*
X9251894Y-9722958D01*
X9204734Y-9736806D01*
X9129887Y-9784908D01*
X9070712Y-9800463D01*
X9013696Y-9778264D01*
X8980616Y-9726792D01*
X8984109Y-9665706D01*
X8985800Y-9661635D01*
X9020707Y-9582580D01*
X9023500Y-9558505D01*
X9023499Y-9214498D01*
X9042406Y-9156309D01*
X9091906Y-9120345D01*
X9122499Y-9115500D01*
X9224000Y-9115500D01*
X9282191Y-9134407D01*
G37*
%TD.AperFunction*%
%TA.AperFunction,Conductor*%
G36*
X19442191Y-9134407D02*
G01*
X19478155Y-9183907D01*
X19483000Y-9214500D01*
X19483000Y-9627969D01*
X19464093Y-9686160D01*
X19414593Y-9722124D01*
X19411894Y-9722958D01*
X19364734Y-9736806D01*
X19289887Y-9784908D01*
X19230712Y-9800463D01*
X19173696Y-9778264D01*
X19140616Y-9726792D01*
X19144109Y-9665706D01*
X19145800Y-9661635D01*
X19180707Y-9582580D01*
X19183500Y-9558505D01*
X19183499Y-9214498D01*
X19202406Y-9156309D01*
X19251906Y-9120345D01*
X19282499Y-9115500D01*
X19384000Y-9115500D01*
X19442191Y-9134407D01*
G37*
%TD.AperFunction*%
%TA.AperFunction,Conductor*%
G36*
X9437986Y-7451230D02*
G01*
X9493420Y-7475707D01*
X9517495Y-7478500D01*
X9698499Y-7478499D01*
X9756690Y-7497406D01*
X9792654Y-7546906D01*
X9797500Y-7577498D01*
X9797500Y-7758500D01*
X9797501Y-7758503D01*
X9800293Y-7782581D01*
X9824768Y-7838013D01*
X9830976Y-7898883D01*
X9824768Y-7917986D01*
X9800294Y-7973416D01*
X9800292Y-7973423D01*
X9797500Y-7997488D01*
X9797500Y-8258500D01*
X9797501Y-8258503D01*
X9800293Y-8282581D01*
X9824768Y-8338013D01*
X9830976Y-8398883D01*
X9824768Y-8417986D01*
X9800294Y-8473416D01*
X9800292Y-8473423D01*
X9797500Y-8497488D01*
X9797500Y-8758500D01*
X9797500Y-8758502D01*
X9797501Y-8758504D01*
X9800293Y-8782580D01*
X9814565Y-8814903D01*
X9823000Y-8854888D01*
X9823000Y-8869491D01*
X9814565Y-8909477D01*
X9776507Y-8995672D01*
X9775292Y-8998423D01*
X9772500Y-9022488D01*
X9772500Y-9022494D01*
X9772500Y-9022495D01*
X9772500Y-9287793D01*
X9772501Y-9366500D01*
X9753594Y-9424691D01*
X9704094Y-9460655D01*
X9673501Y-9465500D01*
X9572000Y-9465500D01*
X9513809Y-9446593D01*
X9477845Y-9397093D01*
X9473000Y-9366500D01*
X9473000Y-8484450D01*
X9472999Y-8484449D01*
X9410921Y-8492622D01*
X9385075Y-8492622D01*
X9366250Y-8490143D01*
X9311025Y-8463800D01*
X9281832Y-8410028D01*
X9283194Y-8375455D01*
X9282032Y-8375302D01*
X9291551Y-8303000D01*
X8906508Y-8303000D01*
X8866520Y-8294564D01*
X8790473Y-8260986D01*
X8777580Y-8255293D01*
X8777578Y-8255292D01*
X8777576Y-8255292D01*
X8753511Y-8252500D01*
X8409500Y-8252500D01*
X8351309Y-8233593D01*
X8315345Y-8184093D01*
X8310500Y-8153500D01*
X8310500Y-8052000D01*
X8329407Y-7993809D01*
X8378907Y-7957845D01*
X8409500Y-7953000D01*
X9291550Y-7953000D01*
X9291550Y-7952999D01*
X9283378Y-7890921D01*
X9283378Y-7865078D01*
X9291551Y-7803000D01*
X8409500Y-7803000D01*
X8351309Y-7784093D01*
X8315345Y-7734593D01*
X8310500Y-7704000D01*
X8310500Y-7552000D01*
X8329407Y-7493809D01*
X8378907Y-7457845D01*
X8409500Y-7453000D01*
X8421111Y-7453000D01*
X8461095Y-7461434D01*
X8493420Y-7475707D01*
X8517495Y-7478500D01*
X8778504Y-7478499D01*
X8802580Y-7475707D01*
X8834900Y-7461435D01*
X8874889Y-7453000D01*
X8921111Y-7453000D01*
X8961099Y-7461435D01*
X8993420Y-7475707D01*
X9017495Y-7478500D01*
X9278504Y-7478499D01*
X9302580Y-7475707D01*
X9358012Y-7451230D01*
X9418879Y-7445022D01*
X9437986Y-7451230D01*
G37*
%TD.AperFunction*%
%TA.AperFunction,Conductor*%
G36*
X19597986Y-7451230D02*
G01*
X19653420Y-7475707D01*
X19677495Y-7478500D01*
X19858499Y-7478499D01*
X19916690Y-7497406D01*
X19952654Y-7546906D01*
X19957500Y-7577498D01*
X19957500Y-7758500D01*
X19957501Y-7758503D01*
X19960293Y-7782581D01*
X19984768Y-7838013D01*
X19990976Y-7898883D01*
X19984768Y-7917986D01*
X19960294Y-7973416D01*
X19960292Y-7973423D01*
X19957500Y-7997488D01*
X19957500Y-8258500D01*
X19957501Y-8258503D01*
X19960293Y-8282581D01*
X19984768Y-8338013D01*
X19990976Y-8398883D01*
X19984768Y-8417986D01*
X19960294Y-8473416D01*
X19960292Y-8473423D01*
X19957500Y-8497488D01*
X19957500Y-8758500D01*
X19957500Y-8758502D01*
X19957501Y-8758504D01*
X19960293Y-8782580D01*
X19974565Y-8814903D01*
X19983000Y-8854888D01*
X19983000Y-8869491D01*
X19974565Y-8909477D01*
X19936507Y-8995672D01*
X19935292Y-8998423D01*
X19932500Y-9022488D01*
X19932500Y-9022494D01*
X19932500Y-9022495D01*
X19932500Y-9287793D01*
X19932501Y-9366500D01*
X19913594Y-9424691D01*
X19864094Y-9460655D01*
X19833501Y-9465500D01*
X19732000Y-9465500D01*
X19673809Y-9446593D01*
X19637845Y-9397093D01*
X19633000Y-9366500D01*
X19633000Y-8484450D01*
X19632999Y-8484449D01*
X19570921Y-8492622D01*
X19545075Y-8492622D01*
X19526250Y-8490143D01*
X19471025Y-8463800D01*
X19441832Y-8410028D01*
X19443194Y-8375455D01*
X19442032Y-8375302D01*
X19451551Y-8303000D01*
X19066508Y-8303000D01*
X19026520Y-8294564D01*
X18950473Y-8260986D01*
X18937580Y-8255293D01*
X18937578Y-8255292D01*
X18937576Y-8255292D01*
X18913511Y-8252500D01*
X18569500Y-8252500D01*
X18511309Y-8233593D01*
X18475345Y-8184093D01*
X18470500Y-8153500D01*
X18470500Y-8052000D01*
X18489407Y-7993809D01*
X18538907Y-7957845D01*
X18569500Y-7953000D01*
X19451550Y-7953000D01*
X19451550Y-7952999D01*
X19443378Y-7890921D01*
X19443378Y-7865078D01*
X19451551Y-7803000D01*
X18569500Y-7803000D01*
X18511309Y-7784093D01*
X18475345Y-7734593D01*
X18470500Y-7704000D01*
X18470500Y-7552000D01*
X18489407Y-7493809D01*
X18538907Y-7457845D01*
X18569500Y-7453000D01*
X18581111Y-7453000D01*
X18621095Y-7461434D01*
X18653420Y-7475707D01*
X18677495Y-7478500D01*
X18938504Y-7478499D01*
X18962580Y-7475707D01*
X18994900Y-7461435D01*
X19034889Y-7453000D01*
X19081111Y-7453000D01*
X19121099Y-7461435D01*
X19153420Y-7475707D01*
X19177495Y-7478500D01*
X19438504Y-7478499D01*
X19462580Y-7475707D01*
X19518012Y-7451230D01*
X19578879Y-7445022D01*
X19597986Y-7451230D01*
G37*
%TD.AperFunction*%
%TA.AperFunction,Conductor*%
G36*
X5976191Y-7059407D02*
G01*
X6012155Y-7108907D01*
X6017000Y-7139500D01*
X6017000Y-8021548D01*
X6079077Y-8013377D01*
X6104920Y-8013377D01*
X6166999Y-8021549D01*
X6167000Y-8021549D01*
X6167000Y-7139500D01*
X6185907Y-7081309D01*
X6235407Y-7045345D01*
X6266000Y-7040500D01*
X6418000Y-7040500D01*
X6476191Y-7059407D01*
X6512155Y-7108907D01*
X6517000Y-7139500D01*
X6517000Y-7151111D01*
X6508565Y-7191095D01*
X6494293Y-7223420D01*
X6494292Y-7223423D01*
X6491500Y-7247488D01*
X6491500Y-7508500D01*
X6491500Y-7508502D01*
X6491501Y-7508504D01*
X6494293Y-7532580D01*
X6508565Y-7564903D01*
X6517000Y-7604888D01*
X6517000Y-7651109D01*
X6508565Y-7691096D01*
X6494293Y-7723420D01*
X6494292Y-7723420D01*
X6491500Y-7747491D01*
X6491500Y-8008500D01*
X6491501Y-8008503D01*
X6494293Y-8032581D01*
X6518768Y-8088013D01*
X6524976Y-8148883D01*
X6518768Y-8167986D01*
X6494294Y-8223416D01*
X6494292Y-8223423D01*
X6491500Y-8247488D01*
X6491500Y-8428500D01*
X6472593Y-8486691D01*
X6423093Y-8522655D01*
X6392501Y-8527500D01*
X6211499Y-8527500D01*
X6211496Y-8527501D01*
X6187418Y-8530293D01*
X6131986Y-8554768D01*
X6071116Y-8560975D01*
X6052012Y-8554768D01*
X5996580Y-8530293D01*
X5996576Y-8530292D01*
X5972508Y-8527500D01*
X5711499Y-8527500D01*
X5711496Y-8527501D01*
X5687418Y-8530293D01*
X5631986Y-8554768D01*
X5571116Y-8560975D01*
X5552012Y-8554768D01*
X5496580Y-8530293D01*
X5496576Y-8530292D01*
X5472508Y-8527500D01*
X5211499Y-8527500D01*
X5211496Y-8527501D01*
X5187420Y-8530293D01*
X5155095Y-8544565D01*
X5115109Y-8553000D01*
X5100508Y-8553000D01*
X5060520Y-8544564D01*
X4971582Y-8505294D01*
X4971583Y-8505294D01*
X4971580Y-8505293D01*
X4971578Y-8505292D01*
X4971576Y-8505292D01*
X4947511Y-8502500D01*
X4603500Y-8502500D01*
X4545309Y-8483593D01*
X4509345Y-8434093D01*
X4504500Y-8403500D01*
X4504500Y-8302000D01*
X4523407Y-8243809D01*
X4572907Y-8207845D01*
X4603500Y-8203000D01*
X5485550Y-8203000D01*
X5485549Y-8202999D01*
X5477377Y-8140922D01*
X5477377Y-8115075D01*
X5479856Y-8096250D01*
X5506199Y-8041025D01*
X5559971Y-8011832D01*
X5594546Y-8013192D01*
X5594699Y-8012032D01*
X5666999Y-8021550D01*
X5667000Y-8021549D01*
X5667000Y-7636508D01*
X5675436Y-7596520D01*
X5683990Y-7577147D01*
X5714707Y-7507580D01*
X5717500Y-7483505D01*
X5717499Y-7139498D01*
X5736406Y-7081309D01*
X5785906Y-7045345D01*
X5816499Y-7040500D01*
X5918000Y-7040500D01*
X5976191Y-7059407D01*
G37*
%TD.AperFunction*%
%TA.AperFunction,Conductor*%
G36*
X16136191Y-7059407D02*
G01*
X16172155Y-7108907D01*
X16177000Y-7139500D01*
X16177000Y-8021548D01*
X16239077Y-8013377D01*
X16264920Y-8013377D01*
X16326999Y-8021549D01*
X16327000Y-8021549D01*
X16327000Y-7139500D01*
X16345907Y-7081309D01*
X16395407Y-7045345D01*
X16426000Y-7040500D01*
X16578000Y-7040500D01*
X16636191Y-7059407D01*
X16672155Y-7108907D01*
X16677000Y-7139500D01*
X16677000Y-7151111D01*
X16668565Y-7191095D01*
X16654293Y-7223420D01*
X16654292Y-7223423D01*
X16651500Y-7247488D01*
X16651500Y-7508500D01*
X16651500Y-7508502D01*
X16651501Y-7508504D01*
X16654293Y-7532580D01*
X16668565Y-7564903D01*
X16677000Y-7604888D01*
X16677000Y-7651109D01*
X16668565Y-7691096D01*
X16654293Y-7723420D01*
X16654292Y-7723420D01*
X16651500Y-7747491D01*
X16651500Y-8008500D01*
X16651501Y-8008503D01*
X16654293Y-8032581D01*
X16678768Y-8088013D01*
X16684976Y-8148883D01*
X16678768Y-8167986D01*
X16654294Y-8223416D01*
X16654292Y-8223423D01*
X16651500Y-8247488D01*
X16651500Y-8428500D01*
X16632593Y-8486691D01*
X16583093Y-8522655D01*
X16552501Y-8527500D01*
X16371499Y-8527500D01*
X16371496Y-8527501D01*
X16347418Y-8530293D01*
X16291986Y-8554768D01*
X16231116Y-8560975D01*
X16212012Y-8554768D01*
X16156580Y-8530293D01*
X16156576Y-8530292D01*
X16132508Y-8527500D01*
X15871499Y-8527500D01*
X15871496Y-8527501D01*
X15847418Y-8530293D01*
X15791986Y-8554768D01*
X15731116Y-8560975D01*
X15712012Y-8554768D01*
X15656580Y-8530293D01*
X15656576Y-8530292D01*
X15632508Y-8527500D01*
X15371499Y-8527500D01*
X15371496Y-8527501D01*
X15347420Y-8530293D01*
X15315095Y-8544565D01*
X15275109Y-8553000D01*
X15260508Y-8553000D01*
X15220520Y-8544564D01*
X15131582Y-8505294D01*
X15131583Y-8505294D01*
X15131580Y-8505293D01*
X15131578Y-8505292D01*
X15131576Y-8505292D01*
X15107511Y-8502500D01*
X14763500Y-8502500D01*
X14705309Y-8483593D01*
X14669345Y-8434093D01*
X14664500Y-8403500D01*
X14664500Y-8302000D01*
X14683407Y-8243809D01*
X14732907Y-8207845D01*
X14763500Y-8203000D01*
X15645550Y-8203000D01*
X15645549Y-8202999D01*
X15637377Y-8140922D01*
X15637377Y-8115075D01*
X15639856Y-8096250D01*
X15666199Y-8041025D01*
X15719971Y-8011832D01*
X15754546Y-8013192D01*
X15754699Y-8012032D01*
X15826999Y-8021550D01*
X15827000Y-8021549D01*
X15827000Y-7636508D01*
X15835436Y-7596520D01*
X15843990Y-7577147D01*
X15874707Y-7507580D01*
X15877500Y-7483505D01*
X15877499Y-7139498D01*
X15896406Y-7081309D01*
X15945906Y-7045345D01*
X15976499Y-7040500D01*
X16078000Y-7040500D01*
X16136191Y-7059407D01*
G37*
%TD.AperFunction*%
%TA.AperFunction,Conductor*%
G36*
X9687986Y-4145230D02*
G01*
X9743420Y-4169707D01*
X9767495Y-4172500D01*
X10028504Y-4172499D01*
X10052580Y-4169707D01*
X10084900Y-4155435D01*
X10124889Y-4147000D01*
X10139492Y-4147000D01*
X10179480Y-4155436D01*
X10193443Y-4161601D01*
X10268420Y-4194707D01*
X10292495Y-4197500D01*
X10636501Y-4197499D01*
X10694691Y-4216406D01*
X10730655Y-4265906D01*
X10735500Y-4296499D01*
X10735500Y-4398000D01*
X10716593Y-4456191D01*
X10667093Y-4492155D01*
X10636500Y-4497000D01*
X9754450Y-4497000D01*
X9762622Y-4559077D01*
X9762622Y-4584924D01*
X9760143Y-4603749D01*
X9733800Y-4658974D01*
X9680028Y-4688167D01*
X9645454Y-4686808D01*
X9645302Y-4687968D01*
X9573000Y-4678449D01*
X9573000Y-5063491D01*
X9564565Y-5103477D01*
X9543807Y-5150492D01*
X9525292Y-5192423D01*
X9522500Y-5216488D01*
X9522500Y-5216494D01*
X9522500Y-5216495D01*
X9522500Y-5479875D01*
X9522501Y-5560500D01*
X9503594Y-5618691D01*
X9454094Y-5654655D01*
X9423501Y-5659500D01*
X9322000Y-5659500D01*
X9263809Y-5640593D01*
X9227845Y-5591093D01*
X9223000Y-5560500D01*
X9223000Y-4678450D01*
X9222999Y-4678449D01*
X9160921Y-4686622D01*
X9135078Y-4686622D01*
X9073000Y-4678449D01*
X9073000Y-5560500D01*
X9054093Y-5618691D01*
X9004593Y-5654655D01*
X8974000Y-5659500D01*
X8822000Y-5659500D01*
X8763809Y-5640593D01*
X8727845Y-5591093D01*
X8723000Y-5560500D01*
X8723000Y-5548888D01*
X8731435Y-5508902D01*
X8745707Y-5476580D01*
X8748500Y-5452505D01*
X8748499Y-5191496D01*
X8745707Y-5167420D01*
X8731435Y-5135099D01*
X8723000Y-5095111D01*
X8723000Y-5048888D01*
X8731435Y-5008901D01*
X8745707Y-4976580D01*
X8748500Y-4952505D01*
X8748499Y-4691496D01*
X8745707Y-4667420D01*
X8721230Y-4611988D01*
X8715022Y-4551119D01*
X8721227Y-4532018D01*
X8745707Y-4476580D01*
X8748500Y-4452505D01*
X8748499Y-4271499D01*
X8767406Y-4213309D01*
X8816906Y-4177345D01*
X8847494Y-4172499D01*
X9028504Y-4172499D01*
X9052580Y-4169707D01*
X9108012Y-4145230D01*
X9168879Y-4139022D01*
X9187986Y-4145230D01*
X9243420Y-4169707D01*
X9267495Y-4172500D01*
X9528504Y-4172499D01*
X9552580Y-4169707D01*
X9608012Y-4145230D01*
X9668879Y-4139022D01*
X9687986Y-4145230D01*
G37*
%TD.AperFunction*%
%TA.AperFunction,Conductor*%
G36*
X19847986Y-4145230D02*
G01*
X19903420Y-4169707D01*
X19927495Y-4172500D01*
X20188504Y-4172499D01*
X20212580Y-4169707D01*
X20244900Y-4155435D01*
X20284889Y-4147000D01*
X20299492Y-4147000D01*
X20339480Y-4155436D01*
X20353443Y-4161601D01*
X20428420Y-4194707D01*
X20452495Y-4197500D01*
X20796501Y-4197499D01*
X20854691Y-4216406D01*
X20890655Y-4265906D01*
X20895500Y-4296499D01*
X20895500Y-4398000D01*
X20876593Y-4456191D01*
X20827093Y-4492155D01*
X20796500Y-4497000D01*
X19914450Y-4497000D01*
X19922622Y-4559077D01*
X19922622Y-4584924D01*
X19920143Y-4603749D01*
X19893800Y-4658974D01*
X19840028Y-4688167D01*
X19805454Y-4686808D01*
X19805302Y-4687968D01*
X19733000Y-4678449D01*
X19733000Y-5063491D01*
X19724565Y-5103477D01*
X19703807Y-5150492D01*
X19685292Y-5192423D01*
X19682500Y-5216488D01*
X19682500Y-5216494D01*
X19682500Y-5216495D01*
X19682500Y-5479875D01*
X19682501Y-5560500D01*
X19663594Y-5618691D01*
X19614094Y-5654655D01*
X19583501Y-5659500D01*
X19482000Y-5659500D01*
X19423809Y-5640593D01*
X19387845Y-5591093D01*
X19383000Y-5560500D01*
X19383000Y-4678450D01*
X19382999Y-4678449D01*
X19320921Y-4686622D01*
X19295078Y-4686622D01*
X19233000Y-4678449D01*
X19233000Y-5560500D01*
X19214093Y-5618691D01*
X19164593Y-5654655D01*
X19134000Y-5659500D01*
X18982000Y-5659500D01*
X18923809Y-5640593D01*
X18887845Y-5591093D01*
X18883000Y-5560500D01*
X18883000Y-5548888D01*
X18891435Y-5508902D01*
X18905707Y-5476580D01*
X18908500Y-5452505D01*
X18908499Y-5191496D01*
X18905707Y-5167420D01*
X18891435Y-5135099D01*
X18883000Y-5095111D01*
X18883000Y-5048888D01*
X18891435Y-5008901D01*
X18905707Y-4976580D01*
X18908500Y-4952505D01*
X18908499Y-4691496D01*
X18905707Y-4667420D01*
X18881230Y-4611988D01*
X18875022Y-4551119D01*
X18881227Y-4532018D01*
X18905707Y-4476580D01*
X18908500Y-4452505D01*
X18908499Y-4271499D01*
X18927406Y-4213309D01*
X18976906Y-4177345D01*
X19007494Y-4172499D01*
X19188504Y-4172499D01*
X19212580Y-4169707D01*
X19268012Y-4145230D01*
X19328879Y-4139022D01*
X19347986Y-4145230D01*
X19403420Y-4169707D01*
X19427495Y-4172500D01*
X19688504Y-4172499D01*
X19712580Y-4169707D01*
X19768012Y-4145230D01*
X19828879Y-4139022D01*
X19847986Y-4145230D01*
G37*
%TD.AperFunction*%
%TA.AperFunction,Conductor*%
G36*
X5726191Y-3253407D02*
G01*
X5762155Y-3302907D01*
X5767000Y-3333500D01*
X5767000Y-4215548D01*
X5829077Y-4207377D01*
X5854923Y-4207377D01*
X5873749Y-4209856D01*
X5928973Y-4236199D01*
X5958167Y-4289970D01*
X5956810Y-4324547D01*
X5957968Y-4324700D01*
X5948449Y-4397000D01*
X6333492Y-4397000D01*
X6373480Y-4405436D01*
X6397240Y-4415927D01*
X6462420Y-4444707D01*
X6486495Y-4447500D01*
X6830501Y-4447499D01*
X6888691Y-4466406D01*
X6924655Y-4515906D01*
X6929500Y-4546499D01*
X6929500Y-4648000D01*
X6910593Y-4706191D01*
X6861093Y-4742155D01*
X6830500Y-4747000D01*
X5948450Y-4747000D01*
X5956622Y-4809077D01*
X5956622Y-4834921D01*
X5948448Y-4896999D01*
X5948449Y-4897000D01*
X6830500Y-4897000D01*
X6888691Y-4915907D01*
X6924655Y-4965407D01*
X6929500Y-4996000D01*
X6929500Y-5148000D01*
X6910593Y-5206191D01*
X6861093Y-5242155D01*
X6830500Y-5247000D01*
X6818889Y-5247000D01*
X6778904Y-5238565D01*
X6746580Y-5224293D01*
X6746577Y-5224292D01*
X6746576Y-5224292D01*
X6722508Y-5221500D01*
X6461499Y-5221500D01*
X6461496Y-5221501D01*
X6437420Y-5224293D01*
X6405097Y-5238565D01*
X6365109Y-5247000D01*
X6318891Y-5247000D01*
X6278904Y-5238565D01*
X6257664Y-5229187D01*
X6246580Y-5224293D01*
X6246579Y-5224292D01*
X6222507Y-5221500D01*
X5961499Y-5221500D01*
X5961496Y-5221501D01*
X5937418Y-5224293D01*
X5881986Y-5248768D01*
X5821116Y-5254975D01*
X5802012Y-5248768D01*
X5746580Y-5224293D01*
X5746576Y-5224292D01*
X5722511Y-5221500D01*
X5541499Y-5221500D01*
X5483308Y-5202593D01*
X5447344Y-5153093D01*
X5442499Y-5122504D01*
X5442499Y-4941496D01*
X5439707Y-4917420D01*
X5430690Y-4897000D01*
X5415231Y-4861989D01*
X5409022Y-4801119D01*
X5415227Y-4782018D01*
X5439707Y-4726580D01*
X5442500Y-4702505D01*
X5442499Y-4441496D01*
X5439707Y-4417420D01*
X5437036Y-4411372D01*
X5415231Y-4361989D01*
X5409022Y-4301119D01*
X5415227Y-4282018D01*
X5439707Y-4226580D01*
X5442500Y-4202505D01*
X5442499Y-3941496D01*
X5439707Y-3917420D01*
X5437327Y-3912030D01*
X5425435Y-3885095D01*
X5417000Y-3845108D01*
X5417000Y-3830509D01*
X5425435Y-3790521D01*
X5464707Y-3701580D01*
X5467500Y-3677505D01*
X5467499Y-3333498D01*
X5486406Y-3275309D01*
X5535906Y-3239345D01*
X5566499Y-3234500D01*
X5668000Y-3234500D01*
X5726191Y-3253407D01*
G37*
%TD.AperFunction*%
%TA.AperFunction,Conductor*%
G36*
X15886191Y-3253407D02*
G01*
X15922155Y-3302907D01*
X15927000Y-3333500D01*
X15927000Y-4215548D01*
X15989077Y-4207377D01*
X16014923Y-4207377D01*
X16033749Y-4209856D01*
X16088973Y-4236199D01*
X16118167Y-4289970D01*
X16116810Y-4324547D01*
X16117968Y-4324700D01*
X16108449Y-4397000D01*
X16493492Y-4397000D01*
X16533480Y-4405436D01*
X16557240Y-4415927D01*
X16622420Y-4444707D01*
X16646495Y-4447500D01*
X16990501Y-4447499D01*
X17048691Y-4466406D01*
X17084655Y-4515906D01*
X17089500Y-4546499D01*
X17089500Y-4648000D01*
X17070593Y-4706191D01*
X17021093Y-4742155D01*
X16990500Y-4747000D01*
X16108450Y-4747000D01*
X16116622Y-4809077D01*
X16116622Y-4834921D01*
X16108448Y-4896999D01*
X16108449Y-4897000D01*
X16990500Y-4897000D01*
X17048691Y-4915907D01*
X17084655Y-4965407D01*
X17089500Y-4996000D01*
X17089500Y-5148000D01*
X17070593Y-5206191D01*
X17021093Y-5242155D01*
X16990500Y-5247000D01*
X16978889Y-5247000D01*
X16938904Y-5238565D01*
X16906580Y-5224293D01*
X16906577Y-5224292D01*
X16906576Y-5224292D01*
X16882508Y-5221500D01*
X16621499Y-5221500D01*
X16621496Y-5221501D01*
X16597420Y-5224293D01*
X16565097Y-5238565D01*
X16525109Y-5247000D01*
X16478891Y-5247000D01*
X16438904Y-5238565D01*
X16417664Y-5229187D01*
X16406580Y-5224293D01*
X16406579Y-5224292D01*
X16382507Y-5221500D01*
X16121499Y-5221500D01*
X16121496Y-5221501D01*
X16097418Y-5224293D01*
X16041986Y-5248768D01*
X15981116Y-5254975D01*
X15962012Y-5248768D01*
X15906580Y-5224293D01*
X15906576Y-5224292D01*
X15882511Y-5221500D01*
X15701499Y-5221500D01*
X15643308Y-5202593D01*
X15607344Y-5153093D01*
X15602499Y-5122504D01*
X15602499Y-4941496D01*
X15599707Y-4917420D01*
X15590690Y-4897000D01*
X15575231Y-4861989D01*
X15569022Y-4801119D01*
X15575227Y-4782018D01*
X15599707Y-4726580D01*
X15602500Y-4702505D01*
X15602499Y-4441496D01*
X15599707Y-4417420D01*
X15597036Y-4411372D01*
X15575231Y-4361989D01*
X15569022Y-4301119D01*
X15575227Y-4282018D01*
X15599707Y-4226580D01*
X15602500Y-4202505D01*
X15602499Y-3941496D01*
X15599707Y-3917420D01*
X15597327Y-3912030D01*
X15585435Y-3885095D01*
X15577000Y-3845108D01*
X15577000Y-3830509D01*
X15585435Y-3790521D01*
X15624707Y-3701580D01*
X15627500Y-3677505D01*
X15627499Y-3333498D01*
X15646406Y-3275309D01*
X15695906Y-3239345D01*
X15726499Y-3234500D01*
X15828000Y-3234500D01*
X15886191Y-3253407D01*
G37*
%TD.AperFunction*%
%TA.AperFunction,Conductor*%
G36*
X6226302Y-2921734D02*
G01*
X6259382Y-2973206D01*
X6255890Y-3034292D01*
X6254200Y-3038362D01*
X6219293Y-3117420D01*
X6219292Y-3117423D01*
X6216500Y-3141488D01*
X6216500Y-3141494D01*
X6216500Y-3141495D01*
X6216500Y-3407977D01*
X6216501Y-3485500D01*
X6197594Y-3543691D01*
X6148094Y-3579655D01*
X6117501Y-3584500D01*
X6016000Y-3584500D01*
X5957809Y-3565593D01*
X5921845Y-3516093D01*
X5917000Y-3485500D01*
X5917000Y-3072029D01*
X5935907Y-3013838D01*
X5985407Y-2977874D01*
X5988073Y-2977049D01*
X6035266Y-2963193D01*
X6110112Y-2915091D01*
X6169285Y-2899536D01*
X6226302Y-2921734D01*
G37*
%TD.AperFunction*%
%TA.AperFunction,Conductor*%
G36*
X16386302Y-2921734D02*
G01*
X16419382Y-2973206D01*
X16415890Y-3034292D01*
X16414200Y-3038362D01*
X16379293Y-3117420D01*
X16379292Y-3117423D01*
X16376500Y-3141488D01*
X16376500Y-3141494D01*
X16376500Y-3141495D01*
X16376500Y-3407977D01*
X16376501Y-3485500D01*
X16357594Y-3543691D01*
X16308094Y-3579655D01*
X16277501Y-3584500D01*
X16176000Y-3584500D01*
X16117809Y-3565593D01*
X16081845Y-3516093D01*
X16077000Y-3485500D01*
X16077000Y-3072029D01*
X16095907Y-3013838D01*
X16145407Y-2977874D01*
X16148073Y-2977049D01*
X16195266Y-2963193D01*
X16270112Y-2915091D01*
X16329285Y-2899536D01*
X16386302Y-2921734D01*
G37*
%TD.AperFunction*%
%TD*%
M02*
