%TF.GenerationSoftware,KiCad,Pcbnew,8.0.3-8.0.3-0~ubuntu22.04.1*%
%TF.CreationDate,2024-07-27T12:22:20+09:00*%
%TF.ProjectId,IMUModule_STM32,494d554d-6f64-4756-9c65-5f53544d3332,rev?*%
%TF.SameCoordinates,Original*%
%TF.FileFunction,Paste,Top*%
%TF.FilePolarity,Positive*%
%FSLAX46Y46*%
G04 Gerber Fmt 4.6, Leading zero omitted, Abs format (unit mm)*
G04 Created by KiCad (PCBNEW 8.0.3-8.0.3-0~ubuntu22.04.1) date 2024-07-27 12:22:20*
%MOMM*%
%LPD*%
G01*
G04 APERTURE LIST*
G04 Aperture macros list*
%AMRoundRect*
0 Rectangle with rounded corners*
0 $1 Rounding radius*
0 $2 $3 $4 $5 $6 $7 $8 $9 X,Y pos of 4 corners*
0 Add a 4 corners polygon primitive as box body*
4,1,4,$2,$3,$4,$5,$6,$7,$8,$9,$2,$3,0*
0 Add four circle primitives for the rounded corners*
1,1,$1+$1,$2,$3*
1,1,$1+$1,$4,$5*
1,1,$1+$1,$6,$7*
1,1,$1+$1,$8,$9*
0 Add four rect primitives between the rounded corners*
20,1,$1+$1,$2,$3,$4,$5,0*
20,1,$1+$1,$4,$5,$6,$7,0*
20,1,$1+$1,$6,$7,$8,$9,0*
20,1,$1+$1,$8,$9,$2,$3,0*%
G04 Aperture macros list end*
%ADD10RoundRect,0.087500X-0.225000X-0.087500X0.225000X-0.087500X0.225000X0.087500X-0.225000X0.087500X0*%
%ADD11RoundRect,0.087500X-0.087500X-0.225000X0.087500X-0.225000X0.087500X0.225000X-0.087500X0.225000X0*%
%ADD12RoundRect,0.140000X-0.140000X-0.170000X0.140000X-0.170000X0.140000X0.170000X-0.140000X0.170000X0*%
%ADD13RoundRect,0.140000X0.140000X0.170000X-0.140000X0.170000X-0.140000X-0.170000X0.140000X-0.170000X0*%
%ADD14R,0.900000X0.800000*%
%ADD15RoundRect,0.140000X-0.170000X0.140000X-0.170000X-0.140000X0.170000X-0.140000X0.170000X0.140000X0*%
%ADD16RoundRect,0.218750X0.256250X-0.218750X0.256250X0.218750X-0.256250X0.218750X-0.256250X-0.218750X0*%
%ADD17R,0.740000X2.400000*%
%ADD18RoundRect,0.087500X-0.087500X0.225000X-0.087500X-0.225000X0.087500X-0.225000X0.087500X0.225000X0*%
%ADD19RoundRect,0.087500X-0.225000X0.087500X-0.225000X-0.087500X0.225000X-0.087500X0.225000X0.087500X0*%
%ADD20RoundRect,0.075000X0.075000X-0.700000X0.075000X0.700000X-0.075000X0.700000X-0.075000X-0.700000X0*%
%ADD21RoundRect,0.075000X0.700000X-0.075000X0.700000X0.075000X-0.700000X0.075000X-0.700000X-0.075000X0*%
%ADD22RoundRect,0.087500X0.087500X-0.225000X0.087500X0.225000X-0.087500X0.225000X-0.087500X-0.225000X0*%
%ADD23RoundRect,0.087500X0.225000X-0.087500X0.225000X0.087500X-0.225000X0.087500X-0.225000X-0.087500X0*%
%ADD24RoundRect,0.087500X0.225000X0.087500X-0.225000X0.087500X-0.225000X-0.087500X0.225000X-0.087500X0*%
%ADD25RoundRect,0.087500X0.087500X0.225000X-0.087500X0.225000X-0.087500X-0.225000X0.087500X-0.225000X0*%
%ADD26RoundRect,0.140000X0.170000X-0.140000X0.170000X0.140000X-0.170000X0.140000X-0.170000X-0.140000X0*%
%ADD27RoundRect,0.140000X-0.219203X-0.021213X-0.021213X-0.219203X0.219203X0.021213X0.021213X0.219203X0*%
%ADD28RoundRect,0.140000X0.021213X-0.219203X0.219203X-0.021213X-0.021213X0.219203X-0.219203X0.021213X0*%
G04 APERTURE END LIST*
D10*
%TO.C,U5*%
X14839500Y-13982000D03*
X14839500Y-14482000D03*
X14839500Y-14982000D03*
X14839500Y-15482000D03*
D11*
X15502000Y-15644500D03*
X16002000Y-15644500D03*
X16502000Y-15644500D03*
D10*
X17164500Y-15482000D03*
X17164500Y-14982000D03*
X17164500Y-14482000D03*
X17164500Y-13982000D03*
D11*
X16502000Y-13819500D03*
X16002000Y-13819500D03*
X15502000Y-13819500D03*
%TD*%
D12*
%TO.C,C24*%
X6124000Y-11938000D03*
X7084000Y-11938000D03*
%TD*%
D13*
%TO.C,C26*%
X9116000Y-11938000D03*
X8156000Y-11938000D03*
%TD*%
D14*
%TO.C,Y1*%
X10476000Y-41698000D03*
X11876000Y-41698000D03*
X11876000Y-40598000D03*
X10476000Y-40598000D03*
%TD*%
D10*
%TO.C,U13*%
X4679500Y-3822000D03*
X4679500Y-4322000D03*
X4679500Y-4822000D03*
X4679500Y-5322000D03*
D11*
X5342000Y-5484500D03*
X5842000Y-5484500D03*
X6342000Y-5484500D03*
D10*
X7004500Y-5322000D03*
X7004500Y-4822000D03*
X7004500Y-4322000D03*
X7004500Y-3822000D03*
D11*
X6342000Y-3659500D03*
X5842000Y-3659500D03*
X5342000Y-3659500D03*
%TD*%
D10*
%TO.C,U1*%
X14839500Y-3822000D03*
X14839500Y-4322000D03*
X14839500Y-4822000D03*
X14839500Y-5322000D03*
D11*
X15502000Y-5484500D03*
X16002000Y-5484500D03*
X16502000Y-5484500D03*
D10*
X17164500Y-5322000D03*
X17164500Y-4822000D03*
X17164500Y-4322000D03*
X17164500Y-3822000D03*
D11*
X16502000Y-3659500D03*
X16002000Y-3659500D03*
X15502000Y-3659500D03*
%TD*%
D12*
%TO.C,C29*%
X6124000Y-10922000D03*
X7084000Y-10922000D03*
%TD*%
D15*
%TO.C,C1*%
X9017000Y-41303000D03*
X9017000Y-42263000D03*
%TD*%
D16*
%TO.C,D3*%
X22225000Y-45999500D03*
X22225000Y-44424500D03*
%TD*%
D13*
%TO.C,C31*%
X9116000Y-10922000D03*
X8156000Y-10922000D03*
%TD*%
D17*
%TO.C,J1*%
X4064000Y-49366000D03*
X4064000Y-45466000D03*
X5334000Y-49366000D03*
X5334000Y-45466000D03*
X6604000Y-49366000D03*
X6604000Y-45466000D03*
X7874000Y-49366000D03*
X7874000Y-45466000D03*
X9144000Y-49366000D03*
X9144000Y-45466000D03*
X10414000Y-49366000D03*
X10414000Y-45466000D03*
X11684000Y-49366000D03*
X11684000Y-45466000D03*
%TD*%
D13*
%TO.C,C21*%
X19276000Y-22225000D03*
X18316000Y-22225000D03*
%TD*%
D18*
%TO.C,U2*%
X20308000Y-3409500D03*
X19808000Y-3409500D03*
X19308000Y-3409500D03*
X18808000Y-3409500D03*
D19*
X18645500Y-4072000D03*
X18645500Y-4572000D03*
X18645500Y-5072000D03*
D18*
X18808000Y-5734500D03*
X19308000Y-5734500D03*
X19808000Y-5734500D03*
X20308000Y-5734500D03*
D19*
X20470500Y-5072000D03*
X20470500Y-4572000D03*
X20470500Y-4072000D03*
%TD*%
D12*
%TO.C,C28*%
X6124000Y-1778000D03*
X7084000Y-1778000D03*
%TD*%
%TO.C,C19*%
X16284000Y-10922000D03*
X17244000Y-10922000D03*
%TD*%
D20*
%TO.C,U33*%
X8950000Y-37425000D03*
X9450000Y-37425000D03*
X9950000Y-37425000D03*
X10450000Y-37425000D03*
X10950000Y-37425000D03*
X11450000Y-37425000D03*
X11950000Y-37425000D03*
X12450000Y-37425000D03*
X12950000Y-37425000D03*
X13450000Y-37425000D03*
X13950000Y-37425000D03*
X14450000Y-37425000D03*
X14950000Y-37425000D03*
X15450000Y-37425000D03*
X15950000Y-37425000D03*
X16450000Y-37425000D03*
D21*
X18375000Y-35500000D03*
X18375000Y-35000000D03*
X18375000Y-34500000D03*
X18375000Y-34000000D03*
X18375000Y-33500000D03*
X18375000Y-33000000D03*
X18375000Y-32500000D03*
X18375000Y-32000000D03*
X18375000Y-31500000D03*
X18375000Y-31000000D03*
X18375000Y-30500000D03*
X18375000Y-30000000D03*
X18375000Y-29500000D03*
X18375000Y-29000000D03*
X18375000Y-28500000D03*
X18375000Y-28000000D03*
D20*
X16450000Y-26075000D03*
X15950000Y-26075000D03*
X15450000Y-26075000D03*
X14950000Y-26075000D03*
X14450000Y-26075000D03*
X13950000Y-26075000D03*
X13450000Y-26075000D03*
X12950000Y-26075000D03*
X12450000Y-26075000D03*
X11950000Y-26075000D03*
X11450000Y-26075000D03*
X10950000Y-26075000D03*
X10450000Y-26075000D03*
X9950000Y-26075000D03*
X9450000Y-26075000D03*
X8950000Y-26075000D03*
D21*
X7025000Y-28000000D03*
X7025000Y-28500000D03*
X7025000Y-29000000D03*
X7025000Y-29500000D03*
X7025000Y-30000000D03*
X7025000Y-30500000D03*
X7025000Y-31000000D03*
X7025000Y-31500000D03*
X7025000Y-32000000D03*
X7025000Y-32500000D03*
X7025000Y-33000000D03*
X7025000Y-33500000D03*
X7025000Y-34000000D03*
X7025000Y-34500000D03*
X7025000Y-35000000D03*
X7025000Y-35500000D03*
%TD*%
D22*
%TO.C,U4*%
X15252000Y-9290500D03*
X15752000Y-9290500D03*
X16252000Y-9290500D03*
X16752000Y-9290500D03*
D23*
X16914500Y-8628000D03*
X16914500Y-8128000D03*
X16914500Y-7628000D03*
D22*
X16752000Y-6965500D03*
X16252000Y-6965500D03*
X15752000Y-6965500D03*
X15252000Y-6965500D03*
D23*
X15089500Y-7628000D03*
X15089500Y-8128000D03*
X15089500Y-8628000D03*
%TD*%
D18*
%TO.C,U12*%
X10148000Y-13569500D03*
X9648000Y-13569500D03*
X9148000Y-13569500D03*
X8648000Y-13569500D03*
D19*
X8485500Y-14232000D03*
X8485500Y-14732000D03*
X8485500Y-15232000D03*
D18*
X8648000Y-15894500D03*
X9148000Y-15894500D03*
X9648000Y-15894500D03*
X10148000Y-15894500D03*
D19*
X10310500Y-15232000D03*
X10310500Y-14732000D03*
X10310500Y-14232000D03*
%TD*%
D22*
%TO.C,U14*%
X5092000Y-9290500D03*
X5592000Y-9290500D03*
X6092000Y-9290500D03*
X6592000Y-9290500D03*
D23*
X6754500Y-8628000D03*
X6754500Y-8128000D03*
X6754500Y-7628000D03*
D22*
X6592000Y-6965500D03*
X6092000Y-6965500D03*
X5592000Y-6965500D03*
X5092000Y-6965500D03*
D23*
X4929500Y-7628000D03*
X4929500Y-8128000D03*
X4929500Y-8628000D03*
%TD*%
D24*
%TO.C,U15*%
X10560500Y-8878000D03*
X10560500Y-8378000D03*
X10560500Y-7878000D03*
X10560500Y-7378000D03*
D25*
X9898000Y-7215500D03*
X9398000Y-7215500D03*
X8898000Y-7215500D03*
D24*
X8235500Y-7378000D03*
X8235500Y-7878000D03*
X8235500Y-8378000D03*
X8235500Y-8878000D03*
D25*
X8898000Y-9040500D03*
X9398000Y-9040500D03*
X9898000Y-9040500D03*
%TD*%
D13*
%TO.C,C23*%
X19276000Y-21082000D03*
X18316000Y-21082000D03*
%TD*%
%TO.C,C15*%
X19276000Y-10922000D03*
X18316000Y-10922000D03*
%TD*%
D10*
%TO.C,U9*%
X4679500Y-13982000D03*
X4679500Y-14482000D03*
X4679500Y-14982000D03*
X4679500Y-15482000D03*
D11*
X5342000Y-15644500D03*
X5842000Y-15644500D03*
X6342000Y-15644500D03*
D10*
X7004500Y-15482000D03*
X7004500Y-14982000D03*
X7004500Y-14482000D03*
X7004500Y-13982000D03*
D11*
X6342000Y-13819500D03*
X5842000Y-13819500D03*
X5342000Y-13819500D03*
%TD*%
D12*
%TO.C,C20*%
X16284000Y-11938000D03*
X17244000Y-11938000D03*
%TD*%
D22*
%TO.C,U10*%
X5092000Y-19450500D03*
X5592000Y-19450500D03*
X6092000Y-19450500D03*
X6592000Y-19450500D03*
D23*
X6754500Y-18788000D03*
X6754500Y-18288000D03*
X6754500Y-17788000D03*
D22*
X6592000Y-17125500D03*
X6092000Y-17125500D03*
X5592000Y-17125500D03*
X5092000Y-17125500D03*
D23*
X4929500Y-17788000D03*
X4929500Y-18288000D03*
X4929500Y-18788000D03*
%TD*%
D24*
%TO.C,U11*%
X10560500Y-19038000D03*
X10560500Y-18538000D03*
X10560500Y-18038000D03*
X10560500Y-17538000D03*
D25*
X9898000Y-17375500D03*
X9398000Y-17375500D03*
X8898000Y-17375500D03*
D24*
X8235500Y-17538000D03*
X8235500Y-18038000D03*
X8235500Y-18538000D03*
X8235500Y-19038000D03*
D25*
X8898000Y-19200500D03*
X9398000Y-19200500D03*
X9898000Y-19200500D03*
%TD*%
D12*
%TO.C,C14*%
X16284000Y-1778000D03*
X17244000Y-1778000D03*
%TD*%
D24*
%TO.C,U7*%
X20720500Y-19038000D03*
X20720500Y-18538000D03*
X20720500Y-18038000D03*
X20720500Y-17538000D03*
D25*
X20058000Y-17375500D03*
X19558000Y-17375500D03*
X19058000Y-17375500D03*
D24*
X18395500Y-17538000D03*
X18395500Y-18038000D03*
X18395500Y-18538000D03*
X18395500Y-19038000D03*
D25*
X19058000Y-19200500D03*
X19558000Y-19200500D03*
X20058000Y-19200500D03*
%TD*%
D13*
%TO.C,C22*%
X19276000Y-11938000D03*
X18316000Y-11938000D03*
%TD*%
D26*
%TO.C,C2*%
X13335000Y-42263000D03*
X13335000Y-41303000D03*
%TD*%
D27*
%TO.C,C10*%
X18202589Y-25568589D03*
X18881411Y-26247411D03*
%TD*%
D16*
%TO.C,D2*%
X24130000Y-45999500D03*
X24130000Y-44424500D03*
%TD*%
D13*
%TO.C,C30*%
X9116000Y-1778000D03*
X8156000Y-1778000D03*
%TD*%
%TO.C,C27*%
X9144000Y-21082000D03*
X8184000Y-21082000D03*
%TD*%
D28*
%TO.C,C13*%
X18202589Y-37931411D03*
X18881411Y-37252589D03*
%TD*%
D13*
%TO.C,C25*%
X9573200Y-22250400D03*
X8613200Y-22250400D03*
%TD*%
D28*
%TO.C,C11*%
X6518589Y-26247411D03*
X7197411Y-25568589D03*
%TD*%
D18*
%TO.C,U16*%
X10148000Y-3409500D03*
X9648000Y-3409500D03*
X9148000Y-3409500D03*
X8648000Y-3409500D03*
D19*
X8485500Y-4072000D03*
X8485500Y-4572000D03*
X8485500Y-5072000D03*
D18*
X8648000Y-5734500D03*
X9148000Y-5734500D03*
X9648000Y-5734500D03*
X10148000Y-5734500D03*
D19*
X10310500Y-5072000D03*
X10310500Y-4572000D03*
X10310500Y-4072000D03*
%TD*%
D27*
%TO.C,C9*%
X6518589Y-37252589D03*
X7197411Y-37931411D03*
%TD*%
D13*
%TO.C,C18*%
X19276000Y-1778000D03*
X18316000Y-1778000D03*
%TD*%
D22*
%TO.C,U6*%
X15252000Y-19450500D03*
X15752000Y-19450500D03*
X16252000Y-19450500D03*
X16752000Y-19450500D03*
D23*
X16914500Y-18788000D03*
X16914500Y-18288000D03*
X16914500Y-17788000D03*
D22*
X16752000Y-17125500D03*
X16252000Y-17125500D03*
X15752000Y-17125500D03*
X15252000Y-17125500D03*
D23*
X15089500Y-17788000D03*
X15089500Y-18288000D03*
X15089500Y-18788000D03*
%TD*%
D18*
%TO.C,U8*%
X20308000Y-13569500D03*
X19808000Y-13569500D03*
X19308000Y-13569500D03*
X18808000Y-13569500D03*
D19*
X18645500Y-14232000D03*
X18645500Y-14732000D03*
X18645500Y-15232000D03*
D18*
X18808000Y-15894500D03*
X19308000Y-15894500D03*
X19808000Y-15894500D03*
X20308000Y-15894500D03*
D19*
X20470500Y-15232000D03*
X20470500Y-14732000D03*
X20470500Y-14232000D03*
%TD*%
D24*
%TO.C,U3*%
X20720500Y-8878000D03*
X20720500Y-8378000D03*
X20720500Y-7878000D03*
X20720500Y-7378000D03*
D25*
X20058000Y-7215500D03*
X19558000Y-7215500D03*
X19058000Y-7215500D03*
D24*
X18395500Y-7378000D03*
X18395500Y-7878000D03*
X18395500Y-8378000D03*
X18395500Y-8878000D03*
D25*
X19058000Y-9040500D03*
X19558000Y-9040500D03*
X20058000Y-9040500D03*
%TD*%
M02*
