%TF.GenerationSoftware,KiCad,Pcbnew,8.0.3-8.0.3-0~ubuntu22.04.1*%
%TF.CreationDate,2024-07-27T12:22:20+09:00*%
%TF.ProjectId,IMUModule_STM32,494d554d-6f64-4756-9c65-5f53544d3332,rev?*%
%TF.SameCoordinates,Original*%
%TF.FileFunction,Other,Comment*%
%FSLAX46Y46*%
G04 Gerber Fmt 4.6, Leading zero omitted, Abs format (unit mm)*
G04 Created by KiCad (PCBNEW 8.0.3-8.0.3-0~ubuntu22.04.1) date 2024-07-27 12:22:20*
%MOMM*%
%LPD*%
G01*
G04 APERTURE LIST*
%ADD10C,0.150000*%
G04 APERTURE END LIST*
D10*
X35414179Y-2790819D02*
X35414179Y-1790819D01*
X35890369Y-2790819D02*
X35890369Y-1790819D01*
X35890369Y-1790819D02*
X36223702Y-2505104D01*
X36223702Y-2505104D02*
X36557035Y-1790819D01*
X36557035Y-1790819D02*
X36557035Y-2790819D01*
X37033226Y-1790819D02*
X37033226Y-2600342D01*
X37033226Y-2600342D02*
X37080845Y-2695580D01*
X37080845Y-2695580D02*
X37128464Y-2743200D01*
X37128464Y-2743200D02*
X37223702Y-2790819D01*
X37223702Y-2790819D02*
X37414178Y-2790819D01*
X37414178Y-2790819D02*
X37509416Y-2743200D01*
X37509416Y-2743200D02*
X37557035Y-2695580D01*
X37557035Y-2695580D02*
X37604654Y-2600342D01*
X37604654Y-2600342D02*
X37604654Y-1790819D01*
X38842750Y-2124152D02*
X38842750Y-2790819D01*
X38842750Y-2219390D02*
X38890369Y-2171771D01*
X38890369Y-2171771D02*
X38985607Y-2124152D01*
X38985607Y-2124152D02*
X39128464Y-2124152D01*
X39128464Y-2124152D02*
X39223702Y-2171771D01*
X39223702Y-2171771D02*
X39271321Y-2267009D01*
X39271321Y-2267009D02*
X39271321Y-2790819D01*
X40176083Y-2124152D02*
X40176083Y-2790819D01*
X39747512Y-2124152D02*
X39747512Y-2647961D01*
X39747512Y-2647961D02*
X39795131Y-2743200D01*
X39795131Y-2743200D02*
X39890369Y-2790819D01*
X39890369Y-2790819D02*
X40033226Y-2790819D01*
X40033226Y-2790819D02*
X40128464Y-2743200D01*
X40128464Y-2743200D02*
X40176083Y-2695580D01*
X40652274Y-2790819D02*
X40652274Y-2124152D01*
X40652274Y-2219390D02*
X40699893Y-2171771D01*
X40699893Y-2171771D02*
X40795131Y-2124152D01*
X40795131Y-2124152D02*
X40937988Y-2124152D01*
X40937988Y-2124152D02*
X41033226Y-2171771D01*
X41033226Y-2171771D02*
X41080845Y-2267009D01*
X41080845Y-2267009D02*
X41080845Y-2790819D01*
X41080845Y-2267009D02*
X41128464Y-2171771D01*
X41128464Y-2171771D02*
X41223702Y-2124152D01*
X41223702Y-2124152D02*
X41366559Y-2124152D01*
X41366559Y-2124152D02*
X41461798Y-2171771D01*
X41461798Y-2171771D02*
X41509417Y-2267009D01*
X41509417Y-2267009D02*
X41509417Y-2790819D01*
X41985607Y-2790819D02*
X41985607Y-1790819D01*
X41985607Y-2171771D02*
X42080845Y-2124152D01*
X42080845Y-2124152D02*
X42271321Y-2124152D01*
X42271321Y-2124152D02*
X42366559Y-2171771D01*
X42366559Y-2171771D02*
X42414178Y-2219390D01*
X42414178Y-2219390D02*
X42461797Y-2314628D01*
X42461797Y-2314628D02*
X42461797Y-2600342D01*
X42461797Y-2600342D02*
X42414178Y-2695580D01*
X42414178Y-2695580D02*
X42366559Y-2743200D01*
X42366559Y-2743200D02*
X42271321Y-2790819D01*
X42271321Y-2790819D02*
X42080845Y-2790819D01*
X42080845Y-2790819D02*
X41985607Y-2743200D01*
X43271321Y-2743200D02*
X43176083Y-2790819D01*
X43176083Y-2790819D02*
X42985607Y-2790819D01*
X42985607Y-2790819D02*
X42890369Y-2743200D01*
X42890369Y-2743200D02*
X42842750Y-2647961D01*
X42842750Y-2647961D02*
X42842750Y-2267009D01*
X42842750Y-2267009D02*
X42890369Y-2171771D01*
X42890369Y-2171771D02*
X42985607Y-2124152D01*
X42985607Y-2124152D02*
X43176083Y-2124152D01*
X43176083Y-2124152D02*
X43271321Y-2171771D01*
X43271321Y-2171771D02*
X43318940Y-2267009D01*
X43318940Y-2267009D02*
X43318940Y-2362247D01*
X43318940Y-2362247D02*
X42842750Y-2457485D01*
X43747512Y-2790819D02*
X43747512Y-2124152D01*
X43747512Y-2314628D02*
X43795131Y-2219390D01*
X43795131Y-2219390D02*
X43842750Y-2171771D01*
X43842750Y-2171771D02*
X43937988Y-2124152D01*
X43937988Y-2124152D02*
X44033226Y-2124152D01*
X44366560Y-2790819D02*
X44366560Y-2124152D01*
X44366560Y-1790819D02*
X44318941Y-1838438D01*
X44318941Y-1838438D02*
X44366560Y-1886057D01*
X44366560Y-1886057D02*
X44414179Y-1838438D01*
X44414179Y-1838438D02*
X44366560Y-1790819D01*
X44366560Y-1790819D02*
X44366560Y-1886057D01*
X44842750Y-2124152D02*
X44842750Y-2790819D01*
X44842750Y-2219390D02*
X44890369Y-2171771D01*
X44890369Y-2171771D02*
X44985607Y-2124152D01*
X44985607Y-2124152D02*
X45128464Y-2124152D01*
X45128464Y-2124152D02*
X45223702Y-2171771D01*
X45223702Y-2171771D02*
X45271321Y-2267009D01*
X45271321Y-2267009D02*
X45271321Y-2790819D01*
X46176083Y-2124152D02*
X46176083Y-2933676D01*
X46176083Y-2933676D02*
X46128464Y-3028914D01*
X46128464Y-3028914D02*
X46080845Y-3076533D01*
X46080845Y-3076533D02*
X45985607Y-3124152D01*
X45985607Y-3124152D02*
X45842750Y-3124152D01*
X45842750Y-3124152D02*
X45747512Y-3076533D01*
X46176083Y-2743200D02*
X46080845Y-2790819D01*
X46080845Y-2790819D02*
X45890369Y-2790819D01*
X45890369Y-2790819D02*
X45795131Y-2743200D01*
X45795131Y-2743200D02*
X45747512Y-2695580D01*
X45747512Y-2695580D02*
X45699893Y-2600342D01*
X45699893Y-2600342D02*
X45699893Y-2314628D01*
X45699893Y-2314628D02*
X45747512Y-2219390D01*
X45747512Y-2219390D02*
X45795131Y-2171771D01*
X45795131Y-2171771D02*
X45890369Y-2124152D01*
X45890369Y-2124152D02*
X46080845Y-2124152D01*
X46080845Y-2124152D02*
X46176083Y-2171771D01*
X43684988Y-16379819D02*
X43113560Y-16379819D01*
X43399274Y-16379819D02*
X43399274Y-15379819D01*
X43399274Y-15379819D02*
X43304036Y-15522676D01*
X43304036Y-15522676D02*
X43208798Y-15617914D01*
X43208798Y-15617914D02*
X43113560Y-15665533D01*
X44018322Y-15379819D02*
X44684988Y-15379819D01*
X44684988Y-15379819D02*
X44256417Y-16379819D01*
X45065941Y-15998866D02*
X45827846Y-15998866D01*
X46256417Y-15475057D02*
X46304036Y-15427438D01*
X46304036Y-15427438D02*
X46399274Y-15379819D01*
X46399274Y-15379819D02*
X46637369Y-15379819D01*
X46637369Y-15379819D02*
X46732607Y-15427438D01*
X46732607Y-15427438D02*
X46780226Y-15475057D01*
X46780226Y-15475057D02*
X46827845Y-15570295D01*
X46827845Y-15570295D02*
X46827845Y-15665533D01*
X46827845Y-15665533D02*
X46780226Y-15808390D01*
X46780226Y-15808390D02*
X46208798Y-16379819D01*
X46208798Y-16379819D02*
X46827845Y-16379819D01*
X47446893Y-15379819D02*
X47542131Y-15379819D01*
X47542131Y-15379819D02*
X47637369Y-15427438D01*
X47637369Y-15427438D02*
X47684988Y-15475057D01*
X47684988Y-15475057D02*
X47732607Y-15570295D01*
X47732607Y-15570295D02*
X47780226Y-15760771D01*
X47780226Y-15760771D02*
X47780226Y-15998866D01*
X47780226Y-15998866D02*
X47732607Y-16189342D01*
X47732607Y-16189342D02*
X47684988Y-16284580D01*
X47684988Y-16284580D02*
X47637369Y-16332200D01*
X47637369Y-16332200D02*
X47542131Y-16379819D01*
X47542131Y-16379819D02*
X47446893Y-16379819D01*
X47446893Y-16379819D02*
X47351655Y-16332200D01*
X47351655Y-16332200D02*
X47304036Y-16284580D01*
X47304036Y-16284580D02*
X47256417Y-16189342D01*
X47256417Y-16189342D02*
X47208798Y-15998866D01*
X47208798Y-15998866D02*
X47208798Y-15760771D01*
X47208798Y-15760771D02*
X47256417Y-15570295D01*
X47256417Y-15570295D02*
X47304036Y-15475057D01*
X47304036Y-15475057D02*
X47351655Y-15427438D01*
X47351655Y-15427438D02*
X47446893Y-15379819D01*
X34890322Y-3949819D02*
X35461750Y-3949819D01*
X35176036Y-4949819D02*
X35176036Y-3949819D01*
X35937941Y-4949819D02*
X35842703Y-4902200D01*
X35842703Y-4902200D02*
X35795084Y-4854580D01*
X35795084Y-4854580D02*
X35747465Y-4759342D01*
X35747465Y-4759342D02*
X35747465Y-4473628D01*
X35747465Y-4473628D02*
X35795084Y-4378390D01*
X35795084Y-4378390D02*
X35842703Y-4330771D01*
X35842703Y-4330771D02*
X35937941Y-4283152D01*
X35937941Y-4283152D02*
X36080798Y-4283152D01*
X36080798Y-4283152D02*
X36176036Y-4330771D01*
X36176036Y-4330771D02*
X36223655Y-4378390D01*
X36223655Y-4378390D02*
X36271274Y-4473628D01*
X36271274Y-4473628D02*
X36271274Y-4759342D01*
X36271274Y-4759342D02*
X36223655Y-4854580D01*
X36223655Y-4854580D02*
X36176036Y-4902200D01*
X36176036Y-4902200D02*
X36080798Y-4949819D01*
X36080798Y-4949819D02*
X35937941Y-4949819D01*
X36699846Y-4283152D02*
X36699846Y-5283152D01*
X36699846Y-4330771D02*
X36795084Y-4283152D01*
X36795084Y-4283152D02*
X36985560Y-4283152D01*
X36985560Y-4283152D02*
X37080798Y-4330771D01*
X37080798Y-4330771D02*
X37128417Y-4378390D01*
X37128417Y-4378390D02*
X37176036Y-4473628D01*
X37176036Y-4473628D02*
X37176036Y-4759342D01*
X37176036Y-4759342D02*
X37128417Y-4854580D01*
X37128417Y-4854580D02*
X37080798Y-4902200D01*
X37080798Y-4902200D02*
X36985560Y-4949819D01*
X36985560Y-4949819D02*
X36795084Y-4949819D01*
X36795084Y-4949819D02*
X36699846Y-4902200D01*
X35937988Y-7743819D02*
X35366560Y-7743819D01*
X35652274Y-7743819D02*
X35652274Y-6743819D01*
X35652274Y-6743819D02*
X35557036Y-6886676D01*
X35557036Y-6886676D02*
X35461798Y-6981914D01*
X35461798Y-6981914D02*
X35366560Y-7029533D01*
X36271322Y-6743819D02*
X36890369Y-6743819D01*
X36890369Y-6743819D02*
X36557036Y-7124771D01*
X36557036Y-7124771D02*
X36699893Y-7124771D01*
X36699893Y-7124771D02*
X36795131Y-7172390D01*
X36795131Y-7172390D02*
X36842750Y-7220009D01*
X36842750Y-7220009D02*
X36890369Y-7315247D01*
X36890369Y-7315247D02*
X36890369Y-7553342D01*
X36890369Y-7553342D02*
X36842750Y-7648580D01*
X36842750Y-7648580D02*
X36795131Y-7696200D01*
X36795131Y-7696200D02*
X36699893Y-7743819D01*
X36699893Y-7743819D02*
X36414179Y-7743819D01*
X36414179Y-7743819D02*
X36318941Y-7696200D01*
X36318941Y-7696200D02*
X36271322Y-7648580D01*
X37318941Y-7362866D02*
X38080846Y-7362866D01*
X39080845Y-7743819D02*
X38509417Y-7743819D01*
X38795131Y-7743819D02*
X38795131Y-6743819D01*
X38795131Y-6743819D02*
X38699893Y-6886676D01*
X38699893Y-6886676D02*
X38604655Y-6981914D01*
X38604655Y-6981914D02*
X38509417Y-7029533D01*
X39937988Y-6743819D02*
X39747512Y-6743819D01*
X39747512Y-6743819D02*
X39652274Y-6791438D01*
X39652274Y-6791438D02*
X39604655Y-6839057D01*
X39604655Y-6839057D02*
X39509417Y-6981914D01*
X39509417Y-6981914D02*
X39461798Y-7172390D01*
X39461798Y-7172390D02*
X39461798Y-7553342D01*
X39461798Y-7553342D02*
X39509417Y-7648580D01*
X39509417Y-7648580D02*
X39557036Y-7696200D01*
X39557036Y-7696200D02*
X39652274Y-7743819D01*
X39652274Y-7743819D02*
X39842750Y-7743819D01*
X39842750Y-7743819D02*
X39937988Y-7696200D01*
X39937988Y-7696200D02*
X39985607Y-7648580D01*
X39985607Y-7648580D02*
X40033226Y-7553342D01*
X40033226Y-7553342D02*
X40033226Y-7315247D01*
X40033226Y-7315247D02*
X39985607Y-7220009D01*
X39985607Y-7220009D02*
X39937988Y-7172390D01*
X39937988Y-7172390D02*
X39842750Y-7124771D01*
X39842750Y-7124771D02*
X39652274Y-7124771D01*
X39652274Y-7124771D02*
X39557036Y-7172390D01*
X39557036Y-7172390D02*
X39509417Y-7220009D01*
X39509417Y-7220009D02*
X39461798Y-7315247D01*
X43113560Y-18015057D02*
X43161179Y-17967438D01*
X43161179Y-17967438D02*
X43256417Y-17919819D01*
X43256417Y-17919819D02*
X43494512Y-17919819D01*
X43494512Y-17919819D02*
X43589750Y-17967438D01*
X43589750Y-17967438D02*
X43637369Y-18015057D01*
X43637369Y-18015057D02*
X43684988Y-18110295D01*
X43684988Y-18110295D02*
X43684988Y-18205533D01*
X43684988Y-18205533D02*
X43637369Y-18348390D01*
X43637369Y-18348390D02*
X43065941Y-18919819D01*
X43065941Y-18919819D02*
X43684988Y-18919819D01*
X44637369Y-18919819D02*
X44065941Y-18919819D01*
X44351655Y-18919819D02*
X44351655Y-17919819D01*
X44351655Y-17919819D02*
X44256417Y-18062676D01*
X44256417Y-18062676D02*
X44161179Y-18157914D01*
X44161179Y-18157914D02*
X44065941Y-18205533D01*
X45065941Y-18538866D02*
X45827846Y-18538866D01*
X46256417Y-18015057D02*
X46304036Y-17967438D01*
X46304036Y-17967438D02*
X46399274Y-17919819D01*
X46399274Y-17919819D02*
X46637369Y-17919819D01*
X46637369Y-17919819D02*
X46732607Y-17967438D01*
X46732607Y-17967438D02*
X46780226Y-18015057D01*
X46780226Y-18015057D02*
X46827845Y-18110295D01*
X46827845Y-18110295D02*
X46827845Y-18205533D01*
X46827845Y-18205533D02*
X46780226Y-18348390D01*
X46780226Y-18348390D02*
X46208798Y-18919819D01*
X46208798Y-18919819D02*
X46827845Y-18919819D01*
X47684988Y-18253152D02*
X47684988Y-18919819D01*
X47446893Y-17872200D02*
X47208798Y-18586485D01*
X47208798Y-18586485D02*
X47827845Y-18586485D01*
X43938988Y-7743819D02*
X43367560Y-7743819D01*
X43653274Y-7743819D02*
X43653274Y-6743819D01*
X43653274Y-6743819D02*
X43558036Y-6886676D01*
X43558036Y-6886676D02*
X43462798Y-6981914D01*
X43462798Y-6981914D02*
X43367560Y-7029533D01*
X44367560Y-7362866D02*
X45129465Y-7362866D01*
X46034226Y-7077152D02*
X46034226Y-7743819D01*
X45796131Y-6696200D02*
X45558036Y-7410485D01*
X45558036Y-7410485D02*
X46177083Y-7410485D01*
X35493560Y-15475057D02*
X35541179Y-15427438D01*
X35541179Y-15427438D02*
X35636417Y-15379819D01*
X35636417Y-15379819D02*
X35874512Y-15379819D01*
X35874512Y-15379819D02*
X35969750Y-15427438D01*
X35969750Y-15427438D02*
X36017369Y-15475057D01*
X36017369Y-15475057D02*
X36064988Y-15570295D01*
X36064988Y-15570295D02*
X36064988Y-15665533D01*
X36064988Y-15665533D02*
X36017369Y-15808390D01*
X36017369Y-15808390D02*
X35445941Y-16379819D01*
X35445941Y-16379819D02*
X36064988Y-16379819D01*
X36541179Y-16379819D02*
X36731655Y-16379819D01*
X36731655Y-16379819D02*
X36826893Y-16332200D01*
X36826893Y-16332200D02*
X36874512Y-16284580D01*
X36874512Y-16284580D02*
X36969750Y-16141723D01*
X36969750Y-16141723D02*
X37017369Y-15951247D01*
X37017369Y-15951247D02*
X37017369Y-15570295D01*
X37017369Y-15570295D02*
X36969750Y-15475057D01*
X36969750Y-15475057D02*
X36922131Y-15427438D01*
X36922131Y-15427438D02*
X36826893Y-15379819D01*
X36826893Y-15379819D02*
X36636417Y-15379819D01*
X36636417Y-15379819D02*
X36541179Y-15427438D01*
X36541179Y-15427438D02*
X36493560Y-15475057D01*
X36493560Y-15475057D02*
X36445941Y-15570295D01*
X36445941Y-15570295D02*
X36445941Y-15808390D01*
X36445941Y-15808390D02*
X36493560Y-15903628D01*
X36493560Y-15903628D02*
X36541179Y-15951247D01*
X36541179Y-15951247D02*
X36636417Y-15998866D01*
X36636417Y-15998866D02*
X36826893Y-15998866D01*
X36826893Y-15998866D02*
X36922131Y-15951247D01*
X36922131Y-15951247D02*
X36969750Y-15903628D01*
X36969750Y-15903628D02*
X37017369Y-15808390D01*
X37445941Y-15998866D02*
X38207846Y-15998866D01*
X38588798Y-15379819D02*
X39207845Y-15379819D01*
X39207845Y-15379819D02*
X38874512Y-15760771D01*
X38874512Y-15760771D02*
X39017369Y-15760771D01*
X39017369Y-15760771D02*
X39112607Y-15808390D01*
X39112607Y-15808390D02*
X39160226Y-15856009D01*
X39160226Y-15856009D02*
X39207845Y-15951247D01*
X39207845Y-15951247D02*
X39207845Y-16189342D01*
X39207845Y-16189342D02*
X39160226Y-16284580D01*
X39160226Y-16284580D02*
X39112607Y-16332200D01*
X39112607Y-16332200D02*
X39017369Y-16379819D01*
X39017369Y-16379819D02*
X38731655Y-16379819D01*
X38731655Y-16379819D02*
X38636417Y-16332200D01*
X38636417Y-16332200D02*
X38588798Y-16284580D01*
X39588798Y-15475057D02*
X39636417Y-15427438D01*
X39636417Y-15427438D02*
X39731655Y-15379819D01*
X39731655Y-15379819D02*
X39969750Y-15379819D01*
X39969750Y-15379819D02*
X40064988Y-15427438D01*
X40064988Y-15427438D02*
X40112607Y-15475057D01*
X40112607Y-15475057D02*
X40160226Y-15570295D01*
X40160226Y-15570295D02*
X40160226Y-15665533D01*
X40160226Y-15665533D02*
X40112607Y-15808390D01*
X40112607Y-15808390D02*
X39541179Y-16379819D01*
X39541179Y-16379819D02*
X40160226Y-16379819D01*
X35842798Y-10791819D02*
X36033274Y-10791819D01*
X36033274Y-10791819D02*
X36128512Y-10744200D01*
X36128512Y-10744200D02*
X36176131Y-10696580D01*
X36176131Y-10696580D02*
X36271369Y-10553723D01*
X36271369Y-10553723D02*
X36318988Y-10363247D01*
X36318988Y-10363247D02*
X36318988Y-9982295D01*
X36318988Y-9982295D02*
X36271369Y-9887057D01*
X36271369Y-9887057D02*
X36223750Y-9839438D01*
X36223750Y-9839438D02*
X36128512Y-9791819D01*
X36128512Y-9791819D02*
X35938036Y-9791819D01*
X35938036Y-9791819D02*
X35842798Y-9839438D01*
X35842798Y-9839438D02*
X35795179Y-9887057D01*
X35795179Y-9887057D02*
X35747560Y-9982295D01*
X35747560Y-9982295D02*
X35747560Y-10220390D01*
X35747560Y-10220390D02*
X35795179Y-10315628D01*
X35795179Y-10315628D02*
X35842798Y-10363247D01*
X35842798Y-10363247D02*
X35938036Y-10410866D01*
X35938036Y-10410866D02*
X36128512Y-10410866D01*
X36128512Y-10410866D02*
X36223750Y-10363247D01*
X36223750Y-10363247D02*
X36271369Y-10315628D01*
X36271369Y-10315628D02*
X36318988Y-10220390D01*
X36747560Y-10410866D02*
X37509465Y-10410866D01*
X38509464Y-10791819D02*
X37938036Y-10791819D01*
X38223750Y-10791819D02*
X38223750Y-9791819D01*
X38223750Y-9791819D02*
X38128512Y-9934676D01*
X38128512Y-9934676D02*
X38033274Y-10029914D01*
X38033274Y-10029914D02*
X37938036Y-10077533D01*
X38890417Y-9887057D02*
X38938036Y-9839438D01*
X38938036Y-9839438D02*
X39033274Y-9791819D01*
X39033274Y-9791819D02*
X39271369Y-9791819D01*
X39271369Y-9791819D02*
X39366607Y-9839438D01*
X39366607Y-9839438D02*
X39414226Y-9887057D01*
X39414226Y-9887057D02*
X39461845Y-9982295D01*
X39461845Y-9982295D02*
X39461845Y-10077533D01*
X39461845Y-10077533D02*
X39414226Y-10220390D01*
X39414226Y-10220390D02*
X38842798Y-10791819D01*
X38842798Y-10791819D02*
X39461845Y-10791819D01*
X35112512Y-13062009D02*
X35255369Y-13109628D01*
X35255369Y-13109628D02*
X35302988Y-13157247D01*
X35302988Y-13157247D02*
X35350607Y-13252485D01*
X35350607Y-13252485D02*
X35350607Y-13395342D01*
X35350607Y-13395342D02*
X35302988Y-13490580D01*
X35302988Y-13490580D02*
X35255369Y-13538200D01*
X35255369Y-13538200D02*
X35160131Y-13585819D01*
X35160131Y-13585819D02*
X34779179Y-13585819D01*
X34779179Y-13585819D02*
X34779179Y-12585819D01*
X34779179Y-12585819D02*
X35112512Y-12585819D01*
X35112512Y-12585819D02*
X35207750Y-12633438D01*
X35207750Y-12633438D02*
X35255369Y-12681057D01*
X35255369Y-12681057D02*
X35302988Y-12776295D01*
X35302988Y-12776295D02*
X35302988Y-12871533D01*
X35302988Y-12871533D02*
X35255369Y-12966771D01*
X35255369Y-12966771D02*
X35207750Y-13014390D01*
X35207750Y-13014390D02*
X35112512Y-13062009D01*
X35112512Y-13062009D02*
X34779179Y-13062009D01*
X35922036Y-13585819D02*
X35826798Y-13538200D01*
X35826798Y-13538200D02*
X35779179Y-13490580D01*
X35779179Y-13490580D02*
X35731560Y-13395342D01*
X35731560Y-13395342D02*
X35731560Y-13109628D01*
X35731560Y-13109628D02*
X35779179Y-13014390D01*
X35779179Y-13014390D02*
X35826798Y-12966771D01*
X35826798Y-12966771D02*
X35922036Y-12919152D01*
X35922036Y-12919152D02*
X36064893Y-12919152D01*
X36064893Y-12919152D02*
X36160131Y-12966771D01*
X36160131Y-12966771D02*
X36207750Y-13014390D01*
X36207750Y-13014390D02*
X36255369Y-13109628D01*
X36255369Y-13109628D02*
X36255369Y-13395342D01*
X36255369Y-13395342D02*
X36207750Y-13490580D01*
X36207750Y-13490580D02*
X36160131Y-13538200D01*
X36160131Y-13538200D02*
X36064893Y-13585819D01*
X36064893Y-13585819D02*
X35922036Y-13585819D01*
X36541084Y-12919152D02*
X36922036Y-12919152D01*
X36683941Y-12585819D02*
X36683941Y-13442961D01*
X36683941Y-13442961D02*
X36731560Y-13538200D01*
X36731560Y-13538200D02*
X36826798Y-13585819D01*
X36826798Y-13585819D02*
X36922036Y-13585819D01*
X37112513Y-12919152D02*
X37493465Y-12919152D01*
X37255370Y-12585819D02*
X37255370Y-13442961D01*
X37255370Y-13442961D02*
X37302989Y-13538200D01*
X37302989Y-13538200D02*
X37398227Y-13585819D01*
X37398227Y-13585819D02*
X37493465Y-13585819D01*
X37969656Y-13585819D02*
X37874418Y-13538200D01*
X37874418Y-13538200D02*
X37826799Y-13490580D01*
X37826799Y-13490580D02*
X37779180Y-13395342D01*
X37779180Y-13395342D02*
X37779180Y-13109628D01*
X37779180Y-13109628D02*
X37826799Y-13014390D01*
X37826799Y-13014390D02*
X37874418Y-12966771D01*
X37874418Y-12966771D02*
X37969656Y-12919152D01*
X37969656Y-12919152D02*
X38112513Y-12919152D01*
X38112513Y-12919152D02*
X38207751Y-12966771D01*
X38207751Y-12966771D02*
X38255370Y-13014390D01*
X38255370Y-13014390D02*
X38302989Y-13109628D01*
X38302989Y-13109628D02*
X38302989Y-13395342D01*
X38302989Y-13395342D02*
X38255370Y-13490580D01*
X38255370Y-13490580D02*
X38207751Y-13538200D01*
X38207751Y-13538200D02*
X38112513Y-13585819D01*
X38112513Y-13585819D02*
X37969656Y-13585819D01*
X38731561Y-13585819D02*
X38731561Y-12919152D01*
X38731561Y-13014390D02*
X38779180Y-12966771D01*
X38779180Y-12966771D02*
X38874418Y-12919152D01*
X38874418Y-12919152D02*
X39017275Y-12919152D01*
X39017275Y-12919152D02*
X39112513Y-12966771D01*
X39112513Y-12966771D02*
X39160132Y-13062009D01*
X39160132Y-13062009D02*
X39160132Y-13585819D01*
X39160132Y-13062009D02*
X39207751Y-12966771D01*
X39207751Y-12966771D02*
X39302989Y-12919152D01*
X39302989Y-12919152D02*
X39445846Y-12919152D01*
X39445846Y-12919152D02*
X39541085Y-12966771D01*
X39541085Y-12966771D02*
X39588704Y-13062009D01*
X39588704Y-13062009D02*
X39588704Y-13585819D01*
X40350608Y-13966771D02*
X40302989Y-13919152D01*
X40302989Y-13919152D02*
X40207751Y-13776295D01*
X40207751Y-13776295D02*
X40160132Y-13681057D01*
X40160132Y-13681057D02*
X40112513Y-13538200D01*
X40112513Y-13538200D02*
X40064894Y-13300104D01*
X40064894Y-13300104D02*
X40064894Y-13109628D01*
X40064894Y-13109628D02*
X40112513Y-12871533D01*
X40112513Y-12871533D02*
X40160132Y-12728676D01*
X40160132Y-12728676D02*
X40207751Y-12633438D01*
X40207751Y-12633438D02*
X40302989Y-12490580D01*
X40302989Y-12490580D02*
X40350608Y-12442961D01*
X40588704Y-12585819D02*
X41160132Y-12585819D01*
X40874418Y-13585819D02*
X40874418Y-12585819D01*
X41636323Y-13585819D02*
X41541085Y-13538200D01*
X41541085Y-13538200D02*
X41493466Y-13490580D01*
X41493466Y-13490580D02*
X41445847Y-13395342D01*
X41445847Y-13395342D02*
X41445847Y-13109628D01*
X41445847Y-13109628D02*
X41493466Y-13014390D01*
X41493466Y-13014390D02*
X41541085Y-12966771D01*
X41541085Y-12966771D02*
X41636323Y-12919152D01*
X41636323Y-12919152D02*
X41779180Y-12919152D01*
X41779180Y-12919152D02*
X41874418Y-12966771D01*
X41874418Y-12966771D02*
X41922037Y-13014390D01*
X41922037Y-13014390D02*
X41969656Y-13109628D01*
X41969656Y-13109628D02*
X41969656Y-13395342D01*
X41969656Y-13395342D02*
X41922037Y-13490580D01*
X41922037Y-13490580D02*
X41874418Y-13538200D01*
X41874418Y-13538200D02*
X41779180Y-13585819D01*
X41779180Y-13585819D02*
X41636323Y-13585819D01*
X42398228Y-12919152D02*
X42398228Y-13919152D01*
X42398228Y-12966771D02*
X42493466Y-12919152D01*
X42493466Y-12919152D02*
X42683942Y-12919152D01*
X42683942Y-12919152D02*
X42779180Y-12966771D01*
X42779180Y-12966771D02*
X42826799Y-13014390D01*
X42826799Y-13014390D02*
X42874418Y-13109628D01*
X42874418Y-13109628D02*
X42874418Y-13395342D01*
X42874418Y-13395342D02*
X42826799Y-13490580D01*
X42826799Y-13490580D02*
X42779180Y-13538200D01*
X42779180Y-13538200D02*
X42683942Y-13585819D01*
X42683942Y-13585819D02*
X42493466Y-13585819D01*
X42493466Y-13585819D02*
X42398228Y-13538200D01*
X43969657Y-12919152D02*
X44207752Y-13585819D01*
X44207752Y-13585819D02*
X44445847Y-12919152D01*
X44826800Y-13585819D02*
X44826800Y-12919152D01*
X44826800Y-12585819D02*
X44779181Y-12633438D01*
X44779181Y-12633438D02*
X44826800Y-12681057D01*
X44826800Y-12681057D02*
X44874419Y-12633438D01*
X44874419Y-12633438D02*
X44826800Y-12585819D01*
X44826800Y-12585819D02*
X44826800Y-12681057D01*
X45683942Y-13538200D02*
X45588704Y-13585819D01*
X45588704Y-13585819D02*
X45398228Y-13585819D01*
X45398228Y-13585819D02*
X45302990Y-13538200D01*
X45302990Y-13538200D02*
X45255371Y-13442961D01*
X45255371Y-13442961D02*
X45255371Y-13062009D01*
X45255371Y-13062009D02*
X45302990Y-12966771D01*
X45302990Y-12966771D02*
X45398228Y-12919152D01*
X45398228Y-12919152D02*
X45588704Y-12919152D01*
X45588704Y-12919152D02*
X45683942Y-12966771D01*
X45683942Y-12966771D02*
X45731561Y-13062009D01*
X45731561Y-13062009D02*
X45731561Y-13157247D01*
X45731561Y-13157247D02*
X45255371Y-13252485D01*
X46064895Y-12919152D02*
X46255371Y-13585819D01*
X46255371Y-13585819D02*
X46445847Y-13109628D01*
X46445847Y-13109628D02*
X46636323Y-13585819D01*
X46636323Y-13585819D02*
X46826799Y-12919152D01*
X47112514Y-13966771D02*
X47160133Y-13919152D01*
X47160133Y-13919152D02*
X47255371Y-13776295D01*
X47255371Y-13776295D02*
X47302990Y-13681057D01*
X47302990Y-13681057D02*
X47350609Y-13538200D01*
X47350609Y-13538200D02*
X47398228Y-13300104D01*
X47398228Y-13300104D02*
X47398228Y-13109628D01*
X47398228Y-13109628D02*
X47350609Y-12871533D01*
X47350609Y-12871533D02*
X47302990Y-12728676D01*
X47302990Y-12728676D02*
X47255371Y-12633438D01*
X47255371Y-12633438D02*
X47160133Y-12490580D01*
X47160133Y-12490580D02*
X47112514Y-12442961D01*
X35493560Y-18015057D02*
X35541179Y-17967438D01*
X35541179Y-17967438D02*
X35636417Y-17919819D01*
X35636417Y-17919819D02*
X35874512Y-17919819D01*
X35874512Y-17919819D02*
X35969750Y-17967438D01*
X35969750Y-17967438D02*
X36017369Y-18015057D01*
X36017369Y-18015057D02*
X36064988Y-18110295D01*
X36064988Y-18110295D02*
X36064988Y-18205533D01*
X36064988Y-18205533D02*
X36017369Y-18348390D01*
X36017369Y-18348390D02*
X35445941Y-18919819D01*
X35445941Y-18919819D02*
X36064988Y-18919819D01*
X36969750Y-17919819D02*
X36493560Y-17919819D01*
X36493560Y-17919819D02*
X36445941Y-18396009D01*
X36445941Y-18396009D02*
X36493560Y-18348390D01*
X36493560Y-18348390D02*
X36588798Y-18300771D01*
X36588798Y-18300771D02*
X36826893Y-18300771D01*
X36826893Y-18300771D02*
X36922131Y-18348390D01*
X36922131Y-18348390D02*
X36969750Y-18396009D01*
X36969750Y-18396009D02*
X37017369Y-18491247D01*
X37017369Y-18491247D02*
X37017369Y-18729342D01*
X37017369Y-18729342D02*
X36969750Y-18824580D01*
X36969750Y-18824580D02*
X36922131Y-18872200D01*
X36922131Y-18872200D02*
X36826893Y-18919819D01*
X36826893Y-18919819D02*
X36588798Y-18919819D01*
X36588798Y-18919819D02*
X36493560Y-18872200D01*
X36493560Y-18872200D02*
X36445941Y-18824580D01*
X37445941Y-18538866D02*
X38207846Y-18538866D01*
X38636417Y-18015057D02*
X38684036Y-17967438D01*
X38684036Y-17967438D02*
X38779274Y-17919819D01*
X38779274Y-17919819D02*
X39017369Y-17919819D01*
X39017369Y-17919819D02*
X39112607Y-17967438D01*
X39112607Y-17967438D02*
X39160226Y-18015057D01*
X39160226Y-18015057D02*
X39207845Y-18110295D01*
X39207845Y-18110295D02*
X39207845Y-18205533D01*
X39207845Y-18205533D02*
X39160226Y-18348390D01*
X39160226Y-18348390D02*
X38588798Y-18919819D01*
X38588798Y-18919819D02*
X39207845Y-18919819D01*
X39779274Y-18348390D02*
X39684036Y-18300771D01*
X39684036Y-18300771D02*
X39636417Y-18253152D01*
X39636417Y-18253152D02*
X39588798Y-18157914D01*
X39588798Y-18157914D02*
X39588798Y-18110295D01*
X39588798Y-18110295D02*
X39636417Y-18015057D01*
X39636417Y-18015057D02*
X39684036Y-17967438D01*
X39684036Y-17967438D02*
X39779274Y-17919819D01*
X39779274Y-17919819D02*
X39969750Y-17919819D01*
X39969750Y-17919819D02*
X40064988Y-17967438D01*
X40064988Y-17967438D02*
X40112607Y-18015057D01*
X40112607Y-18015057D02*
X40160226Y-18110295D01*
X40160226Y-18110295D02*
X40160226Y-18157914D01*
X40160226Y-18157914D02*
X40112607Y-18253152D01*
X40112607Y-18253152D02*
X40064988Y-18300771D01*
X40064988Y-18300771D02*
X39969750Y-18348390D01*
X39969750Y-18348390D02*
X39779274Y-18348390D01*
X39779274Y-18348390D02*
X39684036Y-18396009D01*
X39684036Y-18396009D02*
X39636417Y-18443628D01*
X39636417Y-18443628D02*
X39588798Y-18538866D01*
X39588798Y-18538866D02*
X39588798Y-18729342D01*
X39588798Y-18729342D02*
X39636417Y-18824580D01*
X39636417Y-18824580D02*
X39684036Y-18872200D01*
X39684036Y-18872200D02*
X39779274Y-18919819D01*
X39779274Y-18919819D02*
X39969750Y-18919819D01*
X39969750Y-18919819D02*
X40064988Y-18872200D01*
X40064988Y-18872200D02*
X40112607Y-18824580D01*
X40112607Y-18824580D02*
X40160226Y-18729342D01*
X40160226Y-18729342D02*
X40160226Y-18538866D01*
X40160226Y-18538866D02*
X40112607Y-18443628D01*
X40112607Y-18443628D02*
X40064988Y-18396009D01*
X40064988Y-18396009D02*
X39969750Y-18348390D01*
X43891369Y-9791819D02*
X43415179Y-9791819D01*
X43415179Y-9791819D02*
X43367560Y-10268009D01*
X43367560Y-10268009D02*
X43415179Y-10220390D01*
X43415179Y-10220390D02*
X43510417Y-10172771D01*
X43510417Y-10172771D02*
X43748512Y-10172771D01*
X43748512Y-10172771D02*
X43843750Y-10220390D01*
X43843750Y-10220390D02*
X43891369Y-10268009D01*
X43891369Y-10268009D02*
X43938988Y-10363247D01*
X43938988Y-10363247D02*
X43938988Y-10601342D01*
X43938988Y-10601342D02*
X43891369Y-10696580D01*
X43891369Y-10696580D02*
X43843750Y-10744200D01*
X43843750Y-10744200D02*
X43748512Y-10791819D01*
X43748512Y-10791819D02*
X43510417Y-10791819D01*
X43510417Y-10791819D02*
X43415179Y-10744200D01*
X43415179Y-10744200D02*
X43367560Y-10696580D01*
X44367560Y-10410866D02*
X45129465Y-10410866D01*
X45748512Y-10220390D02*
X45653274Y-10172771D01*
X45653274Y-10172771D02*
X45605655Y-10125152D01*
X45605655Y-10125152D02*
X45558036Y-10029914D01*
X45558036Y-10029914D02*
X45558036Y-9982295D01*
X45558036Y-9982295D02*
X45605655Y-9887057D01*
X45605655Y-9887057D02*
X45653274Y-9839438D01*
X45653274Y-9839438D02*
X45748512Y-9791819D01*
X45748512Y-9791819D02*
X45938988Y-9791819D01*
X45938988Y-9791819D02*
X46034226Y-9839438D01*
X46034226Y-9839438D02*
X46081845Y-9887057D01*
X46081845Y-9887057D02*
X46129464Y-9982295D01*
X46129464Y-9982295D02*
X46129464Y-10029914D01*
X46129464Y-10029914D02*
X46081845Y-10125152D01*
X46081845Y-10125152D02*
X46034226Y-10172771D01*
X46034226Y-10172771D02*
X45938988Y-10220390D01*
X45938988Y-10220390D02*
X45748512Y-10220390D01*
X45748512Y-10220390D02*
X45653274Y-10268009D01*
X45653274Y-10268009D02*
X45605655Y-10315628D01*
X45605655Y-10315628D02*
X45558036Y-10410866D01*
X45558036Y-10410866D02*
X45558036Y-10601342D01*
X45558036Y-10601342D02*
X45605655Y-10696580D01*
X45605655Y-10696580D02*
X45653274Y-10744200D01*
X45653274Y-10744200D02*
X45748512Y-10791819D01*
X45748512Y-10791819D02*
X45938988Y-10791819D01*
X45938988Y-10791819D02*
X46034226Y-10744200D01*
X46034226Y-10744200D02*
X46081845Y-10696580D01*
X46081845Y-10696580D02*
X46129464Y-10601342D01*
X46129464Y-10601342D02*
X46129464Y-10410866D01*
X46129464Y-10410866D02*
X46081845Y-10315628D01*
X46081845Y-10315628D02*
X46034226Y-10268009D01*
X46034226Y-10268009D02*
X45938988Y-10220390D01*
M02*
