M48
; DRILL file {KiCad 8.0.3-8.0.3-0~ubuntu22.04.1} date 2024-07-27T12:22:20+0900
; FORMAT={-:-/ absolute / inch / decimal}
; #@! TF.CreationDate,2024-07-27T12:22:20+09:00
; #@! TF.GenerationSoftware,Kicad,Pcbnew,8.0.3-8.0.3-0~ubuntu22.04.1
; #@! TF.FileFunction,Plated,1,4,PTH
FMAT,2
INCH
; #@! TA.AperFunction,Plated,PTH,ViaDrill
T1C0.0098
; #@! TA.AperFunction,Plated,PTH,ViaDrill
T2C0.0138
; #@! TA.AperFunction,Plated,PTH,ViaDrill
T3C0.0157
; #@! TA.AperFunction,Plated,PTH,ComponentDrill
T4C0.0394
%
G90
G05
T1
X0.15Y-0.15
X0.15Y-0.18
X0.15Y-0.21
X0.15Y-0.288
X0.15Y-0.32
X0.15Y-0.58
X0.15Y-0.61
X0.15Y-0.688
X0.15Y-0.72
X0.151Y-0.748
X0.1535Y-0.5515
X0.1545Y-0.3495
X0.18Y-0.43
X0.18Y-0.47
X0.2004Y-0.0996
X0.202Y-0.4
X0.203Y-0.498
X0.205Y-0.808
X0.2059Y-1.3386
X0.2067Y-1.2016
X0.21Y-0.04
X0.21Y-1.72
X0.212Y-1.2402
X0.215Y-1.156
X0.22Y-1.37
X0.222Y-1.1811
X0.2284Y-1.0884
X0.2284Y-1.12
X0.23Y-0.1
X0.23Y-0.4
X0.23Y-0.5
X0.23Y-0.8
X0.255Y-1.465
X0.2566Y-1.0334
X0.259Y-0.4
X0.259Y-0.5003
X0.2593Y-0.8
X0.26Y-1.72
X0.265Y-0.1
X0.28Y-0.04
X0.28Y-0.43
X0.2834Y-1.0066
X0.285Y-1.495
X0.285Y-1.585
X0.305Y-1.56
X0.3056Y-0.836
X0.31Y-0.8847
X0.32Y-0.04
X0.32Y-0.47
X0.32Y-1.535
X0.337Y-0.5
X0.34Y-0.1
X0.3407Y-0.4
X0.342Y-0.8
X0.35Y-0.84
X0.36Y-1.36
X0.36Y-1.4
X0.37Y-0.1
X0.37Y-0.4
X0.37Y-0.5
X0.37Y-0.8
X0.39Y-0.04
X0.39Y-1.68
X0.3975Y-0.3975
X0.3985Y-0.5035
X0.399Y-0.8
X0.405Y-0.1
X0.41Y-1.6
X0.42Y-0.43
X0.42Y-0.47
X0.446Y-0.151
X0.4475Y-0.7475
X0.45Y-0.18
X0.45Y-0.21
X0.45Y-0.289
X0.45Y-0.32
X0.45Y-0.349
X0.45Y-0.484
X0.45Y-0.546
X0.45Y-0.58
X0.45Y-0.614
X0.45Y-0.69
X0.45Y-0.72
X0.4521Y-0.514
X0.46Y-1.79
X0.46Y-1.9435
X0.47Y-1.64
X0.49Y-1.68
X0.4902Y-0.918
X0.519Y-1.587
X0.521Y-1.56
X0.537Y-1.539
X0.5492Y-0.967
X0.55Y-0.18
X0.55Y-0.288
X0.55Y-0.32
X0.55Y-0.52
X0.55Y-0.58
X0.55Y-0.612
X0.55Y-0.688
X0.55Y-0.72
X0.551Y-0.209
X0.5517Y-1.5173
X0.552Y-0.153
X0.553Y-0.348
X0.5535Y-0.5515
X0.5535Y-0.7485
X0.5689Y-0.947
X0.57Y-0.5
X0.58Y-0.43
X0.58Y-0.47
X0.581Y-1.613
X0.5886Y-0.928
X0.5998Y-0.099
X0.6Y-1.5919
X0.6015Y-0.3965
X0.603Y-0.8
X0.605Y-0.494
X0.6071Y-0.9052
X0.63Y-0.1
X0.63Y-0.4
X0.63Y-0.5
X0.63Y-0.8
X0.656Y-1.17
X0.656Y-1.2078
X0.659Y-0.399
X0.659Y-0.496
X0.659Y-0.8
X0.662Y-0.1
X0.68Y-0.04
X0.68Y-0.43
X0.7166Y-1.0066
X0.7166Y-1.4934
X0.72Y-0.04
X0.72Y-0.47
X0.72Y-0.83
X0.738Y-0.1
X0.738Y-0.8
X0.739Y-0.397
X0.741Y-0.5
X0.742Y-0.964
X0.7434Y-1.0334
X0.7434Y-1.4666
X0.76Y-0.83
X0.77Y-0.1
X0.77Y-0.4
X0.77Y-0.5
X0.77Y-0.8
X0.798Y-0.499
X0.798Y-0.806
X0.799Y-0.099
X0.8Y-0.395
X0.82Y-0.43
X0.82Y-0.47
X0.8445Y-0.5495
X0.8465Y-0.3485
X0.847Y-0.152
X0.848Y-0.747
X0.85Y-0.18
X0.85Y-0.21
X0.85Y-0.288
X0.85Y-0.32
X0.85Y-0.58
X0.85Y-0.61
X0.85Y-0.688
X0.85Y-0.72
X0.875Y-1.7101
X0.95Y-1.7101
T2
X0.175Y-0.85
X0.23Y-0.18
X0.23Y-0.32
X0.23Y-0.58
X0.23Y-0.72
X0.37Y-0.18
X0.37Y-0.32
X0.37Y-0.58
X0.37Y-0.72
X0.63Y-0.18
X0.63Y-0.32
X0.63Y-0.58
X0.63Y-0.72
X0.77Y-0.18
X0.77Y-0.32
X0.77Y-0.58
X0.77Y-0.72
T3
X0.05Y-1.65
X0.3Y-0.25
X0.3Y-0.65
X0.35Y-1.1
X0.5Y-0.1
X0.566Y-1.764
X0.566Y-1.804
X0.566Y-1.844
X0.604Y-1.764
X0.604Y-1.804
X0.604Y-1.844
X0.65Y-1.1
X0.65Y-1.4
X0.688Y-0.978
X0.7Y-0.25
X0.7Y-0.65
X0.706Y-1.8015
X0.79Y-0.912
X0.825Y-1.75
X0.825Y-1.8
X0.825Y-1.85
T4
X0.05Y-0.15
X0.05Y-0.25
X0.05Y-0.35
X0.05Y-0.45
X0.05Y-0.55
X0.05Y-0.65
X0.05Y-0.75
X0.05Y-0.85
X0.05Y-0.95
X0.05Y-1.05
X0.05Y-1.15
X0.05Y-1.25
X0.05Y-1.35
X0.05Y-1.45
X0.05Y-1.55
X0.95Y-0.15
X0.95Y-0.25
X0.95Y-0.35
X0.95Y-0.45
X0.95Y-0.55
X0.95Y-0.65
X0.95Y-0.75
X0.95Y-0.85
X0.95Y-0.95
X0.95Y-1.05
X0.95Y-1.15
X0.95Y-1.25
X0.95Y-1.35
X0.95Y-1.45
X0.95Y-1.55
M30
